<svg width="566" height="358" fill="none" xmlns="http://www.w3.org/2000/svg">
  <path d="M374.289 219.708a2 2 0 00.73-2.733l-9.012-15.582a2 2 0 10-3.462 2.003l8.01 13.85-13.851 8.01a2 2 0 002.003 3.463l15.582-9.011zm-146.245-38.467l144.727 38.668 1.033-3.865-144.727-38.667-1.033 3.864z" fill="#C0C3C7"/>
  <path d="M334.383 71.21a2 2 0 012.002 2l.013 18a2 2 0 01-4 .002l-.012-16-16 .012a1.999 1.999 0 11-.003-4l18-.013zM227.119 177.802l105.85-106.004 2.831 2.827-105.851 106.003-2.83-2.826z" fill="#C0C3C7"/>
  <path d="M374.204 138.605a2 2 0 01.734 2.731l-8.989 15.595a2 2 0 01-3.466-1.997l7.99-13.862-13.862-7.99a2.001 2.001 0 011.998-3.466l15.595 8.989zm-146.189 38.677l144.671-38.876 1.038 3.863-144.671 38.876-1.038-3.863z" fill="#C0C3C7"/>
  <path d="M123.16 286.156a2 2 0 01-2.002-1.998l-.013-18a2 2 0 014-.003l.012 16 16-.012a2 2 0 11.003 4l-18 .013zm107.264-106.59L124.574 285.57l-2.831-2.827L227.594 176.74l2.83 2.826z" fill="#C0C3C7"/>
  <path d="M230.622 329.555a2 2 0 01-2.828.002l-12.738-12.719a2 2 0 012.827-2.83l11.322 11.305 11.305-11.322a2.002 2.002 0 012.829-.002c.781.781.782 2.047.002 2.829l-12.719 12.737zm.477-151.218l.108 149.803-4 .003-.108-149.803 4-.003z" fill="#C0C3C7"/>
  <path d="M337.573 285.061a2 2 0 01-1.999 2.001l-18 .013a2 2 0 11-.003-4l16-.011-.011-16a2 2 0 114-.003l.013 18zm-106.59-107.264l106.003 105.85-2.827 2.83-106.003-105.85 2.827-2.83z" fill="#C0C3C7"/>
  <path d="M82.675 219.874a2 2 0 01-.734-2.731l8.989-15.595a2 2 0 113.465 1.997l-7.99 13.862 13.863 7.99a2.001 2.001 0 01-1.998 3.466l-15.595-8.989zm146.189-38.678L84.193 220.073l-1.038-3.863 144.671-38.877 1.038 3.863z" fill="#C0C3C7"/>
  <path d="M121.402 73.131a2 2 0 011.999-2.001l18-.013a2 2 0 01.002 4l-16 .011.012 16a2 2 0 01-4 .003l-.013-18zm106.59 107.264L121.989 74.545l2.826-2.83 106.003 105.85-2.826 2.83z" fill="#C0C3C7"/>
  <path d="M82.785 141.357a2 2 0 01.73-2.732l15.582-9.012a2 2 0 012.003 3.463l-13.851 8.01 8.01 13.851a2 2 0 11-3.463 2.002l-9.01-15.582zm145.942 39.599L84 142.288l1.033-3.864 144.726 38.667-1.032 3.865z" fill="#C0C3C7"/>
  <path d="M227.977 27.738a2 2 0 012.828-.002l12.737 12.719a2 2 0 11-2.826 2.83L229.394 31.98 218.088 43.3a2 2 0 11-2.83-2.826l12.719-12.737zm-.477 151.218l-.108-149.803 4-.003.108 149.803-4 .003z" fill="#C0C3C7"/>
  <path d="M182.036 9.88h-4.765v3.191h3.514v.8h-3.514v4.13h-.936V9.078h5.701v.8zm8.329 2.645c-.337-.169-.738-.253-1.203-.253-.383 0-.725.082-1.025.246a2.45 2.45 0 00-.766.65c-.21.264-.372.569-.485.915-.11.342-.165.695-.165 1.06V17.2h1.443v.8h-3.821v-.8h1.442V12.43h-1.442v-.8h2.378v1.6c.429-1.167 1.242-1.75 2.441-1.75.323 0 .604.02.841.061.241.041.465.114.67.219l-.308.766zm8.855 2.31c0 .497-.079.948-.239 1.354a2.89 2.89 0 01-.677 1.046 3.138 3.138 0 01-1.052.676 3.678 3.678 0 01-1.374.246c-.497 0-.951-.082-1.361-.246a3.22 3.22 0 01-1.059-.676 3.012 3.012 0 01-.677-1.046 3.765 3.765 0 01-.233-1.354c0-.483.078-.932.233-1.347.159-.419.385-.774.677-1.066a3.113 3.113 0 011.059-.69c.41-.169.864-.253 1.361-.253.505 0 .963.084 1.374.253.41.164.761.394 1.052.69.297.292.522.647.677 1.066.16.415.239.864.239 1.347zm-.936 0c0-.364-.055-.7-.164-1.005a2.22 2.22 0 00-1.238-1.36 2.438 2.438 0 00-1.004-.198 2.49 2.49 0 00-1.012.198 2.165 2.165 0 00-.752.547 2.459 2.459 0 00-.472.813c-.105.306-.157.64-.157 1.005 0 .365.052.702.157 1.012.11.305.267.57.472.793.205.223.456.399.752.526.301.128.638.192 1.012.192.373 0 .708-.064 1.004-.192.301-.127.556-.303.766-.526.21-.223.367-.488.472-.793a3.03 3.03 0 00.164-1.012zm8.78 3.165h-.943v-3.93c0-.57-.124-1.012-.37-1.327-.246-.314-.644-.471-1.196-.471-.346 0-.661.08-.943.239-.278.16-.515.374-.711.643-.196.264-.347.57-.451.916-.101.341-.151.7-.151 1.073V18h-.936v-6.37h.936v1.599c.451-1.167 1.256-1.75 2.413-1.75 1.568 0 2.352.863 2.352 2.59V18zm8.746-2.03c-.073.67-.337 1.203-.793 1.6-.451.392-1.016.587-1.696.587-.373 0-.715-.061-1.025-.184a2.312 2.312 0 01-.793-.513 2.323 2.323 0 01-.513-.786 2.82 2.82 0 01-.177-1.012V12.43h-1.443v-.8h1.443V9.08h.936v2.55h2.714v.8h-2.714v3.233c0 .233.037.451.11.657a1.8 1.8 0 00.314.54c.137.155.301.278.492.369.192.086.41.13.656.13.465 0 .853-.144 1.163-.431.314-.292.494-.668.54-1.128l.786.171zm8.274-.84h-6.371v-.8h6.371v.8zm2.908.013c.068.674.314 1.212.738 1.613s.976.602 1.655.602c.478 0 .904-.098 1.278-.294.374-.196.654-.44.841-.732l.656.451c-.319.447-.7.789-1.142 1.026-.442.232-.986.348-1.633.348-.493 0-.944-.082-1.354-.246a3.237 3.237 0 01-1.066-.683 3.12 3.12 0 01-.691-1.053 3.58 3.58 0 01-.246-1.354c0-.482.073-.927.219-1.332.15-.41.364-.764.642-1.06.283-.3.625-.533 1.026-.697.401-.169.85-.253 1.347-.253.542 0 1.016.09 1.421.273.406.182.743.435 1.012.759.274.319.474.702.602 1.148.132.447.198.941.198 1.484h-5.503zm4.512-.8c-.105-.697-.358-1.217-.759-1.559-.401-.341-.896-.512-1.483-.512-.301 0-.579.05-.834.15a2.023 2.023 0 00-.677.417c-.196.182-.36.403-.492.663a2.414 2.414 0 00-.253.841h4.498zm8.93 3.657h-.943v-3.93c0-.57-.123-1.012-.369-1.327-.246-.314-.645-.471-1.197-.471-.346 0-.66.08-.943.239-.278.16-.515.374-.711.643-.196.264-.346.57-.451.916-.1.341-.15.7-.15 1.073V18h-.937v-6.37h.937v1.599c.451-1.167 1.255-1.75 2.413-1.75 1.567 0 2.351.863 2.351 2.59V18zm8.343 0h-.944v-.588a2.926 2.926 0 01-.888.554 2.628 2.628 0 01-.985.191c-.506 0-.959-.082-1.36-.246a2.91 2.91 0 01-1.019-.683 3.129 3.129 0 01-.635-1.06 3.99 3.99 0 01-.219-1.346c0-.483.073-.93.219-1.34.15-.415.362-.768.635-1.06a2.864 2.864 0 011.019-.69 3.478 3.478 0 011.36-.253c.338 0 .666.061.985.184.323.119.62.299.888.54V9.88h-1.271v-.8h2.215V18zm-.944-4.887a2.464 2.464 0 00-.881-.643 2.57 2.57 0 00-1.005-.198c-.374 0-.704.066-.992.198a2.044 2.044 0 00-.71.54 2.362 2.362 0 00-.438.807c-.096.305-.144.64-.144 1.005 0 .364.048.701.144 1.011.1.306.246.572.438.8.191.228.428.408.71.54.288.132.618.198.992.198.72 0 1.349-.284 1.886-.854v-3.404zM265.462 18h-5.701V9.08h5.701v.8h-4.765v3.191h3.514v.8h-3.514v3.33h4.765v.8zm8.342 0h-.943v-3.93c0-.57-.123-1.012-.369-1.327-.246-.314-.645-.471-1.196-.471-.347 0-.661.08-.944.239-.278.16-.515.374-.711.643-.196.264-.346.57-.451.916-.1.341-.15.7-.15 1.073V18h-.937v-6.37h.937v1.599c.451-1.167 1.255-1.75 2.413-1.75 1.568 0 2.351.863 2.351 2.59V18zm8.343-.068c0 .437-.075.827-.226 1.169-.15.342-.362.631-.635.868a2.738 2.738 0 01-.957.54 3.692 3.692 0 01-1.224.191c-.633 0-1.173-.118-1.62-.355a3.394 3.394 0 01-1.148-1.025l.656-.506c.196.296.478.544.847.745.37.2.791.3 1.265.3.647 0 1.158-.163 1.531-.492.379-.323.568-.793.568-1.408v-.683c-.556.492-1.19.738-1.901.738-.998 0-1.782-.285-2.351-.855-.57-.57-.855-1.348-.855-2.337 0-.483.073-.928.219-1.333.15-.41.362-.764.636-1.06.278-.3.615-.533 1.011-.697a3.398 3.398 0 011.34-.253 2.8 2.8 0 011.005.184c.328.119.627.299.896.54v-.574h.943v6.303zm-.943-4.82a2.455 2.455 0 00-.889-.642 2.616 2.616 0 00-1.012-.198c-.373 0-.704.066-.991.198a1.985 1.985 0 00-.704.54c-.187.228-.33.499-.431.813-.095.31-.143.643-.143.998 0 .73.189 1.31.567 1.744.378.433.946.65 1.702.65.356 0 .693-.067 1.012-.2a2.5 2.5 0 00.889-.655v-3.247zM288.275 18h-1.272V16.73h1.272V18zM307.357 54.45c0 .852-.275 1.49-.827 1.914-.551.424-1.335.636-2.351.636h-2.844v-8.92h2.686c.374 0 .741.031 1.101.095.36.059.681.173.964.342.287.168.519.403.697.704.178.296.267.686.267 1.169 0 .925-.463 1.556-1.388 1.893 1.13.347 1.695 1.069 1.695 2.167zm-1.244-4.06c0-.315-.066-.572-.198-.773a1.317 1.317 0 00-.506-.458 2.065 2.065 0 00-.677-.219 4.325 4.325 0 00-.711-.061h-1.75v3.028h1.75c.256 0 .506-.018.752-.054.247-.041.468-.117.664-.226.195-.114.357-.269.485-.465.127-.196.191-.453.191-.772zm.308 4.06c0-.615-.201-1.062-.602-1.34-.396-.282-.943-.423-1.64-.423h-1.908V56.2h1.908c.697 0 1.244-.146 1.64-.437.401-.296.602-.734.602-1.313zm3.257-3.821h.936v3.937c0 .57.123 1.012.369 1.327.251.31.652.464 1.203.464.347 0 .659-.08.937-.239.278-.16.515-.371.711-.636.196-.268.344-.574.444-.916.105-.346.157-.706.157-1.08V50.63h.944V57h-.944v-1.593c-.446 1.167-1.248 1.75-2.406 1.75-1.568 0-2.351-.863-2.351-2.59v-3.938zm14.207 4.607c0 .374-.093.684-.28.93a2 2 0 01-.725.588 3.399 3.399 0 01-.984.308c-.36.063-.713.095-1.059.095a6.112 6.112 0 01-1.73-.253 5.603 5.603 0 01-1.49-.663l.417-.806c.469.296.932.524 1.387.683.456.16.928.24 1.416.24 1.408 0 2.112-.365 2.112-1.094a.557.557 0 00-.178-.431 1.21 1.21 0 00-.465-.273 3.56 3.56 0 00-.677-.171c-.25-.041-.514-.08-.792-.117-.356-.05-.709-.109-1.06-.177a4.12 4.12 0 01-.964-.308 1.907 1.907 0 01-.697-.547c-.173-.228-.26-.528-.26-.902 0-.32.08-.595.239-.827.164-.233.381-.426.65-.581.273-.155.592-.27.957-.342.364-.073.743-.11 1.135-.11.56 0 1.061.067 1.503.199a4.18 4.18 0 011.197.553l-.376.732a3.535 3.535 0 00-1.108-.533 4.486 4.486 0 00-1.873-.103 2.58 2.58 0 00-.663.178 1.576 1.576 0 00-.519.328.672.672 0 00-.205.506c0 .178.057.321.17.43.119.105.276.194.472.267.196.069.419.123.67.164.255.041.522.08.8.116.346.05.695.11 1.046.178.355.069.677.169.964.3.291.133.526.313.704.541.177.228.266.529.266.902zm5.964-5.879h-1.271V48.08h1.271v1.278zM331.121 57h-3.822v-.8h1.443V51.43h-1.443v-.8h2.386V56.2h1.436v.8zm9.285 0h-.943v-3.93c0-.57-.123-1.012-.369-1.327-.246-.314-.645-.471-1.196-.471-.347 0-.661.08-.944.239-.278.16-.515.373-.711.642-.196.265-.346.57-.451.916-.1.342-.15.7-.15 1.074V57h-.937v-6.371h.937v1.6c.451-1.167 1.255-1.75 2.413-1.75 1.568 0 2.351.863 2.351 2.59V57zm3.243-2.857c.069.674.315 1.212.739 1.613.424.4.975.601 1.654.601.479 0 .905-.098 1.278-.294.374-.196.654-.44.841-.731l.656.451a3.337 3.337 0 01-1.141 1.026c-.442.232-.987.348-1.634.348-.492 0-.943-.082-1.354-.246a3.244 3.244 0 01-1.066-.684 3.131 3.131 0 01-.69-1.052 3.58 3.58 0 01-.246-1.354c0-.483.072-.927.218-1.333.151-.41.365-.763.643-1.06a2.88 2.88 0 011.025-.697c.401-.168.85-.253 1.347-.253.542 0 1.016.092 1.422.274.405.182.743.435 1.012.759.273.319.473.702.601 1.148.132.447.198.941.198 1.484h-5.503zm4.512-.8c-.105-.698-.358-1.217-.759-1.559-.401-.342-.895-.512-1.483-.512-.301 0-.579.05-.834.15a2.033 2.033 0 00-.677.417c-.196.182-.36.403-.492.663a2.456 2.456 0 00-.253.84h4.498zm9.095 1.893c0 .374-.094.684-.281.93a1.997 1.997 0 01-.724.588c-.292.146-.62.248-.985.308-.36.063-.713.095-1.059.095a6.118 6.118 0 01-1.73-.253 5.603 5.603 0 01-1.49-.663l.417-.806c.47.296.932.524 1.388.683.456.16.927.24 1.415.24 1.408 0 2.112-.365 2.112-1.094a.557.557 0 00-.178-.431 1.205 1.205 0 00-.464-.273 3.58 3.58 0 00-.677-.171c-.251-.041-.515-.08-.793-.117-.356-.05-.709-.109-1.06-.177a4.12 4.12 0 01-.964-.308 1.907 1.907 0 01-.697-.547c-.173-.228-.26-.528-.26-.902 0-.32.08-.595.24-.827.164-.233.38-.426.649-.581.273-.155.592-.27.957-.342a5.78 5.78 0 011.135-.11c.56 0 1.062.067 1.504.199a4.16 4.16 0 011.196.553l-.376.732a3.54 3.54 0 00-1.107-.533 4.498 4.498 0 00-1.873-.103 2.58 2.58 0 00-.663.178 1.57 1.57 0 00-.52.328.672.672 0 00-.205.506.57.57 0 00.171.43c.118.105.276.194.471.267.196.069.42.123.67.164.256.041.522.08.8.116.347.05.695.11 1.046.178.356.069.677.169.964.3.292.133.526.313.704.541.178.228.267.529.267.902zm8.342 0c0 .374-.093.684-.28.93a2 2 0 01-.725.588 3.399 3.399 0 01-.984.308c-.36.063-.713.095-1.06.095a6.11 6.11 0 01-1.729-.253 5.603 5.603 0 01-1.49-.663l.417-.806c.469.296.932.524 1.387.683.456.16.928.24 1.415.24 1.409 0 2.113-.365 2.113-1.094a.56.56 0 00-.178-.431 1.21 1.21 0 00-.465-.273 3.56 3.56 0 00-.677-.171c-.25-.041-.515-.08-.793-.117-.355-.05-.708-.109-1.059-.177a4.12 4.12 0 01-.964-.308 1.898 1.898 0 01-.697-.547c-.173-.228-.26-.528-.26-.902 0-.32.08-.595.239-.827.164-.233.381-.426.65-.581.273-.155.592-.27.957-.342.364-.073.742-.11 1.134-.11.561 0 1.062.067 1.504.199a4.18 4.18 0 011.197.553l-.376.732a3.535 3.535 0 00-1.108-.533 4.488 4.488 0 00-1.873-.103 2.58 2.58 0 00-.663.178 1.576 1.576 0 00-.519.328.673.673 0 00-.206.506.57.57 0 00.171.43c.119.105.276.194.472.267.196.069.419.123.67.164.255.041.522.08.8.116.346.05.695.11 1.046.178.355.069.676.169.964.3.291.133.526.313.704.541.177.228.266.529.266.902zm16.631-.56c0 .373-.078.713-.233 1.018-.155.301-.362.56-.622.78-.26.218-.558.387-.895.506a3.155 3.155 0 01-1.053.177c-.501 0-.962-.093-1.381-.28a2.312 2.312 0 01-.998-.827V57h-.793v-2.714h.793c0 .306.071.586.212.841.141.25.321.467.54.65.219.182.469.325.752.43.287.1.579.15.875.15.264 0 .508-.036.731-.109a1.91 1.91 0 00.588-.321 1.51 1.51 0 00.397-.513c.1-.2.15-.428.15-.684 0-.287-.064-.533-.191-.738a1.686 1.686 0 00-.506-.526 3.284 3.284 0 00-.711-.37 31.631 31.631 0 00-.807-.307 42.101 42.101 0 01-.97-.355 3.714 3.714 0 01-.869-.479 2.343 2.343 0 01-.622-.697c-.159-.278-.239-.622-.239-1.032 0-.365.078-.689.233-.971.155-.287.357-.529.608-.725.251-.196.542-.344.875-.444a3.391 3.391 0 011.025-.157c.433 0 .832.089 1.197.266.369.178.656.45.861.814v-.93h.827v2.55h-.827c0-.269-.057-.52-.171-.752a1.744 1.744 0 00-.451-.602c-.191-.168-.41-.3-.656-.396-.246-.1-.506-.15-.78-.15-.241 0-.471.027-.69.081-.219.055-.41.144-.574.267a1.315 1.315 0 00-.397.465c-.095.191-.143.42-.143.684 0 .232.057.43.171.594.118.164.275.31.471.438.196.123.422.237.677.342l.793.307c.337.119.672.25 1.005.397.333.145.631.321.895.526.265.205.481.458.65.759.168.296.253.658.253 1.087zm3.133-.533c.069.674.315 1.212.739 1.613.423.4.975.601 1.654.601a2.71 2.71 0 001.278-.294c.374-.196.654-.44.841-.731l.656.451a3.337 3.337 0 01-1.141 1.026c-.442.232-.987.348-1.634.348-.492 0-.943-.082-1.354-.246a3.244 3.244 0 01-1.066-.684 3.131 3.131 0 01-.69-1.052 3.561 3.561 0 01-.247-1.354c0-.483.073-.927.219-1.333.151-.41.365-.763.643-1.06a2.88 2.88 0 011.025-.697c.401-.168.85-.253 1.347-.253.542 0 1.016.092 1.422.274.405.182.743.435 1.011.759.274.319.474.702.602 1.148.132.447.198.941.198 1.484h-5.503zm4.512-.8c-.105-.698-.358-1.217-.759-1.559-.401-.342-.895-.512-1.483-.512-.301 0-.579.05-.834.15a2.033 2.033 0 00-.677.417c-.196.182-.36.403-.492.663a2.435 2.435 0 00-.253.84h4.498zm8.93 3.657h-.943v-3.93c0-.57-.123-1.012-.369-1.327-.246-.314-.645-.471-1.196-.471-.347 0-.661.08-.944.239-.278.16-.515.373-.711.642-.196.265-.346.57-.451.916-.1.342-.15.7-.15 1.074V57h-.937v-6.371h.937v1.6c.451-1.167 1.255-1.75 2.413-1.75 1.568 0 2.351.863 2.351 2.59V57zm8.507-1.764c0 .374-.093.684-.28.93a2.008 2.008 0 01-.725.588c-.291.146-.62.248-.984.308-.36.063-.713.095-1.06.095a6.11 6.11 0 01-1.729-.253 5.603 5.603 0 01-1.49-.663l.417-.806c.469.296.932.524 1.387.683.456.16.928.24 1.415.24 1.409 0 2.113-.365 2.113-1.094a.56.56 0 00-.178-.431 1.21 1.21 0 00-.465-.273 3.58 3.58 0 00-.677-.171c-.25-.041-.515-.08-.793-.117-.355-.05-.708-.109-1.059-.177a4.12 4.12 0 01-.964-.308 1.898 1.898 0 01-.697-.547c-.174-.228-.26-.528-.26-.902 0-.32.08-.595.239-.827.164-.233.381-.426.65-.581.273-.155.592-.27.957-.342.364-.073.742-.11 1.134-.11.561 0 1.062.067 1.504.199a4.18 4.18 0 011.197.553l-.376.732a3.535 3.535 0 00-1.108-.533 4.493 4.493 0 00-1.873-.103 2.58 2.58 0 00-.663.178 1.591 1.591 0 00-.52.328.676.676 0 00-.205.506.57.57 0 00.171.43c.119.105.276.194.472.267.196.069.419.123.67.164.255.041.522.08.8.116.346.05.695.11 1.046.178.355.069.676.169.963.3.292.133.527.313.705.541.177.228.266.529.266.902zm3.079-1.093c.068.674.314 1.212.738 1.613.424.4.976.601 1.655.601.478 0 .904-.098 1.278-.294.374-.196.654-.44.841-.731l.656.451a3.34 3.34 0 01-1.142 1.026c-.442.232-.986.348-1.633.348-.493 0-.944-.082-1.354-.246a3.234 3.234 0 01-1.066-.684 3.119 3.119 0 01-.691-1.052 3.58 3.58 0 01-.246-1.354c0-.483.073-.927.219-1.333.15-.41.365-.763.642-1.06.283-.3.625-.532 1.026-.697.401-.168.85-.253 1.347-.253.542 0 1.016.092 1.421.274.406.182.743.435 1.012.759.274.319.474.702.602 1.148.132.447.198.941.198 1.484h-5.503zm4.512-.8c-.105-.698-.358-1.217-.759-1.559-.401-.342-.896-.512-1.483-.512-.301 0-.579.05-.834.15a2.023 2.023 0 00-.677.417c-.196.182-.36.403-.492.663a2.413 2.413 0 00-.253.84h4.498zM12.453 234h-1.19l-2.604-3.821H7.271V234h-.936v-8.921h2.94c.98 0 1.738.215 2.276.643.537.424.806 1.059.806 1.907 0 .374-.066.711-.198 1.012a2.286 2.286 0 01-.54.759 2.67 2.67 0 01-.82.506 3.393 3.393 0 01-1.032.232L12.453 234zm-1.066-6.371c0-.606-.19-1.048-.568-1.326-.373-.283-.888-.424-1.545-.424H7.271v3.5h2.003c.657 0 1.172-.137 1.545-.41.379-.278.568-.725.568-1.34zm3.892 3.514c.069.674.315 1.212.738 1.613.424.401.976.602 1.655.602a2.71 2.71 0 001.278-.294c.374-.196.654-.44.84-.732l.657.451c-.319.447-.7.789-1.142 1.026-.442.232-.986.348-1.633.348-.492 0-.944-.082-1.354-.246a3.25 3.25 0 01-1.066-.683 3.125 3.125 0 01-.69-1.053 3.582 3.582 0 01-.247-1.353c0-.484.073-.928.219-1.333.15-.411.365-.764.643-1.06a2.88 2.88 0 011.025-.697c.401-.169.85-.253 1.347-.253.542 0 1.016.091 1.422.273.405.182.742.435 1.011.759.274.319.474.702.602 1.148.132.447.198.942.198 1.484h-5.503zm4.512-.8c-.105-.697-.358-1.217-.759-1.559-.401-.341-.895-.512-1.483-.512-.301 0-.58.05-.834.15a2.04 2.04 0 00-.677.417c-.196.182-.36.403-.492.663a2.441 2.441 0 00-.253.841h4.498zm9.094 1.894c0 .373-.093.683-.28.929a2.008 2.008 0 01-.724.588 3.4 3.4 0 01-.985.308 6.044 6.044 0 01-2.789-.157 5.6 5.6 0 01-1.49-.664l.417-.806c.47.296.932.524 1.388.683.455.16.927.24 1.415.24 1.408 0 2.112-.365 2.112-1.094a.56.56 0 00-.178-.431 1.203 1.203 0 00-.465-.273 3.563 3.563 0 00-.677-.171c-.25-.041-.515-.08-.793-.116-.355-.05-.708-.11-1.059-.178a4.087 4.087 0 01-.964-.308 1.897 1.897 0 01-.697-.547c-.173-.227-.26-.528-.26-.902 0-.319.08-.595.24-.827.163-.232.38-.426.649-.581.273-.155.592-.269.957-.342a5.766 5.766 0 011.134-.109c.561 0 1.062.066 1.504.198.442.128.841.312 1.197.554l-.376.731a3.527 3.527 0 00-1.108-.533 4.485 4.485 0 00-1.873-.103 2.61 2.61 0 00-.663.178 1.59 1.59 0 00-.52.328.673.673 0 00-.204.506.57.57 0 00.17.431c.119.105.276.193.472.266.196.069.42.123.67.164.255.041.522.08.8.117.346.05.695.109 1.046.177.355.069.677.169.964.301.291.132.526.312.704.54.178.228.266.529.266.903zm3.08-1.094c.068.674.314 1.212.738 1.613.423.401.975.602 1.654.602.478 0 .904-.098 1.278-.294.374-.196.654-.44.841-.732l.656.451c-.319.447-.7.789-1.141 1.026-.442.232-.987.348-1.634.348-.492 0-.944-.082-1.354-.246a3.253 3.253 0 01-1.066-.683 3.125 3.125 0 01-.69-1.053 3.58 3.58 0 01-.247-1.353c0-.484.073-.928.22-1.333.15-.411.364-.764.642-1.06a2.882 2.882 0 011.025-.697c.401-.169.85-.253 1.347-.253.542 0 1.016.091 1.422.273.405.182.742.435 1.011.759.274.319.474.702.602 1.148.132.447.198.942.198 1.484h-5.503zm4.511-.8c-.105-.697-.358-1.217-.759-1.559-.4-.341-.895-.512-1.483-.512-.301 0-.579.05-.834.15a2.04 2.04 0 00-.677.417c-.196.182-.36.403-.492.663a2.444 2.444 0 00-.253.841h4.498zm2.88 1.935c0-.401.1-.736.301-1.005.2-.274.463-.488.787-.643a4.079 4.079 0 011.12-.342 7.598 7.598 0 011.293-.109 12.149 12.149 0 01.834.027c.123.009.246.021.369.034l.403.048v-.458c0-.31-.068-.565-.205-.765a1.47 1.47 0 00-.492-.472 1.976 1.976 0 00-.615-.246 2.47 2.47 0 00-.547-.075c-.474 0-.912.064-1.313.191a5.04 5.04 0 00-1.12.513l-.425-.704a5.671 5.671 0 011.285-.568 5.235 5.235 0 011.573-.225c.346 0 .686.045 1.018.136.337.087.638.224.903.411.269.182.483.423.642.724.16.301.24.661.24 1.08V234h-.944v-1.066a3.27 3.27 0 01-1.21.923 4.007 4.007 0 01-.684.218 2.768 2.768 0 01-.649.082c-.843 0-1.481-.161-1.914-.485-.433-.323-.65-.788-.65-1.394zm2.564 1.08c.392 0 .743-.057 1.053-.171.314-.119.58-.265.8-.438.218-.173.387-.357.505-.553.124-.196.185-.374.185-.534v-.601a6.546 6.546 0 00-.882-.075c-.278-.005-.52-.007-.724-.007-.338 0-.663.023-.978.068-.31.046-.581.121-.813.226-.233.1-.42.232-.56.396a.9.9 0 00-.213.609c0 .268.13.517.39.745.264.223.677.335 1.237.335zm11.815-4.833c-.337-.169-.738-.253-1.203-.253-.383 0-.724.082-1.025.246-.3.164-.556.38-.766.649-.21.265-.371.57-.485.916-.11.342-.164.695-.164 1.06v2.057h1.442v.8h-3.821v-.8h1.442v-4.771h-1.442v-.8h2.379v1.6c.428-1.167 1.242-1.75 2.44-1.75.324 0 .604.02.841.061.242.041.465.114.67.219l-.308.766zm8.452 4.258c-.269.42-.638.755-1.107 1.005-.465.246-1.019.369-1.661.369-.497 0-.953-.082-1.367-.246a3.159 3.159 0 01-1.067-.683 3.177 3.177 0 01-.683-1.053 3.58 3.58 0 01-.246-1.353c0-.484.075-.93.225-1.34.15-.415.365-.768.643-1.06a2.862 2.862 0 011.018-.69 3.468 3.468 0 011.347-.253c.196 0 .396.023.601.068.206.046.4.116.581.212.183.091.347.203.493.335.145.128.255.28.328.458v-.923h.84v2.55h-.84c0-.283-.053-.54-.157-.773-.1-.232-.24-.432-.417-.601a1.833 1.833 0 00-.636-.39 2.183 2.183 0 00-.793-.143c-.383 0-.718.066-1.005.198-.283.132-.52.312-.711.54a2.378 2.378 0 00-.438.807c-.095.305-.143.64-.143 1.005 0 .364.055.701.164 1.011.114.306.276.57.485.793.215.224.47.401.766.533.3.133.638.199 1.012.199a2.76 2.76 0 001.264-.281c.37-.186.652-.435.848-.745l.656.451zM70.434 234h-.943v-3.93c0-.57-.123-1.012-.37-1.327-.245-.314-.644-.471-1.196-.471-.346 0-.66.079-.943.239a2.268 2.268 0 00-.71.643 2.954 2.954 0 00-.452.916c-.1.341-.15.699-.15 1.073V234h-.937v-8.921h.936v4.15c.452-1.167 1.256-1.75 2.414-1.75 1.567 0 2.351.863 2.351 2.591V234zM316.146 309.676c0 .373-.078.713-.233 1.018a2.515 2.515 0 01-.622.78 2.84 2.84 0 01-.895.505 3.147 3.147 0 01-1.053.178c-.502 0-.962-.093-1.381-.28a2.316 2.316 0 01-.998-.827v.95h-.793v-2.714h.793c0 .305.071.586.212.841.141.251.321.467.54.649.219.183.469.326.752.431.287.1.579.15.875.15.264 0 .508-.036.731-.109.224-.077.419-.185.588-.321.169-.142.301-.312.397-.513.1-.2.15-.428.15-.684 0-.287-.064-.533-.191-.738a1.687 1.687 0 00-.506-.526 3.266 3.266 0 00-.711-.369 31.56 31.56 0 00-.807-.308 43.936 43.936 0 01-.971-.355 3.737 3.737 0 01-.868-.479 2.342 2.342 0 01-.622-.697c-.159-.278-.239-.622-.239-1.032 0-.365.077-.689.232-.971.155-.287.358-.529.609-.725.25-.196.542-.344.875-.444a3.38 3.38 0 011.025-.157 2.7 2.7 0 011.196.266c.37.178.657.449.862.814v-.93h.827v2.55h-.827c0-.269-.057-.52-.171-.752a1.757 1.757 0 00-.451-.602c-.192-.168-.41-.3-.657-.396-.246-.1-.505-.15-.779-.15-.241 0-.472.027-.69.082-.219.054-.41.143-.574.266a1.313 1.313 0 00-.397.465 1.507 1.507 0 00-.144.684c0 .232.057.43.171.594.119.164.276.31.472.438.196.123.422.237.677.342l.793.307c.337.119.672.251 1.005.397.332.146.631.321.895.526.264.205.481.458.65.759.168.296.253.658.253 1.087zm8.766-4.047l-3.445 7.984c-.178.447-.429.739-.752.875a2.647 2.647 0 01-1.074.212c-.437 0-.875-.08-1.312-.239l.184-.807c.215.091.424.155.629.192.205.041.372.061.499.061.31 0 .522-.075.636-.225.119-.151.221-.328.308-.534l.389-.963-2.843-6.556h1.107l2.297 5.571 2.256-5.571h1.121zm7.973 4.607c0 .374-.093.684-.28.93a2.003 2.003 0 01-.725.588 3.418 3.418 0 01-.984.308c-.36.063-.713.095-1.059.095a6.098 6.098 0 01-1.73-.253 5.565 5.565 0 01-1.49-.663l.417-.806a6.84 6.84 0 001.387.683c.456.16.928.239 1.416.239 1.408 0 2.112-.364 2.112-1.093a.557.557 0 00-.178-.431 1.204 1.204 0 00-.465-.273 3.553 3.553 0 00-.677-.171c-.25-.041-.514-.08-.792-.117-.356-.05-.709-.109-1.06-.177a4.14 4.14 0 01-.964-.308 1.909 1.909 0 01-.697-.547c-.173-.228-.26-.528-.26-.902 0-.319.08-.595.239-.827a2 2 0 01.65-.581c.273-.155.592-.269.957-.342a5.765 5.765 0 011.135-.109c.56 0 1.061.066 1.503.198.442.127.841.312 1.197.553l-.376.732a3.532 3.532 0 00-1.108-.533 4.477 4.477 0 00-1.873-.103 2.568 2.568 0 00-.663.178 1.571 1.571 0 00-.519.328.672.672 0 00-.205.506c0 .178.057.321.17.431.119.104.276.193.472.266.196.069.419.123.67.164.255.041.522.08.8.116.346.051.695.11 1.046.178.355.069.677.169.964.301.291.132.526.312.704.54.177.228.266.529.266.902zm8.582-.266c-.073.67-.337 1.203-.793 1.599-.451.392-1.016.588-1.695.588a2.75 2.75 0 01-1.025-.184 2.3 2.3 0 01-.793-.513 2.328 2.328 0 01-.513-.786 2.8 2.8 0 01-.178-1.012v-3.233h-1.442v-.8h1.442v-2.55h.937v2.55h2.714v.8h-2.714v3.233c0 .233.036.451.109.656.077.205.182.385.314.54.137.155.301.278.493.37.191.086.41.129.656.129.465 0 .852-.143 1.162-.43.314-.292.494-.668.54-1.128l.786.171zm2.84-.827c.068.674.314 1.212.738 1.613s.975.601 1.654.601c.479 0 .905-.098 1.279-.294.373-.195.654-.439.841-.731l.656.451c-.319.447-.7.789-1.142 1.026-.442.232-.986.348-1.634.348-.492 0-.943-.082-1.353-.246a3.259 3.259 0 01-1.067-.683 3.146 3.146 0 01-.69-1.053 3.584 3.584 0 01-.246-1.354c0-.483.073-.927.219-1.333a2.904 2.904 0 011.668-1.757c.401-.168.85-.252 1.346-.252.543 0 1.017.091 1.422.273a2.76 2.76 0 011.012.759c.273.319.474.702.602 1.148.132.447.198.941.198 1.484h-5.503zm4.512-.8c-.105-.697-.358-1.217-.759-1.559-.401-.342-.896-.513-1.484-.513-.3 0-.578.051-.834.151-.255.096-.48.235-.676.417a2.36 2.36 0 00-.493.663 2.43 2.43 0 00-.252.841h4.498zm9.265 3.657h-.937v-4.58c0-.365-.063-.647-.191-.848a.619.619 0 00-.554-.301c-.355 0-.617.187-.786.561-.164.374-.246.898-.246 1.572V312h-.943v-4.58c0-.365-.066-.647-.198-.848a.62.62 0 00-.554-.301c-.224 0-.401.067-.533.199a1.402 1.402 0 00-.315.506 2.752 2.752 0 00-.143.683 8.158 8.158 0 00-.035.745V312h-.936v-6.371h.936v.923c.196-.716.622-1.073 1.279-1.073.624 0 1.048.312 1.271.936.31-.624.748-.936 1.313-.936.542 0 .939.161 1.189.485.255.319.383.804.383 1.456V312zm8.172-1.764c0 .374-.094.684-.281.93a2 2 0 01-.724.588c-.292.146-.62.248-.985.308-.36.063-.713.095-1.059.095a6.104 6.104 0 01-1.73-.253 5.565 5.565 0 01-1.49-.663l.417-.806c.47.296.932.524 1.388.683.456.16.927.239 1.415.239 1.408 0 2.112-.364 2.112-1.093a.557.557 0 00-.178-.431 1.2 1.2 0 00-.464-.273 3.572 3.572 0 00-.677-.171c-.251-.041-.515-.08-.793-.117-.356-.05-.709-.109-1.06-.177a4.14 4.14 0 01-.964-.308 1.909 1.909 0 01-.697-.547c-.173-.228-.26-.528-.26-.902 0-.319.08-.595.24-.827.164-.233.38-.426.649-.581.273-.155.592-.269.957-.342a5.772 5.772 0 011.135-.109c.56 0 1.062.066 1.504.198a4.16 4.16 0 011.196.553l-.376.732a3.538 3.538 0 00-1.107-.533 4.49 4.49 0 00-1.873-.103 2.568 2.568 0 00-.663.178 1.565 1.565 0 00-.52.328.672.672 0 00-.205.506.57.57 0 00.171.431c.118.104.276.193.471.266.196.069.42.123.67.164.256.041.522.08.8.116.347.051.695.11 1.046.178.356.069.677.169.964.301.292.132.526.312.704.54.178.228.267.529.267.902zm17.15-2.686c0 .597-.064 1.166-.192 1.709a4.158 4.158 0 01-.601 1.422 2.982 2.982 0 01-1.067.964c-.433.237-.957.355-1.572.355h-2.898v-8.921h2.898c.606 0 1.126.123 1.559.369.437.242.793.568 1.066.978.278.41.481.884.608 1.422.133.537.199 1.105.199 1.702zm-.937 0c0-1.167-.221-2.069-.663-2.707-.437-.643-1.048-.964-1.832-.964h-1.962v7.321h1.962c.784 0 1.395-.317 1.832-.95.442-.633.663-1.534.663-2.7zm3.551 1.593c.068.674.314 1.212.738 1.613s.975.601 1.654.601c.479 0 .905-.098 1.279-.294.373-.195.654-.439.84-.731l.657.451c-.319.447-.7.789-1.142 1.026-.442.232-.987.348-1.634.348-.492 0-.943-.082-1.353-.246a3.259 3.259 0 01-1.067-.683 3.146 3.146 0 01-.69-1.053 3.584 3.584 0 01-.246-1.354c0-.483.073-.927.219-1.333a2.904 2.904 0 011.668-1.757c.401-.168.85-.252 1.346-.252.543 0 1.017.091 1.422.273a2.76 2.76 0 011.012.759c.273.319.474.702.601 1.148.133.447.199.941.199 1.484h-5.503zm4.511-.8c-.104-.697-.357-1.217-.758-1.559-.401-.342-.896-.513-1.484-.513-.301 0-.579.051-.834.151a2.028 2.028 0 00-.676.417 2.341 2.341 0 00-.493.663 2.452 2.452 0 00-.253.841h4.498zm9.095 1.893c0 .374-.093.684-.28.93a2.012 2.012 0 01-.725.588c-.292.146-.62.248-.984.308a6.14 6.14 0 01-1.06.095 6.092 6.092 0 01-1.729-.253 5.572 5.572 0 01-1.491-.663l.417-.806c.47.296.932.524 1.388.683.456.16.928.239 1.415.239 1.408 0 2.112-.364 2.112-1.093a.56.56 0 00-.177-.431 1.204 1.204 0 00-.465-.273 3.572 3.572 0 00-.677-.171c-.251-.041-.515-.08-.793-.117-.355-.05-.709-.109-1.059-.177a4.124 4.124 0 01-.964-.308 1.913 1.913 0 01-.698-.547c-.173-.228-.259-.528-.259-.902 0-.319.079-.595.239-.827.164-.233.38-.426.649-.581.274-.155.593-.269.957-.342a5.772 5.772 0 011.135-.109c.561 0 1.062.066 1.504.198a4.16 4.16 0 011.196.553l-.376.732a3.517 3.517 0 00-1.107-.533 4.485 4.485 0 00-1.873-.103 2.568 2.568 0 00-.663.178 1.586 1.586 0 00-.52.328.676.676 0 00-.205.506.57.57 0 00.171.431c.119.104.276.193.472.266.196.069.419.123.67.164.255.041.522.08.8.116.346.051.694.11 1.045.178.356.069.677.169.964.301.292.132.527.312.704.54.178.228.267.529.267.902zm5.964-5.879h-1.272v-1.278h1.272v1.278zm1.271 7.643h-3.821v-.8h1.442v-4.771h-1.442v-.8h2.386v5.571h1.435v.8zm9.286-.068c0 .437-.075.827-.226 1.169a2.43 2.43 0 01-.635.868 2.738 2.738 0 01-.957.54 3.707 3.707 0 01-1.224.191c-.633 0-1.173-.118-1.62-.355a3.392 3.392 0 01-1.148-1.026l.656-.506c.196.297.478.545.847.746.37.2.791.3 1.265.3.647 0 1.158-.164 1.531-.492.379-.323.568-.793.568-1.408v-.684c-.556.493-1.19.739-1.901.739-.998 0-1.782-.285-2.351-.855-.57-.569-.855-1.349-.855-2.338 0-.483.073-.927.219-1.333.15-.41.362-.763.636-1.059a2.844 2.844 0 011.011-.698 3.409 3.409 0 011.34-.252 2.8 2.8 0 011.005.184c.328.119.627.299.896.54v-.574h.943v6.303zm-.943-4.82a2.455 2.455 0 00-.889-.642 2.62 2.62 0 00-1.012-.199 2.35 2.35 0 00-.991.199 1.983 1.983 0 00-.704.54c-.187.228-.33.499-.431.813-.095.31-.143.643-.143.998 0 .729.189 1.311.567 1.743.378.433.946.65 1.702.65a2.62 2.62 0 001.012-.198c.324-.137.62-.356.889-.657v-3.247zM424.49 312h-.944v-3.931c0-.569-.123-1.011-.369-1.326-.246-.314-.645-.472-1.196-.472-.346 0-.661.08-.944.24a2.272 2.272 0 00-.71.642c-.196.265-.347.57-.452.916-.1.342-.15.7-.15 1.074V312h-.937v-6.371h.937v1.6c.451-1.167 1.256-1.75 2.413-1.75 1.568 0 2.352.863 2.352 2.59V312zM6.036 135.821c0 .506-.057.964-.17 1.374-.11.41-.283.761-.52 1.053a2.35 2.35 0 01-.889.67c-.36.159-.786.239-1.278.239-.497 0-.925-.08-1.285-.239a2.361 2.361 0 01-.882-.67 2.985 2.985 0 01-.513-1.06 5.407 5.407 0 01-.164-1.38v-5.729h.936v5.742c0 .269.023.554.069.855.05.301.143.574.28.82.141.246.335.451.581.615.25.164.577.246.978.246.4 0 .727-.082.977-.246.255-.164.451-.369.588-.615a2.33 2.33 0 00.28-.82c.046-.301.069-.586.069-.855v-5.742h.943v5.742zm7.4 3.179H9.613v-.8h1.442v-7.321H9.614v-.8h3.821v.8H12v7.321h1.435v.8zm18.257-4.45c0 .597-.064 1.166-.192 1.709a4.16 4.16 0 01-.601 1.422 2.98 2.98 0 01-1.067.964c-.432.237-.957.355-1.572.355h-2.898v-8.921h2.898c.606 0 1.126.123 1.559.369.437.242.793.568 1.066.978.278.41.48.884.608 1.422.133.537.199 1.105.199 1.702zm-.937 0c0-1.167-.22-2.069-.663-2.707-.437-.643-1.048-.964-1.832-.964H26.3v7.321h1.962c.784 0 1.395-.317 1.832-.95.442-.633.663-1.534.663-2.7zm3.55 1.593c.07.674.315 1.212.74 1.613.423.401.974.601 1.653.601a2.71 2.71 0 001.279-.294c.373-.195.654-.439.84-.731l.657.451c-.32.447-.7.789-1.142 1.026-.442.232-.986.348-1.634.348-.492 0-.943-.082-1.353-.246a3.252 3.252 0 01-1.066-.683 3.144 3.144 0 01-.69-1.053 3.582 3.582 0 01-.247-1.354c0-.483.073-.927.219-1.333.15-.41.364-.763.642-1.059a2.896 2.896 0 011.026-.698c.4-.168.85-.252 1.346-.252.543 0 1.017.091 1.422.273.406.182.743.435 1.012.759.273.319.474.702.602 1.148.132.447.198.941.198 1.484h-5.503zm4.513-.8c-.105-.697-.358-1.217-.76-1.559-.4-.342-.895-.513-1.483-.513-.3 0-.578.051-.834.151a2.04 2.04 0 00-.676.417c-.196.182-.36.403-.493.663a2.439 2.439 0 00-.252.841h4.498zm9.094 1.893c0 .374-.093.684-.28.93a2.007 2.007 0 01-.725.588c-.291.146-.62.248-.984.308-.36.063-.713.095-1.06.095a6.097 6.097 0 01-1.73-.253 5.567 5.567 0 01-1.49-.663l.418-.806c.469.296.931.524 1.387.683.456.16.928.239 1.415.239 1.409 0 2.113-.364 2.113-1.093a.558.558 0 00-.178-.431 1.203 1.203 0 00-.465-.273 3.566 3.566 0 00-.677-.171c-.25-.041-.515-.08-.793-.117-.355-.05-.708-.109-1.06-.177a4.135 4.135 0 01-.963-.308 1.906 1.906 0 01-.697-.547c-.174-.228-.26-.528-.26-.902 0-.319.08-.595.239-.827a2 2 0 01.65-.581c.273-.155.592-.269.956-.342a5.767 5.767 0 011.135-.109c.56 0 1.062.066 1.504.198.442.127.841.312 1.197.553l-.377.732a3.528 3.528 0 00-1.107-.533 4.484 4.484 0 00-1.873-.103 2.57 2.57 0 00-.663.178 1.575 1.575 0 00-.52.328.673.673 0 00-.205.506c0 .178.057.321.171.431.119.104.276.193.472.266.196.069.42.123.67.164.255.041.522.08.8.116.346.051.695.11 1.045.178.356.069.677.169.964.301.292.132.527.312.705.54.177.228.266.529.266.902zm5.964-5.879h-1.272v-1.278h1.272v1.278zM55.148 139h-3.821v-.8h1.442v-4.771h-1.442v-.8h2.386v5.571h1.435v.8zm9.286-.068c0 .437-.075.827-.225 1.169-.15.341-.363.631-.636.868a2.736 2.736 0 01-.957.54 3.702 3.702 0 01-1.224.191c-.633 0-1.173-.118-1.62-.355a3.398 3.398 0 01-1.148-1.026l.656-.506c.196.297.478.545.847.746.37.2.791.3 1.265.3.647 0 1.158-.164 1.531-.492.379-.323.568-.793.568-1.408v-.684c-.556.493-1.19.739-1.9.739-.999 0-1.782-.285-2.352-.855-.57-.569-.855-1.349-.855-2.338 0-.483.073-.927.22-1.333.15-.41.361-.763.635-1.059a2.843 2.843 0 011.012-.698 3.404 3.404 0 011.34-.252c.346 0 .68.061 1.004.184.328.119.627.299.896.54v-.574h.943v6.303zm-.943-4.82a2.457 2.457 0 00-.889-.642 2.62 2.62 0 00-1.012-.199 2.35 2.35 0 00-.99.199 1.978 1.978 0 00-.705.54c-.187.228-.33.499-.43.813-.096.31-.144.643-.144.998 0 .729.189 1.311.567 1.743.379.433.946.65 1.702.65a2.62 2.62 0 001.012-.198c.324-.137.62-.356.889-.657v-3.247zM72.777 139h-.944v-3.931c0-.569-.123-1.011-.369-1.326-.246-.314-.645-.472-1.196-.472-.346 0-.66.08-.943.24a2.263 2.263 0 00-.711.642c-.196.265-.347.57-.452.916-.1.342-.15.7-.15 1.074V139h-.936v-6.371h.936v1.6c.451-1.167 1.256-1.75 2.413-1.75 1.568 0 2.352.863 2.352 2.59V139zM165.093 350h-3.822v-.8h1.443v-7.321h-1.443v-.8h3.822v.8h-1.436v7.321h1.436v.8zm9.286 0h-.944v-3.931c0-.569-.123-1.011-.369-1.326-.246-.314-.645-.472-1.196-.472-.346 0-.661.08-.943.24a2.265 2.265 0 00-.711.642c-.196.265-.347.57-.452.916-.1.342-.15.7-.15 1.074V350h-.936v-6.371h.936v1.6c.451-1.167 1.256-1.75 2.413-1.75 1.568 0 2.352.863 2.352 2.59V350zm8.746-2.03c-.073.67-.338 1.203-.793 1.599-.452.392-1.017.588-1.696.588-.373 0-.715-.061-1.025-.184a2.31 2.31 0 01-.793-.513 2.328 2.328 0 01-.513-.786 2.82 2.82 0 01-.177-1.012v-3.233h-1.443v-.8h1.443v-2.55h.936v2.55h2.714v.8h-2.714v3.233c0 .233.037.451.109.656.078.205.183.385.315.54.137.155.301.278.492.37.191.086.41.129.656.129.465 0 .853-.143 1.162-.43.315-.292.495-.668.54-1.128l.787.171zm2.839-.827c.069.674.315 1.212.739 1.613.423.401.975.601 1.654.601.478 0 .904-.098 1.278-.294.374-.195.654-.439.841-.731l.656.451a3.335 3.335 0 01-1.141 1.026c-.442.232-.987.348-1.634.348-.492 0-.944-.082-1.354-.246a3.254 3.254 0 01-1.066-.683 3.164 3.164 0 01-.691-1.053 3.584 3.584 0 01-.246-1.354c0-.483.073-.927.219-1.333a3.08 3.08 0 01.643-1.059 2.89 2.89 0 011.025-.698c.401-.168.85-.252 1.347-.252.542 0 1.016.091 1.422.273.405.182.743.435 1.011.759.274.319.474.702.602 1.148.132.447.198.941.198 1.484h-5.503zm4.512-.8c-.105-.697-.358-1.217-.759-1.559-.401-.342-.895-.513-1.483-.513-.301 0-.579.051-.834.151a2.043 2.043 0 00-.677.417c-.196.182-.36.403-.492.663a2.43 2.43 0 00-.253.841h4.498zm8.917-1.819c-.337-.168-.739-.253-1.203-.253a2.11 2.11 0 00-1.026.247 2.43 2.43 0 00-.765.649 2.93 2.93 0 00-.486.916 3.468 3.468 0 00-.164 1.06v2.057h1.443v.8h-3.822v-.8h1.443v-4.771h-1.443v-.8h2.379v1.6c.429-1.167 1.242-1.75 2.441-1.75a5 5 0 01.84.061c.242.041.465.114.67.219l-.307.765zm2.306 3.753c0-.401.1-.736.301-1.005.201-.273.463-.487.786-.642.328-.16.702-.274 1.121-.342a7.603 7.603 0 011.292-.109 12.123 12.123 0 01.834.027c.123.009.246.021.369.034l.404.048v-.458c0-.31-.069-.565-.205-.766a1.486 1.486 0 00-.493-.471 1.954 1.954 0 00-.615-.246 2.474 2.474 0 00-.547-.076c-.474 0-.911.064-1.312.192a4.942 4.942 0 00-1.121.513l-.424-.705a5.715 5.715 0 011.285-.567 5.238 5.238 0 011.572-.225c.347 0 .686.045 1.019.136.337.087.638.224.902.41.269.183.483.424.643.725.159.301.239.661.239 1.08V350h-.943v-1.066a2.988 2.988 0 01-.561.54 3.211 3.211 0 01-.649.382 3.932 3.932 0 01-.684.219 2.766 2.766 0 01-.649.082c-.843 0-1.481-.162-1.914-.485-.433-.324-.65-.789-.65-1.395zm2.564 1.08a3.05 3.05 0 001.052-.17c.315-.119.581-.265.8-.438.219-.173.388-.358.506-.554.123-.196.185-.373.185-.533v-.601a6.739 6.739 0 00-.882-.076c-.278-.004-.52-.006-.725-.006a6.74 6.74 0 00-.977.068c-.31.045-.581.121-.814.225a1.527 1.527 0 00-.56.397.896.896 0 00-.212.608c0 .269.13.518.389.745.265.224.677.335 1.238.335zm11.924-.574a2.927 2.927 0 01-1.107 1.005c-.465.246-1.019.369-1.661.369-.497 0-.953-.082-1.367-.246a3.157 3.157 0 01-1.067-.683 3.19 3.19 0 01-.683-1.053 3.584 3.584 0 01-.247-1.354c0-.483.076-.929.226-1.34.15-.414.365-.767.643-1.059a2.876 2.876 0 011.018-.691 3.49 3.49 0 011.347-.252c.196 0 .396.022.601.068.206.045.399.116.581.212.183.091.347.203.493.335.146.127.255.28.328.458v-.923h.841v2.55h-.841a1.874 1.874 0 00-.574-1.374 1.837 1.837 0 00-.636-.39 2.165 2.165 0 00-.793-.144c-.383 0-.718.067-1.005.199-.283.132-.52.312-.711.54a2.384 2.384 0 00-.437.806 3.343 3.343 0 00-.144 1.005c0 .365.055.702.164 1.012.114.305.276.57.485.793.215.223.47.401.766.533.301.132.638.198 1.012.198.474 0 .895-.093 1.264-.28.37-.187.652-.435.848-.745l.656.451zm8.651-.813c-.073.67-.338 1.203-.793 1.599-.452.392-1.017.588-1.696.588-.373 0-.715-.061-1.025-.184a2.31 2.31 0 01-.793-.513 2.328 2.328 0 01-.513-.786 2.82 2.82 0 01-.178-1.012v-3.233h-1.442v-.8h1.442v-2.55h.937v2.55h2.714v.8h-2.714v3.233c0 .233.036.451.109.656.078.205.183.385.315.54.137.155.301.278.492.37.191.086.41.129.656.129.465 0 .852-.143 1.162-.43.315-.292.495-.668.54-1.128l.787.171zm5.724-5.613h-1.272v-1.278h1.272v1.278zm1.271 7.643h-3.821v-.8h1.442v-4.771h-1.442v-.8h2.386v5.571h1.435v.8zm9.785-3.165c0 .497-.079.948-.239 1.353-.155.406-.38.755-.677 1.046a3.139 3.139 0 01-1.052.677 3.678 3.678 0 01-1.374.246c-.497 0-.951-.082-1.361-.246a3.22 3.22 0 01-1.059-.677 3.004 3.004 0 01-.677-1.046 3.759 3.759 0 01-.233-1.353c0-.483.078-.932.233-1.347a2.98 2.98 0 01.677-1.066 3.13 3.13 0 011.059-.691c.41-.168.864-.252 1.361-.252a3.6 3.6 0 011.374.252c.41.165.761.395 1.052.691.297.292.522.647.677 1.066.16.415.239.864.239 1.347zm-.936 0c0-.365-.055-.7-.164-1.005a2.29 2.29 0 00-.472-.813 2.211 2.211 0 00-.766-.547 2.441 2.441 0 00-1.004-.199c-.374 0-.711.067-1.012.199a2.157 2.157 0 00-.752.547 2.45 2.45 0 00-.472.813 3.07 3.07 0 00-.157 1.005c0 .365.052.702.157 1.012.11.305.267.569.472.793.205.223.456.398.752.526a2.56 2.56 0 001.012.191c.373 0 .708-.063 1.004-.191a2.24 2.24 0 00.766-.526 2.18 2.18 0 00.472-.793 3.03 3.03 0 00.164-1.012zm8.78 3.165h-.943v-3.931c0-.569-.123-1.011-.37-1.326-.246-.314-.644-.472-1.196-.472-.346 0-.661.08-.943.24a2.265 2.265 0 00-.711.642c-.196.265-.347.57-.451.916-.101.342-.151.7-.151 1.074V350h-.936v-6.371h.936v1.6c.451-1.167 1.256-1.75 2.413-1.75 1.568 0 2.352.863 2.352 2.59V350zm17.314-4.45c0 .597-.064 1.166-.191 1.709a4.159 4.159 0 01-.602 1.422 2.979 2.979 0 01-1.066.964c-.433.237-.957.355-1.573.355h-2.898v-8.921h2.898c.606 0 1.126.123 1.559.369.437.242.793.568 1.066.978.278.41.481.884.609 1.422.132.537.198 1.105.198 1.702zm-.937 0c0-1.167-.221-2.069-.663-2.707-.437-.643-1.048-.964-1.832-.964h-1.962v7.321h1.962c.784 0 1.395-.317 1.832-.95.442-.633.663-1.534.663-2.7zm3.551 1.593c.068.674.314 1.212.738 1.613s.976.601 1.655.601c.478 0 .904-.098 1.278-.294.374-.195.654-.439.841-.731l.656.451c-.319.447-.7.789-1.142 1.026-.442.232-.986.348-1.633.348-.493 0-.944-.082-1.354-.246a3.244 3.244 0 01-1.066-.683 3.134 3.134 0 01-.691-1.053 3.584 3.584 0 01-.246-1.354c0-.483.073-.927.219-1.333.15-.41.365-.763.642-1.059a2.904 2.904 0 011.026-.698c.401-.168.85-.252 1.347-.252.542 0 1.016.091 1.421.273a2.76 2.76 0 011.012.759c.274.319.474.702.602 1.148.132.447.198.941.198 1.484h-5.503zm4.512-.8c-.105-.697-.358-1.217-.759-1.559-.401-.342-.896-.513-1.483-.513-.301 0-.579.051-.834.151a2.033 2.033 0 00-.677.417c-.196.182-.36.403-.492.663a2.41 2.41 0 00-.253.841h4.498zm9.094 1.893c0 .374-.093.684-.28.93a2.003 2.003 0 01-.725.588 3.418 3.418 0 01-.984.308 6.14 6.14 0 01-1.06.095 6.097 6.097 0 01-1.729-.253 5.565 5.565 0 01-1.49-.663l.417-.806a6.84 6.84 0 001.387.683c.456.16.928.239 1.415.239 1.409 0 2.113-.364 2.113-1.093a.557.557 0 00-.178-.431 1.204 1.204 0 00-.465-.273 3.553 3.553 0 00-.677-.171 26.61 26.61 0 00-.793-.117c-.355-.05-.708-.109-1.059-.177a4.14 4.14 0 01-.964-.308 1.9 1.9 0 01-.697-.547c-.173-.228-.26-.528-.26-.902 0-.319.08-.595.239-.827a2 2 0 01.65-.581c.273-.155.592-.269.957-.342a5.762 5.762 0 011.134-.109c.561 0 1.062.066 1.504.198.442.127.841.312 1.197.553l-.376.732a3.532 3.532 0 00-1.108-.533 4.48 4.48 0 00-1.873-.103 2.568 2.568 0 00-.663.178 1.571 1.571 0 00-.519.328.672.672 0 00-.205.506.57.57 0 00.17.431c.119.104.276.193.472.266.196.069.419.123.67.164.255.041.522.08.8.116.346.051.695.11 1.046.178.355.069.676.169.964.301.291.132.526.312.704.54.177.228.266.529.266.902zm5.964-5.879h-1.272v-1.278h1.272v1.278zm1.271 7.643h-3.821v-.8h1.443v-4.771h-1.443v-.8h2.386v5.571h1.435v.8zm9.286-.068c0 .437-.075.827-.225 1.169a2.444 2.444 0 01-.636.868 2.738 2.738 0 01-.957.54 3.703 3.703 0 01-1.224.191c-.633 0-1.173-.118-1.62-.355a3.392 3.392 0 01-1.148-1.026l.656-.506c.196.297.479.545.848.746.369.2.79.3 1.264.3.648 0 1.158-.164 1.532-.492.378-.323.567-.793.567-1.408v-.684c-.556.493-1.189.739-1.9.739-.998 0-1.782-.285-2.352-.855-.57-.569-.854-1.349-.854-2.338 0-.483.072-.927.218-1.333.151-.41.363-.763.636-1.059a2.84 2.84 0 011.012-.698 3.402 3.402 0 011.34-.252c.346 0 .681.061 1.005.184.328.119.626.299.895.54v-.574h.943v6.303zm-.943-4.82a2.455 2.455 0 00-.889-.642 2.619 2.619 0 00-1.011-.199c-.374 0-.704.067-.992.199a1.983 1.983 0 00-.704.54c-.187.228-.33.499-.43.813-.096.31-.144.643-.144.998 0 .729.189 1.311.567 1.743.379.433.946.65 1.703.65.355 0 .692-.066 1.011-.198.324-.137.62-.356.889-.657v-3.247zM307.86 350h-.943v-3.931c0-.569-.123-1.011-.37-1.326-.246-.314-.644-.472-1.196-.472-.346 0-.661.08-.943.24a2.265 2.265 0 00-.711.642 2.98 2.98 0 00-.451.916c-.101.342-.151.7-.151 1.074V350h-.936v-6.371h.936v1.6c.451-1.167 1.256-1.75 2.413-1.75 1.568 0 2.352.863 2.352 2.59V350zM26.802 312h-1.005l-.84-2.55h-3.528l-.827 2.55h-1.005l2.966-8.921h1.272L26.802 312zm-2.113-3.377l-1.497-4.601-1.497 4.601h2.994zm9.785 2.16a2.924 2.924 0 01-1.107 1.005c-.465.246-1.019.369-1.661.369-.497 0-.953-.082-1.367-.246a3.16 3.16 0 01-1.067-.683 3.197 3.197 0 01-.683-1.053 3.582 3.582 0 01-.246-1.354c0-.483.075-.929.225-1.34.15-.414.365-.767.643-1.059a2.878 2.878 0 011.018-.691 3.487 3.487 0 011.347-.252c.196 0 .396.022.602.068a2.3 2.3 0 01.58.212c.183.091.347.203.493.335.146.127.255.28.328.458v-.923h.84v2.55h-.84c0-.283-.053-.54-.157-.773a1.8 1.8 0 00-1.053-.991 2.162 2.162 0 00-.793-.144c-.383 0-.718.067-1.005.199-.283.132-.52.312-.71.54a2.38 2.38 0 00-.438.806 3.353 3.353 0 00-.144 1.005c0 .365.055.702.164 1.012.114.305.276.57.485.793.215.223.47.401.766.533.3.132.638.198 1.012.198a2.76 2.76 0 001.265-.28c.369-.187.651-.435.847-.745l.656.451zm8.343 0a2.924 2.924 0 01-1.107 1.005c-.465.246-1.019.369-1.662.369-.496 0-.952-.082-1.367-.246a3.16 3.16 0 01-1.066-.683 3.2 3.2 0 01-.684-1.053 3.584 3.584 0 01-.246-1.354c0-.483.075-.929.226-1.34.15-.414.364-.767.642-1.059a2.877 2.877 0 011.019-.691 3.487 3.487 0 011.347-.252c.196 0 .396.022.601.068a2.3 2.3 0 01.581.212c.182.091.346.203.492.335.146.127.256.28.328.458v-.923h.841v2.55h-.84c0-.283-.053-.54-.158-.773a1.8 1.8 0 00-1.053-.991 2.162 2.162 0 00-.792-.144c-.383 0-.718.067-1.005.199-.283.132-.52.312-.711.54a2.383 2.383 0 00-.438.806 3.353 3.353 0 00-.143 1.005c0 .365.054.702.164 1.012.114.305.276.57.485.793.214.223.47.401.766.533.3.132.638.198 1.011.198a2.76 2.76 0 001.265-.28 2.09 2.09 0 00.848-.745l.656.451zm3.147-1.64c.069.674.315 1.212.739 1.613.423.401.975.601 1.654.601.478 0 .904-.098 1.278-.294.374-.195.654-.439.841-.731l.656.451c-.319.447-.7.789-1.141 1.026-.442.232-.987.348-1.634.348-.492 0-.944-.082-1.354-.246a3.253 3.253 0 01-1.066-.683 3.144 3.144 0 01-.69-1.053 3.582 3.582 0 01-.247-1.354c0-.483.073-.927.22-1.333.15-.41.364-.763.642-1.059a2.898 2.898 0 011.025-.698c.401-.168.85-.252 1.347-.252.542 0 1.016.091 1.422.273.405.182.742.435 1.011.759.274.319.474.702.602 1.148.132.447.198.941.198 1.484h-5.503zm4.512-.8c-.105-.697-.358-1.217-.759-1.559-.4-.342-.895-.513-1.483-.513-.301 0-.579.051-.834.151a2.04 2.04 0 00-.677.417c-.196.182-.36.403-.492.663a2.437 2.437 0 00-.253.841h4.498zm9.095 1.893c0 .374-.094.684-.28.93a2.007 2.007 0 01-.725.588 3.43 3.43 0 01-.985.308c-.36.063-.713.095-1.06.095a6.097 6.097 0 01-1.729-.253 5.566 5.566 0 01-1.49-.663l.417-.806c.47.296.932.524 1.388.683.455.16.927.239 1.415.239 1.408 0 2.112-.364 2.112-1.093a.558.558 0 00-.178-.431 1.202 1.202 0 00-.465-.273 3.564 3.564 0 00-.676-.171c-.251-.041-.515-.08-.793-.117-.356-.05-.709-.109-1.06-.177a4.135 4.135 0 01-.964-.308 1.906 1.906 0 01-.697-.547c-.173-.228-.26-.528-.26-.902 0-.319.08-.595.24-.827a2 2 0 01.649-.581c.273-.155.592-.269.957-.342a5.768 5.768 0 011.135-.109c.56 0 1.062.066 1.504.198.442.127.84.312 1.196.553l-.376.732a3.528 3.528 0 00-1.107-.533 4.484 4.484 0 00-1.874-.103 2.57 2.57 0 00-.663.178 1.576 1.576 0 00-.52.328.673.673 0 00-.204.506c0 .178.057.321.17.431.12.104.276.193.472.266.196.069.42.123.67.164.255.041.522.08.8.116.346.051.695.11 1.046.178.355.069.677.169.964.301.291.132.526.312.704.54.178.228.267.529.267.902zm8.342 0c0 .374-.093.684-.28.93a2.007 2.007 0 01-.725.588c-.291.146-.62.248-.984.308-.36.063-.713.095-1.06.095a6.097 6.097 0 01-1.73-.253 5.567 5.567 0 01-1.49-.663l.418-.806c.469.296.931.524 1.387.683.456.16.928.239 1.415.239 1.408 0 2.113-.364 2.113-1.093a.558.558 0 00-.178-.431 1.203 1.203 0 00-.465-.273 3.566 3.566 0 00-.677-.171c-.25-.041-.515-.08-.793-.117-.355-.05-.708-.109-1.06-.177a4.135 4.135 0 01-.963-.308 1.906 1.906 0 01-.697-.547c-.174-.228-.26-.528-.26-.902 0-.319.08-.595.239-.827a2 2 0 01.65-.581c.273-.155.592-.269.956-.342a5.767 5.767 0 011.135-.109c.56 0 1.062.066 1.504.198.442.127.841.312 1.197.553l-.376.732a3.528 3.528 0 00-1.108-.533 4.484 4.484 0 00-1.873-.103 2.57 2.57 0 00-.663.178 1.575 1.575 0 00-.52.328.673.673 0 00-.205.506c0 .178.057.321.171.431.119.104.276.193.472.266.196.069.42.123.67.164.255.041.522.08.8.116.346.051.695.11 1.045.178.356.069.677.169.964.301.292.132.527.312.705.54.177.228.266.529.266.902zm5.964-5.879h-1.272v-1.278h1.272v1.278zM75.148 312h-3.821v-.8h1.442v-4.771h-1.442v-.8h2.386v5.571h1.435v.8zm9.621-3.179c0 .488-.075.937-.225 1.347a3.03 3.03 0 01-.65 1.06 2.926 2.926 0 01-1.012.683c-.396.164-.84.246-1.333.246a2.75 2.75 0 01-.998-.184 2.967 2.967 0 01-.882-.547V312h-.936v-8.921h.936v3.138c.274-.233.568-.413.882-.54.32-.132.652-.198.998-.198.493 0 .937.084 1.333.252a2.947 2.947 0 011.661 1.75c.15.411.226.857.226 1.34zm-.95 0c0-.364-.048-.699-.144-1.005a2.21 2.21 0 00-.423-.806 2.028 2.028 0 00-.718-.54 2.303 2.303 0 00-.985-.199c-.72 0-1.346.285-1.88.855v3.404c.274.296.566.508.876.636.314.128.649.191 1.004.191.374 0 .7-.066.978-.198.282-.132.52-.312.71-.54.192-.228.336-.494.432-.8.1-.31.15-.642.15-.998zm6.743-4.464H89.29v-1.278h1.272v1.278zM91.833 312h-3.82v-.8h1.441v-4.771h-1.442v-.8h2.386v5.571h1.435v.8zm8.343 0h-3.821v-.8h1.442v-7.321h-1.442v-.8h2.385v8.121h1.436v.8zm7.071-7.643h-1.271v-1.278h1.271v1.278zm1.272 7.643h-3.822v-.8h1.443v-4.771h-1.443v-.8h2.386v5.571h1.436v.8zm9.689-2.03c-.073.67-.337 1.203-.793 1.599-.451.392-1.016.588-1.695.588-.374 0-.716-.061-1.026-.184a2.31 2.31 0 01-.793-.513 2.343 2.343 0 01-.513-.786 2.82 2.82 0 01-.177-1.012v-3.233h-1.443v-.8h1.443v-2.55h.936v2.55h2.714v.8h-2.714v3.233a1.803 1.803 0 00.424 1.196c.137.155.301.278.492.37.192.086.41.129.657.129.464 0 .852-.143 1.162-.43.314-.292.494-.668.54-1.128l.786.171zm8.472-4.341l-3.445 7.984c-.178.447-.428.739-.752.875a2.642 2.642 0 01-1.073.212c-.438 0-.875-.08-1.313-.239l.185-.807c.214.091.424.155.629.192.205.041.371.061.499.061.31 0 .522-.075.636-.225a2.3 2.3 0 00.307-.534l.39-.963-2.844-6.556h1.107l2.297 5.571 2.256-5.571h1.121zm16.781 1.921c0 .597-.064 1.166-.191 1.709a4.159 4.159 0 01-.602 1.422 2.979 2.979 0 01-1.066.964c-.433.237-.957.355-1.573.355h-2.898v-8.921h2.898c.607 0 1.126.123 1.559.369.438.242.793.568 1.066.978.278.41.481.884.609 1.422.132.537.198 1.105.198 1.702zm-.936 0c0-1.167-.221-2.069-.663-2.707-.438-.643-1.049-.964-1.833-.964h-1.961v7.321h1.961c.784 0 1.395-.317 1.833-.95.442-.633.663-1.534.663-2.7zm3.55 1.593c.069.674.315 1.212.738 1.613.424.401.976.601 1.655.601.478 0 .904-.098 1.278-.294.374-.195.654-.439.841-.731l.656.451a3.335 3.335 0 01-1.141 1.026c-.442.232-.987.348-1.634.348-.492 0-.944-.082-1.354-.246a3.254 3.254 0 01-1.066-.683 3.149 3.149 0 01-.691-1.053 3.584 3.584 0 01-.246-1.354c0-.483.073-.927.219-1.333.15-.41.365-.763.643-1.059a2.89 2.89 0 011.025-.698c.401-.168.85-.252 1.347-.252.542 0 1.016.091 1.422.273.405.182.742.435 1.011.759.274.319.474.702.602 1.148.132.447.198.941.198 1.484h-5.503zm4.512-.8c-.105-.697-.358-1.217-.759-1.559-.401-.342-.895-.513-1.483-.513-.301 0-.579.051-.834.151a2.043 2.043 0 00-.677.417c-.196.182-.36.403-.492.663a2.43 2.43 0 00-.253.841h4.498zm9.094 1.893c0 .374-.093.684-.28.93a2.008 2.008 0 01-.724.588c-.292.146-.62.248-.985.308-.36.063-.713.095-1.059.095a6.098 6.098 0 01-1.73-.253 5.565 5.565 0 01-1.49-.663l.417-.806a6.82 6.82 0 001.388.683c.455.16.927.239 1.415.239 1.408 0 2.112-.364 2.112-1.093a.557.557 0 00-.178-.431 1.204 1.204 0 00-.465-.273 3.561 3.561 0 00-.676-.171c-.251-.041-.515-.08-.793-.117-.356-.05-.709-.109-1.06-.177a4.14 4.14 0 01-.964-.308 1.909 1.909 0 01-.697-.547c-.173-.228-.26-.528-.26-.902 0-.319.08-.595.239-.827a2 2 0 01.65-.581c.273-.155.592-.269.957-.342a5.765 5.765 0 011.135-.109c.56 0 1.061.066 1.504.198.442.127.84.312 1.196.553l-.376.732a3.532 3.532 0 00-1.108-.533 4.477 4.477 0 00-1.873-.103 2.568 2.568 0 00-.663.178 1.571 1.571 0 00-.519.328.672.672 0 00-.205.506.57.57 0 00.171.431c.118.104.275.193.471.266.196.069.42.123.67.164.255.041.522.08.8.116.346.051.695.11 1.046.178.355.069.677.169.964.301.291.132.526.312.704.54.178.228.266.529.266.902zm5.964-5.879h-1.271v-1.278h1.271v1.278zm1.272 7.643h-3.822v-.8h1.443v-4.771h-1.443v-.8h2.386v5.571h1.436v.8zm9.286-.068c0 .437-.076.827-.226 1.169a2.42 2.42 0 01-.636.868 2.738 2.738 0 01-.957.54 3.697 3.697 0 01-1.223.191c-.634 0-1.174-.118-1.621-.355a3.402 3.402 0 01-1.148-1.026l.656-.506c.196.297.479.545.848.746.369.2.791.3 1.265.3.647 0 1.157-.164 1.531-.492.378-.323.567-.793.567-1.408v-.684c-.556.493-1.189.739-1.9.739-.998 0-1.782-.285-2.352-.855-.569-.569-.854-1.349-.854-2.338 0-.483.073-.927.218-1.333.151-.41.363-.763.636-1.059a2.84 2.84 0 011.012-.698 3.402 3.402 0 011.34-.252c.346 0 .681.061 1.005.184.328.119.626.299.895.54v-.574h.944v6.303zm-.944-4.82a2.46 2.46 0 00-.888-.642 2.624 2.624 0 00-1.012-.199c-.374 0-.704.067-.991.199a1.978 1.978 0 00-.705.54c-.186.228-.33.499-.43.813-.096.31-.144.643-.144.998 0 .729.189 1.311.568 1.743.378.433.945.65 1.702.65.355 0 .693-.066 1.012-.198.323-.137.619-.356.888-.657v-3.247zm9.286 4.888h-.943v-3.931c0-.569-.123-1.011-.369-1.326-.246-.314-.645-.472-1.197-.472-.346 0-.66.08-.943.24a2.265 2.265 0 00-.711.642 2.98 2.98 0 00-.451.916c-.1.342-.151.7-.151 1.074V312h-.936v-6.371h.936v1.6c.452-1.167 1.256-1.75 2.414-1.75 1.567 0 2.351.863 2.351 2.59V312zM387.426 136.662c-.233.766-.613 1.374-1.142 1.825-.528.447-1.194.67-1.996.67-.624 0-1.153-.127-1.586-.383a3.263 3.263 0 01-1.066-1.025 4.455 4.455 0 01-.595-1.47 8.305 8.305 0 01-.178-1.729c0-.597.06-1.174.178-1.73a4.524 4.524 0 01.595-1.476c.278-.429.633-.77 1.066-1.026.433-.259.962-.389 1.586-.389.552 0 1.023.098 1.415.294.392.196.681.494.868.895v-1.039h.8v2.926h-.8c0-.315-.061-.611-.184-.889a2.174 2.174 0 00-1.217-1.21 2.234 2.234 0 00-.882-.177c-.483 0-.884.113-1.203.341a2.529 2.529 0 00-.759.896 4.354 4.354 0 00-.41 1.23 8.038 8.038 0 000 2.707c.082.451.219.859.41 1.224.192.36.445.656.759.889.319.227.72.341 1.203.341 1.112 0 1.887-.672 2.324-2.016l.814.321zm2.252-4.033h.936v3.937c0 .57.123 1.012.369 1.327.251.309.652.464 1.203.464.347 0 .659-.079.937-.239.278-.159.515-.371.711-.636.196-.268.344-.574.444-.916.105-.346.157-.706.157-1.08v-2.857h.944V139h-.944v-1.593c-.446 1.167-1.248 1.75-2.406 1.75-1.568 0-2.351-.863-2.351-2.591v-3.937zm14.03.895c-.338-.168-.739-.253-1.204-.253-.382 0-.724.083-1.025.247-.301.164-.556.38-.766.649a2.95 2.95 0 00-.485.916 3.468 3.468 0 00-.164 1.06v2.057h1.442v.8h-3.821v-.8h1.443v-4.771h-1.443v-.8h2.379v1.6c.428-1.167 1.242-1.75 2.44-1.75.324 0 .604.02.841.061.242.041.465.114.67.219l-.307.765zm6.141-2.167h-1.271v-1.278h1.271v1.278zm1.272 7.643h-3.822v-.8h1.443v-4.771h-1.443v-.8h2.386v5.571h1.436v.8zm9.784-3.165c0 .497-.079.948-.239 1.353-.155.406-.38.755-.677 1.046a3.139 3.139 0 01-1.052.677 3.67 3.67 0 01-1.374.246c-.497 0-.951-.082-1.361-.246a3.22 3.22 0 01-1.059-.677 3.018 3.018 0 01-.677-1.046 3.759 3.759 0 01-.232-1.353c0-.483.077-.932.232-1.347.16-.419.385-.774.677-1.066a3.13 3.13 0 011.059-.691c.41-.168.864-.252 1.361-.252.506 0 .964.084 1.374.252.41.165.761.395 1.052.691.297.292.522.647.677 1.066.16.415.239.864.239 1.347zm-.936 0c0-.365-.055-.7-.164-1.005a2.29 2.29 0 00-.472-.813 2.207 2.207 0 00-.765-.547 2.45 2.45 0 00-1.005-.199c-.374 0-.711.067-1.012.199a2.157 2.157 0 00-.752.547 2.45 2.45 0 00-.472.813c-.104.305-.157.64-.157 1.005 0 .365.053.702.157 1.012.11.305.267.569.472.793.205.223.456.398.752.526a2.56 2.56 0 001.012.191c.373 0 .708-.063 1.005-.191.3-.128.556-.303.765-.526a2.18 2.18 0 00.472-.793 3.03 3.03 0 00.164-1.012zm8.944 1.401c0 .374-.093.684-.28.93a2.012 2.012 0 01-.725.588c-.291.146-.62.248-.984.308a6.14 6.14 0 01-1.06.095 6.092 6.092 0 01-1.729-.253 5.565 5.565 0 01-1.49-.663l.417-.806c.469.296.931.524 1.387.683.456.16.928.239 1.415.239 1.408 0 2.113-.364 2.113-1.093a.56.56 0 00-.178-.431 1.204 1.204 0 00-.465-.273 3.572 3.572 0 00-.677-.171 26.61 26.61 0 00-.793-.117c-.355-.05-.708-.109-1.059-.177a4.124 4.124 0 01-.964-.308 1.9 1.9 0 01-.697-.547c-.174-.228-.26-.528-.26-.902 0-.319.08-.595.239-.827.164-.233.381-.426.649-.581.274-.155.593-.269.957-.342a5.772 5.772 0 011.135-.109c.561 0 1.062.066 1.504.198a4.16 4.16 0 011.196.553l-.376.732a3.517 3.517 0 00-1.107-.533 4.485 4.485 0 00-1.873-.103 2.568 2.568 0 00-.663.178 1.586 1.586 0 00-.52.328.676.676 0 00-.205.506.57.57 0 00.171.431c.119.104.276.193.472.266.196.069.419.123.67.164.255.041.522.08.8.116.346.051.695.11 1.046.178.355.069.676.169.963.301.292.132.527.312.704.54.178.228.267.529.267.902zm5.964-5.879h-1.272v-1.278h1.272v1.278zm1.271 7.643h-3.821v-.8h1.442v-4.771h-1.442v-.8h2.386v5.571h1.435v.8zm9.69-2.03c-.073.67-.338 1.203-.793 1.599-.452.392-1.017.588-1.696.588-.373 0-.715-.061-1.025-.184a2.31 2.31 0 01-.793-.513 2.328 2.328 0 01-.513-.786 2.82 2.82 0 01-.178-1.012v-3.233h-1.442v-.8h1.442v-2.55h.937v2.55h2.714v.8h-2.714v3.233c0 .233.036.451.109.656.078.205.183.385.315.54.137.155.301.278.492.37.191.086.41.129.656.129.465 0 .852-.143 1.162-.43.315-.292.495-.668.54-1.128l.787.171zm8.472-4.341l-3.445 7.984c-.178.447-.429.739-.752.875a2.647 2.647 0 01-1.074.212c-.437 0-.875-.08-1.312-.239l.185-.807c.214.091.423.155.628.192.206.041.372.061.499.061.31 0 .522-.075.636-.225.119-.151.221-.328.308-.534l.389-.963-2.843-6.556h1.107l2.297 5.571 2.256-5.571h1.121zM62.72 52.563a7.68 7.68 0 01-.192 1.737 4.379 4.379 0 01-.601 1.463 3.126 3.126 0 01-1.067 1.018c-.433.25-.957.376-1.572.376-.624 0-1.153-.127-1.586-.383a3.275 3.275 0 01-1.066-1.025 4.466 4.466 0 01-.595-1.47 8.276 8.276 0 01-.178-1.73c0-.596.06-1.173.178-1.729a4.545 4.545 0 01.595-1.476c.278-.429.633-.77 1.066-1.026.433-.26.962-.39 1.586-.39.552 0 1.023.099 1.415.295.392.196.681.494.868.895V48.08h.8v2.926h-.8c0-.324-.061-.625-.184-.903a2.18 2.18 0 00-.486-.724 2.223 2.223 0 00-.731-.472 2.227 2.227 0 00-.882-.178c-.483 0-.884.114-1.203.342a2.514 2.514 0 00-.759.896c-.191.369-.328.78-.41 1.23a7.981 7.981 0 000 2.707c.082.452.219.86.41 1.224.192.36.444.656.759.889.319.227.72.341 1.203.341.72 0 1.288-.278 1.702-.834.415-.556.661-1.337.738-2.344h-1.975v-.8h2.967v.184zm7.645-1.039c-.337-.168-.738-.252-1.203-.252-.383 0-.725.081-1.026.246-.3.164-.555.38-.765.649-.21.264-.371.57-.486.916-.109.342-.163.695-.163 1.06V56.2h1.442v.8h-3.821v-.8h1.442V51.43h-1.442v-.8h2.379v1.6c.428-1.167 1.241-1.75 2.44-1.75.323 0 .604.02.84.061.242.041.466.114.67.219l-.307.765zm2.306 3.753c0-.4.1-.736.301-1.005.2-.273.463-.487.786-.642.329-.16.702-.274 1.121-.342.424-.073.855-.11 1.292-.11.17 0 .32.003.452.008a8.783 8.783 0 01.752.054l.403.048v-.458c0-.31-.068-.565-.205-.765a1.472 1.472 0 00-.492-.472 1.98 1.98 0 00-.616-.246 2.46 2.46 0 00-.546-.075c-.474 0-.912.063-1.313.19a5.007 5.007 0 00-1.121.514l-.424-.704a5.687 5.687 0 011.285-.568 5.222 5.222 0 011.573-.226c.346 0 .685.046 1.018.137.337.087.638.224.903.41.268.183.483.424.642.725.16.3.24.66.24 1.08V57h-.944v-1.066c-.164.205-.351.385-.56.54a3.236 3.236 0 01-.65.382 3.964 3.964 0 01-.684.22 2.785 2.785 0 01-.649.081c-.843 0-1.481-.162-1.914-.485-.433-.324-.65-.788-.65-1.395zm2.564 1.08c.392 0 .743-.056 1.053-.17.314-.119.58-.265.8-.438a2.11 2.11 0 00.505-.554c.123-.196.185-.373.185-.533v-.602c-.305-.045-.6-.07-.882-.075a44.56 44.56 0 00-.725-.007c-.337 0-.663.023-.977.069-.31.045-.581.12-.814.226-.232.1-.419.232-.56.396a.9.9 0 00-.212.608c0 .27.13.518.39.745.264.224.676.335 1.237.335zm12.164-2.536c0 .497-.078.948-.233 1.354a3.117 3.117 0 01-.656 1.053c-.278.291-.615.52-1.012.683-.396.164-.84.246-1.333.246-.337 0-.665-.061-.984-.184a2.958 2.958 0 01-.882-.547v3.124h-.936v-8.921h.936v.588c.579-.492 1.201-.739 1.866-.739.493 0 .937.082 1.333.247.397.16.734.39 1.012.69.283.296.501.652.656 1.066.155.41.233.857.233 1.34zm-.937 0c0-.355-.05-.688-.15-.998a2.099 2.099 0 00-1.162-1.353 2.301 2.301 0 00-.985-.198c-.355 0-.688.066-.998.198a2.6 2.6 0 00-.868.642v3.418c.274.297.563.508.868.636.31.128.643.191.998.191.374 0 .702-.066.985-.198.287-.132.528-.312.724-.54.196-.228.342-.494.438-.8.1-.31.15-.642.15-.998zM95.406 57h-.943v-3.93c0-.57-.123-1.012-.37-1.327-.245-.314-.644-.471-1.195-.471-.347 0-.661.08-.944.239-.278.16-.515.373-.71.642-.197.265-.347.57-.452.916-.1.342-.15.7-.15 1.074V57h-.937v-8.92h.937v4.148c.451-1.166 1.255-1.75 2.413-1.75 1.568 0 2.351.864 2.351 2.591V57zm6.128-7.643h-1.271V48.08h1.271v1.278zM102.806 57h-3.822v-.8h1.443V51.43h-1.443v-.8h2.386V56.2h1.436v.8zm9.381-1.217c-.269.42-.638.754-1.107 1.005-.465.246-1.019.37-1.661.37a3.68 3.68 0 01-1.367-.247 3.148 3.148 0 01-1.067-.684 3.175 3.175 0 01-.683-1.052 3.58 3.58 0 01-.247-1.354c0-.483.076-.93.226-1.34.15-.414.365-.767.643-1.06a2.86 2.86 0 011.018-.69 3.48 3.48 0 011.347-.253c.196 0 .396.023.601.069.206.045.399.116.581.212.183.09.347.203.493.335.146.127.255.28.328.458v-.923h.841v2.55h-.841c0-.283-.053-.54-.157-.773a1.826 1.826 0 00-.417-.601 1.845 1.845 0 00-.636-.39 2.17 2.17 0 00-.793-.143c-.383 0-.718.066-1.005.198a2.04 2.04 0 00-.711.54 2.376 2.376 0 00-.437.806c-.096.306-.144.64-.144 1.005 0 .365.055.702.164 1.012.114.305.276.57.485.793.215.223.47.401.766.533.301.132.638.198 1.012.198.474 0 .895-.093 1.264-.28.37-.187.652-.435.848-.745l.656.451zm17.219-3.233c0 .597-.064 1.167-.192 1.709a4.161 4.161 0 01-.601 1.422 2.975 2.975 0 01-1.067.964c-.433.236-.957.355-1.572.355h-2.898v-8.92h2.898c.606 0 1.126.122 1.559.368a3.01 3.01 0 011.066.978c.278.41.481.884.608 1.422.133.537.199 1.105.199 1.702zm-.937 0c0-1.167-.221-2.07-.663-2.707-.437-.643-1.048-.964-1.832-.964h-1.962V56.2h1.962c.784 0 1.395-.317 1.832-.95.442-.633.663-1.533.663-2.7zm3.551 1.593c.068.674.314 1.212.738 1.613.424.4.975.601 1.654.601.479 0 .905-.098 1.279-.294.373-.196.654-.44.84-.731l.657.451a3.34 3.34 0 01-1.142 1.026c-.442.232-.987.348-1.634.348a3.61 3.61 0 01-1.353-.246 3.249 3.249 0 01-1.067-.684 3.131 3.131 0 01-.69-1.052 3.58 3.58 0 01-.246-1.354c0-.483.073-.927.219-1.333.15-.41.364-.763.642-1.06.283-.3.625-.532 1.026-.697.401-.168.85-.253 1.346-.253.543 0 1.017.092 1.422.274.406.182.743.435 1.012.759.273.319.474.702.601 1.148.133.447.199.941.199 1.484h-5.503zm4.511-.8c-.104-.698-.357-1.217-.758-1.559-.401-.342-.896-.512-1.484-.512-.301 0-.579.05-.834.15a2.019 2.019 0 00-.676.417 2.349 2.349 0 00-.493.663 2.456 2.456 0 00-.253.84h4.498zm9.095 1.893c0 .374-.093.684-.28.93a2.008 2.008 0 01-.725.588c-.292.146-.62.248-.984.308-.36.063-.713.095-1.06.095a6.106 6.106 0 01-1.729-.253 5.61 5.61 0 01-1.491-.663l.417-.806c.47.296.932.524 1.388.683.456.16.928.24 1.415.24 1.408 0 2.112-.365 2.112-1.094a.56.56 0 00-.177-.431 1.21 1.21 0 00-.465-.273 3.58 3.58 0 00-.677-.171c-.251-.041-.515-.08-.793-.117-.355-.05-.709-.109-1.059-.177a4.105 4.105 0 01-.964-.308 1.91 1.91 0 01-.698-.547c-.173-.228-.259-.528-.259-.902 0-.32.079-.595.239-.827.164-.233.38-.426.649-.581.274-.155.593-.27.957-.342a5.78 5.78 0 011.135-.11c.561 0 1.062.067 1.504.199a4.16 4.16 0 011.196.553l-.376.732a3.52 3.52 0 00-1.107-.533 4.493 4.493 0 00-1.873-.103 2.58 2.58 0 00-.663.178 1.591 1.591 0 00-.52.328.676.676 0 00-.205.506.57.57 0 00.171.43c.119.105.276.194.472.267.196.069.419.123.67.164.255.041.522.08.8.116.346.05.694.11 1.045.178.356.069.677.169.964.3.292.133.527.313.704.541.178.228.267.529.267.902zm5.964-5.879h-1.272V48.08h1.272v1.278zM152.861 57h-3.821v-.8h1.442V51.43h-1.442v-.8h2.386V56.2h1.435v.8zm9.286-.068c0 .437-.075.827-.226 1.169-.15.341-.362.63-.635.868a2.741 2.741 0 01-.957.54 3.692 3.692 0 01-1.224.191c-.633 0-1.173-.118-1.62-.355a3.393 3.393 0 01-1.148-1.026l.656-.506c.196.297.478.545.847.746.37.2.791.3 1.265.3.647 0 1.158-.164 1.531-.492.379-.323.568-.793.568-1.408v-.684c-.556.493-1.19.739-1.901.739-.998 0-1.782-.285-2.351-.855-.57-.57-.855-1.349-.855-2.338 0-.483.073-.927.219-1.333.15-.41.362-.763.636-1.06.278-.3.615-.532 1.011-.697a3.398 3.398 0 011.34-.253c.347 0 .682.062 1.005.185.328.119.627.299.896.54v-.574h.943v6.303zm-.943-4.82a2.457 2.457 0 00-.889-.642 2.618 2.618 0 00-1.012-.198c-.373 0-.704.066-.991.198a1.987 1.987 0 00-.704.54c-.187.228-.33.499-.431.813-.095.31-.143.643-.143.998 0 .73.189 1.31.567 1.744.378.432.946.649 1.702.649.356 0 .693-.066 1.012-.198.324-.137.62-.356.889-.657v-3.247zM170.49 57h-.944v-3.93c0-.57-.123-1.012-.369-1.327-.246-.314-.645-.471-1.196-.471-.346 0-.661.08-.944.239-.277.16-.514.373-.71.642a2.97 2.97 0 00-.452.916c-.1.342-.15.7-.15 1.074V57h-.937v-6.371h.937v1.6c.451-1.167 1.256-1.75 2.413-1.75 1.568 0 2.352.863 2.352 2.59V57zM394.036 222.822c0 .505-.057.963-.171 1.374-.109.41-.282.761-.519 1.052a2.345 2.345 0 01-.889.67c-.36.16-.786.239-1.278.239-.497 0-.925-.079-1.285-.239a2.344 2.344 0 01-.882-.67 2.98 2.98 0 01-.513-1.059 5.432 5.432 0 01-.164-1.381v-5.729h.936v5.743c0 .268.023.553.069.854.05.301.143.574.28.82.141.246.335.452.581.616.251.164.577.246.978.246s.727-.082.977-.246c.255-.164.451-.37.588-.616.141-.246.235-.519.28-.82.046-.301.069-.586.069-.854v-5.743h.943v5.743zm8.828 3.178h-2.529v-.8h.601l-1.401-2.925-1.415 2.925h.601v.8h-2.536v-.8h.869l1.934-3.691-1.9-3.63h-.745v-.8h2.549v.8h-.745l1.388 2.858 1.347-2.858h-.718v-.8h2.55v.8h-.773l-1.859 3.63 1.914 3.691h.868v.8z" fill="#2F3946"/>
  <path d="M229 73l85 20.5 20 37 227.5-61L350 174v38l-21.5 66.5-99.5 14-81-34 22-66-47.5-43.5 44.5-34.5L229 73z" fill="#00FFF0" fill-opacity=".45" stroke="#F0F" stroke-width="3"/>
  <circle cx="349" cy="212" r="6" fill="#5900FF"/>
  <circle cx="349" cy="212" r="5.5" stroke="#000" stroke-opacity=".25"/>
  <circle cx="560" cy="70" r="6" fill="#5900FF"/>
  <circle cx="560" cy="70" r="5.5" stroke="#000" stroke-opacity=".25"/>
  <circle cx="328" cy="278" r="6" fill="#5900FF"/>
  <circle cx="328" cy="278" r="5.5" stroke="#000" stroke-opacity=".25"/>
  <circle cx="229" cy="294" r="6" fill="#5900FF"/>
  <circle cx="229" cy="294" r="5.5" stroke="#000" stroke-opacity=".25"/>
  <circle cx="170" cy="193" r="6" fill="#5900FF"/>
  <circle cx="170" cy="193" r="5.5" stroke="#000" stroke-opacity=".25"/>
  <circle cx="120" cy="149" r="6" fill="#5900FF"/>
  <circle cx="120" cy="149" r="5.5" stroke="#000" stroke-opacity=".25"/>
  <circle cx="167" cy="115" r="6" fill="#5900FF"/>
  <circle cx="167" cy="115" r="5.5" stroke="#000" stroke-opacity=".25"/>
  <circle cx="229" cy="73" r="6" fill="#5900FF"/>
  <circle cx="229" cy="73" r="5.5" stroke="#000" stroke-opacity=".25"/>
  <circle cx="314" cy="94" r="6" fill="#5900FF"/>
  <circle cx="314" cy="94" r="5.5" stroke="#000" stroke-opacity=".25"/>
  <circle cx="148" cy="259" r="6" fill="#5900FF"/>
  <circle cx="148" cy="259" r="5.5" stroke="#000" stroke-opacity=".25"/>
</svg>
