<svg xmlns="http://www.w3.org/2000/svg" width="181" height="48" viewBox="0 0 181 48">
  <defs>
    <linearGradient id="go-musgho-button-a" x1="50%" x2="50%" y1="0%" y2="117.072%">
      <stop offset="0%" stop-color="#B4ED50"/>
      <stop offset="100%" stop-color="#429321"/>
    </linearGradient>
  </defs>
  <g fill="none" fill-rule="evenodd">
    <rect width="181" height="48" fill="url(#go-musgho-button-a)" rx="6"/>
    <path fill="#417505" d="M61.3589447 18.3670799C61.4168809 18.4327368 61.4458486 18.5133145 61.4458486 18.6088154L61.4458486 30.4269972C61.4458486 30.5224982 61.4168809 30.6000915 61.3589447 30.6597796 61.3010084 30.7194677 61.231486 30.7493113 61.1503753 30.7493113L59.4296781 30.7493113C59.3485674 30.7493113 59.279045 30.7194677 59.2211088 30.6597796 59.1631726 30.6000915 59.1342049 30.5224982 59.1342049 30.4269972L59.1342049 23.3360882C59.1342049 23.2286496 59.1110307 23.1749311 59.0646818 23.1749311 59.02992 23.1749311 58.9777782 23.2167122 58.9082547 23.3002755 58.7228588 23.5867783 58.4186982 24.0344322 57.9957638 24.6432507 57.5728294 25.2520692 57.2628753 25.6937544 57.0658921 25.9683196 56.9500197 26.1235086 56.8544263 26.2249768 56.7791092 26.2727273 56.7037921 26.3204777 56.5792311 26.3443526 56.4054225 26.3443526L56.1099492 26.3443526C55.9013788 26.3443526 55.7594372 26.3264465 55.6841201 26.2906336 55.608803 26.2548208 55.5247968 26.1772274 55.4320988 26.0578512L53.5375938 23.3181818C53.4912449 23.2107433 53.439103 23.1570248 53.3811668 23.1570248 53.3348178 23.1570248 53.3116437 23.2107433 53.3116437 23.3181818L53.3116437 25.5385675C53.3116437 25.6340684 53.282676 25.7116618 53.2247398 25.7713499 53.1668036 25.8310379 53.0972811 25.8608815 53.0161704 25.8608815L51.312854 25.8608815C51.2317433 25.8608815 51.1593241 25.8280536 51.0955943 25.7623967 51.0318644 25.6967398 51 25.6221308 51 25.5385675L51 18.6088154C51 18.5133145 51.0318644 18.4327368 51.0955943 18.3670799 51.1593241 18.301423 51.2317433 18.268595 51.312854 18.268595L53.050932 18.268595C53.0856937 18.268595 53.1291452 18.2894856 53.1812878 18.3312672 53.2334304 18.3730489 53.2710884 18.4178143 53.2942629 18.4655647L55.9361414 22.9600551C55.9477287 22.9839303 55.9795931 23.0197426 56.0317357 23.0674931 56.0838783 23.1152436 56.150504 23.1391185 56.2316147 23.1391185 56.3301062 23.1391185 56.3938351 23.1092749 56.440184 23.0495868 56.486533 22.9898987 56.5155007 22.9481177 56.5270879 22.9242424L59.1515857 18.4834711C59.1863474 18.423783 59.2211086 18.3730489 59.2558703 18.3312672 59.2906321 18.2894856 59.3369803 18.268595 59.3949166 18.268595L61.1503753 18.268595C61.231486 18.268595 61.3010084 18.301423 61.3589447 18.3670799zM73.6135415 30.3016529C72.9588622 29.9077115 72.437444 29.3705268 72.0492714 28.6900826 71.6610987 28.0096385 71.4670152 27.2695173 71.4670152 26.469697L71.4670152 22.9958678C71.4670152 22.9003668 71.4988797 22.8227735 71.5626095 22.7630854 71.6263394 22.7033973 71.6987586 22.6735537 71.7798693 22.6735537L73.4136626 22.6735537C73.5063605 22.6735537 73.5816765 22.7033973 73.6396127 22.7630854 73.6975489 22.8227735 73.7265166 22.9003668 73.7265166 22.9958678L73.7265166 26.469697C73.7265166 27.0665778 73.9234968 27.5709346 74.3174631 27.9827824 74.7114294 28.3946302 75.1922928 28.600551 75.7600678 28.600551 76.2003831 28.600551 76.6059306 28.5050515 76.9767224 28.3140496 77.3475142 28.1230477 77.6429845 27.8634084 77.8631421 27.535124 78.0832998 27.2068395 78.193377 26.8517007 78.193377 26.469697L78.193377 18.5192837C78.193377 18.4357204 78.2252414 18.3611114 78.2889712 18.2954545 78.3527011 18.2297977 78.4309138 18.1969697 78.5236118 18.1969697L80.1226435 18.1969697C80.2153415 18.1969697 80.2935542 18.2297977 80.357284 18.2954545 80.4210139 18.3611114 80.4528783 18.4357204 80.4528783 18.5192837L80.4528783 26.469697C80.4528783 27.2814549 80.2530013 28.0245604 79.8532414 28.6990358 79.4534815 29.3735112 78.8973021 29.9077115 78.1846866 30.3016529 77.472071 30.6955943 76.6638729 30.892562 75.7600678 30.892562 74.9837224 30.892562 74.2682208 30.6955943 73.6135415 30.3016529zM71.5626095 20.3009642C71.4988797 20.2353073 71.4670152 20.1606983 71.4670152 20.077135L71.4670152 18.5192837C71.4670152 18.4237828 71.4988797 18.3461895 71.5626095 18.2865014 71.6263394 18.2268133 71.6987586 18.1969697 71.7798693 18.1969697L73.4136626 18.1969697C73.5063605 18.1969697 73.5816765 18.2268133 73.6396127 18.2865014 73.6975489 18.3461895 73.7265166 18.4237828 73.7265166 18.5192837L73.7265166 20.077135C73.7265166 20.1606983 73.6975489 20.2353073 73.6396127 20.3009642 73.5816765 20.3666211 73.5063605 20.399449 73.4136626 20.399449L71.7798693 20.399449C71.6987586 20.399449 71.6263394 20.3666211 71.5626095 20.3009642zM97.6175454 24.6342975C98.0462735 24.8670811 98.3909888 25.1893919 98.6517018 25.6012397 98.9124148 26.0130875 99.0427693 26.565194 99.0427693 27.2575758 99.0427693 27.9260823 98.8660665 28.5169855 98.5126556 29.030303 98.1592446 29.5436206 97.6581038 29.9465091 97.0092181 30.2389807 96.3603324 30.5314523 95.6129664 30.677686 94.7670976 30.677686 94.5701144 30.677686 94.3325795 30.6538111 94.0544856 30.6060606 93.9386131 30.594123 93.8575036 30.561295 93.8111547 30.5075758 93.7648057 30.4538565 93.7532186 30.3732788 93.7763931 30.2658402L93.8459162 29.7465565C93.8575035 29.6510555 93.8690905 29.5406342 93.8806778 29.4152893 93.892265 29.2899443 93.9096456 29.1735543 93.9328201 29.0661157 93.9559946 28.8751138 94.0660718 28.7796143 94.2630549 28.7796143L94.9930477 28.7975207C95.5724099 28.7975207 96.044583 28.6602401 96.4095812 28.3856749 96.7745794 28.1111097 96.9570758 27.7708928 96.9570758 27.3650138 96.9570758 27.0665733 96.8585857 26.7741061 96.6616025 26.4876033 96.5341428 26.3204767 96.3024014 26.1593213 95.9663713 26.0041322 95.6303413 25.8489432 95.172652 25.6758504 94.5932898 25.4848485 93.7126592 25.1744704 92.9971576 24.8849876 92.4467635 24.6163912 91.8963694 24.3477948 91.4879251 24.0165309 91.2214185 23.6225895 90.8969757 23.0973344 90.7347567 22.554181 90.7347567 21.9931129 90.7347567 21.4081697 90.8998724 20.8530788 91.2301089 20.3278237 91.5603454 19.8025685 92.0209314 19.3638677 92.6118809 19.011708 93.2028303 18.6595483 93.880674 18.44169 94.6454321 18.3581267 95.2016198 18.3342515 95.7462121 18.3700638 96.2792254 18.4655647 96.8122386 18.5610657 97.2757214 18.7043149 97.6696878 18.8953168 98.0288923 19.0863187 98.3649174 19.3190987 98.677773 19.5936639 98.7357092 19.6414144 98.7820575 19.6951329 98.8168192 19.7548209 98.8515809 19.814509 98.863168 19.8562901 98.8515808 19.8801653 98.7936445 20.0114791 98.5966643 20.3218525 98.2606343 20.8112948L98.0520649 21.1157025C98.0173032 21.1515153 97.9651614 21.1694215 97.8956379 21.1694215 97.8377017 21.1694215 97.7797663 21.1515153 97.7218301 21.1157025 97.2467531 20.8411373 96.8354121 20.656107 96.4877947 20.5606061 96.0822412 20.4412299 95.6766937 20.3815427 95.2711402 20.3815427 94.7960631 20.3815427 94.3499609 20.4651048 93.9328201 20.6322314 93.6199645 20.7874204 93.3737393 20.9754351 93.194137 21.196281 93.0145347 21.4171269 92.9247349 21.6409539 92.9247349 21.8677686 92.9247349 22.2258971 93.1275086 22.5362705 93.5330622 22.7988981 93.6952836 22.9063366 94.0168248 23.0734608 94.4976955 23.3002755 94.9785661 23.5270902 95.3870103 23.7001831 95.7230404 23.8195592 96.557322 24.1299373 97.1888174 24.401514 97.6175454 24.6342975zM90.2529512 21.1157025C90.2529512 21.1037649 90.2558479 21.0977961 90.2616416 21.0977961L90.2703319 21.0977961 90.2529512 21.1157025zM91.9253401 28.2961433C91.9427209 28.3319561 91.9456177 28.3737371 91.9340305 28.4214876L91.5168918 29.6212121C91.4937173 29.6809002 91.4531625 29.7226812 91.3952263 29.7465565 91.3372901 29.7704317 91.2735612 29.764463 91.2040377 29.7286501 90.8100714 29.5495859 90.5435688 29.4003679 90.4045219 29.2809917 90.3465856 29.2213037 90.317618 29.1735539 90.317618 29.137741 90.317618 29.0661153 90.3697598 28.9318192 90.474045 28.7348485 90.5783302 28.5378778 90.7231686 28.2782385 90.9085645 27.9559229 90.9665007 27.8723595 91.0476102 27.8604221 91.1518954 27.9201102L91.8471266 28.2066116C91.8818883 28.2304868 91.9079592 28.2603304 91.9253401 28.2961433zM111.697124 30.1315427C110.729589 29.5525683 109.964843 28.7646974 109.402861 27.7679063 108.84088 26.7711153 108.559893 25.6818241 108.559893 24.5 108.559893 23.3181759 108.84088 22.2288847 109.402861 21.2320937 109.964843 20.2353026 110.729589 19.4474317 111.697124 18.8684573 112.664659 18.2894829 113.721979 18 114.869116 18 115.135623 18 115.396332 18.0179062 115.651251 18.053719 115.755537 18.0656566 115.836646 18.1134064 115.894582 18.1969697 115.952519 18.280533 115.969899 18.3760325 115.946725 18.4834711L115.668632 20.0413223C115.633871 20.2323242 115.518 20.3278237 115.321017 20.3278237L114.869116 20.3099174C114.13912 20.3099174 113.461276 20.497932 112.835565 20.8739669 112.209854 21.2500019 111.714507 21.7603274 111.349509 22.4049587 110.98451 23.04959 110.802014 23.7479301 110.802014 24.5 110.802014 25.2520699 110.98451 25.95041 111.349509 26.5950413 111.714507 27.2396726 112.209854 27.7499981 112.835565 28.1260331 113.461276 28.502068 114.13912 28.6900826 114.869116 28.6900826 115.714985 28.6900826 116.456558 28.4423808 117.093856 27.9469697 117.731155 27.4515586 118.200431 26.7920151 118.501699 25.9683196L116.259579 25.9683196C116.166881 25.9683196 116.085771 25.9325072 116.016248 25.8608815 115.946724 25.7892558 115.911963 25.7056938 115.911963 25.6101928L115.911963 24.3030303C115.911963 24.2075294 115.946724 24.1239673 116.016248 24.0523416 116.085771 23.9807159 116.166881 23.9449036 116.259579 23.9449036L119.961685 23.9449036C120.239779 23.9449036 120.45414 23.9926533 120.604774 24.0881543 120.755408 24.1836552 120.830724 24.3209357 120.830724 24.5 120.830724 25.6937617 120.575808 26.7860373 120.06597 27.7768595 119.556131 28.7676817 118.846423 29.5525683 117.936824 30.1315427 117.027225 30.7105171 116.004666 31 114.869116 31 113.721979 31 112.664659 30.7105171 111.697124 30.1315427zM130.356538 26.7293388C130.304396 26.6756196 130.278325 26.612948 130.278325 26.5413223L130.278325 18.4834711C130.278325 18.4118454 130.304396 18.3491738 130.356538 18.2954545 130.408681 18.2417353 130.469513 18.214876 130.539036 18.214876L132.346638 18.214876C132.416161 18.214876 132.476993 18.2417353 132.529136 18.2954545 132.581278 18.3491738 132.607349 18.4118454 132.607349 18.4834711L132.607349 26.5413223C132.607349 26.612948 132.581278 26.6756196 132.529136 26.7293388 132.476993 26.7830581 132.416161 26.8099174 132.346638 26.8099174L130.539036 26.8099174C130.469513 26.8099174 130.408681 26.7830581 130.356538 26.7293388zM136.839569 30.6687328C136.775839 30.6030759 136.743975 30.5284669 136.743975 30.4449036L136.743975 26.1294766C136.743975 26.0339756 136.715007 25.9563823 136.657071 25.8966942 136.599135 25.8370061 136.523819 25.8071625 136.431121 25.8071625L134.258523 25.8071625C134.177413 25.8071625 134.104993 25.7743346 134.041264 25.7086777 133.977534 25.6430208 133.945669 25.5684118 133.945669 25.4848485L133.945669 23.9628099C133.945669 23.867309 133.977534 23.7897156 134.041264 23.7300275 134.104993 23.6703395 134.177413 23.6404959 134.258523 23.6404959L136.431121 23.6404959C136.523819 23.6404959 136.599135 23.6076679 136.657071 23.542011 136.715007 23.4763541 136.743975 23.4017451 136.743975 23.3181818L136.743975 18.5371901C136.743975 18.4536268 136.775839 18.3790178 136.839569 18.3133609 136.903299 18.247704 136.975718 18.214876 137.056829 18.214876L138.829668 18.214876C138.910779 18.214876 138.983198 18.247704 139.046928 18.3133609 139.110658 18.3790178 139.142522 18.4536268 139.142522 18.5371901L139.142522 30.4449036C139.142522 30.5284669 139.113555 30.6030759 139.055618 30.6687328 138.997682 30.7343897 138.922366 30.7672176 138.829668 30.7672176L137.056829 30.7672176C136.975718 30.7672176 136.903299 30.7343897 136.839569 30.6687328zM149.163689 27.1949036C148.78131 26.3174887 148.590123 25.4072591 148.590123 24.4641873 148.590123 23.7240551 148.708891 22.9988557 148.946429 22.2885675 149.183968 21.5782793 149.54027 20.9306733 150.015347 20.34573 150.583122 19.629473 151.249379 19.0773665 152.014137 18.6893939 152.778895 18.3014214 153.584196 18.0835631 154.430065 18.0358127 154.557525 18.0358127 154.635738 18.071625 154.699467 18.1432507 154.763197 18.2148764 154.800855 18.3044072 154.812442 18.4118457L154.812442 19.969697C154.812442 20.1965117 154.690778 20.3218548 154.447446 20.34573 153.92602 20.3934805 153.427776 20.5456828 152.952699 20.8023416 152.477622 21.0590004 152.077868 21.4022017 151.753425 21.8319559 151.127714 22.6198387 150.814863 23.5091778 150.814863 24.5 150.814863 25.0968809 150.936527 25.6728622 151.17986 26.2279614 151.423192 26.7830606 151.770804 27.2575738 152.222706 27.6515152 152.987464 28.2961465 153.844908 28.6184573 154.795062 28.6184573 155.374424 28.6184573 155.930603 28.4931142 156.463617 28.2424242 156.99663 27.9917343 157.448526 27.6276424 157.819317 27.1501377 158.132173 26.768134 158.366811 26.3473393 158.523239 25.887741 158.679667 25.4281428 158.757879 24.9595983 158.757879 24.4820937 158.757879 23.8016495 158.613041 23.1689653 158.32336 22.584022 158.265424 22.4646459 158.236456 22.3452715 158.236456 22.2258953 158.236456 22.0707063 158.305978 21.9334258 158.445025 21.8140496 158.537723 21.7543615 158.717323 21.6290184 158.98383 21.4380165 159.250336 21.2470147 159.418349 21.1276403 159.487872 21.0798898 159.58057 21.0202017 159.667473 20.9903581 159.748584 20.9903581 159.93398 20.9903581 160.073025 21.0798889 160.165723 21.2589532 160.72191 22.261713 161 23.3420511 161 24.5 161 25.2520699 160.878336 25.983238 160.635004 26.6935262 160.391671 27.4038144 160.032472 28.0514204 159.557395 28.6363636 158.98962 29.3884335 158.279912 29.9644149 157.42825 30.3643251 156.576587 30.7642352 155.68728 30.9641873 154.7603 30.9641873 154.030304 30.9641873 153.323492 30.8358599 152.639845 30.5792011 151.956198 30.3225423 151.347876 29.9494974 150.814863 29.4600551 150.096454 28.8273614 149.546068 28.0723184 149.163689 27.1949036zM32.5714286 22.1363636C32.5714286 21.9517036 32.5042789 21.7919041 32.3699777 21.6569602 32.2356764 21.5220164 32.0766378 21.4545455 31.8928571 21.4545455 30.6770773 21.4545455 29.5532046 21.6303249 28.5212054 21.9818892 27.4892061 22.3334535 26.5720836 22.809301 25.7698103 23.409446 24.9675369 24.0095911 24.135235 24.7890577 23.2728795 25.7478693 23.1385782 25.8970178 23.0714286 26.0568173 23.0714286 26.2272727 23.0714286 26.4119327 23.1385782 26.5717323 23.2728795 26.7066761 23.4071807 26.84162 23.5662193 26.9090909 23.75 26.9090909 23.9196437 26.9090909 24.0786823 26.84162 24.2271205 26.7066761 24.4179697 26.5362207 24.6794998 26.2840926 25.0117187 25.9502841 25.3439377 25.6164756 25.5807285 25.3821029 25.7220982 25.2471591 26.690481 24.3664729 27.6394113 23.7414791 28.5689174 23.3721591 29.4984235 23.0028391 30.6063924 22.8181818 31.8928571 22.8181818 32.0766378 22.8181818 32.2356764 22.7507109 32.3699777 22.615767 32.5042789 22.4808232 32.5714286 22.3210237 32.5714286 22.1363636zM38 20.0269886C38 20.7017079 37.9293162 21.3870704 37.7879464 22.0830966 37.462796 23.6740136 36.8107378 25.0340853 35.8317522 26.1633523 34.8527667 27.2926193 33.5892935 28.2443143 32.0412946 29.0184659 30.5286383 29.7855152 28.9806627 30.1690341 27.3973214 30.1690341 26.3511852 30.1690341 25.3404067 30.0021324 24.3649554 29.6683239 24.258928 29.6328123 23.9479192 29.4836661 23.4319196 29.2208807 22.91592 28.9580953 22.5766377 28.8267045 22.4140625 28.8267045 22.3009667 28.8267045 22.1613662 28.9403398 21.9952567 29.1676136 21.8291472 29.3948875 21.6701086 29.6434646 21.5181362 29.9133523 21.3661637 30.18324 21.1806187 30.431817 20.9614955 30.6590909 20.7423724 30.8863648 20.530321 31 20.3253348 31 20.0213898 31 19.7969687 30.9378557 19.6520647 30.8135653 19.5071607 30.6892749 19.3463551 30.4779844 19.1696429 30.1796875 19.1555059 30.1512783 19.1343007 30.1122162 19.1060268 30.0625 19.0777528 30.0127838 19.0583148 29.9772728 19.0477121 29.9559659 19.0371093 29.934659 19.0265067 29.9009235 19.015904 29.8547585 19.0053013 29.8085935 19 29.7606537 19 29.7109375 19 29.4623567 19.1095599 29.2013508 19.328683 28.9279119 19.5478062 28.6544731 19.7881311 28.421876 20.0496652 28.2301136 20.3111992 28.0383513 20.5515242 27.8394897 20.7706473 27.6335227 20.9897704 27.4275558 21.0993304 27.2571029 21.0993304 27.1221591 21.0993304 27.0937499 21.0498517 26.958808 20.9508929 26.7173295 20.851934 26.4758511 20.795387 26.3196026 20.78125 26.2485795 20.7176336 25.8863618 20.6858259 25.5170473 20.6858259 25.140625 20.6858259 24.3238596 20.8395632 23.5426174 21.1470424 22.796875 21.4545216 22.0511326 21.8750903 21.3959545 22.4087612 20.831321 22.942432 20.2666875 23.5450115 19.7730845 24.2165179 19.3504972 24.8880242 18.9279098 25.6089991 18.5887797 26.3794643 18.3330966 26.7682311 18.205255 27.2806888 18.114702 27.9168527 18.0614347 28.5530166 18.0081673 29.1874038 17.9762074 29.8200335 17.965554 30.4526631 17.9549005 31.0835162 17.9335939 31.7126116 17.9016335 32.341707 17.8696731 32.9195472 17.7844467 33.4461496 17.6459517 33.9727519 17.5074567 34.3738826 17.3068195 34.6495536 17.0440341L34.9623326 16.7297585C35.1001681 16.5912635 35.2044267 16.4918327 35.2751116 16.4314631 35.3457965 16.3710934 35.4412196 16.3000714 35.5613839 16.2183949 35.6815482 16.1367183 35.8105462 16.0799007 35.9483817 16.0479403 36.0862172 16.01598 36.2399545 16 36.4095982 16 36.6852692 16 36.9344297 16.1633506 37.1570871 16.4900568 37.3797444 16.816763 37.5476185 17.2144863 37.6607143 17.6832386 37.7738101 18.151991 37.8586307 18.5923275 37.9151786 19.0042614 37.9717265 19.4161952 38 19.7571009 38 20.0269886z"/>
  </g>
</svg>
