<svg width="1440" height="1005" viewBox="0 0 1440 1005" fill="none" xmlns="http://www.w3.org/2000/svg">
<g opacity="0.06">
<path fill-rule="evenodd" clip-rule="evenodd" d="M1657.67 665.493C1622.51 647.692 1596.94 617.863 1552.44 611.849C1528.09 596.454 1502.03 586.832 1479.17 565.663C1464.9 545.216 1447.45 523.567 1428.52 501.436C1419.66 481.47 1407.86 464.391 1400.73 443.944C1399.99 435.765 1398.27 428.789 1396.55 422.294C1398.03 413.874 1397.04 405.215 1391.14 395.592C1389.91 381.159 1388.68 366.726 1376.88 362.156C1371.72 370.334 1370 380.678 1369.51 392.225C1359.92 398.96 1358.69 410.988 1361.39 425.662C1363.11 434.081 1366.55 440.816 1370.98 446.349C1396.55 503.12 1422.86 549.065 1457.28 591.643C1470.07 608.001 1483.34 623.637 1497.61 637.107C1499.57 646.97 1502.03 656.111 1505.72 664.531C1502.28 669.342 1500.56 672.709 1499.57 675.355C1516.29 678.483 1534.24 679.445 1553.66 678.723C1569.4 684.496 1590.3 686.902 1616.61 686.18C1648.82 686.18 1677.09 684.737 1684.96 674.153C1679.8 670.304 1671.68 667.177 1657.67 665.493Z" fill="black" fill-opacity="0.75"/>
<path fill-rule="evenodd" clip-rule="evenodd" d="M1384.5 388.376C1502.77 304.423 1721.1 301.777 1772 377.31C1763.15 369.132 1753.07 362.637 1741.51 357.585C1748.64 365.764 1753.81 374.905 1757.49 385.008C1750.85 376.589 1744.22 367.929 1737.58 359.509C1742.5 371.297 1745.2 382.121 1746.92 392.465C1743.23 385.249 1739.54 377.31 1736.59 367.688C1736.59 375.145 1737.33 382.362 1739.3 389.097C1735.36 384.527 1731.92 379.475 1728.97 374.424C1729.46 381.64 1730.69 387.654 1732.41 393.187C1726.76 386.211 1722.09 378.032 1718.15 369.372C1720.37 379.475 1721.1 387.895 1720.61 394.871C1713.97 386.451 1709.06 374.424 1704.63 361.674C1707.34 372.98 1709.3 384.046 1709.55 395.592C1705.61 391.744 1702.17 385.73 1699.96 377.07C1700.45 382.843 1700.45 387.414 1700.2 391.503C1694.55 382.843 1690.37 369.853 1686.19 356.382C1688.89 370.334 1690.86 382.843 1691.11 393.427C1688.16 383.084 1684.22 372.74 1678.81 362.637C1682.26 372.499 1684.22 382.603 1684.96 392.465C1681.52 378.273 1674.63 366.004 1667.01 354.458C1670.7 367.929 1672.91 381.159 1673.16 393.908C1670.7 378.032 1663.57 363.599 1655.46 349.406C1661.6 368.169 1660.87 382.362 1657.42 395.352C1657.67 384.046 1654.72 372.74 1646.85 361.434C1650.29 373.461 1651.77 383.805 1651.28 391.984C1649.8 384.046 1647.34 375.867 1642.42 367.929C1643.65 377.07 1643.65 385.249 1643.16 393.427C1642.42 382.362 1636.03 362.877 1632.34 352.052C1635.05 366.004 1635.79 380.919 1634.8 396.555C1632.59 380.197 1627.43 364.802 1619.8 350.128C1622.26 366.726 1620.79 382.362 1616.61 397.757C1616.36 390.3 1615.38 382.843 1612.92 375.386C1613.66 382.121 1613.17 388.376 1612.67 394.39C1611.2 384.286 1606.04 376.348 1603.82 371.056C1601.86 382.362 1602.1 391.744 1602.84 400.163C1597.68 389.097 1594.97 376.829 1593.25 364.32C1592.51 372.98 1592.51 380.678 1593.5 387.173C1586.61 377.551 1582.68 365.764 1579.24 353.255C1581.69 371.537 1581.2 385.73 1579.24 397.998C1576.53 391.022 1573.58 383.805 1570.63 375.867C1571.12 382.602 1571.12 387.414 1570.38 390.541C1564.73 382.843 1560.3 372.499 1556.37 361.434C1557.6 375.145 1557.35 388.616 1553.66 401.606C1550.96 396.555 1548.5 390.06 1546.53 381.881C1546.53 385.008 1545.8 387.895 1544.81 390.541C1541.86 383.324 1539.65 373.461 1537.19 363.839C1537.68 377.791 1537.44 390.06 1535.72 399.922C1532.77 393.908 1530.31 386.933 1528.59 378.032C1528.83 385.008 1528.09 390.781 1526.86 395.352C1523.42 384.527 1521.21 371.297 1519.24 357.826C1518.5 371.297 1517.28 383.805 1514.57 394.63C1512.36 389.097 1510.88 382.121 1510.14 374.183C1510.14 383.805 1509.16 391.022 1507.69 397.517C1504.74 387.654 1503.51 374.664 1503.26 359.75C1501.79 371.778 1500.06 383.565 1496.62 392.225C1496.62 385.489 1497.11 377.31 1498.34 367.929C1495.88 378.273 1493.18 388.135 1490.23 396.795C1487.28 386.932 1485.8 374.424 1483.59 360.712C1484.08 372.499 1484.57 384.046 1483.34 393.187C1481.13 387.895 1479.16 381.159 1477.94 373.221C1477.94 380.197 1477.2 388.857 1476.21 395.833C1473.76 385.008 1472.77 372.499 1472.03 359.509C1468.84 372.74 1466.63 385.489 1465.89 397.517C1464.66 390.3 1464.17 382.843 1464.41 374.664C1461.95 382.362 1460.48 389.097 1460.48 394.871C1457.04 386.451 1455.81 374.905 1455.07 362.637C1452.86 373.943 1450.89 384.767 1450.89 395.111C1449.41 388.616 1448.43 381.64 1448.68 373.461C1446.22 379.716 1444.5 385.73 1444.5 391.503C1442.53 387.414 1441.3 382.121 1441.05 375.867C1437.86 382.362 1436.63 387.654 1436.14 392.706C1434.91 386.451 1435.65 377.791 1436.38 368.891C1432.94 377.551 1429.99 386.211 1429.01 393.668C1428.27 388.135 1427.78 380.678 1428.27 373.943C1413.27 380.678 1403.44 387.895 1391.63 396.314C1389.18 395.833 1386.72 395.111 1384.26 394.63C1384.01 392.465 1384.26 390.3 1384.5 388.376Z" fill="black" fill-opacity="0.75"/>
<path fill-rule="evenodd" clip-rule="evenodd" d="M1374.42 368.65C1430.97 236.828 1616.12 123.527 1699.71 162.256C1687.67 159.851 1675.62 159.37 1663.32 160.813C1673.65 164.181 1682.99 169.473 1691.6 176.208C1681.52 172.359 1671.19 168.27 1661.11 164.421C1671.44 172.119 1679.8 180.057 1686.68 187.995C1679.55 183.665 1672.42 178.854 1664.8 172.119C1668.73 178.614 1673.4 184.146 1678.57 188.958C1672.67 187.033 1667.26 184.387 1661.85 181.741C1666.03 187.514 1670.45 192.085 1674.63 195.934C1666.03 192.806 1657.91 188.236 1649.8 182.944C1657.18 190.401 1662.09 197.136 1665.29 203.391C1654.96 199.542 1644.64 191.844 1633.82 183.184C1642.18 191.363 1649.56 200.023 1655.95 209.645C1650.29 208.202 1644.39 204.834 1638 198.82C1641.44 203.391 1643.9 207.24 1645.87 210.848C1636.52 206.277 1625.95 197.377 1615.13 187.755C1624.97 198.339 1633.08 208.202 1638.98 217.102C1630.87 209.645 1622.02 202.91 1611.94 196.896C1620.3 203.631 1627.18 211.088 1633.08 219.267C1622.75 208.923 1610.22 201.947 1597.43 195.934C1607.76 205.556 1616.85 215.659 1623.74 226.484C1613.17 214.216 1599.4 205.556 1584.89 197.617C1599.89 210.367 1607.02 223.116 1610.95 235.625C1605.05 225.762 1596.69 217.824 1583.91 212.051C1593 220.47 1599.89 228.649 1603.82 235.865C1598.41 229.611 1591.77 224.078 1583.42 219.748C1589.32 226.965 1593.74 233.941 1597.43 241.157C1590.79 232.257 1575.06 218.546 1565.96 211.329C1575.79 221.913 1584.15 234.181 1591.53 248.134C1580.96 235.384 1568.42 224.8 1553.91 215.899C1564.73 228.889 1571.86 242.841 1576.53 257.996C1572.35 251.742 1567.43 245.969 1561.53 240.676C1565.71 245.969 1568.66 251.501 1571.37 257.275C1564.73 249.577 1556.12 245.247 1551.21 241.879C1555.63 252.463 1560.55 260.402 1565.71 267.378C1555.39 260.642 1546.53 251.501 1538.42 241.639C1542.11 249.336 1546.29 255.831 1550.71 260.883C1539.9 256.312 1530.06 248.134 1520.47 239.233C1532.27 253.666 1539.4 266.175 1544.32 277.722C1538.17 273.151 1532.03 268.34 1525.39 263.048C1529.32 268.34 1531.78 272.67 1532.77 275.797C1523.67 271.948 1514.57 265.453 1505.23 257.996C1513.59 269.062 1520.47 280.608 1524.16 293.598C1519 290.471 1513.59 286.381 1507.44 280.368C1509.16 283.014 1509.9 285.9 1510.64 288.546C1504.24 283.735 1497.11 276.519 1489.98 269.543C1497.85 281.089 1504.24 291.914 1507.93 301.055C1502.28 297.447 1496.38 292.876 1490.23 286.141C1494.16 291.914 1496.62 297.206 1498.1 301.777C1489.25 294.32 1480.64 284.216 1471.79 273.632C1478.43 285.419 1483.84 296.966 1487.28 307.55C1482.36 303.942 1477.44 298.89 1472.77 292.395C1477.94 300.574 1480.89 307.31 1483.1 313.564C1475.48 306.588 1467.36 296.244 1459.25 283.495C1464.41 294.56 1469.33 305.626 1471.05 314.526C1467.36 308.753 1463.67 301.536 1459.49 292.876C1462.94 302.98 1465.89 312.602 1467.85 321.502C1460.23 314.526 1452.12 304.663 1443.27 294.079C1449.91 303.942 1456.54 313.564 1460.23 321.983C1455.32 318.615 1450.15 313.804 1444.99 307.55C1448.68 313.564 1452.61 321.502 1455.56 327.997C1447.69 319.818 1440.07 309.715 1432.69 298.89C1436.87 311.88 1441.79 323.908 1447.69 334.733C1443.02 329.2 1438.35 323.186 1434.42 315.969C1436.38 323.908 1438.6 330.162 1441.55 335.214C1434.17 329.681 1427.04 320.54 1419.66 310.437C1423.6 321.262 1427.78 331.605 1433.43 340.265C1428.76 335.454 1424.34 329.921 1419.91 322.945C1421.14 329.681 1422.86 335.454 1425.81 340.506C1421.88 338.1 1418.19 334.011 1414.5 328.719C1415.24 335.935 1416.96 341.228 1419.42 345.557C1414.99 340.746 1411.06 333.289 1407.12 325.11C1408.85 334.251 1410.81 343.152 1413.76 350.128C1410.07 345.798 1405.65 339.784 1402.45 333.53C1393.36 346.76 1388.68 358.066 1383.03 371.056C1380.57 371.778 1378.36 372.74 1375.9 373.462C1376.14 372.499 1375.41 370.575 1374.42 368.65Z" fill="black" fill-opacity="0.75"/>
<path fill-rule="evenodd" clip-rule="evenodd" d="M1373.19 378.994C1272.63 299.131 1094.37 284.457 1057 347.482C1063.88 340.987 1071.75 335.695 1080.85 332.086C1075.44 338.822 1071.75 346.52 1069.05 355.179C1073.97 348.203 1078.88 341.227 1083.8 334.251C1080.6 344.355 1078.88 353.736 1078.15 362.637C1080.85 356.382 1083.31 349.647 1085.28 341.708C1085.52 348.203 1085.28 354.217 1084.05 360.231C1087 356.382 1089.46 352.293 1091.67 347.963C1091.67 354.217 1090.93 359.269 1089.95 364.08C1094.13 358.307 1097.57 351.331 1100.52 344.114C1099.04 352.774 1099.04 359.99 1099.78 366.245C1104.7 359.269 1108.14 349.166 1111.34 338.341C1109.62 347.963 1108.88 357.585 1109.13 367.448C1112.08 364.32 1114.53 359.269 1116.01 352.052C1115.76 357.104 1116.01 360.953 1116.5 364.561C1120.68 357.344 1123.39 346.279 1126.09 334.732C1124.62 346.76 1123.88 357.585 1124.12 366.726C1126.09 357.826 1128.8 349.166 1132.48 340.746C1130.27 349.166 1129.29 357.585 1129.04 366.245C1131.01 354.217 1136.17 343.873 1141.83 334.011C1139.61 345.557 1138.14 356.863 1138.88 368.169C1140.11 354.458 1145.27 342.19 1151.17 330.402C1147.24 346.279 1148.47 358.788 1151.91 370.094C1151.17 360.231 1153.14 350.609 1158.79 341.227C1156.58 351.571 1155.84 360.231 1156.82 367.688C1157.56 360.712 1159.28 353.977 1162.73 347.241C1162.23 355.179 1162.73 362.396 1163.46 369.372C1163.46 359.75 1167.64 342.911 1170.1 333.77C1168.63 345.798 1168.63 358.547 1170.35 372.499C1171.58 358.547 1174.77 345.317 1180.18 332.808C1178.95 347.001 1181.17 360.712 1185.1 374.183C1185.1 367.688 1185.35 361.193 1187.07 354.939C1186.82 360.712 1187.31 366.245 1188.3 371.537C1189.03 362.877 1192.97 356.142 1194.44 351.571C1196.66 361.674 1196.9 369.613 1196.66 377.07C1200.34 367.688 1201.82 357.344 1202.56 346.52C1203.79 353.977 1204.03 360.712 1203.29 366.245C1208.46 358.307 1211.16 348.203 1213.38 337.619C1212.39 353.255 1213.38 366.004 1215.59 376.589C1217.56 370.815 1219.52 364.561 1221.49 357.825C1221.24 363.599 1221.74 367.929 1222.47 370.815C1226.65 364.32 1229.85 355.661 1232.31 346.279C1232.06 358.066 1232.8 369.853 1236.49 381.4C1238.45 377.07 1240.18 371.537 1241.41 364.561C1241.65 367.448 1242.14 369.853 1243.37 372.259C1245.34 366.004 1246.81 357.585 1248.04 349.406C1248.29 361.434 1249.27 372.259 1250.99 380.919C1253.21 375.867 1254.93 370.094 1255.67 362.396C1255.91 368.41 1256.65 373.461 1257.88 377.551C1260.09 368.41 1261.32 356.863 1262.06 345.317C1263.29 357.104 1265.01 368.169 1267.71 377.551C1269.19 372.74 1269.93 366.967 1270.17 359.991C1270.66 368.41 1271.89 374.664 1273.37 380.438C1275.34 372.018 1275.58 360.712 1275.09 347.722C1276.81 358.307 1279.02 368.65 1281.97 376.348C1281.73 370.575 1280.74 363.358 1279.27 354.939C1281.73 364.08 1284.43 372.74 1287.38 380.438C1289.1 372.018 1289.84 361.193 1290.83 349.406C1291.07 359.509 1291.32 369.613 1292.79 377.791C1294.27 373.221 1295.5 367.448 1296.23 360.712C1296.48 366.726 1297.71 374.424 1298.69 380.678C1300.17 371.296 1300.41 360.472 1300.17 349.166C1303.61 360.953 1306.07 372.259 1307.05 382.843C1307.55 376.589 1307.79 370.334 1307.05 363.118C1309.51 369.853 1310.99 375.867 1311.48 380.919C1313.69 373.702 1314.18 363.599 1314.18 353.255C1316.64 363.118 1318.86 372.74 1319.35 381.64C1320.08 376.108 1320.58 370.094 1320.08 362.877C1322.54 368.41 1324.02 373.702 1324.26 378.754C1325.74 375.145 1326.23 370.815 1326.23 365.283C1329.18 371.056 1330.41 375.867 1330.9 380.197C1331.64 374.664 1330.66 367.207 1329.43 359.509C1332.62 367.448 1335.33 374.905 1336.8 381.4C1337.3 376.589 1337.05 370.094 1336.56 364.08C1349.1 370.815 1357.46 377.791 1367.54 385.73C1369.51 385.489 1371.47 385.249 1373.44 384.767C1373.93 382.602 1373.69 380.919 1373.19 378.994Z" fill="black" fill-opacity="0.75"/>
<path fill-rule="evenodd" clip-rule="evenodd" d="M1371.96 403.29C1247.8 292.155 1047.9 289.268 1068.56 454.528C1069.54 438.17 1072.98 423.256 1076.18 408.342C1073.72 422.053 1073.97 436.967 1075.19 449.957C1078.39 435.284 1080.11 419.167 1081.83 402.809C1083.06 411.95 1083.55 420.85 1083.31 429.991C1086.75 413.153 1087.73 393.908 1088.96 375.145C1088.96 393.187 1089.21 410.747 1090.93 425.421C1091.42 412.431 1092.16 399.682 1092.65 386.932C1093.39 396.314 1094.13 405.696 1094.62 415.077C1095.36 403.29 1097.82 391.984 1101.75 381.159C1102.24 392.465 1103.47 401.847 1106.17 408.582C1105.44 399.441 1105.19 390.06 1108.14 378.754C1115.27 389.338 1119.94 399.922 1121.42 410.988C1122.16 402.328 1122.4 393.908 1121.42 385.249C1124.37 393.187 1126.58 401.366 1127.81 409.544C1128.3 405.214 1128.8 400.885 1127.81 395.833C1129.78 402.328 1132.48 407.379 1135.43 410.988C1133.47 403.049 1136.66 389.579 1139.61 382.121C1137.4 391.984 1137.15 400.885 1138.63 408.823C1138.63 396.073 1146.5 375.867 1155.84 367.448C1157.81 378.513 1157.32 388.135 1155.6 397.276C1161 386.692 1163.96 374.664 1165.18 362.155C1165.92 370.815 1166.41 379.475 1165.92 388.135C1172.31 380.678 1176.49 372.259 1179.94 363.118C1179.2 369.372 1178.46 375.386 1175.76 381.64C1179.94 376.829 1182.89 371.778 1184.61 366.245C1184.12 374.905 1184.85 382.603 1186.82 390.06C1188.05 379.235 1192.48 366.967 1195.18 362.637C1195.92 369.853 1197.15 376.348 1198.62 381.64C1199.61 376.348 1199.85 370.815 1199.12 365.283C1201.08 369.372 1202.56 373.943 1203.05 379.475C1204.28 374.905 1204.52 369.853 1203.54 364.32C1206.74 371.778 1207.72 379.716 1207.72 387.654C1208.7 379.716 1209.93 370.815 1208.95 361.915C1214.36 368.41 1219.28 375.626 1219.28 385.97C1221.74 382.362 1227.64 359.75 1227.39 352.774C1227.88 363.358 1227.39 374.183 1224.69 386.211C1226.9 381.159 1229.11 376.108 1230.59 369.853C1231.08 375.867 1230.34 381.64 1228.87 387.173C1235.01 379.475 1237.72 369.853 1239.19 359.509C1242.14 368.169 1243.37 377.07 1242.39 386.211C1246.57 379.956 1250.01 372.98 1251.24 363.839C1251.73 369.853 1251.49 375.626 1250.26 380.919C1251.98 376.108 1253.7 371.296 1255.17 366.726C1255.67 374.905 1256.9 382.121 1258.86 388.135C1260.09 381.4 1262.06 374.664 1264.76 367.688C1263.78 375.386 1264.52 382.121 1266.24 388.376C1267.47 379.475 1270.91 370.094 1276.81 360.231C1280.5 368.891 1282.22 377.551 1280.01 386.451C1284.19 381.159 1287.63 375.145 1289.1 367.688C1291.56 374.664 1293.28 381.881 1293.04 389.579C1295.25 384.527 1296.97 379.235 1297.46 373.461C1298.2 380.197 1297.96 386.692 1296.97 392.946C1301.15 386.692 1303.86 379.716 1305.58 372.018C1305.09 381.881 1305.82 390.781 1308.53 397.998C1309.02 391.262 1310 384.286 1312.46 377.07C1311.97 382.121 1312.46 386.451 1313.69 390.3C1313.2 386.211 1315.41 378.273 1317.38 373.221C1335.08 384.286 1350.82 396.555 1368.03 411.469C1369.51 409.063 1371.23 405.214 1371.96 403.29Z" fill="black" fill-opacity="0.75"/>
<path fill-rule="evenodd" clip-rule="evenodd" d="M1440.32 250.78C1475.23 256.793 1503.75 272.67 1530.55 291.192C1518.01 284.698 1505.47 280.368 1492.93 277.721C1506.7 285.179 1519 293.839 1529.81 303.461C1516.54 294.56 1503.51 287.825 1490.23 283.014C1505.47 291.674 1520.22 302.258 1534.73 313.804C1519.49 305.385 1503.01 298.409 1484.33 293.357C1496.62 302.98 1506.95 314.045 1515.55 326.794C1503.51 319.578 1491.7 310.918 1480.39 301.055C1488.02 316.691 1492.93 333.049 1492.69 350.128C1489.24 338.1 1485.31 326.554 1478.92 315.969C1481.62 326.313 1482.36 336.657 1480.89 346.76C1478.92 337.619 1473.02 325.832 1468.35 322.224C1475.23 342.671 1475.48 360.472 1472.53 377.31C1469.82 360.472 1467.12 349.166 1458.26 333.53C1457.77 341.228 1457.77 352.293 1457.04 359.991C1455.31 353.977 1451.63 338.581 1451.87 330.643C1446.95 340.025 1444.74 348.685 1444.74 357.104C1442.53 350.368 1441.55 343.152 1442.04 335.454C1438.59 341.709 1437.12 347.722 1436.63 353.736C1434.66 343.633 1435.4 333.289 1438.59 322.224C1433.19 330.403 1429.99 338.581 1428.02 347.001C1426.79 337.619 1429.01 327.275 1434.91 316.21C1425.81 327.275 1418.68 338.581 1414.5 350.369C1414.5 342.19 1416.22 334.011 1420.89 325.351C1413.76 333.77 1408.6 342.911 1406.63 353.736C1405.89 347.722 1406.39 341.227 1409.58 333.77C1402.94 341.227 1399.5 348.925 1398.52 356.623C1397.04 347.963 1400.98 320.299 1403.68 312.842C1390.9 327.275 1382.29 362.156 1380.81 381.159C1378.85 381.881 1376.63 382.843 1374.67 383.565C1373.44 342.671 1402.7 269.302 1440.32 250.78Z" fill="black" fill-opacity="0.75"/>
<path fill-rule="evenodd" clip-rule="evenodd" d="M1330.41 243.563C1316.15 236.106 1301.89 226.724 1292.79 218.546C1301.15 221.432 1310.49 223.597 1322.3 223.838C1317.38 219.989 1310 211.81 1300.41 207.721C1306.81 208.202 1313.2 209.164 1319.59 211.57C1312.46 206.758 1305.33 204.112 1297.71 201.707C1313.94 200.264 1329.92 202.188 1346.15 208.923C1332.62 196.415 1318.12 186.552 1302.14 180.057C1318.12 182.222 1332.87 186.552 1346.39 193.287C1336.31 186.071 1317.63 173.803 1306.56 170.435C1314.92 171.638 1323.28 173.562 1332.13 177.17C1325 169.232 1317.38 164.181 1309.51 160.813C1317.87 162.016 1327.95 166.346 1339.26 173.081C1329.43 161.053 1318.61 154.799 1307.05 152.393C1320.58 151.191 1335.08 153.596 1352.79 165.383C1340 152.153 1326.72 140.366 1311.23 133.39C1324.02 136.517 1337.05 142.29 1349.83 149.988C1339.51 137.72 1328.44 126.414 1314.92 119.197C1324.76 122.565 1334.34 127.135 1343.69 133.39C1334.59 124.489 1325 117.273 1314.92 111.259C1325.49 113.905 1337.79 118.957 1351.31 125.452C1338.52 117.273 1325.98 109.335 1318.61 100.434C1322.79 101.156 1327.46 102.118 1332.87 104.042C1324.76 99.2313 1319.35 93.9391 1316.15 88.1659C1327.46 91.0525 1338.52 96.1041 1349.1 101.877C1337.05 93.458 1325.98 84.7982 1318.61 74.6949C1325.74 75.6571 1334.1 78.3032 1343.69 83.3548C1335.82 76.3788 1328.44 68.9216 1322.54 60.5023C1327.71 63.6295 1333.61 66.7567 1340.74 68.9216C1336.07 64.3511 1331.64 59.059 1327.71 53.0452C1334.34 56.894 1341.23 59.5401 1348.85 61.224C1339.75 55.4507 1332.38 49.4368 1325.74 42.9419C1335.82 47.2719 1346.39 53.0451 1357.46 61.7051C1350.08 51.6018 1342.7 41.7392 1335.33 31.6359C1344.92 38.612 1353.03 47.0313 1359.92 57.6157C1356.96 42.4608 1352.29 28.7493 1345.65 16C1354.26 26.1032 1360.9 39.0931 1366.06 54.729C1371.23 39.3336 1377.86 26.1032 1386.47 16C1379.83 28.7493 1375.16 42.7014 1372.21 57.6157C1379.09 47.2719 1387.45 38.612 1396.8 31.6359C1389.42 41.7392 1382.29 51.6018 1374.67 61.7051C1385.73 53.0451 1396.3 47.2719 1406.39 42.9419C1399.75 49.1963 1392.37 55.4507 1383.27 61.224C1390.65 59.5401 1397.78 56.6535 1404.42 53.0452C1400.48 59.059 1396.06 64.3511 1391.39 68.9216C1398.52 66.7567 1404.42 63.6295 1409.58 60.5023C1403.68 68.9216 1396.06 76.3788 1388.44 83.3548C1398.27 78.3032 1406.39 75.6571 1413.52 74.6949C1406.39 84.7982 1395.08 93.458 1383.03 101.877C1393.85 96.1041 1404.66 91.2931 1415.97 88.1659C1412.78 93.9391 1407.37 99.2313 1399.26 104.042C1404.91 102.118 1409.34 100.915 1413.52 100.434C1405.89 109.335 1393.35 117.513 1380.81 125.452C1394.34 118.957 1406.63 113.905 1417.2 111.259C1407.12 117.273 1397.78 124.489 1388.44 133.39C1397.78 126.895 1407.37 122.324 1417.2 119.197C1403.68 126.414 1392.62 137.72 1382.29 149.988C1395.08 142.531 1408.11 136.517 1420.89 133.39C1405.4 140.125 1392.12 152.153 1379.34 165.383C1396.8 153.596 1411.55 151.431 1425.07 152.393C1413.76 154.558 1402.94 161.053 1392.86 173.081C1404.42 166.346 1414.25 162.016 1422.61 160.813C1414.75 164.181 1407.12 169.232 1399.99 177.17C1408.84 173.562 1417.2 171.638 1425.56 170.435C1414.75 173.803 1396.06 186.071 1385.73 193.287C1399.26 186.793 1414.01 182.463 1429.99 180.057C1414.01 186.552 1399.26 196.415 1385.98 208.923C1401.96 202.188 1418.19 200.504 1434.42 201.707C1427.04 203.872 1419.66 206.758 1412.53 211.57C1418.93 209.164 1425.32 208.202 1431.71 207.721C1421.88 211.81 1414.75 219.989 1409.83 223.838C1421.63 223.597 1430.97 221.432 1439.33 218.546C1429.5 226.965 1416.47 236.106 1401.47 243.323C1409.09 242.36 1416.96 241.879 1424.58 241.879C1415.24 245.969 1408.11 248.134 1402.94 248.855C1413.76 249.817 1423.84 251.742 1432.45 255.11C1415.24 256.553 1397.53 257.756 1381.31 257.515C1391.39 261.123 1402.21 264.251 1414.75 265.453C1403.43 267.378 1390.4 266.897 1375.65 263.77C1388.19 272.429 1401.71 278.443 1415.48 282.533C1401.96 282.052 1388.44 279.165 1374.42 271.467C1380.08 278.203 1386.72 283.495 1394.83 286.863C1384.99 285.9 1375.65 282.292 1367.54 274.354L1365.08 312.121L1362.87 273.151C1354.26 282.052 1344.67 285.9 1334.59 286.863C1342.7 283.495 1349.34 278.203 1355 271.467C1340.98 279.165 1327.46 282.052 1313.94 282.533C1327.71 278.443 1341.23 272.429 1353.77 263.77C1339.26 266.897 1326.23 267.378 1314.67 265.453C1327.21 264.251 1338.03 261.364 1348.11 257.515C1331.89 257.756 1314.18 256.793 1296.97 255.11C1305.58 251.501 1315.66 249.817 1326.48 248.855C1321.31 248.134 1314.43 245.969 1304.84 241.879C1313.69 241.879 1322.05 242.36 1330.41 243.563Z" fill="black" fill-opacity="0.75"/>
<path fill-rule="evenodd" clip-rule="evenodd" d="M1374.67 409.304C1392.37 267.378 1288.61 79.5059 1196.41 72.5299C1207.97 76.1382 1218.78 81.6709 1228.87 89.1281C1218.29 86.9631 1207.47 86.9631 1196.41 88.6469C1207.23 90.0903 1218.05 91.7742 1228.87 93.2175C1215.83 94.9013 1204.77 97.788 1194.69 101.396C1203.05 101.156 1211.9 100.194 1221.74 98.0285C1215.1 101.637 1208.21 104.283 1201.33 106.207C1207.47 107.41 1213.62 107.891 1219.52 107.891C1212.88 110.778 1206.98 112.702 1201.08 114.146C1210.18 115.589 1219.52 115.589 1229.36 114.867C1219.03 117.754 1211.41 121.362 1205.51 125.211C1216.33 126.895 1229.36 125.211 1242.88 122.805C1231.57 125.933 1220.75 129.781 1210.42 135.074C1215.83 136.758 1222.72 136.517 1231.57 134.352C1226.16 136.517 1222.23 138.923 1218.54 141.087C1228.87 141.809 1242.63 139.163 1256.65 136.036C1242.88 140.366 1230.83 144.936 1221 149.988C1231.82 147.582 1242.88 145.899 1254.44 145.658C1243.86 147.582 1234.27 150.71 1224.93 154.799C1239.19 150.95 1253.45 150.95 1267.96 151.672C1254.19 155.04 1241.16 159.369 1229.6 165.624C1245.09 160.091 1261.32 159.129 1278.04 159.129C1258.37 162.978 1246.08 170.675 1236.24 179.576C1246.32 174.043 1257.63 171.157 1271.65 172.359C1259.35 175.246 1249.27 178.854 1242.14 183.184C1250.01 180.538 1258.37 178.854 1267.96 179.095C1259.11 182.463 1251.73 186.552 1244.85 190.882C1254.93 186.071 1275.83 181.981 1287.14 180.057C1273.37 184.628 1259.85 191.122 1246.32 199.782C1262.06 193.769 1278.29 190.641 1295.25 189.92C1279.52 195.934 1265.99 204.834 1254.19 215.659C1261.07 212.291 1268.21 209.405 1276.07 207.961C1269.68 210.367 1264.27 213.734 1259.11 217.583C1268.94 213.975 1278.53 214.456 1284.43 213.734C1275.34 220.951 1266.98 225.281 1258.86 228.889C1271.4 227.927 1283.45 224.319 1295.5 219.748C1288.37 224.559 1281.48 228.168 1275.09 230.333C1286.89 231.776 1299.43 229.13 1312.22 226.243C1294.76 232.979 1282.22 240.436 1272.14 248.134C1279.76 247.171 1287.63 245.969 1295.99 244.766C1289.84 247.652 1285.42 250.058 1282.96 252.223C1292.79 253.426 1303.86 252.223 1315.66 250.058C1302.87 255.591 1290.83 262.326 1281.24 271.948C1287.14 271.708 1294.02 270.746 1302.38 268.581C1299.43 270.024 1297.46 272.189 1295.5 274.113C1303.61 273.151 1313.2 270.264 1323.03 267.618C1310.5 273.873 1299.43 280.127 1291.56 286.381C1298.2 286.141 1305.58 284.938 1314.43 281.811C1308.04 285.179 1303.37 288.306 1299.68 291.674C1310.99 289.509 1323.77 284.938 1336.8 279.886C1325 287.103 1314.43 294.32 1306.07 301.777C1312.22 301.055 1318.86 298.89 1326.48 295.763C1317.63 300.333 1311.97 304.904 1306.81 309.234C1316.89 307.069 1329.18 301.777 1342.7 294.56C1332.62 301.777 1323.03 308.753 1316.89 315.969C1323.03 312.602 1329.92 308.272 1337.79 302.498C1329.67 309.715 1322.3 316.691 1316.15 323.427C1326.23 321.021 1338.28 316.451 1351.56 311.399C1340.74 316.691 1330.17 321.983 1322.54 327.516C1328.44 326.794 1335.33 325.11 1343.2 322.464C1336.8 325.832 1329.43 330.884 1323.77 334.973C1334.59 331.846 1346.39 326.554 1358.44 320.78C1348.11 329.921 1337.79 338.1 1327.46 344.595C1334.35 342.19 1341.48 339.063 1348.36 334.733C1342.7 340.746 1337.54 345.076 1332.38 347.963C1341.72 346.76 1352.54 342.19 1363.85 337.138C1355 344.595 1346.15 351.571 1336.8 356.382C1343.2 354.458 1350.08 351.812 1357.46 347.963C1353.28 353.015 1348.61 357.585 1343.44 360.231C1348.11 359.991 1353.28 358.307 1359.18 355.42C1355 361.193 1350.82 365.042 1346.64 367.688C1352.79 365.764 1360.16 360.953 1367.78 355.901C1361.64 363.118 1355.49 369.613 1349.34 374.424C1354.75 372.499 1361.64 369.372 1367.54 365.523C1368.77 381.4 1367.05 393.668 1365.33 407.62C1367.05 409.544 1368.77 411.228 1370.24 413.153C1371.47 411.709 1373.19 410.507 1374.67 409.304Z" fill="black" fill-opacity="0.75"/>
<path fill-rule="evenodd" clip-rule="evenodd" d="M1369.01 379.475C1347.13 233.219 1209.44 120.159 1128.06 246.69C1138.14 235.865 1149.2 227.446 1160.27 218.786C1150.43 226.965 1142.07 237.309 1135.43 247.171C1146.01 238.752 1156.82 228.408 1167.4 218.064C1162.97 225.04 1158.05 231.535 1152.64 237.79C1164.94 227.927 1176.74 215.178 1188.54 202.669C1178.22 215.178 1168.13 227.686 1160.76 238.752C1168.63 230.092 1176.49 221.432 1184.36 213.013C1179.44 219.989 1174.28 226.724 1169.36 233.7C1176.74 226.003 1184.85 219.508 1193.95 214.216C1187.56 222.394 1183.13 229.611 1181.17 235.865C1185.84 229.13 1191 222.394 1199.85 216.14C1198.62 227.446 1195.92 237.549 1190.51 245.968C1196.16 240.436 1201.08 234.422 1205.51 227.927C1203.05 235.144 1199.85 241.879 1195.92 248.615C1198.62 245.728 1201.57 243.082 1203.79 238.992C1201.33 244.766 1200.34 249.577 1200.34 253.666C1203.79 246.931 1213.38 239.474 1219.77 235.865C1212.64 241.398 1207.23 247.412 1203.54 253.907C1210.92 245.006 1228.37 235.384 1239.68 234.662C1234.52 243.563 1228.62 249.817 1222.23 255.109C1232.06 250.539 1241.16 244.044 1249.27 236.106C1245.09 242.601 1240.18 248.855 1234.77 254.628C1243.37 252.944 1251.49 249.577 1259.11 245.006C1255.17 248.855 1250.99 252.704 1245.58 255.591C1251.24 254.628 1256.4 252.704 1260.83 249.817C1255.42 255.591 1251.49 261.364 1248.78 267.618C1255.91 260.642 1265.99 254.628 1270.66 253.426C1266.98 258.718 1264.03 263.769 1262.06 268.58C1265.75 265.453 1269.19 261.845 1271.89 257.515C1270.91 261.364 1269.19 265.453 1266.48 269.543C1269.93 266.897 1273.12 263.529 1275.83 259.199C1273.61 266.415 1269.93 272.429 1265.25 277.721C1270.42 272.91 1276.56 267.137 1281.24 260.642C1281.24 268.099 1280.5 275.797 1274.35 283.014C1278.29 281.811 1295.5 269.543 1299.18 264.491C1293.53 271.948 1286.89 279.405 1277.79 286.141C1282.22 283.976 1286.65 281.57 1291.32 277.962C1288.12 282.292 1284.43 286.141 1280.01 289.268C1288.61 287.344 1296.23 282.292 1303.36 275.556C1300.17 283.014 1296.23 290.23 1289.84 296.003C1296.48 294.079 1302.87 291.192 1309.02 285.419C1305.82 289.749 1302.38 293.598 1298.45 296.725C1302.38 294.32 1306.32 291.914 1310.25 289.749C1305.82 295.763 1302.63 301.296 1300.41 306.588C1305.33 302.498 1310.5 298.89 1316.4 295.763C1311.23 300.574 1307.79 305.626 1305.58 310.918C1311.48 305.385 1319.35 300.815 1329.43 297.206C1326.97 305.385 1323.03 312.12 1316.4 317.172C1322.3 315.969 1328.2 313.804 1333.61 309.234C1331.39 315.488 1328.44 321.502 1323.53 326.794C1328.2 324.629 1332.38 321.743 1335.82 317.894C1332.38 322.945 1328.69 327.516 1324.02 331.124C1330.66 328.959 1336.56 325.591 1342.21 321.262C1336.31 327.756 1331.64 334.492 1329.18 340.987C1333.36 336.416 1338.03 332.327 1344.18 328.478C1340.98 331.846 1338.77 334.973 1337.3 338.341C1339.26 335.214 1345.41 330.884 1349.83 328.478C1355.49 346.038 1359.67 363.358 1362.87 383.324C1363.85 381.881 1367.29 380.437 1369.01 379.475Z" fill="black" fill-opacity="0.75"/>
<path fill-rule="evenodd" clip-rule="evenodd" d="M1373.44 401.847C1422.86 262.086 1579.48 175.968 1635.54 315.248C1627.67 302.98 1618.33 292.636 1609.23 282.052C1617.35 291.914 1623.49 303.701 1628.16 314.526C1619.31 304.423 1610.71 292.395 1602.35 280.127C1605.3 287.825 1608.99 295.041 1613.17 302.018C1603.09 290.23 1593.99 275.316 1584.64 261.124C1592.27 275.316 1599.89 289.509 1605.05 301.536C1599.15 291.674 1593 281.811 1586.86 271.948C1590.3 279.646 1593.99 287.344 1597.43 295.041C1591.78 286.141 1584.89 278.203 1577.02 271.227C1581.69 280.368 1584.64 288.306 1585.63 294.801C1582.19 287.344 1578.5 279.646 1570.88 272.189C1569.89 283.495 1570.88 294.079 1574.32 303.22C1569.89 296.725 1565.96 289.99 1563.01 283.014C1564.24 290.471 1565.96 297.928 1568.66 304.904C1566.45 301.777 1564.24 298.409 1562.76 294.079C1563.99 300.093 1564.24 305.145 1563.25 309.234C1561.29 302.258 1553.17 292.876 1547.52 288.306C1553.42 295.282 1557.6 302.017 1560.06 308.994C1554.65 298.89 1539.4 286.141 1528.34 283.495C1531.78 293.117 1536.45 300.334 1541.62 306.829C1532.77 300.574 1525.39 292.395 1518.75 283.014C1521.7 289.99 1525.39 296.966 1529.57 303.942C1521.21 300.574 1514.08 295.763 1507.44 289.99C1510.64 294.56 1513.83 298.89 1518.75 302.98C1513.34 300.815 1508.67 298.169 1504.98 294.56C1509.16 301.055 1511.87 307.791 1513.59 314.286C1507.93 306.107 1499.08 298.409 1494.9 296.244C1497.61 302.018 1499.57 307.791 1500.56 312.602C1497.36 308.753 1494.9 304.664 1492.93 300.093C1493.18 304.182 1494.16 308.272 1496.13 312.842C1493.18 309.715 1490.72 305.866 1489 301.055C1489.74 308.512 1492.2 315.007 1495.88 321.262C1491.7 315.488 1486.79 308.753 1483.59 301.536C1482.12 308.994 1481.62 316.451 1486.05 324.87C1482.36 323.186 1467.85 307.791 1465.15 302.258C1469.33 310.677 1474.49 319.337 1482.12 327.516C1478.18 324.629 1474.25 321.502 1470.31 316.932C1472.53 321.743 1475.48 326.073 1479.17 329.922C1471.05 326.313 1464.66 320.059 1459 312.361C1460.48 320.54 1463.18 327.997 1468.1 334.733C1462.2 331.606 1456.3 327.516 1451.38 320.781C1453.59 325.592 1456.3 329.922 1459.74 333.77C1456.3 330.643 1452.86 327.757 1449.41 324.629C1452.61 331.365 1454.82 337.619 1456.05 342.911C1452.12 338.1 1447.69 333.53 1442.53 329.441C1446.46 334.973 1449.17 340.747 1450.4 346.279C1445.48 339.544 1438.6 333.77 1429.74 328.478C1430.48 336.898 1433.19 344.355 1438.84 350.369C1433.19 348.204 1427.78 344.836 1423.6 339.544C1424.58 346.039 1426.55 352.534 1430.24 358.547C1426.06 355.42 1422.61 352.052 1419.66 347.723C1421.88 353.255 1425.07 358.307 1428.52 362.877C1422.61 359.51 1417.2 355.42 1412.53 349.888C1417.2 357.345 1420.65 364.802 1421.63 371.778C1418.43 366.726 1414.5 361.675 1409.34 356.864C1411.8 360.712 1413.27 364.321 1414.25 367.929C1412.78 364.321 1407.62 359.029 1403.93 355.901C1394.83 372.018 1387.7 388.135 1380.82 407.139C1377.87 405.215 1374.67 403.05 1373.44 401.847Z" fill="black" fill-opacity="0.75"/>
<path fill-rule="evenodd" clip-rule="evenodd" d="M1373.44 387.654C1338.28 234.662 1446.46 39.574 1589.56 108.132C1573.83 104.283 1557.84 103.321 1541.86 102.118C1556.12 103.561 1569.89 108.132 1581.2 113.424C1565.71 112.221 1549.73 109.334 1533.5 105.967C1541.13 109.815 1549.49 112.943 1558.09 115.348C1540.39 113.905 1521.95 109.094 1503.51 105.004C1520.23 110.297 1536.45 115.829 1549.24 121.603C1536.95 118.475 1524.65 115.108 1512.36 111.98C1520.72 115.348 1529.08 118.716 1537.44 122.084C1525.88 119.438 1514.33 118.475 1501.79 119.197C1512.11 122.805 1520.23 126.895 1524.9 131.465C1516.78 128.097 1508.18 124.97 1495.88 124.73C1501.79 134.833 1509.16 142.531 1518.51 147.101C1509.9 145.417 1501.79 143.012 1494.41 139.644C1500.06 144.936 1506.7 149.266 1513.59 153.115C1509.41 152.393 1504.98 151.431 1500.8 149.026C1505.97 152.874 1508.92 156.964 1510.88 160.813C1504.24 156.723 1490.23 155.521 1481.62 156.242C1491.95 156.964 1500.56 159.369 1507.2 162.978C1495.39 159.129 1471.79 161.053 1458.76 167.789C1468.1 172.84 1477.44 175.246 1486.54 176.208C1473.76 178.132 1460.97 177.651 1448.43 175.246C1455.81 178.614 1463.92 181.5 1472.53 183.665C1461.95 187.514 1451.63 189.198 1441.3 189.92C1447.45 190.882 1453.59 192.085 1460.72 191.363C1453.84 194.009 1447.45 195.452 1441.55 195.452C1449.91 197.377 1456.79 200.504 1462.45 204.593C1451.63 202.669 1437.86 203.391 1432.2 204.834C1438.6 207.72 1444.01 210.607 1447.94 213.734C1442.53 213.013 1437.12 211.81 1432.45 209.645C1435.15 212.772 1438.6 215.418 1443.51 217.583C1438.6 217.343 1433.68 216.14 1429.01 213.734C1434.17 219.026 1441.06 222.394 1448.43 224.559C1440.56 223.356 1431.47 221.673 1423.6 218.305C1426.79 225.521 1430.73 232.016 1440.56 235.384C1435.89 236.827 1411.3 235.865 1404.91 233.7C1414.5 237.309 1425.07 240.195 1437.61 240.917C1431.71 241.638 1425.81 242.36 1419.17 241.638C1424.58 243.803 1430.24 245.006 1436.38 245.006C1425.81 248.614 1415.24 248.614 1404.67 246.69C1411.3 251.982 1418.68 256.072 1428.02 257.515C1419.91 259.68 1411.55 261.123 1402.21 259.68C1407.62 261.845 1413.03 263.288 1418.68 263.529C1413.27 263.769 1408.11 264.01 1402.7 264.25C1410.08 267.137 1416.22 270.505 1420.65 273.872C1413.52 273.151 1406.14 273.151 1398.27 273.872C1405.9 275.316 1411.8 277.721 1416.71 281.33C1407.86 279.646 1397.04 280.608 1384.5 283.254C1390.41 289.508 1397.78 293.357 1407.12 293.838C1399.99 296.485 1392.62 297.928 1384.75 297.206C1389.67 301.777 1395.57 305.385 1403.19 307.55C1397.04 308.272 1391.14 308.272 1385.73 307.069C1391.63 309.955 1397.78 311.639 1404.17 312.361C1396.06 314.526 1387.95 315.248 1379.83 314.526C1389.18 316.931 1397.04 320.299 1402.45 325.11C1395.81 323.426 1388.93 322.464 1380.57 322.705C1385.49 323.667 1389.18 325.591 1392.37 327.756C1388.68 326.072 1380.08 325.832 1374.42 326.073C1375.16 346.519 1377.62 365.523 1382.05 386.451C1380.08 386.692 1375.65 387.654 1373.44 387.654Z" fill="black" fill-opacity="0.75"/>
<path fill-rule="evenodd" clip-rule="evenodd" d="M1370.73 358.066C1343.2 266.415 1412.53 168.27 1511.62 224.8C1500.8 220.71 1489.98 218.305 1478.92 215.659C1488.75 218.305 1498.1 222.635 1505.97 226.965C1495.39 224.559 1484.33 220.71 1473.26 216.862C1478.67 219.989 1484.33 222.635 1490.23 225.281C1478.18 222.154 1465.4 217.343 1452.86 212.772C1464.41 217.824 1475.72 222.875 1484.33 227.927C1475.97 224.559 1467.36 221.191 1459 217.824C1464.66 220.71 1470.56 223.597 1476.46 226.724C1468.59 223.838 1460.48 221.673 1452.12 220.71C1459.25 224.078 1464.9 227.446 1468.1 230.573C1462.45 227.686 1456.54 224.8 1448.18 223.116C1452.36 229.611 1457.53 234.903 1464.17 238.752C1458.27 236.827 1452.61 234.422 1447.45 231.535C1451.38 235.144 1456.05 238.511 1460.97 241.638C1458.02 240.676 1455.07 239.714 1452.12 237.79C1455.56 240.676 1457.77 243.322 1459.25 245.728C1454.82 242.601 1445.23 240.195 1439.33 239.474C1446.46 241.157 1452.12 243.563 1456.79 246.45C1448.68 242.841 1432.69 241.157 1423.84 243.322C1430.24 247.412 1436.63 249.817 1443.02 251.501C1434.17 251.02 1425.56 249.096 1416.96 246.209C1422.12 249.096 1427.53 251.501 1433.68 253.907C1426.55 254.869 1419.66 254.628 1412.53 253.666C1416.71 255.109 1420.89 256.312 1425.81 256.793C1421.14 257.515 1416.71 257.515 1412.78 256.793C1418.43 258.958 1423.11 261.604 1427.29 264.732C1419.91 262.326 1410.32 261.123 1406.63 261.123C1411.06 263.529 1414.75 265.694 1417.45 268.099C1413.76 267.137 1410.07 265.694 1406.88 263.769C1408.85 265.934 1411.3 267.859 1414.5 269.543C1411.06 268.821 1407.86 267.618 1404.42 265.694C1408.11 269.302 1412.78 272.189 1417.94 274.354C1412.53 272.67 1406.39 270.745 1400.98 267.859C1403.19 272.429 1406.14 276.519 1412.78 279.646C1409.58 279.886 1392.86 276.278 1388.44 274.354C1395.08 277.721 1402.21 280.608 1411.06 282.532C1407.12 282.292 1402.94 282.051 1398.52 280.849C1402.21 282.773 1406.14 283.976 1410.32 284.938C1403.19 285.66 1396.06 284.457 1388.93 282.051C1393.6 285.9 1398.76 289.027 1404.91 290.952C1399.5 291.192 1393.85 290.952 1387.45 289.027C1391.14 290.952 1394.83 292.395 1398.76 293.357C1395.08 292.876 1391.39 292.155 1387.95 291.673C1393.11 294.32 1397.29 296.725 1400.49 299.371C1395.57 298.168 1390.65 297.206 1385.24 296.485C1390.4 298.168 1394.58 300.333 1398.03 302.979C1391.88 301.055 1384.5 300.093 1376.14 300.333C1380.32 304.423 1385.24 307.791 1391.88 309.234C1386.96 309.715 1382.04 309.715 1376.64 308.512C1380.08 311.639 1384.26 314.526 1389.42 316.691C1385.24 316.45 1381.31 315.729 1377.37 314.285C1381.31 316.45 1385.73 318.375 1390.16 319.578C1384.75 319.818 1379.09 319.337 1373.44 317.894C1379.83 320.299 1385.24 323.186 1389.18 326.554C1384.75 324.87 1380.08 323.426 1374.18 322.705C1377.62 323.908 1380.08 325.351 1382.29 327.035C1379.83 325.591 1373.93 324.629 1370 323.908C1370.73 335.695 1372.95 346.76 1376.64 359.269C1375.41 358.547 1372.46 358.307 1370.73 358.066Z" fill="black" fill-opacity="0.75"/>
</g>
<g opacity="0.05">
<path fill-rule="evenodd" clip-rule="evenodd" d="M-230.098 934.541L-202.685 921.131L-195.025 897.466L-196.638 854.08L-193.816 817.006L-198.25 772.437L-193.816 742.856L-199.863 688.033L-190.591 656.874L-201.072 612.306L-186.156 577.992L-199.863 523.168L-188.978 496.349L-201.072 466.768L-178.497 425.354L-187.366 402.873L-181.722 396.168L-182.931 395.773C-196.638 398.534 -214.779 404.056 -236.951 418.649C-227.679 455.724 -222.035 487.671 -221.229 510.153C-224.051 506.998 -226.47 495.56 -229.292 485.699C-224.857 512.519 -225.26 538.156 -226.067 555.116C-232.114 541.706 -236.951 519.224 -241.386 491.221C-239.773 524.746 -240.177 553.144 -245.417 568.526C-249.852 551.566 -249.045 525.141 -247.433 495.954C-250.658 533.818 -254.286 567.343 -261.543 581.147C-263.962 564.582 -261.543 542.1 -259.124 519.619C-262.349 542.1 -266.783 561.821 -272.427 576.809C-272.831 558.271 -270.009 538.156 -265.977 518.436C-274.846 540.523 -283.715 562.215 -293.794 572.864C-291.778 554.327 -284.118 534.606 -277.265 514.886C-284.118 532.24 -290.569 551.172 -300.647 561.032C-298.631 538.156 -290.972 518.436 -284.118 498.715C-290.165 509.758 -296.212 520.802 -304.678 525.929C-300.647 511.336 -293.39 501.081 -286.537 490.827C-298.228 503.448 -310.322 515.28 -325.238 518.041C-316.772 501.081 -305.485 489.249 -293.794 478.206C-302.663 486.094 -311.532 493.982 -322.013 495.56C-315.563 480.572 -305.888 472.289 -296.212 463.612C-306.291 466.767 -316.369 467.162 -326.448 463.218C-316.772 456.118 -307.097 454.146 -297.019 452.963C-304.678 452.963 -312.338 452.174 -320.804 449.808C-323.223 456.118 -325.641 461.64 -328.463 466.768C-330.076 462.823 -329.673 455.33 -328.866 447.441C-329.673 447.047 -330.076 447.047 -330.882 446.653C-340.154 472.289 -353.861 492.799 -364.342 506.998C-366.761 487.671 -361.52 460.062 -351.442 427.721C-369.18 462.823 -387.321 490.827 -406.269 500.687C-403.447 479.389 -386.515 453.357 -365.552 426.143C-394.175 460.457 -421.588 490.432 -442.148 496.743C-436.504 477.417 -417.96 457.696 -399.818 437.581C-419.572 456.513 -438.923 471.895 -457.87 480.966C-447.388 461.64 -430.054 445.075 -410.703 428.904C-439.326 441.92 -467.948 454.541 -491.733 455.33C-476.817 439.159 -451.42 426.932 -428.038 414.311C-450.614 424.565 -473.189 437.187 -496.571 436.398C-479.236 415.099 -453.839 403.662 -429.65 391.04C-446.985 396.168 -463.917 401.295 -482.058 396.957C-465.933 386.307 -447.388 383.152 -428.844 380.391C-457.064 381.18 -485.283 380.391 -512.293 368.559C-487.299 360.276 -460.692 359.487 -433.682 360.276C-453.839 359.093 -473.995 357.91 -492.54 349.233C-471.98 340.95 -450.21 342.528 -428.441 343.711C-447.388 336.611 -465.126 326.751 -480.446 312.552C-462.708 314.919 -446.582 320.835 -431.666 328.329C-431.666 327.934 -431.263 327.934 -431.263 327.54C-439.729 322.413 -448.195 316.496 -456.257 309.791C-461.095 310.975 -465.53 311.763 -469.561 312.158C-467.948 309.397 -465.53 307.03 -463.111 304.27C-467.948 300.325 -472.786 295.987 -477.624 291.648C-486.089 293.226 -493.749 294.015 -499.796 292.832C-496.168 289.282 -492.137 285.732 -487.299 282.577C-487.702 282.183 -488.508 281.788 -488.911 280.999C-488.105 281.394 -487.299 281.394 -486.493 281.788C-472.383 272.717 -453.839 265.223 -435.294 258.123C-461.498 266.8 -486.09 271.928 -507.053 271.928C-488.911 259.307 -465.933 251.813 -441.341 245.897C-472.786 245.108 -504.231 243.924 -526 234.459C-505.44 226.176 -477.221 226.57 -450.21 225.387C-475.205 224.598 -501.006 226.176 -521.969 215.527C-496.974 204.089 -468.755 204.878 -441.341 204.089C-459.079 200.934 -476.414 198.173 -490.927 186.735C-471.98 184.368 -453.839 189.496 -436.101 194.623C-461.901 183.185 -486.896 170.169 -505.44 147.688C-479.236 151.238 -455.048 161.887 -431.666 174.508C-449.404 164.648 -466.739 154.787 -479.639 139.011C-457.467 140.194 -438.923 150.843 -419.975 161.492C-433.682 146.899 -444.97 130.334 -452.629 111.008C-434.891 122.445 -421.991 137.433 -410.703 153.21C-424.813 131.911 -436.504 107.063 -446.179 79.0601C-428.844 96.8086 -412.719 115.346 -398.206 136.25C-406.672 121.262 -414.734 104.697 -421.185 85.3707C-404.253 101.542 -390.546 118.896 -379.258 138.222C-385.709 121.657 -390.546 104.303 -392.562 85.3707C-379.258 103.119 -369.986 122.051 -362.327 141.377C-367.568 121.262 -370.793 100.753 -370.389 79.4545C-359.505 99.964 -352.248 121.657 -347.814 144.138C-350.233 127.178 -352.651 110.219 -350.233 92.4701C-342.17 104.697 -338.542 117.713 -335.72 130.728C-337.332 108.641 -335.317 86.1595 -331.688 63.678C-319.594 101.147 -314.354 139.011 -313.547 177.269C-311.935 162.676 -307.5 149.66 -300.647 137.828C-299.437 150.054 -299.841 162.281 -301.05 174.114C-281.296 180.03 -264.365 193.045 -247.433 204.878C-257.914 193.834 -268.396 183.185 -272.427 167.803C-257.914 175.691 -248.642 188.312 -238.967 200.934C-250.255 180.03 -260.736 158.731 -261.543 133.883C-245.417 149.66 -234.533 168.986 -224.857 189.496C-231.711 173.719 -238.564 158.337 -238.967 140.983C-224.454 153.21 -217.198 169.775 -209.941 186.735C-211.554 169.775 -210.748 152.815 -205.91 135.856C-199.863 152.815 -199.057 169.381 -199.46 185.946C-198.25 163.859 -193.01 140.983 -184.947 116.924C-182.528 137.828 -181.319 158.731 -182.125 180.424C-180.109 166.225 -176.884 151.238 -171.643 135.067C-178.9 105.88 -188.575 81.4266 -201.879 65.6501C-227.679 92.4701 -250.255 111.796 -267.187 118.896C-265.574 112.585 -257.511 105.091 -250.658 97.5975C-270.009 112.585 -289.359 118.107 -302.663 120.473C-294.197 105.486 -278.474 90.498 -258.318 75.116C-283.312 86.5539 -305.485 92.8645 -318.788 86.1595C-307.097 73.9327 -286.94 68.0166 -263.961 64.0725C-293.39 67.2278 -320.401 68.411 -332.898 58.1563C-320.804 49.0848 -302.663 48.6903 -284.925 47.5071C-303.066 46.7183 -319.191 43.1686 -332.092 36.0692C-317.982 30.5474 -301.856 31.3362 -285.731 34.0971C-305.081 22.6591 -324.029 11.2212 -334.913 -5.34415C-320.401 -6.13297 -303.066 3.72735 -286.134 11.6156C-301.05 2.54411 -317.579 -4.94972 -328.06 -21.9095C-309.919 -24.2759 -292.987 -14.0212 -276.056 -5.34415C-286.134 -14.0212 -296.212 -22.6983 -302.663 -38.4748C-290.569 -34.1362 -280.49 -23.4871 -270.815 -12.0491C-283.715 -31.7698 -296.212 -51.8848 -302.259 -79.4937C-286.94 -67.2669 -274.443 -49.124 -262.752 -29.4033C-271.218 -44.391 -279.684 -59.7731 -284.118 -78.7049C-270.815 -70.0278 -261.543 -53.4625 -252.674 -37.2916C-257.915 -55.829 -260.736 -75.1551 -261.14 -95.6646C-253.077 -78.7048 -248.642 -60.1675 -245.014 -41.6301C-248.642 -66.4781 -250.255 -93.6925 -249.449 -123.273C-242.998 -100.792 -237.355 -77.5216 -233.323 -53.0681C-235.339 -70.0278 -236.145 -88.5652 -235.742 -108.68C-229.292 -88.1707 -224.454 -66.8725 -222.035 -45.1798C-222.035 -62.9284 -221.229 -80.6769 -217.601 -98.8199C-213.569 -77.5216 -212.36 -56.6178 -212.36 -35.7139C-211.151 -56.2233 -207.926 -76.7328 -203.088 -96.4534C-201.072 -73.5775 -201.879 -50.7016 -204.297 -27.8256C-201.879 -44.391 -199.46 -61.3507 -193.816 -77.1272C-191.8 -62.5339 -192.606 -49.5184 -193.816 -36.1083C-189.784 -57.4066 -182.931 -77.5216 -175.675 -97.6366C-176.884 -58.5898 -182.528 -21.1206 -190.994 14.7709C-186.559 1.7553 -180.915 -9.2883 -173.659 -17.571C-178.9 10.4323 -188.575 35.2804 -198.653 60.1283C-179.303 88.526 -166.806 123.629 -158.34 161.492C-156.324 157.548 -155.518 153.604 -153.099 149.66C-153.099 159.915 -149.471 169.775 -157.534 179.635V180.03C-149.471 181.213 -153.905 182.791 -152.696 183.974C-151.487 181.607 -149.471 179.241 -147.858 176.874C-147.858 175.691 -147.858 174.902 -147.858 173.719C-147.455 174.113 -146.649 174.508 -146.246 174.902C-144.633 172.141 -142.618 169.381 -141.005 167.014C-141.408 164.253 -142.214 161.887 -142.618 159.52C-141.408 161.098 -140.199 162.676 -138.989 164.253C-137.377 161.887 -135.361 159.126 -133.749 156.759C-134.152 160.704 -134.958 164.648 -136.167 168.592C-133.749 172.141 -131.733 175.297 -129.717 179.241C-128.911 178.452 -127.701 177.269 -126.895 176.48C-128.105 169.381 -129.314 161.887 -129.314 154.393C-123.267 163.859 -119.236 173.719 -116.011 183.579L-115.607 183.185C-116.817 170.169 -116.817 157.154 -114.801 143.744C-111.173 154.393 -108.754 164.648 -107.142 174.508L-106.738 174.114C-107.142 159.52 -106.335 145.321 -104.723 131.517C-98.6757 149.266 -95.0475 166.225 -93.8381 182.002C-94.2412 169.775 -93.4349 157.548 -89.0005 144.927C-85.3722 157.548 -84.5659 170.169 -85.7753 182.396C-80.5346 170.958 -75.6969 159.52 -66.4248 150.843C-59.9746 138.222 -53.1213 127.178 -46.6712 118.107C-61.5872 93.259 -76.9063 68.411 -84.5659 40.4077C-73.6813 49.0848 -64.8123 59.7339 -58.3621 72.7495C-70.8593 36.4636 -79.3252 -0.611188 -81.3409 -39.658C-70.0531 -19.543 -59.9746 0.966427 -53.5245 21.8703C-55.5401 8.85468 -56.3464 -4.55532 -53.5245 -19.1486C-44.6555 -3.37209 -41.0272 13.1932 -37.399 30.153C-41.4304 7.67146 -42.2366 -15.2044 -39.4147 -38.4748C-31.7551 -18.7541 -27.3207 1.75528 -24.9018 22.2647C-24.4987 1.36086 -22.483 -19.543 -16.436 -40.8413C-11.1952 -22.6983 -9.98578 -4.5553 -9.98578 12.7988C-6.35755 -8.89384 0.495785 -30.1921 10.5742 -50.7016C11.3805 -30.5865 9.76782 -12.0491 6.94586 4.9106C12.9929 -19.543 21.8619 -42.8133 31.5372 -65.2948C32.3435 -35.7139 30.3279 -8.49945 24.684 16.3485C29.9247 -2.18885 36.3748 -20.7262 49.2752 -37.686C49.2752 -17.1765 44.4376 2.14971 36.778 20.6871C50.8878 4.51619 64.5944 -12.0491 84.7512 -20.7262C78.301 -1.79441 65.4007 13.5877 52.5003 28.5753C70.2383 8.85472 89.1857 -9.2883 112.568 -21.5151C103.295 6.09379 84.348 26.2088 64.1912 45.9295C79.1073 34.8859 94.0233 23.8424 112.971 19.5038C103.699 35.2803 87.9763 43.9574 72.6571 52.6345C98.4578 43.9574 124.662 33.7027 152.075 36.0692C136.353 53.0289 111.358 60.5227 88.3794 69.5942C113.777 61.706 140.384 51.8456 162.556 52.6345C146.028 69.1998 116.599 80.6377 87.17 92.0757C112.164 89.3148 136.353 88.526 158.122 94.0478C138.368 101.147 113.777 104.303 85.9606 105.486C97.6515 105.88 109.342 106.275 120.227 107.063L120.63 106.669V107.458C135.143 108.641 148.85 111.008 159.331 116.135C150.462 121.262 136.353 123.629 119.018 124.023C118.615 127.573 118.211 130.728 117.808 134.278C122.646 135.855 127.08 137.828 131.112 139.8C131.515 139.405 131.918 139.011 132.321 138.616C132.321 139.405 132.321 139.8 131.918 140.588C133.934 141.772 135.95 142.955 137.562 144.138C135.546 144.927 133.531 145.321 131.515 145.716C129.096 160.703 123.452 174.508 117.808 188.312C127.08 167.409 139.578 147.688 154.897 130.334C150.059 150.843 141.996 170.169 132.321 188.707C144.415 171.747 157.719 155.182 175.054 140.983C169.007 158.731 160.138 174.508 150.059 189.101C165.378 172.93 183.116 159.126 203.273 147.293C192.389 164.648 180.698 178.846 168.603 191.862C187.551 174.902 208.111 160.309 228.671 146.899C212.948 171.747 195.614 193.44 176.666 210.794C191.582 198.173 207.305 186.34 227.461 179.241C215.77 196.201 200.854 209.611 183.923 221.049C204.886 215.132 225.849 209.216 247.618 212.766C231.493 224.993 212.142 230.515 192.792 236.036C218.592 229.331 244.796 224.598 271 226.965C247.618 244.713 220.205 251.418 192.388 256.94C211.336 255.757 229.88 254.968 248.021 261.673C231.09 269.561 213.352 268.378 195.614 267.195C222.221 273.9 249.231 279.816 271 296.776C248.424 302.298 223.43 294.804 199.242 290.071C225.043 297.565 252.456 303.481 270.597 316.102C247.215 320.835 216.577 314.524 185.535 308.214C207.708 319.652 228.671 332.273 243.184 348.444C223.027 343.711 200.451 333.062 176.666 318.863C198.839 334.245 221.414 349.627 231.09 367.376C209.32 365.404 176.263 342.528 140.384 315.313C166.991 337.4 189.567 359.093 197.226 379.208C176.263 373.686 152.478 350.416 127.08 320.046C144.012 349.233 155.703 374.869 157.719 394.59C145.625 384.335 129.902 369.742 115.793 350.021C114.583 350.021 112.971 350.416 111.358 350.416C112.971 355.543 114.18 360.276 113.374 363.431C110.149 359.487 106.521 355.149 103.295 350.416C84.3481 348.838 57.741 339.372 29.1184 328.329C49.6783 337.4 68.2227 346.866 81.123 357.121C83.1387 356.332 85.1543 355.938 87.5731 355.149C86.3637 356.332 84.7511 357.515 83.5417 358.698C86.7668 361.459 89.5888 364.615 92.0076 367.376C87.17 367.376 81.5261 366.587 75.8822 365.009C69.8351 369.742 63.7881 374.475 57.3379 378.814C58.1442 380.391 59.3536 381.969 60.1599 383.547C64.9975 382.758 69.8352 381.969 75.076 381.969C63.385 392.224 49.6783 398.14 35.9717 404.45C54.516 396.956 73.8665 392.224 94.4264 390.251C78.7041 400.506 62.1756 407.606 44.8408 413.127C62.5787 409.578 81.123 407.211 100.473 408.394C85.5575 415.888 70.6414 420.227 55.3222 423.382C74.6727 422.593 94.0233 424.171 113.777 428.51C96.4421 432.848 80.3166 434.82 65.4006 436.003C87.5731 436.398 108.939 439.159 129.902 443.497C104.908 449.808 81.123 452.963 58.5474 452.569C75.4791 453.358 92.4108 455.33 109.343 462.823C91.6045 466.373 74.2697 465.979 56.9348 463.218C73.4634 471.895 89.992 480.178 101.28 495.165C83.945 493.193 68.2227 485.699 52.9035 477.811C73.0603 488.855 92.4108 501.081 106.924 517.647C81.5261 514.886 60.563 503.054 40.0031 490.432C52.0972 500.687 64.5943 510.942 71.4476 525.535C56.1285 520.802 46.0501 509.364 35.5686 498.321C47.6626 518.041 60.9662 537.367 64.1912 560.638C46.8564 550.777 35.9717 531.846 23.8776 514.491C35.1654 534.212 48.8721 553.933 52.0972 572.47C34.7623 561.821 19.8463 540.128 4.52715 518.041C11.3805 538.156 16.6212 557.877 15.8149 576.414C6.13964 561.427 -1.11674 542.1 -7.16378 519.224C-3.13242 541.706 1.30196 564.187 -3.13254 580.753C-15.6298 567.343 -22.0799 533.423 -27.7238 495.56C-24.9018 524.746 -24.0955 551.172 -31.352 568.131C-41.0272 552.749 -41.4304 523.957 -39.0116 490.827C-46.268 518.83 -54.7339 541.311 -65.2154 554.721C-67.2311 537.762 -67.6342 512.125 -59.9747 485.305C-64.006 495.165 -68.4405 506.603 -73.6813 509.759C-72.4719 487.277 -61.9903 455.33 -46.268 418.255C-72.4718 408 -95.4506 402.478 -114.801 398.929L-103.916 419.044L-111.576 460.457L-99.482 507.786L-113.189 564.582L-107.142 607.967L-120.848 647.803L-114.801 689.611L-128.508 738.518L-120.848 771.254L-132.942 829.233L-125.283 860.391L-129.717 910.876L-109.964 930.596L-91.8224 939.668H-128.508L-120.848 955.839L-95.0475 981.87L-142.214 962.938L-157.13 948.345L-162.371 973.588L-181.319 1004.75V970.432L-186.559 948.345L-207.522 968.855L-201.072 957.022L-225.26 976.348L-214.376 946.767L-230.098 934.541ZM-138.183 177.269C-138.586 179.241 -138.989 180.819 -139.796 182.791C-138.586 184.368 -137.377 185.946 -136.571 187.524C-136.167 187.129 -135.764 186.34 -135.361 185.946C-136.167 183.185 -137.377 180.03 -138.183 177.269ZM-143.021 191.862C-143.424 192.256 -143.424 193.045 -143.827 193.44C-143.424 194.229 -142.618 194.623 -142.214 195.412L-141.811 195.017C-142.214 193.834 -142.618 192.651 -143.021 191.862ZM-149.068 206.455C-149.471 206.85 -149.471 207.639 -149.874 208.033V208.427C-149.471 208.033 -149.068 207.244 -149.068 206.85V206.455ZM-126.492 176.874C-126.895 178.846 -126.895 180.819 -127.298 182.791C-126.089 185.551 -124.476 188.707 -123.267 191.468H-122.864C-124.476 187.129 -125.686 182.002 -126.492 176.874ZM-130.927 195.806V196.201C-130.523 197.384 -129.717 198.173 -129.314 199.356C-130.12 198.173 -130.523 196.989 -130.927 195.806ZM-136.167 238.797C-138.989 243.136 -141.408 247.474 -145.44 251.813V252.207C-141.408 248.657 -137.377 245.108 -133.345 241.952C-134.555 240.769 -135.361 239.98 -136.167 238.797ZM-126.895 247.474C-132.136 253.785 -137.78 259.701 -143.424 265.617C-142.618 277.844 -141.408 290.071 -141.005 301.903C-136.974 297.17 -132.539 292.437 -127.702 287.704C-125.283 278.238 -122.058 267.589 -118.026 255.362C-120.848 252.996 -124.073 250.235 -126.895 247.474ZM-131.733 303.481C-134.152 309.003 -136.974 314.524 -140.199 319.652C-139.796 324.385 -139.796 329.118 -139.392 333.851C-138.586 333.456 -137.377 333.062 -136.571 332.667C-136.167 331.09 -135.764 329.512 -134.958 327.54C-134.555 320.046 -133.749 312.158 -131.733 303.481ZM-118.832 275.872C-116.817 269.956 -114.801 264.434 -112.785 258.518L-113.995 258.123C-115.607 264.434 -117.22 270.35 -118.832 275.872ZM-101.095 262.067C-84.566 267.195 -70.053 270.35 -57.5558 271.928C-55.9433 280.605 -53.9276 289.676 -51.5088 298.748C-73.2781 314.919 -89.4036 328.723 -102.707 340.95C-111.979 347.655 -120.848 354.36 -129.314 361.065C-122.461 332.273 -112.785 297.565 -101.095 262.067ZM-58.7652 265.617C-59.9747 265.223 -61.184 264.828 -62.3934 264.434C-61.184 264.828 -59.9747 264.828 -58.7652 265.223V265.617ZM-49.4931 251.024C-49.8962 251.024 -50.2994 250.629 -51.1057 250.629C-51.1057 250.235 -51.5088 249.446 -51.5088 249.052C-50.7025 249.052 -50.2994 249.052 -49.4931 249.052C-49.4931 249.841 -49.4931 250.235 -49.4931 251.024ZM-49.09 239.586C-50.7025 239.586 -52.315 239.98 -54.3307 240.375C-52.7182 239.98 -51.1057 239.586 -49.09 239.192V239.586ZM-5.95442 218.288C-6.35755 218.288 -6.76064 218.288 -7.16378 218.288C-6.76064 215.527 -6.35755 212.766 -5.95442 210.399C-4.74501 209.611 -3.13246 208.427 -1.92306 207.639C-3.13246 211.188 -4.34187 214.738 -5.95442 218.288ZM-19.2579 220.26H-20.0642C-20.0642 219.471 -20.0642 218.288 -19.6611 217.499C-19.2579 217.499 -18.8548 217.104 -18.8548 217.104C-18.8548 217.893 -18.8548 219.077 -19.2579 220.26ZM-0.713697 205.666C-2.32624 205.666 -3.53555 205.667 -5.1481 206.061C-4.34182 197.384 -3.5356 188.707 -3.93874 180.03C-3.93874 180.03 -3.93871 179.635 -3.53558 179.635H-3.93874C-3.93874 177.269 -3.93876 174.902 -4.3419 172.93C-5.55131 175.691 -6.76069 178.058 -7.9701 180.819C-12.0015 182.396 -16.436 184.368 -20.8705 187.129C-20.8705 186.34 -21.2736 185.946 -21.2736 185.157C-21.6767 185.946 -22.483 187.129 -22.8862 188.312C-26.5144 190.284 -29.7394 192.651 -33.3677 194.623C-33.3677 194.229 -33.3677 193.834 -33.3677 193.44C-25.3049 187.129 -17.6454 180.03 -13.614 171.353C-21.2736 172.93 -28.53 176.086 -35.3833 180.03C-36.1896 173.719 -37.8022 167.408 -39.0116 161.098C-39.8179 163.464 -40.221 166.225 -41.0273 168.592C-51.5088 174.508 -58.3621 183.579 -65.6185 193.045C-57.1527 177.663 -49.4931 161.887 -48.6868 143.744C-53.9276 148.871 -58.3621 154.393 -62.3934 160.704C-55.5401 146.899 -48.6868 134.672 -42.2366 124.812C-4.74498 150.449 28.3121 169.381 53.7097 176.874C42.0187 190.679 30.7309 205.272 21.0556 221.049C27.9089 208.033 33.5529 193.045 38.7937 176.48C25.0871 190.679 13.7992 206.455 4.93018 223.415C9.76782 209.216 13.3961 193.834 13.7992 177.663C8.55846 186.34 3.7208 195.806 -0.713697 205.666ZM-16.8391 208.033C-17.6454 208.427 -18.4516 208.427 -19.2579 208.822C-19.2579 205.272 -19.2579 201.722 -19.2579 198.173C-16.4359 195.412 -13.614 192.651 -11.1952 190.284C-13.2108 196.201 -15.2266 202.117 -16.8391 208.033ZM-30.9489 212.371C-31.352 212.371 -31.7551 212.766 -32.1582 212.766C-32.1582 211.583 -32.1582 210.399 -32.1582 208.822C-31.352 208.427 -30.5457 207.639 -29.7395 206.85C-30.1426 208.822 -30.5457 210.794 -30.9489 212.371ZM-43.8492 185.551C-48.6869 188.707 -53.5244 192.256 -58.3621 195.412C-51.5088 188.312 -44.2524 181.213 -41.0273 171.747C-42.2367 176.48 -43.0429 180.818 -43.8492 185.551ZM-164.79 169.381C-165.999 168.197 -167.209 167.408 -168.015 166.225C-166.806 169.381 -165.596 172.536 -164.387 175.691C-166.806 181.213 -168.418 186.735 -170.031 192.651C-168.015 176.086 -168.015 159.52 -170.031 142.561C-168.418 150.843 -166.806 159.915 -164.79 169.381ZM-139.392 336.611L-138.989 340.556C-138.183 338.189 -137.78 335.428 -136.974 333.062C-137.78 334.639 -138.586 335.428 -139.392 336.611ZM-176.078 381.18C-176.481 379.602 -176.884 378.025 -177.287 376.447L-177.69 375.658C-180.512 376.447 -182.931 377.236 -185.753 378.025C-182.931 379.208 -180.109 380.391 -177.69 381.574C-177.287 381.574 -176.884 381.574 -176.078 381.18ZM-208.329 384.335C-223.648 388.279 -237.355 390.252 -247.836 389.857C-245.014 386.702 -236.145 383.941 -228.889 381.574C-239.773 383.941 -250.255 384.335 -259.527 383.941C-252.674 393.012 -246.224 402.873 -240.176 412.733C-223.648 400.901 -210.748 393.407 -199.46 388.279C-202.282 387.096 -205.104 385.519 -208.329 384.335ZM-268.396 383.547C-270.412 383.547 -272.024 383.152 -274.04 383.152C-269.605 386.702 -265.574 391.04 -261.14 395.379C-263.962 391.435 -266.38 387.491 -268.396 383.547ZM-277.668 379.602C-275.652 378.814 -273.637 377.63 -271.218 376.841C-272.427 374.081 -273.637 370.925 -274.443 367.77C-272.024 370.137 -269.202 372.503 -266.783 375.264C-261.946 373.292 -256.302 371.714 -250.255 370.531C-264.768 366.192 -281.296 362.643 -299.841 359.487C-300.244 360.671 -300.244 361.854 -300.244 363.037C-292.987 367.376 -285.328 373.292 -277.668 379.602ZM-278.474 354.36C-266.38 353.177 -251.061 355.149 -234.936 357.91C-262.752 351.994 -287.747 345.288 -297.422 335.823C-284.521 333.456 -267.993 338.189 -251.464 342.133C-267.993 336.611 -282.506 330.301 -292.987 322.413C-278.878 322.807 -264.365 327.54 -249.852 333.851C-263.155 323.596 -276.056 313.341 -284.118 302.298C-295.003 301.903 -305.081 300.326 -313.144 299.142C-300.244 290.86 -280.087 284.943 -255.093 279.816C-255.496 279.422 -256.302 278.633 -256.705 278.238C-286.134 277.844 -311.128 274.689 -324.432 265.223C-311.128 260.49 -292.584 261.279 -271.621 263.645C-272.427 262.856 -273.234 262.462 -274.04 261.279C-293.39 256.546 -309.919 251.418 -322.013 245.502C-330.479 256.94 -338.945 267.589 -347.008 277.055C-339.751 288.099 -332.898 299.537 -326.851 310.975C-332.092 297.17 -334.107 283.76 -332.898 269.956C-317.579 294.804 -309.113 322.413 -301.05 350.021C-293.39 351.994 -285.731 353.177 -278.474 354.36ZM-273.234 302.692C-270.412 304.27 -267.187 306.242 -264.365 308.214C-263.962 307.819 -263.558 307.819 -262.752 307.425C-264.365 305.847 -266.38 304.27 -267.993 302.692C-269.605 302.692 -271.621 302.692 -273.234 302.692ZM-259.93 310.58C-255.496 313.736 -250.658 316.891 -246.224 320.046C-250.255 316.891 -254.286 313.736 -258.318 310.58C-259.124 310.58 -259.527 310.58 -259.93 310.58ZM-250.255 300.72C-249.852 301.114 -249.449 301.509 -249.045 301.509C-247.433 301.114 -245.82 300.72 -244.208 299.931L-244.611 299.537C-246.627 300.325 -248.239 300.72 -250.255 300.72ZM-239.37 308.608C-237.355 309.791 -235.742 311.369 -233.726 312.552C-234.936 310.975 -236.548 309.791 -237.758 308.214C-238.161 308.214 -238.967 308.214 -239.37 308.608ZM-175.272 292.043C-175.272 295.593 -175.675 299.537 -176.078 303.086C-174.868 299.537 -173.659 295.592 -172.45 291.648V291.254C-173.659 291.648 -174.465 291.648 -175.272 292.043ZM-163.177 284.155C-163.581 287.31 -163.984 290.071 -164.387 293.226C-163.984 294.804 -163.178 296.776 -162.774 298.353C-159.549 292.437 -155.921 286.521 -151.89 280.999C-152.293 278.633 -152.293 276.661 -152.293 274.689C-156.324 277.844 -159.549 280.999 -163.177 284.155ZM-168.015 307.425C-168.418 308.608 -168.821 309.791 -169.225 310.975C-168.821 310.186 -168.418 309.003 -168.015 308.214C-167.612 307.819 -168.015 307.425 -168.015 307.425ZM-151.89 288.888C-153.905 296.381 -156.324 303.481 -159.549 310.186L-159.146 310.975C-156.727 307.031 -154.308 302.692 -151.083 299.142C-151.083 295.593 -151.487 292.043 -151.89 288.888ZM-150.277 312.947C-150.68 313.736 -151.083 314.919 -151.487 315.708C-151.083 315.313 -150.68 314.524 -150.277 313.735V312.947ZM-149.068 334.245C-149.874 335.428 -150.68 337.006 -151.487 338.189C-151.083 338.978 -151.083 340.161 -150.68 340.95C-149.874 340.555 -149.471 339.767 -148.665 339.372L-149.068 334.245ZM-148.261 348.049C-148.665 348.444 -148.665 348.444 -149.068 348.838C-148.665 350.81 -148.261 352.782 -147.858 354.754C-147.858 352.388 -147.858 350.416 -148.261 348.049ZM-158.34 358.698C-161.162 361.459 -163.984 364.22 -167.209 366.981C-164.387 370.531 -161.968 374.475 -159.549 378.419L-156.727 378.025C-156.727 371.714 -157.534 365.403 -158.34 358.698ZM-159.952 201.722C-159.952 202.117 -160.356 202.906 -160.356 203.694C-160.356 203.3 -159.952 202.906 -159.952 202.117V201.722ZM-302.663 372.503C-303.066 375.658 -303.872 379.208 -304.275 382.363C-298.228 383.152 -292.584 385.913 -287.343 389.463C-292.584 384.335 -297.825 378.814 -302.663 372.503ZM-304.678 385.519C-305.081 388.279 -305.485 390.646 -306.291 393.012C-298.631 395.773 -291.778 399.323 -284.521 404.056C-291.778 398.929 -298.631 393.407 -304.678 385.519ZM-307.903 400.506C-308.307 403.267 -309.113 405.634 -309.516 408.394C-303.066 409.183 -296.212 410.761 -289.762 413.127C-295.809 409.578 -301.856 405.634 -307.903 400.506ZM-311.532 416.283C-311.935 419.044 -312.741 421.804 -313.547 424.171C-307.903 423.382 -301.856 422.988 -296.212 423.382C-301.05 421.41 -306.291 419.438 -311.532 416.283ZM-315.966 433.637C-316.369 435.214 -316.772 436.792 -317.176 437.975C-311.935 437.187 -306.694 436.398 -301.453 436.003C-306.291 435.609 -311.128 434.82 -315.966 433.637ZM-328.866 440.342C-328.463 438.37 -328.463 436.398 -328.06 434.031C-328.866 436.398 -329.27 438.37 -330.076 440.342C-329.673 440.342 -329.27 440.342 -328.866 440.342ZM65.8038 361.854C51.694 356.332 35.9717 346.866 19.4431 335.428C31.5372 346.866 41.6156 357.91 49.6783 368.164C54.5159 365.798 60.1599 363.826 65.8038 361.854ZM52.9035 385.124C51.6941 384.73 50.8877 384.335 49.6783 383.547C46.4532 385.519 42.825 387.491 39.5999 389.463C44.0344 387.885 48.0658 386.307 52.9035 385.124ZM33.956 374.475C23.8776 368.164 13.3961 360.276 3.72082 350.416C8.15532 356.332 13.3961 362.643 16.2181 368.164C16.6212 367.77 17.4275 367.77 17.8306 367.376C17.4275 368.164 17.0244 368.559 16.6212 369.348C17.4275 371.32 17.8306 372.503 18.2337 374.081C17.4275 373.292 16.218 372.897 15.0086 372.109C9.76782 380.786 2.9146 388.279 -5.55126 394.984C7.3491 387.491 20.6525 380.786 33.956 374.475ZM12.5899 370.137C-3.53558 358.699 -21.2736 339.767 -40.6241 316.102C-63.6029 329.906 -86.1785 344.894 -106.335 360.276C-113.995 369.742 -120.445 378.025 -125.686 385.124C-103.11 389.857 -77.3095 398.14 -42.2366 412.733C-24.4986 397.351 -7.56694 381.574 12.5899 370.137ZM114.18 348.049C110.955 343.316 107.73 337.795 104.505 332.667C105.714 336.611 107.327 340.556 108.939 344.105C110.552 345.289 112.164 346.472 114.18 348.049ZM93.6201 335.823C92.4107 333.851 91.2014 331.878 90.3951 329.906C80.7198 328.329 70.6414 325.962 59.7567 323.201C71.4477 327.145 83.1386 331.09 93.6201 335.823ZM83.1387 316.496C82.3324 314.524 81.123 312.947 80.3167 310.975C75.0759 311.369 69.432 311.763 64.1912 312.158C70.6414 313.341 77.0916 314.919 83.1387 316.496ZM72.6571 294.015C72.254 294.015 71.4477 294.015 71.0446 294.015C71.4477 294.015 71.8509 294.015 72.6571 294.015ZM64.5944 275.872V275.478L62.1756 275.872C63.385 276.266 64.1913 275.872 64.5944 275.872ZM60.9662 267.195V266.8C59.7568 267.195 58.5473 267.984 57.3379 268.772C58.5473 267.984 60.1599 267.589 60.9662 267.195ZM-58.7652 312.947C-55.5402 310.186 -52.3151 307.819 -49.09 305.058C-48.6869 305.453 -48.2837 306.242 -47.8806 306.636C-51.5088 309.003 -55.137 310.975 -58.7652 312.947ZM60.1599 247.08C57.7411 248.263 54.9191 249.841 52.5003 251.418C54.9191 249.841 57.7411 248.263 60.1599 246.685V247.08ZM61.3692 229.331C54.9191 232.881 48.0658 236.825 41.6156 240.769C50.8877 230.12 58.5473 218.682 64.1912 205.666C62.9818 213.16 62.1755 221.049 61.3692 229.331ZM65.4006 197.778C51.694 208.033 42.0187 221.443 33.5529 234.459C43.6313 217.499 51.694 201.722 58.5474 178.058V177.663C59.3536 175.297 60.1599 172.536 60.9662 169.775C59.7568 171.353 58.1442 172.93 56.9348 174.508C52.0972 168.986 42.4219 162.281 33.956 156.365C52.9034 165.831 71.8508 171.747 88.3794 175.297C83.5418 187.918 79.9135 200.539 76.2853 213.555C78.301 199.356 77.0916 185.551 73.0603 172.141C69.4321 180.819 67.0131 189.101 65.4006 197.778ZM110.149 125.206C93.217 125.601 73.8665 124.418 53.7097 122.84C73.0602 124.812 91.2014 127.573 106.521 131.911C107.73 129.545 108.939 127.178 110.149 125.206ZM124.258 147.293C121.437 147.688 118.212 147.688 114.986 147.688C113.374 156.365 111.358 165.042 108.536 173.325C112.971 164.648 117.808 155.576 124.258 147.293ZM99.6672 146.505C83.5417 144.533 65.4006 139.8 45.2438 133.883C64.1912 142.955 80.3167 152.421 93.2171 161.492C95.2328 156.365 97.2484 151.238 99.6672 146.505ZM-302.663 183.579C-303.066 186.34 -303.066 188.707 -303.469 191.468C-290.972 198.173 -278.071 207.244 -265.171 215.921C-278.474 205.667 -292.987 195.806 -302.663 183.579ZM-305.888 204.878C-306.694 210.399 -307.903 216.316 -309.113 221.837C-296.616 224.598 -283.715 229.331 -270.412 234.459C-282.909 224.598 -295.406 214.738 -305.888 204.878ZM-284.521 241.558C-283.715 241.952 -283.312 242.741 -282.506 243.53C-279.281 244.319 -276.056 245.108 -272.831 245.897C-276.862 244.713 -280.893 243.136 -284.521 241.558ZM-255.093 266.012L-254.689 266.406C-253.077 266.406 -251.464 266.8 -250.255 267.195C-251.867 267.195 -253.48 266.8 -255.093 266.012ZM-315.563 236.825C-311.128 237.219 -306.694 238.008 -302.259 238.797C-305.485 236.431 -308.71 234.064 -311.935 231.698C-313.144 233.275 -314.354 235.247 -315.563 236.825ZM-375.63 294.409L-376.437 293.226V293.62C-376.033 293.62 -375.63 294.015 -375.63 294.409ZM-427.635 331.09C-426.829 331.484 -426.425 331.878 -425.619 332.273C-426.425 331.878 -427.232 331.484 -427.635 331.09ZM-423.2 310.975C-427.635 307.819 -432.069 304.664 -436.907 301.114C-437.713 301.509 -438.923 301.903 -439.729 302.298C-434.085 305.453 -428.844 307.819 -423.2 310.975ZM-414.331 298.748C-413.928 298.353 -413.122 297.565 -412.719 296.776C-414.734 294.804 -416.75 292.832 -418.766 290.86C-420.378 291.648 -421.991 292.832 -423.603 293.62C-420.378 295.198 -417.556 297.17 -414.331 298.748ZM-404.253 286.521C-403.447 285.732 -402.237 284.549 -401.431 283.366C-402.237 282.577 -402.64 281.394 -403.447 280.605C-404.656 281.394 -406.269 282.577 -407.881 283.76C-406.672 284.549 -405.462 285.338 -404.253 286.521ZM-393.368 274.294C-392.562 273.111 -391.353 272.322 -390.546 271.139C-391.756 271.928 -392.965 273.111 -394.174 273.9C-393.771 273.9 -393.368 273.9 -393.368 274.294ZM-455.451 295.198C-453.435 293.621 -451.823 292.437 -449.807 290.86C-451.823 288.888 -454.242 287.31 -456.257 285.338C-461.095 286.916 -465.53 288.099 -469.964 289.282C-465.126 291.254 -460.289 293.226 -455.451 295.198ZM-441.745 284.943C-438.116 282.577 -434.085 280.21 -430.054 277.844C-430.457 277.055 -431.263 276.266 -431.666 275.478C-437.31 277.844 -442.954 280.21 -448.598 281.788C-446.179 283.366 -443.76 284.155 -441.745 284.943ZM-422.394 273.505C-419.169 271.533 -415.541 269.956 -411.912 267.984L-412.316 267.589C-416.347 269.561 -420.378 271.139 -424.007 272.717C-423.2 273.111 -422.797 273.505 -422.394 273.505ZM-403.85 264.039C-403.044 263.645 -402.237 263.251 -401.431 262.856C-402.237 263.251 -403.044 263.645 -403.85 264.039Z" fill="black" fill-opacity="0.75"/>
</g>
</svg>
