<svg width="1440" height="1079" fill="none" xmlns="http://www.w3.org/2000/svg">
  <g style="mix-blend-mode:luminosity" opacity=".05" fill="#000" fill-opacity=".75">
    <path d="M1548.88 912.377s-69.8 5.336-131.46 26.3c0 0 96.02-.773 131.46-26.3z"/>
    <path d="M1548.88 912.377s-33.22-18.711-131.46 26.3c0 0 92.5-19.056 131.46-26.3zM1515.58 898.106s-76.21 3.031-143.18 21.75c0 0 105.15 2.216 143.18-21.75z"/>
    <path d="M1515.58 898.106s-36.95-19.253-143.18 21.75c0 0 100.81-15.808 143.18-21.75z"/>
    <path d="M1488.28 888.481s-75.67-9.329-144.79-1.731c0 0 103.42 19.174 144.79 1.731z"/>
    <path d="M1488.28 888.481s-33.33-25.05-144.79-1.731c0 0 102.02.732 144.79 1.731z"/>
    <path d="M1436.43 863.774s-79.86-5.593-153.87 8.84c-.08-.06 108.53 15.379 153.87-8.84z"/>
    <path d="M1436.43 863.774s-33.58-27.73-153.87 8.84c-.08-.06 108.37-6.881 153.87-8.84z"/>
    <path d="M1415.14 852.155s-74.26-30.028-149.07-39.336c0 0 98.5 48.37 149.07 39.336z"/>
    <path d="M1415.14 852.155s-23.37-36.821-149.07-39.336c0 0 105.2 27.136 149.07 39.336z"/>
    <path d="M1373.75 821.177s-67.21-34.241-132.2-51.8c-.14.02 90.21 52.402 132.2 51.8z"/>
    <path d="M1373.75 821.177s-24.77-33.122-132.2-51.8c-.14.02 93.11 36.065 132.2 51.8zM1335.59 791.382s-53.23-53.508-109.53-90.439c-.06.08 69.48 77.983 109.53 90.439z"/>
    <path d="M1335.59 791.382s-13.2-39.192-109.53-90.439c-.06.08 77.34 63.37 109.53 90.439zM1529.23 901.239s-40.93-49.898-66.78-102.721c0 0 60.48 65.335 66.78 102.721z"/>
    <path d="M1529.23 901.239s-32.93-12.61-66.78-102.721c0 0 46.65 72.582 66.78 102.721z"/>
    <path d="M1494.15 885.507s-38.23-58.495-60.32-117.495c-.08-.06 57.31 77.712 60.32 117.495z"/>
    <path d="M1494.15 885.507s-33.43-18.611-60.32-117.495c-.08-.06 42.05 82.878 60.32 117.495zM1466.08 874.421s-38.23-58.495-60.32-117.495c-.08-.06 57.31 77.712 60.32 117.495z"/>
    <path d="M1466.08 874.421s-33.43-18.61-60.32-117.495c-.08-.06 42.05 82.879 60.32 117.495zM1427.14 853.666s-38.23-58.495-60.32-117.495c0 0 57.31 77.712 60.32 117.495z"/>
    <path d="M1427.14 853.666s-33.43-18.611-60.32-117.495c0 0 42.05 82.878 60.32 117.495zM1379.34 823.882s-33.69-55.211-51.71-111.787c0 0 51.13 72.947 51.71 111.787z"/>
    <path d="M1379.34 823.882s-31.3-16.268-51.71-111.787c0 0 36.04 78.873 51.71 111.787zM1341.25 795.508s-30.52-49.948-46.85-101.123c0 0 46.36 65.982 46.85 101.123z"/>
    <path d="M1341.25 795.508s-28.31-14.766-46.85-101.123c0 0 32.7 71.35 46.85 101.123z"/>
    <path d="M1330.08 784.737s43.28 47.28 111.26 81.982c67.99 34.702 181.71 78.125 225.82 65.865 0 0 2.57-8.577-6.37-7.166-9.08 1.432-48.64.476-90.49-13.582-41.92-14.118-84.81-25.957-131.37-53.559-46.55-27.603-108.85-73.54-108.85-73.54z"/>
  </g>
  <g style="mix-blend-mode:luminosity" opacity=".05" fill="#000" fill-opacity=".75">
    <path d="M1530.87 726.922s-66.29 9.48-125.67 36.406c-.08-.06 90.84-5.538 125.67-36.406z"/>
    <path d="M1530.87 726.922s-30.5-19.668-125.67 36.406c-.08-.06 88.4-26.26 125.67-36.406zM1480.88 712.377s-69.8 5.336-131.46 26.3c0 0 96.02-.773 131.46-26.3z"/>
    <path d="M1480.88 712.377s-33.22-18.711-131.46 26.3c0 0 92.5-19.056 131.46-26.3zM1447.58 698.106s-76.21 3.031-143.18 21.75c0 0 105.15 2.216 143.18-21.75z"/>
    <path d="M1447.58 698.106s-36.95-19.253-143.18 21.75c0 0 100.81-15.808 143.18-21.75z"/>
    <path d="M1420.28 688.481s-75.67-9.329-144.79-1.731c0 0 103.42 19.174 144.79 1.731z"/>
    <path d="M1420.28 688.481s-33.33-25.05-144.79-1.731c0 0 102.02.732 144.79 1.731z"/>
    <path d="M1368.43 663.774s-79.86-5.593-153.87 8.84c-.08-.06 108.53 15.379 153.87-8.84z"/>
    <path d="M1368.43 663.774s-33.58-27.73-153.87 8.84c-.08-.06 108.37-6.881 153.87-8.84z"/>
    <path d="M1347.14 652.155s-74.26-30.028-149.07-39.336c0 0 98.5 48.37 149.07 39.336z"/>
    <path d="M1347.14 652.155s-23.37-36.821-149.07-39.336c0 0 105.2 27.136 149.07 39.336z"/>
    <path d="M1305.75 621.177s-67.21-34.241-132.2-51.8c-.14.02 90.21 52.402 132.2 51.8z"/>
    <path d="M1305.75 621.177s-24.77-33.122-132.2-51.8c-.14.02 93.11 36.065 132.2 51.8zM1267.59 591.382s-53.23-53.508-109.53-90.439c-.06.08 69.48 77.983 109.53 90.439z"/>
    <path d="M1267.59 591.382s-13.2-39.192-109.53-90.439c-.06.08 77.34 63.37 109.53 90.439zM1521.44 719.334s-46.04-49.602-76.05-105.05c0 0 67.76 63.802 76.05 105.05z"/>
    <path d="M1521.44 719.333s-35.88-8.692-76.05-105.049c0 0 53.25 74.289 76.05 105.049z"/>
    <path d="M1487.59 707.783s-40.99-53.818-65.52-111.9c0 0 61.28 69.936 65.52 111.9z"/>
    <path d="M1487.59 707.783s-34.93-12.112-65.52-111.9c0 0 45.79 79.062 65.52 111.9zM1461.23 701.239s-40.93-49.898-66.78-102.721c0 0 60.48 65.335 66.78 102.721z"/>
    <path d="M1461.23 701.239s-32.93-12.61-66.78-102.721c0 0 46.65 72.582 66.78 102.721z"/>
    <path d="M1426.15 685.507s-38.23-58.495-60.32-117.495c-.08-.06 57.31 77.712 60.32 117.495z"/>
    <path d="M1426.15 685.507s-33.43-18.611-60.32-117.495c-.08-.06 42.05 82.878 60.32 117.495zM1398.08 674.421s-38.23-58.495-60.32-117.495c-.08-.06 57.31 77.712 60.32 117.495z"/>
    <path d="M1398.08 674.421s-33.43-18.61-60.32-117.495c-.08-.06 42.05 82.879 60.32 117.495zM1359.14 653.666s-38.23-58.495-60.32-117.495c0 0 57.31 77.712 60.32 117.495z"/>
    <path d="M1359.14 653.666s-33.43-18.611-60.32-117.495c0 0 42.05 82.878 60.32 117.495zM1311.34 623.882s-33.69-55.211-51.71-111.787c0 0 51.13 72.947 51.71 111.787z"/>
    <path d="M1311.34 623.882s-31.3-16.268-51.71-111.787c0 0 36.04 78.873 51.71 111.787zM1273.25 595.508s-30.52-49.948-46.85-101.123c0 0 46.36 65.982 46.85 101.123z"/>
    <path d="M1273.25 595.508s-28.31-14.766-46.85-101.123c0 0 32.7 71.35 46.85 101.123z"/>
    <path d="M1262.08 584.737s43.28 47.28 111.26 81.982c67.99 34.702 181.71 78.125 225.82 65.865 0 0 2.57-8.577-6.37-7.166-9.08 1.432-48.64.476-90.49-13.582-41.92-14.118-84.81-25.957-131.37-53.559-46.55-27.603-108.85-73.54-108.85-73.54z"/>
  </g>
  <g style="mix-blend-mode:luminosity" opacity=".05" fill="#000" fill-opacity=".75">
    <path d="M-51.69 764.666s8.1-25.19 4.68-54.844c-3.45-29.75-3.334-34.114-2.436-42.433.803-8.287.803-8.287 4.526-12.28 3.627-3.961 2.313 2.177.936 8.442-1.377 6.264.318 28.586 5.014 35.342 4.663 6.662 3.798 1.573 4.51-5.417.743-6.896-4.738-25.098 3.026-45.639 7.764-20.541 22.989-28.292 22.989-28.292s-13.37 30.863-4.156 63.635c9.214 32.772-13.563 56.668-13.563 56.668l-25.527 24.818z"/>
    <path d="M-22.764 733.326s6.873-9.376 3.902-36.123c-2.97-26.746-5.657-54.22-1.251-63.401 4.311-9.148 12.138-16.313 13.122-14.323.985 1.99-5.614 34.165-2.562 41.052 3.051 6.887 4.124 5.683 5.335-3.902 1.306-9.616-1.84-30.606 2.848-40.831 4.688-10.225 16.056-17.524 16.056-17.524l-2.526 43.36 14.458 44.303s-9.117 9.602-16.495 19.043c-7.379 9.44-32.887 28.346-32.887 28.346z"/>
    <path d="M11.949 701.624s5.06-13.515-1.646-42.277c-6.612-28.793-9.05-44.219-2.336-53.753 6.682-9.629 9.149-9.508 7.46-1.345-1.69 8.162 6.527 61.207 11.58 58.033 5.147-3.206-1.014-14.639-3.661-38.224-2.647-23.584-5.385-31.737 10.14-46.445 0 0 17.187 34.841 19.8 57.382 2.55 22.668 8.802 18.669-.623 32.067-9.456 13.303-40.714 34.562-40.714 34.562z"/>
    <path d="M47.546 669.414s3.397-8.104-5.886-43.595c-9.315-35.586-15.021-41.581-6.092-50.488 8.96-8.811 12.146-12.835 10.78-1.827-1.462 11.04 5.314 42.521 8.151 38.72 2.743-3.77-8.962-33.595.526-46.803 9.488-13.209 22.564-20.449 22.564-20.449s-7.981 22.408 2.909 55.46l5.158 29.176s-1.973 8.575-20.057 24.143l-18.053 15.663z"/>
    <path d="M82.1 637.554s.514-10.722-7.296-38.058c-7.81-27.336-10.654-40.2-3.147-48.628 7.507-8.429 13.005-10.592 11.055-5.718-1.95 4.875 4.762 35.85 6.925 27.528 2.258-8.353-3.563-23.171 1.637-30.931 5.2-7.759 15.909-12.938 15.909-12.938s13.842 51.893 4.305 71.236c-9.633 19.375-29.387 37.509-29.387 37.509z"/>
    <path d="M109.689 601.599s6.825-44.066-7.59-69.395c0 0 8.932-7.641 10.304-2.3 1.372 5.341 6.294 28.478 8.109 19.746 1.814-8.732-1.858-24.377 3.284-29.797 5.142-5.419 13.063-12.615 15.701-6.961 2.637 5.655 6.715 4.918 9.669-3.247 2.954-8.166 7.097-7.764 20.523-13.645 0 0-13.271 59.734-60 105.599z"/>
    <path d="M174.16 570.557c-4.358 2.729-24.92 13.433-16.594 3.674 8.39-9.885 13.708-7.557 14.195-29.347.488-21.789 2.448-22.236-.115-22.958-2.563-.721-9.659 7.991-5.568-1.189 4.09-9.18 4.444-20.375 3.548-24.61 0 0-10.105 33.669-25.893 57.96-15.693 24.259-37.862 51.221-44.039 60.785-6.081 9.532 56.34-5.315 62.745-11.686 6.405-6.37 16.489-35.708 11.721-32.629z"/>
    <path d="M147.027 639.588s7.776-15.165 10.266-19.061c2.584-3.927-7.588.966-17.449 3.013-9.862 2.046-26.207 3.633-7.601-5.042 18.606-8.676 27.43-8.159 32.597-16.329 5.136-8.265 3.968-7.345 4.686-11.49.75-4.049-19.719 5.99-38.149 8.91-18.429 2.92-18.973.359-25.126 5.907-6.154 5.548-32.545 39.73-40.62 48.349-8.108 8.526 81.396-14.257 81.396-14.257z"/>
    <path d="M69.856 648.523c-2.21 1.903-42.733 37.033-48.504 44.035-5.771 7.002 58.757-12.878 76.626-12.128 17.774.782 15.824 5.656 20.082.428 6.117-7.54 16.991-23.534 13.83-22.578-3.16.956-63.477 9.505-50.017 4.351 13.46-5.153 51.551-11.407 57.52-14.677 5.969-3.271 8.169-9.601 10.058-13.083 0 0-22.548-.55-43.25 4.399-20.702 4.948-29.875 3.705-36.345 9.253z"/>
    <path d="M2.956 710.024s22.893-28.26 38.352-30.287c15.46-2.028 81.892-5.246 82.49-6.291 1.575-2.534-5.256 10.732-13.219 13.406-7.963 2.675-32.21 6.177-28.76 7.339 3.45 1.162 26.362-5.056 23.588-1.066-2.679 3.959-2.733 8.197-6.708 12.38-3.975 4.183-96.047 9.896-95.743 4.519zM-86.522 799.784l27.16-29.693S-16.78 764.65-2.32 781.63c0 0-5.495 3.428-12.042 2.779-6.548-.649-32.8-2.803-43.917 3.357-11.085 6.255 22.365 3.143 17.132 10.491-5.2 7.444-49.539 6.09-45.375 1.527z"/>
    <path d="M-.202 712.245S-27.156 735.012-34 742.585c-6.845 7.574 78.904 1.876 78.904 1.876s12.103-3.538 15.166-5.727c3.062-2.189 14.778-9.394 4.915-7.664-3.192.545-22.19 3.972-33.484 1.752-11.295-2.219-13.57-1.771 25.186-7.299 38.852-5.559 44.189-22.647 44.189-22.647s-54.788 6.164-69.053 4.837-24.007-2.38-32.024 4.532z"/>
    <path d="M-59.33 770.186s42.648-4.619 57.042 11.539c0 0 5.717-2.764 1.152-7.561-4.564-4.796 12.526 1.174 16.82-1.429 4.295-2.603 16.356-10.979 12.906-12.458-3.45-1.478-44.46.481-45.07-2.901-.608-3.382 33.964-.014 51.384-1.54 17.421-1.526 21.631-13.489 25.165-17.102 0 0-44.584 1.999-67.732 1.862-23.148-.137-26.306 2.084-26.306 2.084l-25.362 27.506z"/>
    <path d="M169.689 496c-5.958 21.833-13.229 36.618-22.68 52.451-9.419 15.928-20.484 31.037-32.151 45.61-11.668 14.573-22.667 30.821-35.316 44.669-12.65 13.848-26.473 25.769-39.598 39.144l-10.477 9.321c-3.313 3.328-6.626 6.656-9.97 9.889l-10.003 9.794-10.002 9.795-20.13 19.525c-6.658 6.561-13.347 13.028-20.005 19.589-13.315 13.122-26.503 26.307-39.438 39.618-3.218 3.296-6.5 6.719-9.717 10.015l-9.559 10.173c-3.186 3.391-6.34 6.877-9.432 10.236-1.545 1.679-3.059 3.453-4.573 5.228l-2.176 2.63c-.662.855-1.514 1.774-2.018 2.471l-.063.126c-1.482 1.869-3.884 2.571-5.404 1.499-1.521-1.072-1.558-3.38-.107-5.344l.094-.032c.883-1.14 1.672-1.933 2.397-2.915l2.366-2.693c1.608-1.806 3.154-3.486 4.763-5.292 3.154-3.486 6.435-6.908 9.716-10.331 3.281-3.423 6.499-6.719 9.78-10.142l9.938-9.984a2944.106 2944.106 0 0140.198-39.24 2877.028 2877.028 0 0120.322-19.273l20.353-19.179 10.192-9.541 10.16-9.637 10.035-9.699 10.54-9.132c13.316-13.122 27.203-24.854 40.075-38.355 12.84-13.595 23.934-29.558 35.76-43.974 11.857-14.32 23.207-29.209 32.785-44.979 9.514-15.643 16.027-30.173 23.345-52.041z"/>
  </g>
  <g style="mix-blend-mode:luminosity" opacity=".05" fill="#000" fill-opacity=".75">
    <path d="M-50.051 926.624s5.06-13.515-1.646-42.277c-6.612-28.793-9.05-44.219-2.336-53.753 6.682-9.629 9.149-9.508 7.46-1.345-1.69 8.162 6.527 61.207 11.58 58.033 5.147-3.206-1.014-14.639-3.661-38.224-2.647-23.584-5.385-31.737 10.14-46.445 0 0 17.187 34.841 19.8 57.382 2.55 22.668 8.802 18.669-.623 32.067-9.456 13.303-40.714 34.562-40.714 34.562z"/>
    <path d="M-14.454 894.414s3.397-8.104-5.886-43.595c-9.315-35.586-15.021-41.581-6.092-50.488 8.96-8.811 12.146-12.835 10.78-1.827-1.462 11.04 5.314 42.521 8.151 38.72 2.743-3.77-8.962-33.595.526-46.803 9.488-13.209 22.564-20.449 22.564-20.449s-7.981 22.408 2.909 55.46l5.158 29.176s-1.973 8.575-20.057 24.143l-18.053 15.663z"/>
    <path d="M20.1 862.554s.514-10.722-7.296-38.058c-7.81-27.336-10.654-40.2-3.147-48.628 7.507-8.429 13.005-10.592 11.055-5.718-1.95 4.875 4.762 35.85 6.925 27.528 2.258-8.353-3.563-23.171 1.637-30.931 5.2-7.759 15.909-12.938 15.909-12.938s13.842 51.893 4.305 71.236C39.855 844.42 20.1 862.554 20.1 862.554z"/>
    <path d="M47.689 826.599s6.825-44.066-7.59-69.395c0 0 8.932-7.641 10.304-2.3 1.372 5.341 6.294 28.478 8.109 19.746 1.814-8.732-1.858-24.377 3.284-29.797 5.142-5.419 13.063-12.615 15.7-6.961 2.638 5.655 6.716 4.918 9.67-3.247 2.954-8.166 7.097-7.764 20.523-13.645 0 0-13.271 59.734-60 105.599z"/>
    <path d="M112.16 795.557c-4.358 2.729-24.92 13.433-16.594 3.674 8.39-9.885 13.708-7.557 14.195-29.347.488-21.789 2.448-22.236-.115-22.958-2.563-.721-9.659 7.991-5.568-1.189 4.09-9.18 4.444-20.375 3.548-24.61 0 0-10.105 33.669-25.893 57.96-15.693 24.259-37.862 51.221-44.039 60.785-6.081 9.532 56.34-5.315 62.745-11.686 6.405-6.37 16.489-35.708 11.721-32.629z"/>
    <path d="M85.027 864.588s7.776-15.165 10.266-19.061c2.584-3.927-7.588.966-17.45 3.013-9.861 2.046-26.207 3.633-7.6-5.042 18.606-8.676 27.43-8.159 32.597-16.329 5.136-8.265 3.968-7.345 4.686-11.49.75-4.049-19.72 5.99-38.149 8.91-18.43 2.92-18.973.359-25.126 5.907-6.154 5.548-32.545 39.73-40.62 48.349-8.108 8.526 81.396-14.257 81.396-14.257z"/>
    <path d="M7.856 873.523c-2.21 1.903-42.733 37.033-48.504 44.035-5.771 7.002 58.757-12.878 76.626-12.128 17.774.781 15.824 5.656 20.081.428 6.118-7.54 16.992-23.534 13.832-22.578-3.16.956-63.478 9.505-50.018 4.351 13.46-5.153 51.55-11.407 57.52-14.677 5.97-3.271 8.169-9.601 10.058-13.084 0 0-22.548-.549-43.25 4.4-20.702 4.948-29.875 3.704-36.345 9.253z"/>
    <path d="M-59.044 935.024s22.893-28.26 38.352-30.287c15.46-2.028 81.892-5.247 82.49-6.291 1.575-2.534-5.256 10.732-13.22 13.406-7.962 2.675-32.209 6.177-28.76 7.339 3.45 1.162 26.363-5.057 23.589-1.066-2.68 3.959-2.733 8.197-6.708 12.38-3.975 4.183-96.047 9.896-95.743 4.519z"/>
    <path d="M-62.202 937.245S-89.156 960.012-96 967.585c-6.845 7.574 78.904 1.876 78.904 1.876s12.103-3.538 15.166-5.727c3.062-2.189 14.778-9.394 4.915-7.664-3.192.545-22.19 3.972-33.484 1.752-11.295-2.219-13.57-1.771 25.186-7.299 38.852-5.559 44.19-22.647 44.19-22.647s-54.79 6.164-69.054 4.837c-14.265-1.327-24.007-2.38-32.024 4.532z"/>
    <path d="M-121.331 995.186s42.649-4.619 57.043 11.544c0 0 5.717-2.77 1.152-7.565-4.564-4.797 12.526 1.175 16.82-1.43 4.295-2.603 16.356-10.979 12.906-12.457-3.45-1.479-44.46.48-45.07-2.902-.608-3.382 33.964-.014 51.384-1.54 17.421-1.526 21.631-13.489 25.165-17.102 0 0-44.584 1.999-67.732 1.862-23.148-.137-26.306 2.084-26.306 2.084l-25.362 27.506z"/>
    <path d="M107.689 721c-5.958 21.833-13.23 36.618-22.68 52.451-9.419 15.928-20.484 31.037-32.151 45.61-11.668 14.573-22.667 30.821-35.316 44.669-12.65 13.848-26.473 25.769-39.598 39.144l-10.477 9.321c-3.313 3.328-6.626 6.656-9.97 9.889l-10.003 9.794-10.002 9.795-20.13 19.525c-6.658 6.561-13.347 13.028-20.005 19.589-13.315 13.122-26.503 26.303-39.438 39.623-3.218 3.29-6.499 6.71-9.717 10.01l-9.559 10.17c-3.186 3.39-6.34 6.88-9.432 10.24-1.545 1.68-3.059 3.45-4.573 5.23l-2.176 2.63c-.662.85-1.514 1.77-2.018 2.47l-.063.12c-1.482 1.87-3.884 2.57-5.404 1.5-1.521-1.07-1.558-3.38-.107-5.34l.094-.03c.883-1.14 1.672-1.94 2.397-2.92l2.366-2.69c1.608-1.81 3.154-3.49 4.763-5.29 3.154-3.49 6.435-6.91 9.716-10.33 3.281-3.43 6.499-6.72 9.78-10.15 3.313-3.32 6.626-6.65 9.938-9.98a2927.084 2927.084 0 0160.52-58.513l20.353-19.179 10.192-9.541 10.16-9.637 10.035-9.699 10.54-9.132c13.316-13.122 27.203-24.854 40.075-38.355 12.84-13.595 23.934-29.558 35.76-43.974 11.857-14.32 23.207-29.209 32.785-44.979 9.514-15.643 16.027-30.173 23.345-52.041z"/>
  </g>
  <g style="mix-blend-mode:luminosity" opacity=".05" filter="url(#filter0_dd)" fill="#000" fill-opacity=".75">
    <path d="M1006.26-80.129s13.97 24.709 17.62 44.832c3.66 20.123.45 16.226-6.55 25.506-7 9.28-3.59 2.979-7.71-4.132-4.12-7.112-1.19 2.334-.45 11.058.75 8.723 6.38 17.293.05 25.837-6.44 8.582-18.239 20.713-18.239 20.713l-13.339-70.123 2.619-31.248 25.999-22.443z"/>
    <path d="M984.854-59.952s4.451 36.235 8.555 58.55c4.104 22.317 6.951 32.31 3.621 37.284-3.327 4.974-12.098 15.607-10.901 8.464 1.196-7.142-3.088-31.22-5.333-24.906-2.126 6.274-.483 14.966-2.038 31.838-1.555 16.873.092 16.34-7.33 24.718-7.384 8.496-4.919-5.164-4.159-11.646.723-6.6-1.951-4.825-5.173 10.509-3.223 15.333 1.505 11.075-9.116 23.216 0 0-2.929-35.947-4.111-70.511-1.145-34.447 9.983-64.29 9.983-64.29l26.002-23.226z"/>
    <path d="M960.713-34.99s-10.356 31.023-6.535 67.72c3.86 36.816 3.656 42.209 2.433 52.478-1.106 10.231-1.106 10.231-5.762 15.116-4.537 4.846-2.829-2.722-1.042-10.446 1.788-7.724-.002-35.336-5.714-43.75-5.673-8.298-4.673-1.996-5.648 6.634-1.012 8.512 5.513 31.084-4.363 56.366-9.877 25.281-28.799 34.653-28.799 34.653s16.945-37.962 6.005-78.593c-10.941-40.63 17.537-69.852 17.537-69.852l31.888-30.327z"/>
    <path d="M924.533 3.35s-8.622 11.494-5.316 44.592c3.306 33.097 6.252 67.091.681 78.377-5.454 11.249-15.224 19.997-16.414 17.524-1.19-2.473 7.405-42.15 3.728-50.703-3.678-8.554-5.019-7.08-6.648 4.75-1.745 11.867 1.857 37.853-4.077 50.426-5.934 12.574-20.084 21.44-20.084 21.44l3.714-53.557-17.264-54.953s11.399-11.744 20.647-23.311S924.533 3.35 924.533 3.35z"/>
    <path d="M881.198 42.058s-6.439 16.634 1.457 52.274c7.778 35.677 10.581 54.776 2.153 66.468-8.39 11.809-11.437 11.626-9.238 1.561 2.199-10.066-7.232-75.738-13.52-71.884-6.406 3.891 1.053 18.107 4.002 47.292 2.95 29.186 6.222 39.299-13.166 57.266 0 0-20.767-43.296-23.689-71.192-2.842-28.05-10.624-23.194 1.207-39.624 11.87-16.313 50.794-42.16 50.794-42.16z"/>
    <path d="M836.761 81.382s-4.308 9.969 6.68 53.961c11.027 44.11 17.998 51.598 6.84 62.483-11.195 10.769-15.186 15.698-13.347 2.111 1.956-13.624-5.988-52.625-9.547-47.966-3.441 4.621 10.618 41.644-1.289 57.839-11.908 16.195-28.167 24.965-28.167 24.965s10.17-27.585-2.838-68.586l-5.977-36.13s2.556-10.571 25.119-29.565l22.526-19.112z"/>
    <path d="M793.619 120.287s-.781 13.244 8.498 47.137c9.28 33.892 12.619 49.83 3.225 60.145-9.393 10.315-16.217 12.913-13.741 6.916 2.476-5.998-5.396-44.374-8.183-34.118-2.904 10.294 4.087 28.688-2.446 38.207-6.533 9.519-19.838 15.774-19.838 15.774s-16.4-64.326-4.348-88.104c12.169-23.815 36.833-45.957 36.833-45.957z"/>
    <path d="M759.031 164.349s-9.037 54.37 8.433 85.872c0 0-11.144 9.322-12.767 2.702-1.622-6.62-7.391-35.283-9.752-24.515-2.362 10.767 1.963 30.154-4.466 36.782-6.429 6.627-16.318 15.413-19.5 8.389-3.183-7.025-8.233-6.17-11.995 3.882-3.763 10.051-8.878 9.498-25.553 16.583 0 0 17.219-73.647 75.6-129.695z"/>
    <path d="M678.924 201.834c5.423-3.314 30.983-16.262 20.559-4.315-10.503 12.104-17.044 9.154-17.945 36.078-.9 26.923-3.328 27.449-.17 28.376 3.158.927 12.046-9.744 6.866 1.546-5.181 11.29-5.771 25.122-4.723 30.369 0 0 12.95-41.476 32.795-71.283 19.726-29.768 47.495-62.789 55.259-74.525 7.647-11.699-69.706 5.799-77.709 13.586-8.003 7.786-20.867 43.908-14.932 40.168z"/>
    <path d="M713.401 116.887s-9.818 18.637-12.948 23.417c-3.247 4.819 9.391-1.09 21.608-3.485 12.216-2.394 32.44-4.132 9.325 6.336-23.115 10.469-34.013 9.709-40.512 19.736-6.46 10.146-5.004 9.025-5.948 14.137-.982 4.995 24.454-7.134 47.271-10.491 22.818-3.357 23.455-.185 31.136-6.958 7.682-6.773 40.766-48.659 50.865-59.203 10.137-10.425-100.797 16.511-100.797 16.511z"/>
    <path d="M808.903 106.897c2.756-2.321 53.321-45.188 60.549-53.763 7.228-8.575-72.797 15.115-94.871 13.944-21.957-1.209-19.481-7.207-24.814-.804-7.664 9.236-21.322 28.855-17.403 27.717 3.919-1.138 78.584-10.88 61.879-4.695-16.706 6.186-63.87 13.394-71.293 17.355-7.422 3.961-10.227 11.754-12.609 16.033 0 0 27.861.987 53.514-4.847 25.654-5.833 36.975-4.171 45.048-10.94z"/>
    <path d="M892.428 31.798s-28.682 34.615-47.816 36.91c-19.134 2.295-101.285 5.366-102.039 6.65-1.981 3.109 6.644-13.193 16.522-16.39 9.878-3.197 39.894-7.194 35.646-8.678-4.248-1.483-32.651 5.89-29.168.995 3.365-4.856 3.489-10.093 8.459-15.209s118.845-10.919 118.396-4.278z"/>
    <path d="M896.36 29.097s33.625-27.77 42.188-37.038c8.563-9.267-97.495-3.395-97.495-3.395s-15.007 4.207-18.822 6.87c-3.815 2.664-18.393 11.41-6.18 9.406 3.953-.63 27.48-4.606 41.409-1.709 13.929 2.897 16.748 2.375-31.229 8.677-48.095 6.341-54.925 27.389-54.925 27.389s67.8-6.872 85.413-5.037c17.612 1.836 29.639 3.27 39.641-5.163z"/>
    <path d="M970.232-41.709s-52.775 5.127-70.344-15.04c0 0-7.104 3.339-1.528 9.329 5.576 5.99-15.464-1.621-20.808 1.537-5.344 3.159-20.365 13.346-16.12 15.22 4.244 1.875 54.957.013 55.663 4.202.706 4.188-41.976-.446-63.528 1.202S826.648-8.883 822.231-4.465c0 0 55.131-1.862 83.739-1.377 28.608.485 32.54-2.216 32.54-2.216l31.722-33.65z"/>
    <path d="M683.431 294.044c7.663-26.903 16.851-45.077 28.748-64.516 11.859-19.558 25.741-38.081 40.36-55.933 14.619-17.853 28.436-37.783 44.259-54.726 15.823-16.943 33.071-31.489 49.475-47.84l13.077-11.377c4.139-4.068 8.279-8.136 12.457-12.087l12.496-11.968 12.496-11.969L921.946-.23c8.318-8.018 16.674-15.919 24.992-23.937 16.636-16.036 33.116-32.153 49.284-48.428 4.018-4.03 8.128-8.215 12.148-12.245 3.98-4.148 7.97-8.295 11.95-12.443 3.99-4.147 7.93-8.412 11.8-12.522 1.93-2.054 3.83-4.227 5.72-6.399l2.73-3.22c.83-1.048 1.89-2.173 2.53-3.027l.08-.156c1.85-2.29 4.83-3.123 6.7-1.778 1.86 1.345 1.87 4.199.05 6.606l-.11.038c-1.11 1.398-2.1 2.366-3 3.57l-2.97 3.297c-2.01 2.21-3.94 4.265-5.95 6.475-3.95 4.265-8.05 8.45-12.15 12.636-4.11 4.186-8.13 8.216-12.23 12.401l-12.42 12.204a3643.099 3643.099 0 01-50.219 47.95 3542.024 3542.024 0 01-25.379 23.544L900.085 27.76l-12.727 11.654-12.69 11.772-12.534 11.85-13.153 11.143c-16.636 16.036-33.96 30.347-50.052 46.857-16.055 16.628-29.986 36.207-44.798 53.862-14.851 17.537-29.083 35.784-41.135 55.144-11.973 19.204-20.221 37.074-29.565 64.001z"/>
  </g>
  <defs>
    <filter id="filter0_dd" x="545.137" y="-159" width="643.185" height="520.045" filterUnits="userSpaceOnUse" color-interpolation-filters="sRGB">
      <feFlood flood-opacity="0" result="BackgroundImageFix"/>
      <feColorMatrix in="SourceAlpha" values="0 0 0 0 0 0 0 0 0 0 0 0 0 0 0 0 0 0 127 0"/>
      <feOffset dy="17"/>
      <feGaussianBlur stdDeviation="25"/>
      <feColorMatrix values="0 0 0 0 0 0 0 0 0 0 0 0 0 0 0 0 0 0 0.19 0"/>
      <feBlend in2="BackgroundImageFix" result="effect1_dropShadow"/>
      <feColorMatrix in="SourceAlpha" values="0 0 0 0 0 0 0 0 0 0 0 0 0 0 0 0 0 0 127 0"/>
      <feOffset dy="12"/>
      <feGaussianBlur stdDeviation="7.5"/>
      <feColorMatrix values="0 0 0 0 0 0 0 0 0 0 0 0 0 0 0 0 0 0 0.24 0"/>
      <feBlend in2="effect1_dropShadow" result="effect2_dropShadow"/>
      <feBlend in="SourceGraphic" in2="effect2_dropShadow" result="shape"/>
    </filter>
  </defs>
</svg>
