<svg width="1440" height="1079" viewBox="0 0 1440 1079" fill="none" xmlns="http://www.w3.org/2000/svg">
<g style="mix-blend-mode:luminosity" opacity="0.05">
<path d="M1548.88 912.377C1548.88 912.377 1479.08 917.713 1417.42 938.677C1417.42 938.677 1513.44 937.904 1548.88 912.377Z" fill="black" fill-opacity="0.75"/>
<path d="M1548.88 912.377C1548.88 912.377 1515.66 893.666 1417.42 938.677C1417.42 938.677 1509.92 919.621 1548.88 912.377Z" fill="black" fill-opacity="0.75"/>
<path d="M1515.58 898.106C1515.58 898.106 1439.37 901.137 1372.4 919.856C1372.4 919.856 1477.55 922.072 1515.58 898.106Z" fill="black" fill-opacity="0.75"/>
<path d="M1515.58 898.106C1515.58 898.106 1478.63 878.853 1372.4 919.856C1372.4 919.856 1473.21 904.048 1515.58 898.106Z" fill="black" fill-opacity="0.75"/>
<path d="M1488.28 888.481C1488.28 888.481 1412.61 879.152 1343.49 886.75C1343.49 886.75 1446.91 905.924 1488.28 888.481Z" fill="black" fill-opacity="0.75"/>
<path d="M1488.28 888.481C1488.28 888.481 1454.95 863.431 1343.49 886.75C1343.49 886.75 1445.51 887.482 1488.28 888.481Z" fill="black" fill-opacity="0.75"/>
<path d="M1436.43 863.774C1436.43 863.774 1356.57 858.181 1282.56 872.614C1282.48 872.554 1391.09 887.993 1436.43 863.774Z" fill="black" fill-opacity="0.75"/>
<path d="M1436.43 863.774C1436.43 863.774 1402.85 836.044 1282.56 872.614C1282.48 872.554 1390.93 865.733 1436.43 863.774Z" fill="black" fill-opacity="0.75"/>
<path d="M1415.14 852.155C1415.14 852.155 1340.88 822.127 1266.07 812.819C1266.07 812.819 1364.57 861.189 1415.14 852.155Z" fill="black" fill-opacity="0.75"/>
<path d="M1415.14 852.155C1415.14 852.155 1391.77 815.334 1266.07 812.819C1266.07 812.819 1371.27 839.955 1415.14 852.155Z" fill="black" fill-opacity="0.75"/>
<path d="M1373.75 821.177C1373.75 821.177 1306.54 786.936 1241.55 769.377C1241.41 769.397 1331.76 821.779 1373.75 821.177Z" fill="black" fill-opacity="0.75"/>
<path d="M1373.75 821.177C1373.75 821.177 1348.98 788.055 1241.55 769.377C1241.41 769.397 1334.66 805.442 1373.75 821.177Z" fill="black" fill-opacity="0.75"/>
<path d="M1335.59 791.382C1335.59 791.382 1282.36 737.874 1226.06 700.943C1226 701.023 1295.54 778.926 1335.59 791.382Z" fill="black" fill-opacity="0.75"/>
<path d="M1335.59 791.382C1335.59 791.382 1322.39 752.19 1226.06 700.943C1226 701.023 1303.4 764.313 1335.59 791.382Z" fill="black" fill-opacity="0.75"/>
<path d="M1529.23 901.239C1529.23 901.239 1488.3 851.341 1462.45 798.518C1462.45 798.518 1522.93 863.853 1529.23 901.239Z" fill="black" fill-opacity="0.75"/>
<path d="M1529.23 901.239C1529.23 901.239 1496.3 888.629 1462.45 798.518C1462.45 798.518 1509.1 871.1 1529.23 901.239Z" fill="black" fill-opacity="0.75"/>
<path d="M1494.15 885.507C1494.15 885.507 1455.92 827.012 1433.83 768.012C1433.75 767.952 1491.14 845.724 1494.15 885.507Z" fill="black" fill-opacity="0.75"/>
<path d="M1494.15 885.507C1494.15 885.507 1460.72 866.896 1433.83 768.012C1433.75 767.952 1475.88 850.89 1494.15 885.507Z" fill="black" fill-opacity="0.75"/>
<path d="M1466.08 874.421C1466.08 874.421 1427.85 815.926 1405.76 756.926C1405.68 756.866 1463.07 834.638 1466.08 874.421Z" fill="black" fill-opacity="0.75"/>
<path d="M1466.08 874.421C1466.08 874.421 1432.65 855.811 1405.76 756.926C1405.68 756.866 1447.81 839.805 1466.08 874.421Z" fill="black" fill-opacity="0.75"/>
<path d="M1427.14 853.666C1427.14 853.666 1388.91 795.171 1366.82 736.171C1366.82 736.171 1424.13 813.883 1427.14 853.666Z" fill="black" fill-opacity="0.75"/>
<path d="M1427.14 853.666C1427.14 853.666 1393.71 835.055 1366.82 736.171C1366.82 736.171 1408.87 819.049 1427.14 853.666Z" fill="black" fill-opacity="0.75"/>
<path d="M1379.34 823.882C1379.34 823.882 1345.65 768.671 1327.63 712.095C1327.63 712.095 1378.76 785.042 1379.34 823.882Z" fill="black" fill-opacity="0.75"/>
<path d="M1379.34 823.882C1379.34 823.882 1348.04 807.614 1327.63 712.095C1327.63 712.095 1363.67 790.968 1379.34 823.882Z" fill="black" fill-opacity="0.75"/>
<path d="M1341.25 795.508C1341.25 795.508 1310.73 745.56 1294.4 694.385C1294.4 694.385 1340.76 760.367 1341.25 795.508Z" fill="black" fill-opacity="0.75"/>
<path d="M1341.25 795.508C1341.25 795.508 1312.94 780.742 1294.4 694.385C1294.4 694.385 1327.1 765.735 1341.25 795.508Z" fill="black" fill-opacity="0.75"/>
<path d="M1330.08 784.737C1330.08 784.737 1373.36 832.017 1441.34 866.719C1509.33 901.421 1623.05 944.844 1667.16 932.584C1667.16 932.584 1669.73 924.007 1660.79 925.418C1651.71 926.85 1612.15 925.894 1570.3 911.836C1528.38 897.718 1485.49 885.879 1438.93 858.277C1392.38 830.674 1330.08 784.737 1330.08 784.737Z" fill="black" fill-opacity="0.75"/>
</g>
<g style="mix-blend-mode:luminosity" opacity="0.05">
<path d="M1530.87 726.922C1530.87 726.922 1464.58 736.402 1405.2 763.328C1405.12 763.268 1496.04 757.79 1530.87 726.922Z" fill="black" fill-opacity="0.75"/>
<path d="M1530.87 726.922C1530.87 726.922 1500.37 707.254 1405.2 763.328C1405.12 763.268 1493.6 737.068 1530.87 726.922Z" fill="black" fill-opacity="0.75"/>
<path d="M1480.88 712.377C1480.88 712.377 1411.08 717.713 1349.42 738.677C1349.42 738.677 1445.44 737.904 1480.88 712.377Z" fill="black" fill-opacity="0.75"/>
<path d="M1480.88 712.377C1480.88 712.377 1447.66 693.666 1349.42 738.677C1349.42 738.677 1441.92 719.621 1480.88 712.377Z" fill="black" fill-opacity="0.75"/>
<path d="M1447.58 698.106C1447.58 698.106 1371.37 701.137 1304.4 719.856C1304.4 719.856 1409.55 722.072 1447.58 698.106Z" fill="black" fill-opacity="0.75"/>
<path d="M1447.58 698.106C1447.58 698.106 1410.63 678.853 1304.4 719.856C1304.4 719.856 1405.21 704.048 1447.58 698.106Z" fill="black" fill-opacity="0.75"/>
<path d="M1420.28 688.481C1420.28 688.481 1344.61 679.152 1275.49 686.75C1275.49 686.75 1378.91 705.924 1420.28 688.481Z" fill="black" fill-opacity="0.75"/>
<path d="M1420.28 688.481C1420.28 688.481 1386.95 663.431 1275.49 686.75C1275.49 686.75 1377.51 687.482 1420.28 688.481Z" fill="black" fill-opacity="0.75"/>
<path d="M1368.43 663.774C1368.43 663.774 1288.57 658.181 1214.56 672.614C1214.48 672.554 1323.09 687.993 1368.43 663.774Z" fill="black" fill-opacity="0.75"/>
<path d="M1368.43 663.774C1368.43 663.774 1334.85 636.044 1214.56 672.614C1214.48 672.554 1322.93 665.733 1368.43 663.774Z" fill="black" fill-opacity="0.75"/>
<path d="M1347.14 652.155C1347.14 652.155 1272.88 622.127 1198.07 612.819C1198.07 612.819 1296.57 661.189 1347.14 652.155Z" fill="black" fill-opacity="0.75"/>
<path d="M1347.14 652.155C1347.14 652.155 1323.77 615.334 1198.07 612.819C1198.07 612.819 1303.27 639.955 1347.14 652.155Z" fill="black" fill-opacity="0.75"/>
<path d="M1305.75 621.177C1305.75 621.177 1238.54 586.936 1173.55 569.377C1173.41 569.397 1263.76 621.779 1305.75 621.177Z" fill="black" fill-opacity="0.75"/>
<path d="M1305.75 621.177C1305.75 621.177 1280.98 588.055 1173.55 569.377C1173.41 569.397 1266.66 605.442 1305.75 621.177Z" fill="black" fill-opacity="0.75"/>
<path d="M1267.59 591.382C1267.59 591.382 1214.36 537.874 1158.06 500.943C1158 501.023 1227.54 578.926 1267.59 591.382Z" fill="black" fill-opacity="0.75"/>
<path d="M1267.59 591.382C1267.59 591.382 1254.39 552.19 1158.06 500.943C1158 501.023 1235.4 564.313 1267.59 591.382Z" fill="black" fill-opacity="0.75"/>
<path d="M1521.44 719.334C1521.44 719.334 1475.4 669.732 1445.39 614.284C1445.39 614.284 1513.15 678.086 1521.44 719.334Z" fill="black" fill-opacity="0.75"/>
<path d="M1521.44 719.333C1521.44 719.333 1485.56 710.641 1445.39 614.284C1445.39 614.284 1498.64 688.573 1521.44 719.333Z" fill="black" fill-opacity="0.75"/>
<path d="M1487.59 707.783C1487.59 707.783 1446.6 653.965 1422.07 595.883C1422.07 595.883 1483.35 665.819 1487.59 707.783Z" fill="black" fill-opacity="0.75"/>
<path d="M1487.59 707.783C1487.59 707.783 1452.66 695.671 1422.07 595.883C1422.07 595.883 1467.86 674.945 1487.59 707.783Z" fill="black" fill-opacity="0.75"/>
<path d="M1461.23 701.239C1461.23 701.239 1420.3 651.341 1394.45 598.518C1394.45 598.518 1454.93 663.853 1461.23 701.239Z" fill="black" fill-opacity="0.75"/>
<path d="M1461.23 701.239C1461.23 701.239 1428.3 688.629 1394.45 598.518C1394.45 598.518 1441.1 671.1 1461.23 701.239Z" fill="black" fill-opacity="0.75"/>
<path d="M1426.15 685.507C1426.15 685.507 1387.92 627.012 1365.83 568.012C1365.75 567.952 1423.14 645.724 1426.15 685.507Z" fill="black" fill-opacity="0.75"/>
<path d="M1426.15 685.507C1426.15 685.507 1392.72 666.896 1365.83 568.012C1365.75 567.952 1407.88 650.89 1426.15 685.507Z" fill="black" fill-opacity="0.75"/>
<path d="M1398.08 674.421C1398.08 674.421 1359.85 615.926 1337.76 556.926C1337.68 556.866 1395.07 634.638 1398.08 674.421Z" fill="black" fill-opacity="0.75"/>
<path d="M1398.08 674.421C1398.08 674.421 1364.65 655.811 1337.76 556.926C1337.68 556.866 1379.81 639.805 1398.08 674.421Z" fill="black" fill-opacity="0.75"/>
<path d="M1359.14 653.666C1359.14 653.666 1320.91 595.171 1298.82 536.171C1298.82 536.171 1356.13 613.883 1359.14 653.666Z" fill="black" fill-opacity="0.75"/>
<path d="M1359.14 653.666C1359.14 653.666 1325.71 635.055 1298.82 536.171C1298.82 536.171 1340.87 619.049 1359.14 653.666Z" fill="black" fill-opacity="0.75"/>
<path d="M1311.34 623.882C1311.34 623.882 1277.65 568.671 1259.63 512.095C1259.63 512.095 1310.76 585.042 1311.34 623.882Z" fill="black" fill-opacity="0.75"/>
<path d="M1311.34 623.882C1311.34 623.882 1280.04 607.614 1259.63 512.095C1259.63 512.095 1295.67 590.968 1311.34 623.882Z" fill="black" fill-opacity="0.75"/>
<path d="M1273.25 595.508C1273.25 595.508 1242.73 545.56 1226.4 494.385C1226.4 494.385 1272.76 560.367 1273.25 595.508Z" fill="black" fill-opacity="0.75"/>
<path d="M1273.25 595.508C1273.25 595.508 1244.94 580.742 1226.4 494.385C1226.4 494.385 1259.1 565.735 1273.25 595.508Z" fill="black" fill-opacity="0.75"/>
<path d="M1262.08 584.737C1262.08 584.737 1305.36 632.017 1373.34 666.719C1441.33 701.421 1555.05 744.844 1599.16 732.584C1599.16 732.584 1601.73 724.007 1592.79 725.418C1583.71 726.85 1544.15 725.894 1502.3 711.836C1460.38 697.718 1417.49 685.879 1370.93 658.277C1324.38 630.674 1262.08 584.737 1262.08 584.737Z" fill="black" fill-opacity="0.75"/>
</g>
<g style="mix-blend-mode:luminosity" opacity="0.05">
<path d="M-51.6908 764.666C-51.6908 764.666 -43.5896 739.476 -47.0092 709.822C-50.4606 680.072 -50.3441 675.708 -49.446 667.389C-48.6426 659.102 -48.6427 659.102 -44.9203 655.109C-41.2927 651.148 -42.6068 657.286 -43.9839 663.551C-45.3611 669.815 -43.6658 692.137 -38.9702 698.893C-34.3065 705.555 -35.1719 700.466 -34.4605 693.476C-33.7173 686.58 -39.1979 668.378 -31.4339 647.837C-23.6699 627.296 -8.44531 619.545 -8.44531 619.545C-8.44531 619.545 -21.8146 650.408 -12.6009 683.18C-3.38725 715.952 -26.1645 739.848 -26.1645 739.848L-51.6908 764.666Z" fill="black" fill-opacity="0.75"/>
<path d="M-22.7639 733.326C-22.7639 733.326 -15.8914 723.95 -18.8617 697.203C-21.8319 670.457 -24.5193 642.983 -20.113 633.802C-15.8015 624.654 -7.97537 617.489 -6.99053 619.479C-6.00568 621.469 -12.6048 653.644 -9.55329 660.531C-6.5018 667.418 -5.42938 666.214 -4.21793 656.629C-2.91169 647.013 -6.05857 626.023 -1.37007 615.798C3.31843 605.573 14.686 598.274 14.686 598.274L12.1601 641.634L26.6179 685.937C26.6179 685.937 17.5008 695.539 10.1226 704.98C2.74433 714.42 -22.7639 733.326 -22.7639 733.326Z" fill="black" fill-opacity="0.75"/>
<path d="M11.9487 701.624C11.9487 701.624 17.0092 688.109 10.3029 659.347C3.69131 630.554 1.2528 615.128 7.96674 605.594C14.6488 595.965 17.1157 596.086 15.4267 604.249C13.7376 612.411 21.954 665.456 27.0064 662.282C32.1536 659.076 25.9928 647.643 23.3459 624.058C20.6991 600.474 17.961 592.321 33.4859 577.613C33.4859 577.613 50.6733 612.454 53.2861 634.995C55.836 657.663 62.0882 653.664 52.6635 667.062C43.2069 680.365 11.9487 701.624 11.9487 701.624Z" fill="black" fill-opacity="0.75"/>
<path d="M47.5461 669.414C47.5461 669.414 50.9429 661.31 41.6598 625.819C32.3448 590.233 26.639 584.238 35.568 575.331C44.5288 566.52 47.7136 562.496 46.3472 573.504C44.8861 584.544 51.6619 616.025 54.4993 612.224C57.2419 608.454 45.5367 578.629 55.0251 565.421C64.5135 552.212 77.5889 544.972 77.5889 544.972C77.5889 544.972 69.6077 567.38 80.498 600.432L85.6558 629.608C85.6558 629.608 83.6831 638.183 65.5987 653.751C47.5462 669.414 47.5461 669.414 47.5461 669.414Z" fill="black" fill-opacity="0.75"/>
<path d="M82.1006 637.554C82.1006 637.554 82.6137 626.832 74.8038 599.496C66.9939 572.16 64.1502 559.296 71.6572 550.868C79.1643 542.439 84.6617 540.276 82.7122 545.15C80.7627 550.025 87.4741 581 89.6371 572.678C91.8949 564.325 86.0741 549.507 91.2742 541.747C96.4743 533.988 107.183 528.809 107.183 528.809C107.183 528.809 121.025 580.702 111.488 600.045C101.855 619.42 82.1006 637.554 82.1006 637.554Z" fill="black" fill-opacity="0.75"/>
<path d="M109.689 601.599C109.689 601.599 116.514 557.533 102.099 532.204C102.099 532.204 111.031 524.563 112.403 529.904C113.775 535.245 118.697 558.382 120.512 549.65C122.326 540.918 118.654 525.273 123.796 519.853C128.938 514.434 136.859 507.238 139.497 512.892C142.134 518.547 146.212 517.81 149.166 509.645C152.12 501.479 156.263 501.881 169.689 496C169.689 496 156.418 555.734 109.689 601.599Z" fill="black" fill-opacity="0.75"/>
<path d="M174.16 570.557C169.802 573.286 149.24 583.99 157.566 574.231C165.956 564.346 171.274 566.674 171.761 544.884C172.249 523.095 174.209 522.648 171.646 521.926C169.083 521.205 161.987 529.917 166.078 520.737C170.168 511.557 170.522 500.362 169.626 496.127C169.626 496.127 159.521 529.796 143.733 554.087C128.04 578.346 105.871 605.308 99.6943 614.872C93.6128 624.404 156.034 609.557 162.439 603.186C168.844 596.816 178.928 567.478 174.16 570.557Z" fill="black" fill-opacity="0.75"/>
<path d="M147.027 639.588C147.027 639.588 154.803 624.423 157.293 620.527C159.877 616.6 149.705 621.493 139.844 623.54C129.982 625.586 113.637 627.173 132.243 618.498C150.849 609.822 159.673 610.339 164.84 602.169C169.976 593.904 168.808 594.824 169.526 590.679C170.276 586.63 149.807 596.669 131.377 599.589C112.948 602.509 112.404 599.948 106.251 605.496C100.097 611.044 73.7064 645.226 65.6306 653.845C57.523 662.371 147.027 639.588 147.027 639.588Z" fill="black" fill-opacity="0.75"/>
<path d="M69.8558 648.523C67.6466 650.426 27.1228 685.556 21.3518 692.558C15.5808 699.56 80.1094 679.68 97.978 680.43C115.752 681.212 113.802 686.086 118.06 680.858C124.177 673.318 135.051 657.324 131.89 658.28C128.73 659.236 68.4134 667.785 81.873 662.631C95.3326 657.478 133.424 651.224 139.393 647.954C145.362 644.683 147.562 638.353 149.451 634.871C149.451 634.871 126.903 634.321 106.201 639.27C85.4993 644.218 76.3259 642.975 69.8558 648.523Z" fill="black" fill-opacity="0.75"/>
<path d="M2.95567 710.024C2.95567 710.024 25.8495 681.764 41.3084 679.737C56.7674 677.709 123.2 674.491 123.798 673.446C125.373 670.912 118.542 684.178 110.579 686.852C102.616 689.527 78.3691 693.029 81.8187 694.191C85.2682 695.353 108.181 689.135 105.407 693.125C102.728 697.084 102.674 701.322 98.6994 705.505C94.7244 709.688 2.65169 715.401 2.95567 710.024Z" fill="black" fill-opacity="0.75"/>
<path d="M-86.5222 799.784L-59.3626 770.091C-59.3626 770.091 -16.7791 764.65 -2.32034 781.63C-2.32034 781.63 -7.81487 785.058 -14.3623 784.409C-20.9097 783.76 -47.1616 781.606 -58.2788 787.766C-69.3642 794.021 -35.9143 790.909 -41.1469 798.257C-46.3477 805.701 -90.686 804.347 -86.5222 799.784Z" fill="black" fill-opacity="0.75"/>
<path d="M-0.201727 712.245C-0.201727 712.245 -27.1558 735.012 -34.0007 742.585C-40.8456 750.159 44.9027 744.461 44.9027 744.461C44.9027 744.461 57.0061 740.923 60.0685 738.734C63.131 736.545 74.8466 729.34 64.9842 731.07C61.7916 731.615 42.7941 735.042 31.4996 732.822C20.2052 730.603 17.9293 731.051 56.6864 725.523C95.5382 719.964 100.875 702.876 100.875 702.876C100.875 702.876 46.0868 709.04 31.8219 707.713C17.557 706.386 7.81473 705.333 -0.201727 712.245Z" fill="black" fill-opacity="0.75"/>
<path d="M-59.3306 770.186C-59.3306 770.186 -16.682 765.567 -2.28837 781.725C-2.28837 781.725 3.42909 778.961 -1.13553 774.164C-5.70016 769.368 11.3898 775.338 15.6846 772.735C19.9794 770.132 32.0402 761.756 28.5899 760.277C25.1397 758.799 -15.8707 760.758 -16.4793 757.376C-17.0878 753.994 17.4837 757.362 34.9044 755.836C52.3251 754.31 56.5353 742.347 60.0688 738.734C60.0688 738.734 15.4851 740.733 -7.66311 740.596C-30.8114 740.459 -33.9686 742.68 -33.9686 742.68L-59.3306 770.186Z" fill="black" fill-opacity="0.75"/>
<path d="M169.689 496C163.731 517.833 156.46 532.618 147.009 548.451C137.59 564.379 126.525 579.488 114.858 594.061C103.19 608.634 92.191 624.882 79.5418 638.73C66.8926 652.578 53.0689 664.499 39.9443 677.874L29.4667 687.195C26.1539 690.523 22.8411 693.851 19.4965 697.084L9.49432 706.878L-0.507788 716.673L-20.6387 736.198C-27.2961 742.759 -33.9854 749.226 -40.6429 755.787C-53.9578 768.909 -67.1462 782.094 -80.0812 795.405C-83.2992 798.701 -86.5802 802.124 -89.7982 805.42C-92.9844 808.811 -96.1706 812.202 -99.3568 815.593C-102.543 818.984 -105.697 822.47 -108.789 825.829C-110.334 827.508 -111.848 829.282 -113.362 831.057L-115.538 833.687C-116.2 834.542 -117.052 835.461 -117.556 836.158L-117.619 836.284C-119.101 838.153 -121.503 838.855 -123.023 837.783C-124.544 836.711 -124.581 834.403 -123.13 832.439L-123.036 832.407C-122.153 831.267 -121.364 830.474 -120.639 829.492L-118.273 826.799C-116.665 824.993 -115.119 823.313 -113.51 821.507C-110.356 818.021 -107.075 814.599 -103.794 811.176C-100.513 807.753 -97.295 804.457 -94.014 801.034C-90.7012 797.706 -87.3884 794.378 -84.0756 791.05C-70.7925 777.833 -57.4457 764.806 -43.8775 751.81C-37.0934 745.312 -30.3723 738.94 -23.5563 732.537L-3.20328 713.358L6.98919 703.817L17.1497 694.18C20.4944 690.947 23.8391 687.714 27.1837 684.481L37.7249 675.349C51.0398 662.227 64.9272 650.495 77.7985 636.994C90.6381 623.399 101.733 607.436 113.559 593.02C125.416 578.7 136.766 563.811 146.344 548.041C155.858 532.398 162.371 517.868 169.689 496Z" fill="black" fill-opacity="0.75"/>
</g>
<g style="mix-blend-mode:luminosity" opacity="0.05">
<path d="M-50.0513 926.624C-50.0513 926.624 -44.9908 913.109 -51.6971 884.347C-58.3087 855.554 -60.7472 840.128 -54.0333 830.594C-47.3512 820.965 -44.8843 821.086 -46.5733 829.249C-48.2624 837.411 -40.046 890.456 -34.9936 887.282C-29.8464 884.076 -36.0072 872.643 -38.6541 849.058C-41.3009 825.474 -44.039 817.321 -28.5141 802.613C-28.5141 802.613 -11.3267 837.454 -8.71389 859.995C-6.16403 882.663 0.0881819 878.664 -9.33652 892.062C-18.7931 905.365 -50.0513 926.624 -50.0513 926.624Z" fill="black" fill-opacity="0.75"/>
<path d="M-14.4539 894.414C-14.4539 894.414 -11.0571 886.31 -20.3402 850.819C-29.6552 815.233 -35.361 809.238 -26.432 800.331C-17.4712 791.52 -14.2864 787.496 -15.6528 798.504C-17.1139 809.544 -10.3381 841.025 -7.50072 837.224C-4.75812 833.454 -16.4633 803.629 -6.97489 790.421C2.51348 777.212 15.5889 769.972 15.5889 769.972C15.5889 769.972 7.60769 792.38 18.498 825.432L23.6558 854.608C23.6558 854.608 21.6831 863.183 3.59873 878.751C-14.4538 894.414 -14.4539 894.414 -14.4539 894.414Z" fill="black" fill-opacity="0.75"/>
<path d="M20.1006 862.554C20.1006 862.554 20.6137 851.832 12.8038 824.496C4.99395 797.16 2.1502 784.296 9.65723 775.868C17.1643 767.439 22.6617 765.276 20.7122 770.15C18.7627 775.025 25.4741 806 27.6371 797.678C29.8949 789.325 24.0741 774.507 29.2742 766.747C34.4743 758.988 45.1826 753.809 45.1826 753.809C45.1826 753.809 59.0252 805.702 49.4876 825.045C39.8551 844.42 20.1006 862.554 20.1006 862.554Z" fill="black" fill-opacity="0.75"/>
<path d="M47.6886 826.599C47.6886 826.599 54.5136 782.533 40.0991 757.204C40.0991 757.204 49.0309 749.563 50.4029 754.904C51.7748 760.245 56.6975 783.382 58.5117 774.65C60.3259 765.918 56.6537 750.273 61.7958 744.853C66.938 739.434 74.8589 732.238 77.4965 737.892C80.1341 743.547 84.2118 742.81 87.1657 734.645C90.1197 726.479 94.2631 726.881 107.689 721C107.689 721 94.4175 780.734 47.6886 826.599Z" fill="black" fill-opacity="0.75"/>
<path d="M112.16 795.557C107.802 798.286 87.2402 808.99 95.5664 799.231C103.956 789.346 109.274 791.674 109.761 769.884C110.249 748.095 112.209 747.648 109.646 746.926C107.083 746.205 99.9875 754.917 104.078 745.737C108.168 736.557 108.522 725.362 107.626 721.127C107.626 721.127 97.5206 754.796 81.733 779.087C66.0401 803.346 43.8706 830.308 37.6943 839.872C31.6128 849.404 94.0341 834.557 100.439 828.186C106.844 821.816 116.928 792.478 112.16 795.557Z" fill="black" fill-opacity="0.75"/>
<path d="M85.0269 864.588C85.0269 864.588 92.8032 849.423 95.2926 845.527C97.8767 841.6 87.7053 846.493 77.8436 848.54C67.982 850.586 51.6365 852.173 70.2426 843.498C88.8487 834.822 97.6727 835.339 102.84 827.169C107.976 818.904 106.808 819.824 107.526 815.679C108.276 811.63 87.8068 821.669 69.3773 824.589C50.9479 827.509 50.4044 824.948 44.2506 830.496C38.0968 836.044 11.7064 870.226 3.6306 878.845C-4.47704 887.371 85.0269 864.588 85.0269 864.588Z" fill="black" fill-opacity="0.75"/>
<path d="M7.85581 873.523C5.64655 875.426 -34.8772 910.556 -40.6482 917.558C-46.4192 924.56 18.1094 904.68 35.978 905.43C53.7518 906.211 51.8024 911.086 56.0595 905.858C62.1772 898.318 73.0506 882.324 69.8905 883.28C66.7304 884.236 6.41345 892.785 19.873 887.631C33.3326 882.478 71.4239 876.224 77.3932 872.954C83.3625 869.683 85.5617 863.353 87.4511 859.87C87.4511 859.87 64.9027 859.321 44.201 864.27C23.4993 869.218 14.3259 867.974 7.85581 873.523Z" fill="black" fill-opacity="0.75"/>
<path d="M-59.0443 935.024C-59.0443 935.024 -36.1505 906.764 -20.6916 904.737C-5.23263 902.709 61.1997 899.49 61.7981 898.446C63.3735 895.912 56.5416 909.178 48.5787 911.852C40.6158 914.527 16.3691 918.029 19.8187 919.191C23.2682 920.353 46.1806 914.134 43.4068 918.125C40.7279 922.084 40.6743 926.322 36.6994 930.505C32.7244 934.688 -59.3483 940.401 -59.0443 935.024Z" fill="black" fill-opacity="0.75"/>
<path d="M-62.2017 937.245C-62.2017 937.245 -89.1558 960.012 -96.0007 967.585C-102.846 975.159 -17.0973 969.461 -17.0973 969.461C-17.0973 969.461 -4.99389 965.923 -1.93146 963.734C1.13096 961.545 12.8466 954.34 2.98425 956.07C-0.20842 956.615 -19.2059 960.042 -30.5004 957.822C-41.7948 955.603 -44.0707 956.051 -5.31363 950.523C33.5382 944.964 38.8752 927.876 38.8752 927.876C38.8752 927.876 -15.9132 934.04 -30.1781 932.713C-44.443 931.386 -54.1853 930.333 -62.2017 937.245Z" fill="black" fill-opacity="0.75"/>
<path d="M-121.331 995.186C-121.331 995.186 -78.682 990.567 -64.2884 1006.73C-64.2884 1006.73 -58.5709 1003.96 -63.1355 999.165C-67.7002 994.368 -50.6102 1000.34 -46.3154 997.735C-42.0206 995.132 -29.9598 986.756 -33.4101 985.278C-36.8603 983.799 -77.8707 985.758 -78.4793 982.376C-79.0878 978.994 -44.5163 982.362 -27.0956 980.836C-9.67491 979.31 -5.46471 967.347 -1.93118 963.734C-1.93118 963.734 -46.5149 965.733 -69.6631 965.596C-92.8114 965.459 -95.9686 967.68 -95.9686 967.68L-121.331 995.186Z" fill="black" fill-opacity="0.75"/>
<path d="M107.689 721C101.731 742.833 94.4597 757.618 85.0089 773.451C75.59 789.379 64.5248 804.488 52.8575 819.061C41.1903 833.634 30.191 849.882 17.5418 863.73C4.89257 877.578 -8.93108 889.499 -22.0557 902.874L-32.5333 912.195C-35.8461 915.523 -39.1589 918.851 -42.5035 922.084L-52.5057 931.878L-62.5078 941.673L-82.6387 961.198C-89.2961 967.759 -95.9854 974.226 -102.643 980.787C-115.958 993.909 -129.146 1007.09 -142.081 1020.41C-145.299 1023.7 -148.58 1027.12 -151.798 1030.42C-154.984 1033.81 -158.171 1037.2 -161.357 1040.59C-164.543 1043.98 -167.697 1047.47 -170.789 1050.83C-172.334 1052.51 -173.848 1054.28 -175.362 1056.06L-177.538 1058.69C-178.2 1059.54 -179.052 1060.46 -179.556 1061.16L-179.619 1061.28C-181.101 1063.15 -183.503 1063.85 -185.023 1062.78C-186.544 1061.71 -186.581 1059.4 -185.13 1057.44L-185.036 1057.41C-184.153 1056.27 -183.364 1055.47 -182.639 1054.49L-180.273 1051.8C-178.665 1049.99 -177.119 1048.31 -175.51 1046.51C-172.356 1043.02 -169.075 1039.6 -165.794 1036.18C-162.513 1032.75 -159.295 1029.46 -156.014 1026.03C-152.701 1022.71 -149.388 1019.38 -146.076 1016.05C-132.793 1002.83 -119.446 989.806 -105.878 976.81C-99.0934 970.312 -92.3723 963.94 -85.5563 957.537L-65.2033 938.358L-55.0108 928.817L-44.8503 919.18C-41.5056 915.947 -38.1609 912.714 -34.8163 909.481L-24.2751 900.349C-10.9602 887.227 2.92718 875.495 15.7985 861.994C28.6381 848.399 39.7329 832.436 51.5587 818.02C63.4162 803.7 74.7665 788.811 84.3439 773.041C93.8583 757.398 100.371 742.868 107.689 721Z" fill="black" fill-opacity="0.75"/>
</g>
<g style="mix-blend-mode:luminosity" opacity="0.05" filter="url(#filter0_dd)">
<path d="M1006.26 -80.1288C1006.26 -80.1288 1020.23 -55.4201 1023.88 -35.2968C1027.54 -15.1735 1024.33 -19.0714 1017.33 -9.79076C1010.33 -0.510095 1013.74 -6.81236 1009.62 -13.9234C1005.5 -21.0345 1008.43 -11.5886 1009.17 -2.86542C1009.92 5.85773 1015.55 14.4283 1009.22 22.9722C1002.78 31.5541 990.981 43.6853 990.981 43.6853L977.642 -26.4383L980.261 -57.6858L1006.26 -80.1288Z" fill="black" fill-opacity="0.75"/>
<path d="M984.854 -59.9517C984.854 -59.9517 989.305 -23.7172 993.409 -1.4011C997.513 20.915 1000.36 30.9075 997.03 35.8816C993.703 40.8557 984.932 51.4888 986.129 44.3462C987.325 37.2036 983.041 13.1269 980.796 19.4395C978.67 25.714 980.313 34.406 978.758 51.2784C977.203 68.1508 978.85 67.618 971.428 75.996C964.044 84.4915 966.509 70.8323 967.269 64.3504C967.992 57.7508 965.318 59.5254 962.096 74.8587C958.873 90.192 963.601 85.9338 952.98 98.0752C952.98 98.0752 950.051 62.1277 948.869 27.5636C947.724 -6.88299 958.852 -36.7268 958.852 -36.7268L984.854 -59.9517Z" fill="black" fill-opacity="0.75"/>
<path d="M960.713 -34.9907C960.713 -34.9907 950.357 -3.96749 954.178 32.7306C958.038 69.5462 957.834 74.9386 956.611 85.208C955.505 95.4393 955.505 95.4394 950.849 100.324C946.312 105.17 948.02 97.6018 949.807 89.878C951.595 82.1543 949.805 54.5425 944.093 46.1276C938.42 37.8303 939.42 44.1321 938.445 52.762C937.433 61.2743 943.958 83.8463 934.082 109.128C924.205 134.409 905.283 143.781 905.283 143.781C905.283 143.781 922.228 105.819 911.288 65.1885C900.347 24.5583 928.825 -4.66438 928.825 -4.66438L960.713 -34.9907Z" fill="black" fill-opacity="0.75"/>
<path d="M924.533 3.34998C924.533 3.34998 915.911 14.8444 919.217 47.9419C922.523 81.0393 925.469 115.033 919.898 126.319C914.444 137.568 904.674 146.316 903.484 143.843C902.294 141.37 910.889 101.693 907.212 93.1397C903.534 84.5862 902.193 86.0598 900.564 97.8892C898.819 109.757 902.421 135.743 896.487 148.316C890.553 160.89 876.403 169.756 876.403 169.756L880.117 116.199L862.853 61.2459C862.853 61.2459 874.252 49.5021 883.5 37.9349C892.748 26.3678 924.533 3.34998 924.533 3.34998Z" fill="black" fill-opacity="0.75"/>
<path d="M881.198 42.0581C881.198 42.0581 874.759 58.6923 882.655 94.3316C890.433 130.009 893.236 149.108 884.808 160.8C876.418 172.609 873.371 172.426 875.57 162.361C877.769 152.295 868.338 86.6229 862.05 90.4766C855.644 94.3683 863.103 108.584 866.052 137.769C869.002 166.955 872.274 177.068 852.886 195.035C852.886 195.035 832.119 151.739 829.197 123.843C826.355 95.7923 818.573 100.649 830.404 84.2187C842.274 67.9058 881.198 42.0581 881.198 42.0581Z" fill="black" fill-opacity="0.75"/>
<path d="M836.761 81.382C836.761 81.382 832.453 91.3507 843.441 135.343C854.468 179.453 861.439 186.941 850.281 197.826C839.086 208.595 835.095 213.524 836.934 199.937C838.89 186.313 830.946 147.312 827.387 151.971C823.946 156.592 838.005 193.615 826.098 209.81C814.19 226.005 797.931 234.775 797.931 234.775C797.931 234.775 808.101 207.19 795.093 166.189L789.116 130.059C789.116 130.059 791.672 119.488 814.235 100.494C836.761 81.382 836.761 81.382 836.761 81.382Z" fill="black" fill-opacity="0.75"/>
<path d="M793.619 120.287C793.619 120.287 792.838 133.531 802.117 167.424C811.397 201.316 814.736 217.254 805.342 227.569C795.949 237.884 789.125 240.482 791.601 234.485C794.077 228.487 786.205 190.111 783.418 200.367C780.514 210.661 787.505 229.055 780.972 238.574C774.439 248.093 761.134 254.348 761.134 254.348C761.134 254.348 744.734 190.022 756.786 166.244C768.955 142.429 793.619 120.287 793.619 120.287Z" fill="black" fill-opacity="0.75"/>
<path d="M759.031 164.349C759.031 164.349 749.994 218.719 767.464 250.221C767.464 250.221 756.32 259.543 754.697 252.923C753.075 246.303 747.306 217.64 744.945 228.408C742.583 239.175 746.908 258.562 740.479 265.19C734.05 271.817 724.161 280.603 720.979 273.579C717.796 266.554 712.746 267.409 708.984 277.461C705.221 287.512 700.106 286.959 683.431 294.044C683.431 294.044 700.65 220.397 759.031 164.349Z" fill="black" fill-opacity="0.75"/>
<path d="M678.924 201.834C684.347 198.52 709.907 185.572 699.483 197.519C688.98 209.623 682.439 206.673 681.538 233.597C680.638 260.52 678.21 261.046 681.368 261.973C684.526 262.9 693.414 252.229 688.234 263.519C683.053 274.809 682.463 288.641 683.511 293.888C683.511 293.888 696.461 252.412 716.306 222.605C736.032 192.837 763.801 159.816 771.565 148.08C779.212 136.381 701.859 153.879 693.856 161.666C685.853 169.452 672.989 205.574 678.924 201.834Z" fill="black" fill-opacity="0.75"/>
<path d="M713.401 116.887C713.401 116.887 703.583 135.524 700.453 140.304C697.206 145.123 709.844 139.214 722.061 136.819C734.277 134.425 754.501 132.687 731.386 143.155C708.271 153.624 697.373 152.864 690.874 162.891C684.414 173.037 685.87 171.916 684.926 177.028C683.944 182.023 709.38 169.894 732.197 166.537C755.015 163.18 755.652 166.352 763.333 159.579C771.015 152.806 804.099 110.92 814.198 100.376C824.335 89.9507 713.401 116.887 713.401 116.887Z" fill="black" fill-opacity="0.75"/>
<path d="M808.903 106.897C811.659 104.576 862.224 61.7095 869.452 53.1344C876.68 44.5594 796.655 68.2486 774.581 67.0779C752.624 65.8691 755.1 59.8712 749.767 66.274C742.103 75.5097 728.445 95.1294 732.364 93.9911C736.283 92.8528 810.948 83.1101 794.243 89.2959C777.537 95.4817 730.373 102.69 722.95 106.651C715.528 110.612 712.723 118.405 710.341 122.684C710.341 122.684 738.202 123.671 763.855 117.837C789.509 112.004 800.83 113.666 808.903 106.897Z" fill="black" fill-opacity="0.75"/>
<path d="M892.428 31.7981C892.428 31.7981 863.746 66.4131 844.612 68.7079C825.478 71.0027 743.327 74.0741 742.573 75.3574C740.592 78.467 749.217 62.1648 759.095 58.968C768.973 55.7712 798.989 51.7737 794.741 50.2902C790.493 48.8067 762.09 56.1798 765.573 51.2853C768.938 46.4288 769.062 41.1921 774.032 36.0761C779.002 30.96 892.877 25.1571 892.428 31.7981Z" fill="black" fill-opacity="0.75"/>
<path d="M896.36 29.0966C896.36 29.0966 929.985 1.32617 938.548 -7.94078C947.111 -17.2077 841.053 -11.3363 841.053 -11.3363C841.053 -11.3363 826.046 -7.12916 822.231 -4.46553C818.416 -1.80191 803.838 6.94335 816.051 4.93968C820.004 4.30984 843.531 0.333702 857.46 3.23107C871.389 6.12844 874.208 5.60593 826.231 11.9084C778.136 18.249 771.306 39.2965 771.306 39.2965C771.306 39.2965 839.106 32.4252 856.719 34.2604C874.331 36.0956 886.358 37.53 896.36 29.0966Z" fill="black" fill-opacity="0.75"/>
<path d="M970.232 -41.7085C970.232 -41.7085 917.457 -36.5816 899.888 -56.7487C899.888 -56.7487 892.784 -53.4104 898.36 -47.4202C903.936 -41.4299 882.896 -49.0411 877.552 -45.8827C872.208 -42.7244 857.187 -32.5367 861.432 -30.6624C865.676 -28.788 916.389 -30.6497 917.095 -26.4611C917.801 -22.2725 875.119 -26.9073 853.567 -25.2591C832.015 -23.6109 826.648 -8.88277 822.231 -4.46546C822.231 -4.46546 877.362 -6.32733 905.97 -5.84199C934.578 -5.35664 938.51 -8.05829 938.51 -8.05829L970.232 -41.7085Z" fill="black" fill-opacity="0.75"/>
<path d="M683.431 294.044C691.094 267.141 700.282 248.967 712.179 229.528C724.038 209.97 737.92 191.447 752.539 173.595C767.158 155.742 780.975 135.812 796.798 118.869C812.621 101.926 829.869 87.3802 846.273 71.0289L859.35 59.6517C863.489 55.5837 867.629 51.5157 871.807 47.5654L884.303 35.5967L896.799 23.6281L921.946 -0.229559C930.264 -8.24785 938.62 -16.1486 946.938 -24.1669C963.574 -40.2035 980.054 -56.3196 996.222 -72.5948C1000.24 -76.6247 1004.35 -80.8103 1008.37 -84.8402C1012.35 -88.9877 1016.34 -93.1351 1020.32 -97.2826C1024.31 -101.43 1028.25 -105.695 1032.12 -109.805C1034.05 -111.859 1035.95 -114.032 1037.84 -116.204L1040.57 -119.424C1041.4 -120.472 1042.46 -121.597 1043.1 -122.451L1043.18 -122.607C1045.03 -124.897 1048.01 -125.73 1049.88 -124.385C1051.74 -123.04 1051.75 -120.186 1049.93 -117.779L1049.82 -117.741C1048.71 -116.343 1047.72 -115.375 1046.82 -114.171L1043.85 -110.874C1041.84 -108.664 1039.91 -106.609 1037.9 -104.399C1033.95 -100.134 1029.85 -95.9483 1025.75 -91.7627C1021.64 -87.5772 1017.62 -83.5473 1013.52 -79.3618C1009.38 -75.2938 1005.24 -71.2258 1001.1 -67.1579C984.502 -51.0037 967.828 -35.0847 950.881 -19.2072C942.408 -11.2684 934.014 -3.48545 925.502 4.3357L900.085 27.7612L887.358 39.415L874.668 51.1865C870.49 55.1369 866.312 59.0872 862.134 63.0376L848.981 74.1796C832.345 90.2162 815.021 104.527 798.929 121.037C782.874 137.665 768.943 157.244 754.131 174.899C739.28 192.436 725.048 210.683 712.996 230.043C701.023 249.247 692.775 267.117 683.431 294.044Z" fill="black" fill-opacity="0.75"/>
</g>
<defs>
<filter id="filter0_dd" x="545.137" y="-159" width="643.185" height="520.045" filterUnits="userSpaceOnUse" color-interpolation-filters="sRGB">
<feFlood flood-opacity="0" result="BackgroundImageFix"/>
<feColorMatrix in="SourceAlpha" type="matrix" values="0 0 0 0 0 0 0 0 0 0 0 0 0 0 0 0 0 0 127 0"/>
<feOffset dy="17"/>
<feGaussianBlur stdDeviation="25"/>
<feColorMatrix type="matrix" values="0 0 0 0 0 0 0 0 0 0 0 0 0 0 0 0 0 0 0.19 0"/>
<feBlend mode="normal" in2="BackgroundImageFix" result="effect1_dropShadow"/>
<feColorMatrix in="SourceAlpha" type="matrix" values="0 0 0 0 0 0 0 0 0 0 0 0 0 0 0 0 0 0 127 0"/>
<feOffset dy="12"/>
<feGaussianBlur stdDeviation="7.5"/>
<feColorMatrix type="matrix" values="0 0 0 0 0 0 0 0 0 0 0 0 0 0 0 0 0 0 0.24 0"/>
<feBlend mode="normal" in2="effect1_dropShadow" result="effect2_dropShadow"/>
<feBlend mode="normal" in="SourceGraphic" in2="effect2_dropShadow" result="shape"/>
</filter>
</defs>
</svg>
