<svg width="1241" height="568" fill="none" xmlns="http://www.w3.org/2000/svg">
  <g style="mix-blend-mode:color-burn" opacity=".05" fill="#000" fill-opacity=".75">
    <path d="M1134.73 84.622s-15.18-1.706-25.42-1.385c-10.25.32-20.42-50.504-20.42-50.504l6.97-14.138 38.87 66.027z"/>
    <path d="M1099.73 37.579s-6.22 2.496-.86 17.668a994.54 994.54 0 0010.46 28.227s-16.64 4.597-20.69-9.042c-4.05-13.638-6.41-34.49-14.3-33.78-7.75.752-13.9 10.516-3.82 26.031 10.08 15.515 9.99 18.372 9.99 18.372l-9.24-1.47s-26.11-7.21-28.05-36.722c-1.94-29.513 11.68-67.193 11.68-67.193l19.94 8.667 24.89 49.242z"/>
    <path d="M1062.96-13.9s-8.78 17.388-10.6 45.594c-1.83 28.206 7.18 45.995 18.82 52.007 0 0-36.15.293-41.33-29.036-5.13-29.244 12.51-52.252 12.24-62.114-.26-9.861-6.11-25.892-15.41-17.105-9.25 8.872-15.84 22.931-11.85 55.83 3.99 32.9 9.21 36.004 1.49 31.563-7.72-4.441-20.417-12.121-24.216-16.68-3.8-4.559-9.367-23.667 2.214-48.206 11.582-24.539 24.972-54.002 24.422-71.69-.55-17.69 22.9 2.337 22.9 2.337l21.32 57.5z"/>
    <path d="M1030.9-72.455l-19.62-34.186-35.391 32.369-26.023 29.507-1.337 55.976s14.457 22.938 19.171 11.026c4.762-11.825 6.132-29.563 6.005-45.584-.21-15.976 29.765-44.042 32.105-22.477 2.34 21.565-7.262 28.72-15.002 44.196-7.609 15.517-12.675 33.585 1.629 48.168 0 0-6.447-18.76.126-33.824 6.574-15.065 39.187-62.235 38.337-85.17z"/>
    <path d="M1013.6-106.274s-8.38-22.881-9.72-29.352c-1.34-6.471-52.198-5.378-66.553 5.721-14.355 11.098-25.626 24.564-24.991 41.659.635 17.095 16.048 65.395 16.665 57.631.536-7.719 8.821-37.672 20.428-57.51 11.607-19.839 43.583-26.377 38.16-11.94-5.423 14.438-18.047 20.09-31.846 32.911-13.799 12.82-26.871 47.412-7.149 78.394 0 0 .005-41.75 11.609-59.336 11.522-17.541 48.557-33.703 53.397-58.178zM1134.92 84.568s-46.02-53.428-50.66-64.156c-4.64-10.728 30.87 1.236 31.34 1.314.48.077 30.04 20.46 30.46 21.014.43.555 12.86 18.49 5.24 26.81 0 0-.3 3.987-4.43-5.67-4.13-9.656-25.19-25.916-22.13-15.677 3.07 10.239 5.27 6.001 11.51 14.06 6.23 8.06 3.69 24.288-1.33 22.305z"/>
    <path d="M1084.33 20.388s-28.46-41.776-34.49-55.68c-6.03-13.904 24.47 12.821 32.28 11.593 7.8-1.229 59.15 13.553 59.15 13.553s22.88 24.143 23.18 24.657c.24.428 3.01 10.716 1.17 15.769-1.84 5.053-2.42 8.742-3.95 9.463-1.61.765-6.62-24.71-25.82-25.69-19.14-.893.64 13.703 10.27 19.233 9.64 5.53 13.38 20.904 11.15 26.398-2.24 5.493-5.8 9.8-5.8 9.8s6.09-17.377-11.61-27.946c-17.72-10.44-38.83-26.223-55.53-21.15z"/>
    <path d="M1027.57-80.255s18.57 38.212 24.67 49.047c6.11 10.835 28.69 9.975 51.35 14.914 22.67 4.939 46.85 11.19 53.87 25.687 7.02 14.496 8.39 20.833 8.39 20.833s9.13-20.168-5.36-39.804c-14.5-19.635-37.79-26.596-57.6-22.976-19.81 3.62-35.96-10.27-27.02-21.563 8.94-11.291 42.17-6.163 66.44 19.044 24.21 25.122 28.78 34.774 28.78 34.774l-.01-15.624-7.5-35.825s-54.01-30.444-58.59-29.406c-4.61 1.17-77.42.9-77.42.9z"/>
    <path d="M1029.44-76.155s-19.92-27.585-22.32-46.628c-2.4-19.043 83.54-6.253 83.54-6.253s38.08-8.425 57.9 18.99c19.82 27.414 17.76 38.663 17.76 38.663s-6.17-13.388-32.86-26.259c-26.68-12.87-99.35-5.914-77.99 6.711 21.37 12.625 47.32-.98 63.59 2.954 16.32 4.02 42.14 16.691 48.29 29.3 6.1 12.524 3.93 42.95 3.93 42.95s-7.26-32.585-32-46.964c-24.75-14.38-62.24-7.178-85.81-5.78-23.56 1.397-24.03-7.684-24.03-7.684z"/>
    <path d="M1135.22 84.597c-3.15-2.88-6.1-5.98-9.06-9.079l-2.21-2.379-2.14-2.423c-1.44-1.572-2.87-3.144-4.28-4.847-2.79-3.189-5.46-6.553-8.22-9.872-1.35-1.617-2.67-3.364-3.95-5.026-1.27-1.661-2.67-3.364-3.86-5.07-10.29-13.68-19.82-27.892-28.73-42.548-2.19-3.632-4.42-7.35-6.52-11.027l-6.27-11.161c-1.08-1.881-2.03-3.722-3.02-5.648l-2.93-5.692c-1.94-3.767-3.93-7.619-5.87-11.385-7.77-15.282-15.95-30.34-24.16-45.267-4.17-7.484-8.26-15.013-11.84-22.595-3.63-7.667-6.6-15.476-8.35-23.61l-.56-3.057c-.16-1.034-.41-2.023-.57-3.057l-.84-6.163c-.35-4.185-.87-8.28-1-12.468-.12-2.072-.23-4.144-.25-6.261l-.12-6.219-.21-12.569c-.393-16.844-1.424-33.675-2.963-50.454-1.587-16.865-3.632-33.591-6.495-50.432l-5.56.794c3.092 16.491 5.35 33.213 7.134 49.858 1.783 16.645 3.06 33.342 3.617 50.096l.418 12.565.168 6.306c.029 2.116.271 4.229.381 6.301.188 4.274.753 8.454 1.154 12.724l.936 6.334c.162 1.034.454 2.109.615 3.143l.695 3.098c1.9 8.39 5.19 16.582 9.03 24.245 3.81 7.794 8.07 15.233 12.32 22.673 8.51 14.879 16.8 29.762 24.82 44.91 1.94 3.766 4.01 7.573 6.03 11.295l2.76 5.782c1 1.926 2.02 3.721 3.1 5.603l6.41 11.202c2.18 3.632 4.49 7.305 6.68 10.937 9.08 14.567 18.85 28.645 29.38 42.19 1.32 1.747 2.68 3.364 3.95 5.026 1.35 1.617 2.67 3.364 4.03 4.98 2.76 3.32 5.46 6.554 8.38 9.784a88.707 88.707 0 004.36 4.802l2.22 2.378 2.17 2.294c2.95 3.1 5.99 6.154 9.22 8.99z"/>
  </g>
  <g opacity=".02" filter="url(#filter0_dd)" fill="#000" fill-opacity=".75">
    <path d="M142.959-.305s83.202-33.135 163.817-11.343c0 0-44.07-10.147-87.377 1.752-43.291 12.016-67.157 12.214-76.44 9.59zM159.318 11.327s110.215-24.225 178.761 22.602c0 0-40.491-23.209-102.431-18.431-61.835 4.645-76.33-4.171-76.33-4.171zM182.368 30.144s91.073-15.216 160.538 18.918c0 0-58.043-13.198-104.908-12.026-29.892.82-55.63-6.892-55.63-6.892zM380.182 84.612s-78.591-48.947-183.046-39.175c0 0 36.937 13.908 85.877 15.71 48.924 1.683 97.169 23.465 97.169 23.465z"/>
    <path d="M390.534 103.752s-64.471-44.883-172.44-39.6c0 0 33.907 14.15 65.983 15.216 32.091 1.184 64.126 3.813 106.457 24.384z"/>
    <path d="M401.011 126.831s-87.81-55.98-161.073-41.79c0 0 28.41 11.451 72.598 15.375 44.187 3.925 88.475 26.415 88.475 26.415zM414.664 146.896s-79.648-43.173-154.933-42.642c0 0 23.158 13.399 66.807 19.784s74.116 16.749 88.126 22.858zM447.685 182.738s-78.991-57.028-164.421-52.875c0 0 18.37 10.498 48.238 14.459 30.004 4.066 75.754 17.266 116.183 38.416z"/>
    <path d="M480.9 219.151s-94.9-71.409-183.618-70.208c0 0 28.309 14.574 51.136 18.061 22.827 3.488 77.549 18.121 132.482 52.147z"/>
    <path d="M482.194 256.03s-61.448-74.95-171.189-90.38c0 0 2.306 6.435 49.842 22.525 47.536 16.091 75.574 28.776 121.347 67.855zM466.15 259.039s-94.186-72.205-142.976-76.397c0 0 16.74 15.964 54.994 31.135 38.239 15.053 48.659 20.031 87.982 45.262z"/>
    <path d="M499.117 308.192s-105.572-95.526-160.535-107.12c0 0 38.157 27.767 71.442 44.374 33.389 16.474 89.093 62.746 89.093 62.746zM497.814 325.254s-90.38-87.767-151.633-107.473c0 0 15.062 13.529 47.781 34.279 32.718 20.751 69.502 44.608 103.852 73.194zM492.768 353.559S447.2 289.157 360.549 240.626c0 0 20.126 19.752 45.101 40.238 24.976 20.486 54.472 32.632 87.118 72.695zM142.581-.38s83.202-33.135 163.817-11.343c0 0-32.077-10.253-93.823-.728-35.564 5.441-51.459 8.539-69.994 12.07zM158.82 11.267s110.592-24.151 179.259 22.662c0 0-40.839-24.007-102.911-23.05-49.108.843-76.348.388-76.348.388zM181.991 30.07s91.571-15.157 160.915 18.992c0 0-42.945-15.725-105.193-17.028-23.699-.521-55.722-1.965-55.722-1.965zM380.182 84.612s-78.968-49.022-183.423-39.25c0 0 42.198 4.527 82.756 9.611 48.515 6.048 100.667 29.639 100.667 29.639zM390.534 103.752s-64.471-44.883-172.44-39.6c0 0 33.813 7.809 65.889 8.875 32.076 1.066 64.22 10.154 106.551 30.725zM400.634 126.756s-87.809-55.98-161.073-41.79c0 0 19.707 1.949 61.367 7.135 55.719 6.975 99.706 34.655 99.706 34.655zM414.167 146.836s-79.648-43.173-154.933-42.643c0 0 28.619 6.512 67.422 14.198 43.34 8.699 73.622 22.322 87.511 28.445zM447.308 182.663s-78.99-57.028-164.421-52.875c0 0 20.026 5.385 49.999 9.214 41.51 5.08 73.993 22.511 114.422 43.661z"/>
    <path d="M480.402 219.09s-94.9-71.408-183.618-70.208c0 0 30.307 8.341 53.134 11.829 22.947 3.473 75.552 24.354 130.484 58.379z"/>
    <path d="M482.194 256.03s-61.825-75.025-171.566-90.455c0 0 4.622 1.721 52.279 17.797 47.656 16.076 82.335 36.593 119.287 72.658z"/>
    <path d="M466.15 259.039s-94.186-72.205-142.976-76.397c0 0 12.637 6.989 47.898 21.681 39.265 16.368 55.755 29.485 95.078 54.716zM500.366 309.362s-105.572-95.526-160.535-107.121c0 0 27.071 13.879 64.761 36.189 31.984 18.801 95.774 70.932 95.774 70.932zM497.814 325.254s-90.38-87.767-151.633-107.473c0 0 17.018 9.816 49.721 30.449 32.703 20.632 67.562 48.438 101.912 77.024zM492.768 353.559s-45.282-64.077-131.933-112.608c0 0 24.511 15.986 49.367 36.486 24.855 20.5 49.92 36.059 82.566 76.122zM492.681 383.104s-60.65-75.417-111.259-104.624c0 0 22.789 25.939 41.713 42.171s47.99 37.56 69.546 62.453z"/>
    <path d="M492.681 383.104s-60.65-75.417-111.259-104.624c0 0 25.194 18.691 44.741 37.722 17.742 17.337 44.962 42.009 66.518 66.902zM479.308 411.512s-34.076-69.99-84.285-105.607c0 0 5.184 7.99 21.42 27.198 16.237 19.208 41.754 39.183 62.865 78.409z"/>
    <path d="M479.308 411.512s-34.076-69.99-84.285-105.607c0 0 11.194 8.683 27.431 27.891 16.236 19.208 35.743 38.49 56.854 77.716zM412.941 429.693s-31.747-90.88-29.749-148.577c0 0 9.912 32.854 13.605 57.231 3.694 24.378 6.545 60.013 16.144 91.346z"/>
    <path d="M412.941 429.693s-31.747-90.88-29.749-148.577c0 0 2.502 31 8.247 57.406 5.327 24.058 11.903 59.838 21.502 91.171zM435.357 450.253s-39.893-71.15-35.376-131.692c0 0 3.555 9.04 9.355 33.64 5.799 24.6 5.27 56.697 26.021 98.052z"/>
    <path d="M435.357 450.253s-39.893-71.15-35.376-131.692c0 0-.354 13.96 5.46 38.678 5.815 24.718 9.165 51.659 29.916 93.014zM400.372 318.241s41.564 53.628 61.484 123.376c0 0-49.609-79.022-61.484-123.376z"/>
    <path d="M400.372 318.241s41.564 53.628 61.484 123.376c0 0-34.309-76.841-61.484-123.376zM125.817-12.444S107.2 25.73 118.976 93.382c0 0 1.735-38.247 5.99-58.929 5.177-24.635 1.659-44.357.851-46.897z"/>
    <path d="M125.815-12.444s-18.559 34.926-7.021 105.368c0 0-2.033-40.542 2.305-65.193 2.954-15.962 3.88-33.713 4.716-40.175zM141.939 2.656s-22.725 84.844 8.487 160.548c0 0-15.258-41.673-8.742-85.06 6.605-43.638 3.993-66.83.255-75.488z"/>
    <path d="M141.875 2.183s-22.732 84.841 8.461 160.549c0 0-13.856-29.85-12.013-91.136 1.134-35.048 2.23-50.777 3.552-69.413z"/>
    <path d="M156.326 14.975s-22.302 108.288 25.601 174.636c0 0-23.88-39.18-20.151-99.973 3.641-60.542-5.45-74.663-5.45-74.663z"/>
    <path d="M156.282 14.62s-22.243 108.761 25.66 175.109c0 0-24.646-39.566-24.744-100.37-.032-48.098-.916-74.739-.916-74.739zM180.693 30.643s-18.352 88.613 13.282 157.672c0 0-11.113-57.177-8.241-103.111 1.787-29.127-5.041-54.561-5.041-54.561z"/>
    <path d="M180.526 30.303s-18.318 88.965 13.314 158.146c0 0-14.153-42.651-13.285-103.452.379-23.316-.029-54.694-.029-54.694zM235.081 227.728s-48.592-77.05-38.742-179.387c0 0 13.839 36.21 15.445 84.237 1.708 47.895 23.297 95.15 23.297 95.15z"/>
    <path d="M235.081 227.728s-48.77-77.508-38.802-179.86c0 0 4.335 41.336 9.312 81.152 6.093 47.597 29.49 98.708 29.49 98.708zM254.701 234.734s-44.239-63.547-38.058-169.274c0 0 13.832 33.331 14.633 64.783.919 31.438 3.265 62.82 23.425 104.491z"/>
    <path d="M254.701 234.734s-44.239-63.547-38.058-169.274c0 0 7.474 33.152 8.408 64.708.786 31.333 9.49 62.895 29.65 104.566z"/>
    <path d="M270.968 248.254s-50.306-89.433-31.745-160.092c0 0 9.621 28.45 10.774 71.975 1.153 43.525 20.971 88.117 20.971 88.117z"/>
    <path d="M270.909 247.782s-50.306-89.434-31.745-160.092c0 0 .686 19.35 3.434 60.4 3.577 54.984 28.311 99.692 28.311 99.692z"/>
    <path d="M277.828 265.564s-29.008-84.378-15.734-156.886c0 0 9.229 24.662 8.137 67.855-1.063 43.43 3.838 74.497 7.597 89.031z"/>
    <path d="M277.719 265.212s-28.971-84.386-15.67-156.887c0 0 1.498 28.842 2.559 67.452 1.172 43.274 9.359 74.9 13.111 89.435z"/>
    <path d="M293.367 299.918s-36.244-89.125-11.544-169.045c0 0 5.654 19.94 2.359 49.373-3.294 29.434-1.516 76.119 9.185 119.672z"/>
    <path d="M293.413 299.432s-36.233-89.127-11.53-169.045c0 0 .443 20.338-3.221 49.696-5.072 40.807 3.936 75.81 14.751 119.349z"/>
    <path d="M316.798 338.701s-44.511-108.512-20.435-191.936c0 0 6.742 30.482 4.234 53.098-2.64 22.513-2.537 77.915 16.201 138.838z"/>
    <path d="M316.72 338.229s-44.499-108.515-20.416-191.937c0 0 .321 30.787-2.189 53.403-2.642 22.512 3.888 77.728 22.605 138.534z"/>
    <path d="M342.55 354.548s-50.906-81.454-30.309-188.096c0 0 5.325 4.267 5.156 53.588-.169 49.322 3.066 79.394 25.153 134.508z"/>
    <path d="M342.55 354.548s-50.846-81.942-30.248-188.583c0 0 .146 4.901-.024 54.222-.17 49.322 8.168 88.485 30.272 134.361z"/>
    <path d="M348.003 345.993s-35.554-111.768-22.739-157.944c0 0 9.229 20.944 10.394 61.341 1.165 40.396 2.114 51.674 12.345 96.603z"/>
    <path d="M347.975 345.995s-35.535-111.772-22.711-157.946c0 0 2.263 14.117 4.005 51.563 1.91 41.624 8.483 61.453 18.706 106.383zM376.921 387.481s-49.698-131.861-40.132-186.173c0 0 11.615 45.12 14.711 81.567 3.097 36.447 25.421 104.606 25.421 104.606z"/>
    <path d="M376.921 387.481s-49.698-131.861-40.132-186.173c0 0 2.974 29.864 9.607 72.476 5.686 36.129 30.525 113.697 30.525 113.697zM403.48 425.545s-44.861-116.5-38.892-179.368c0 0 6.487 18.998 12.601 56.635 6.115 37.637 13.584 80.266 26.291 122.733z"/>
    <path d="M403.48 425.545s-44.861-116.5-38.892-179.368c0 0 2.322 19.148 8.334 56.918 6.012 37.769 17.851 79.983 30.558 122.45z"/>
    <path d="M386.754 388.706s-35.038-71.402-36.991-169.284c0 0 7.88 28.064 14.119 59.208 6.372 31.247 3.105 62.835 22.872 110.076z"/>
    <path d="M386.754 388.706s-35.038-71.402-36.991-169.284c0 0 2.676 30.38 8.93 61.642 6.373 31.247 8.294 60.401 28.061 107.642z"/>
    <path d="M89.75-44.505s239.968 158.07 310.892 361.996c.952 2.643.042 4.073.874 6.73 0 0-65.514-198.824-323.946-363.177l12.18-5.55z"/>
  </g>
  <g opacity=".02" fill="#000" fill-opacity=".75">
    <path d="M434.434-12.975s-69.496-44.304-127.479-33.074c0 0 22.484 9.063 57.456 12.169s70.023 20.905 70.023 20.905zM445.239 2.905S382.204-31.263 322.62-30.843c0 0 18.328 10.605 52.873 15.658 34.545 5.053 58.659 13.256 69.746 18.09zM471.373 31.272s-62.516-45.134-130.129-41.847c0 0 14.539 8.308 38.178 11.444 23.746 3.217 59.954 13.664 91.951 30.403z"/>
    <path d="M497.661 60.09S422.553 3.576 352.339 4.526c0 0 22.405 11.535 40.471 14.295 18.066 2.76 61.375 14.342 104.851 41.27z"/>
    <path d="M498.686 89.278S450.053 29.96 363.2 17.748c0 0 1.825 5.093 39.447 17.827 37.622 12.735 59.812 22.775 96.039 53.703z"/>
    <path d="M485.988 91.66s-74.543-57.146-113.157-60.464c0 0 13.249 12.635 43.524 24.642 30.264 11.913 38.511 15.853 69.633 35.822z"/>
    <path d="M512.079 130.561s-83.554-75.603-127.054-84.779c0 0 30.2 21.977 56.542 35.12 26.426 13.038 70.512 49.659 70.512 49.659zM511.048 144.065s-71.531-69.462-120.009-85.059c0 0 11.921 10.707 37.816 27.13 25.895 16.423 55.007 35.304 82.193 57.929zM507.054 166.466s-36.064-50.97-104.643-89.38c0 0 15.928 15.633 35.695 31.847 19.767 16.213 43.111 25.825 68.948 57.533zM434.135-13.034S364.64-57.338 306.656-46.11c0 0 15.597 1.543 48.569 5.648 44.098 5.52 78.91 27.427 78.91 27.427zM444.846 2.858s-63.036-34.169-122.62-33.75c0 0 22.651 5.154 53.361 11.237 34.301 6.885 58.267 17.667 69.259 22.513zM471.075 31.213s-62.516-45.134-130.128-41.847c0 0 15.849 4.261 39.57 7.292 32.853 4.02 58.561 17.816 90.558 34.555z"/>
    <path d="M497.267 60.043S422.159 3.527 351.945 4.478c0 0 23.986 6.6 42.052 9.36 18.161 2.75 59.794 19.276 103.27 46.205z"/>
    <path d="M498.686 89.278s-48.931-59.377-135.784-71.59c0 0 3.658 1.363 41.375 14.086s65.163 28.96 94.409 57.504z"/>
    <path d="M485.988 91.66s-74.543-57.146-113.157-60.464c0 0 10.002 5.531 37.908 17.16 31.076 12.953 44.127 23.335 75.249 43.304zM513.067 131.487s-83.553-75.603-127.053-84.78c0 0 21.425 10.985 51.254 28.642 25.314 14.88 75.799 56.138 75.799 56.138zM511.048 144.065s-71.531-69.462-120.009-85.059c0 0 13.469 7.77 39.352 24.099 25.882 16.329 53.471 38.335 80.657 60.96zM507.054 166.466s-35.837-50.713-104.417-89.122c0 0 19.399 12.652 39.071 28.876 19.671 16.225 39.509 28.539 65.346 60.246zM506.985 189.85s-48.001-59.688-88.054-82.804c0 0 18.035 20.53 33.013 33.376 14.977 12.847 37.981 29.727 55.041 49.428z"/>
    <path d="M506.985 189.85s-48.001-59.688-88.054-82.804c0 0 19.939 14.794 35.41 29.855 14.041 13.721 35.584 33.248 52.644 52.949zM496.4 212.333s-26.969-55.393-66.705-83.581c0 0 4.102 6.323 16.952 21.525 12.85 15.202 33.046 31.011 49.753 62.056z"/>
    <path d="M496.4 212.333s-26.969-55.393-66.705-83.581c0 0 8.859 6.872 21.709 22.074 12.85 15.202 28.289 30.462 44.996 61.507zM443.876 226.722s-25.126-71.926-23.544-117.59c0 0 7.844 26.002 10.767 45.295 2.924 19.293 5.18 47.496 12.777 72.295z"/>
    <path d="M443.876 226.722s-25.126-71.926-23.544-117.59c0 0 1.98 24.534 6.527 45.433 4.216 19.041 9.42 47.358 17.017 72.157zM461.617 242.993s-31.573-56.31-27.999-104.225c0 0 2.814 7.154 7.404 26.623 4.59 19.47 4.172 44.873 20.595 77.602z"/>
    <path d="M461.617 242.993s-31.573-56.31-27.999-104.225c0 0-.28 11.048 4.322 30.611 4.602 19.563 7.254 40.885 23.677 73.614zM433.928 138.515s32.896 42.443 48.661 97.644c0 0-39.262-62.541-48.661-97.644z"/>
    <path d="M433.928 138.515s32.896 42.443 48.661 97.644c0 0-27.153-60.815-48.661-97.644zM229.395-111.252s-17.985 67.15 6.717 127.064c0 0-12.076-32.982-6.918-67.32 5.226-34.536 3.16-52.891.201-59.744z"/>
    <path d="M229.344-111.626s-17.99 67.147 6.697 127.065c0 0-10.966-23.625-9.508-72.129.898-27.738 1.765-40.187 2.811-54.936z"/>
    <path d="M240.781-101.502S223.13-15.798 261.043 36.712c0 0-18.9-31.009-15.949-79.123 2.882-47.915-4.313-59.091-4.313-59.091z"/>
    <path d="M240.746-101.783s-17.603 86.078 20.309 138.588c0 0-19.506-31.314-19.584-79.437-.025-38.066-.725-59.151-.725-59.151zM260.067-89.101S245.542-18.97 270.578 35.686c0 0-8.795-45.252-6.522-81.606 1.414-23.052-3.989-43.181-3.989-43.181z"/>
    <path d="M259.934-89.37s-14.497 70.41 10.538 125.162c0 0-11.201-33.755-10.515-81.876.3-18.453-.023-43.286-.023-43.286zM303.11 66.879s-38.457-60.98-30.661-141.973c0 0 10.953 28.657 12.224 66.668 1.352 37.906 18.437 75.305 18.437 75.305z"/>
    <path d="M303.11 66.879S264.512 5.537 272.401-75.468c0 0 3.431 32.714 7.37 64.226 4.822 37.67 23.339 78.12 23.339 78.12zM318.639 72.424s-35.013-50.294-30.121-133.97c0 0 10.948 26.38 11.582 51.272.727 24.88 2.584 49.718 18.539 82.698z"/>
    <path d="M318.639 72.424s-35.013-50.294-30.121-133.97c0 0 5.915 26.238 6.655 51.212.622 24.799 7.511 49.778 23.466 82.758z"/>
    <path d="M331.513 83.124s-39.814-70.78-25.124-126.702c0 0 7.615 22.516 8.527 56.963.913 34.447 16.597 69.74 16.597 69.74z"/>
    <path d="M331.466 82.75s-39.814-70.78-25.124-126.702c0 0 .543 15.314 2.718 47.802 2.831 43.517 22.406 78.9 22.406 78.9z"/>
    <path d="M336.942 96.823S313.985 30.043 324.49-27.34c0 0 7.304 19.517 6.44 53.702-.841 34.372 3.038 58.96 6.012 70.462z"/>
    <path d="M336.857 96.545s-22.929-66.786-12.402-124.166c0 0 1.185 22.827 2.025 53.384.928 34.249 7.407 59.278 10.377 70.782z"/>
    <path d="M349.241 124.013s-28.685-70.537-9.137-133.789c0 0 4.475 15.781 1.868 39.076-2.607 23.295-1.201 60.243 7.269 94.713z"/>
    <path d="M349.277 123.628s-28.676-70.539-9.125-133.789c0 0 .351 16.097-2.549 39.332-4.014 32.296 3.115 59.999 11.674 94.457z"/>
    <path d="M367.785 154.707s-35.228-85.88-16.173-151.906c0 0 5.336 24.125 3.351 42.024-2.09 17.818-2.008 61.665 12.822 109.882z"/>
    <path d="M367.723 154.334S332.505 68.451 351.565 2.428c0 0 .254 24.365-1.732 42.264-2.091 17.817 3.077 61.518 17.89 109.642z"/>
    <path d="M388.166 167.249s-40.289-64.466-23.988-148.866c0 0 4.214 3.377 4.081 42.412-.134 39.034 2.426 62.835 19.907 106.454z"/>
    <path d="M388.166 167.249s-40.242-64.852-23.94-149.251c0 0 .116 3.878-.019 42.913-.134 39.035 6.465 70.03 23.959 106.338z"/>
    <path d="M392.482 160.479s-28.139-88.458-17.997-125.004c0 0 7.304 16.577 8.226 48.548.923 31.971 1.674 40.897 9.771 76.456z"/>
    <path d="M392.459 160.48s-28.123-88.46-17.974-125.004c0 0 1.791 11.172 3.169 40.809 1.513 32.942 6.715 48.635 14.805 84.195zM415.369 193.313s-39.333-104.36-31.763-147.344c0 0 9.193 35.71 11.643 64.555 2.451 28.846 20.12 82.789 20.12 82.789z"/>
    <path d="M415.369 193.313s-39.333-104.36-31.763-147.344c0 0 2.354 23.636 7.603 57.36 4.501 28.595 24.16 89.984 24.16 89.984zM436.388 223.438s-35.505-92.202-30.781-141.958c0 0 5.134 15.036 9.973 44.823 4.84 29.787 10.751 63.525 20.808 97.135z"/>
    <path d="M436.388 223.438s-35.505-92.202-30.781-141.958c0 0 1.838 15.155 6.596 45.047 4.758 29.892 14.128 63.301 24.185 96.911z"/>
    <path d="M423.15 194.283s-27.73-56.51-29.275-133.978c0 0 6.236 22.21 11.174 46.859 5.043 24.731 2.457 49.73 18.101 87.119z"/>
    <path d="M423.15 194.283s-27.73-56.51-29.275-133.978c0 0 2.117 24.044 7.067 48.786 5.044 24.73 6.564 47.803 22.208 85.192z"/>
    <path d="M188.09-148.577S378.01-23.474 434.142 137.921c.753 2.092.033 3.223.692 5.326 0 0-51.85-157.357-256.383-287.431l9.639-4.393z"/>
  </g>
  <defs>
    <filter id="filter0_dd" x=".57" y="-81.505" width="576.795" height="648.758" filterUnits="userSpaceOnUse" color-interpolation-filters="sRGB">
      <feFlood flood-opacity="0" result="BackgroundImageFix"/>
      <feColorMatrix in="SourceAlpha" values="0 0 0 0 0 0 0 0 0 0 0 0 0 0 0 0 0 0 127 0"/>
      <feOffset dy="40"/>
      <feGaussianBlur stdDeviation="38.5"/>
      <feColorMatrix values="0 0 0 0 0 0 0 0 0 0 0 0 0 0 0 0 0 0 0.19 0"/>
      <feBlend in2="BackgroundImageFix" result="effect1_dropShadow"/>
      <feColorMatrix in="SourceAlpha" values="0 0 0 0 0 0 0 0 0 0 0 0 0 0 0 0 0 0 127 0"/>
      <feOffset dy="27"/>
      <feGaussianBlur stdDeviation="12"/>
      <feColorMatrix values="0 0 0 0 0 0 0 0 0 0 0 0 0 0 0 0 0 0 0.24 0"/>
      <feBlend in2="effect1_dropShadow" result="effect2_dropShadow"/>
      <feBlend in="SourceGraphic" in2="effect2_dropShadow" result="shape"/>
    </filter>
  </defs>
</svg>
