<svg width="1241" height="568" viewBox="0 0 1241 568" fill="none" xmlns="http://www.w3.org/2000/svg">
<g style="mix-blend-mode:color-burn" opacity="0.05">
<path d="M1134.73 84.6221C1134.73 84.6221 1119.55 82.9161 1109.31 83.2369C1099.06 83.5576 1088.89 32.7326 1088.89 32.7326L1095.86 18.5954L1134.73 84.6221Z" fill="black" fill-opacity="0.75"/>
<path d="M1099.73 37.579C1099.73 37.579 1093.51 40.0755 1098.87 55.2469C1104.22 70.4182 1109.33 83.4743 1109.33 83.4743C1109.33 83.4743 1092.69 88.0708 1088.64 74.4322C1084.59 60.7937 1082.23 39.9417 1074.34 40.6526C1066.59 41.4043 1060.44 51.1678 1070.52 66.683C1080.6 82.1981 1080.51 85.0552 1080.51 85.0552L1071.27 83.5852C1071.27 83.5852 1045.16 76.3756 1043.22 46.8628C1041.28 17.3501 1054.9 -20.3298 1054.9 -20.3298L1074.84 -11.663L1099.73 37.579Z" fill="black" fill-opacity="0.75"/>
<path d="M1062.96 -13.9009C1062.96 -13.9009 1054.18 3.48801 1052.36 31.6941C1050.53 59.9002 1059.54 77.689 1071.18 83.701C1071.18 83.701 1035.03 83.9935 1029.85 54.6646C1024.72 25.4212 1042.36 2.41283 1042.09 -7.44872C1041.83 -17.3103 1035.98 -33.3413 1026.68 -24.5543C1017.43 -15.6817 1010.84 -1.62291 1014.83 31.2769C1018.82 64.1767 1024.04 67.2804 1016.32 62.839C1008.6 58.3975 995.903 50.7179 992.104 46.1592C988.304 41.6005 982.737 22.4917 994.318 -2.047C1005.9 -26.5857 1019.29 -56.0485 1018.74 -73.7374C1018.19 -91.4263 1041.64 -71.3997 1041.64 -71.3997L1062.96 -13.9009Z" fill="black" fill-opacity="0.75"/>
<path d="M1030.9 -72.4549L1011.28 -106.641L975.889 -74.272L949.866 -44.7649L948.529 11.2108C948.529 11.2108 962.986 34.1489 967.7 22.2373C972.462 10.4115 973.832 -7.32633 973.705 -23.3469C973.495 -39.3226 1003.47 -67.3888 1005.81 -45.8237C1008.15 -24.2586 998.548 -17.1047 990.808 -1.62817C983.199 13.8892 978.133 31.9568 992.437 46.5398C992.437 46.5398 985.99 27.7807 992.563 12.716C999.137 -2.34877 1031.75 -49.5193 1030.9 -72.4549Z" fill="black" fill-opacity="0.75"/>
<path d="M1013.6 -106.274C1013.6 -106.274 1005.22 -129.155 1003.88 -135.626C1002.54 -142.097 951.682 -141.004 937.327 -129.905C922.972 -118.807 911.701 -105.341 912.336 -88.2462C912.971 -71.1514 928.384 -22.8511 929.001 -30.615C929.537 -38.334 937.822 -68.287 949.429 -88.1254C961.036 -107.964 993.012 -114.502 987.589 -100.065C982.166 -85.6268 969.542 -79.9743 955.743 -67.1537C941.944 -54.3331 928.872 -19.7421 948.594 11.2399C948.594 11.2399 948.599 -30.5095 960.203 -48.0958C971.725 -65.6372 1008.76 -81.7992 1013.6 -106.274Z" fill="black" fill-opacity="0.75"/>
<path d="M1134.92 84.5683C1134.92 84.5683 1088.9 31.1401 1084.26 20.4118C1079.62 9.68356 1115.13 21.6481 1115.6 21.7256C1116.08 21.8032 1145.64 42.1859 1146.06 42.7403C1146.49 43.2947 1158.92 61.2309 1151.3 69.5509C1151.3 69.5509 1151 73.5366 1146.87 63.8804C1142.74 54.2242 1121.68 37.9644 1124.74 48.2031C1127.81 58.4419 1130.01 54.204 1136.25 62.2632C1142.48 70.3225 1139.94 86.5505 1134.92 84.5683Z" fill="black" fill-opacity="0.75"/>
<path d="M1084.33 20.3884C1084.33 20.3884 1055.87 -21.3879 1049.84 -35.2919C1043.81 -49.196 1074.31 -22.4706 1082.12 -23.6991C1089.92 -24.9277 1141.27 -10.1461 1141.27 -10.1461C1141.27 -10.1461 1164.15 13.9971 1164.45 14.5107C1164.69 14.9388 1167.46 25.2266 1165.62 30.28C1163.78 35.3333 1163.2 39.0216 1161.67 39.7426C1160.06 40.5083 1155.05 15.0337 1135.85 14.0539C1116.71 13.1596 1136.49 27.7565 1146.12 33.2861C1155.76 38.8156 1159.5 54.1903 1157.27 59.6836C1155.03 65.177 1151.47 69.484 1151.47 69.484C1151.47 69.484 1157.56 52.107 1139.86 41.5375C1122.14 31.0984 1101.03 15.3151 1084.33 20.3884Z" fill="black" fill-opacity="0.75"/>
<path d="M1027.57 -80.2546C1027.57 -80.2546 1046.14 -42.0426 1052.24 -31.208C1058.35 -20.3734 1080.93 -21.2325 1103.59 -16.2937C1126.26 -11.355 1150.44 -5.10309 1157.46 9.39308C1164.48 23.8892 1165.85 30.2256 1165.85 30.2256C1165.85 30.2256 1174.98 10.0577 1160.49 -9.57755C1145.99 -29.2128 1122.7 -36.1739 1102.89 -32.5539C1083.08 -28.9338 1066.93 -42.8246 1075.87 -54.1165C1084.81 -65.4083 1118.04 -60.2796 1142.31 -35.0726C1166.52 -9.95126 1171.09 -0.299384 1171.09 -0.299384L1171.08 -15.9233L1163.58 -51.7476C1163.58 -51.7476 1109.57 -82.1925 1104.99 -81.1539C1100.38 -79.9848 1027.57 -80.2546 1027.57 -80.2546Z" fill="black" fill-opacity="0.75"/>
<path d="M1029.44 -76.1551C1029.44 -76.1551 1009.52 -103.74 1007.12 -122.783C1004.72 -141.826 1090.66 -129.036 1090.66 -129.036C1090.66 -129.036 1128.74 -137.461 1148.56 -110.046C1168.38 -82.6324 1166.32 -71.3827 1166.32 -71.3827C1166.32 -71.3827 1160.15 -84.7708 1133.46 -97.6416C1106.78 -110.512 1034.11 -103.556 1055.47 -90.9307C1076.84 -78.3058 1102.79 -91.9111 1119.06 -87.9767C1135.38 -83.9567 1161.2 -71.2859 1167.35 -58.6766C1173.45 -46.1529 1171.28 -15.7262 1171.28 -15.7262C1171.28 -15.7262 1164.02 -48.312 1139.28 -62.6911C1114.53 -77.0701 1077.04 -69.8691 1053.47 -68.4716C1029.91 -67.0741 1029.44 -76.1551 1029.44 -76.1551Z" fill="black" fill-opacity="0.75"/>
<path d="M1135.22 84.5975C1132.07 81.7175 1129.12 78.6179 1126.16 75.5182L1123.95 73.1395L1121.81 70.7162C1120.37 69.144 1118.94 67.5718 1117.53 65.8694C1114.74 62.6803 1112.07 59.3163 1109.31 55.997C1107.96 54.3801 1106.64 52.6329 1105.36 50.9713C1104.09 49.3097 1102.69 47.6073 1101.5 45.901C1091.21 32.2213 1081.68 18.009 1072.77 3.35345C1070.58 -0.278852 1068.35 -3.99666 1066.25 -7.67369L1059.98 -18.835C1058.9 -20.7162 1057.95 -22.5567 1056.96 -24.4827L1054.03 -30.1751C1052.09 -33.9416 1050.1 -37.7935 1048.16 -41.56C1040.39 -56.8415 1032.21 -71.8995 1024 -86.8272C1019.83 -94.3115 1015.74 -101.84 1012.16 -109.422C1008.53 -117.089 1005.56 -124.898 1003.81 -133.032L1003.25 -136.089C1003.09 -137.123 1002.84 -138.112 1002.68 -139.146L1001.84 -145.309C1001.49 -149.494 1000.97 -153.589 1000.84 -157.777C1000.72 -159.849 1000.61 -161.921 1000.59 -164.038L1000.47 -170.257L1000.26 -182.826C999.867 -199.67 998.836 -216.501 997.297 -233.28C995.71 -250.145 993.665 -266.871 990.802 -283.712L985.242 -282.918C988.334 -266.427 990.592 -249.705 992.376 -233.06C994.159 -216.415 995.436 -199.718 995.993 -182.964L996.411 -170.399L996.579 -164.093C996.608 -161.977 996.85 -159.864 996.96 -157.792C997.148 -153.518 997.713 -149.338 998.114 -145.068L999.05 -138.734C999.212 -137.7 999.504 -136.625 999.665 -135.591L1000.36 -132.493C1002.26 -124.103 1005.55 -115.911 1009.39 -108.248C1013.2 -100.454 1017.46 -93.0148 1021.71 -85.5752C1030.22 -70.6961 1038.51 -55.8131 1046.53 -40.6657C1048.47 -36.8993 1050.54 -33.092 1052.56 -29.3703L1055.32 -23.5884C1056.32 -21.6624 1057.34 -19.8667 1058.42 -17.9854L1064.83 -6.78332C1067.01 -3.15102 1069.32 0.522104 1071.51 4.15441C1080.59 18.7205 1090.36 32.7987 1100.89 46.3442C1102.21 48.0913 1103.57 49.7082 1104.84 51.3698C1106.19 52.9867 1107.51 54.7339 1108.87 56.3508C1111.63 59.6701 1114.33 62.9039 1117.25 66.1337C1118.61 67.7506 1120.04 69.3228 1121.61 70.9358L1123.83 73.3145L1126 75.6077C1128.95 78.7073 1131.99 81.7623 1135.22 84.5975Z" fill="black" fill-opacity="0.75"/>
</g>
<g opacity="0.02" filter="url(#filter0_dd)">
<path d="M142.959 -0.305149C142.959 -0.305149 226.161 -33.4397 306.776 -11.6481C306.776 -11.6481 262.706 -21.7947 219.399 -9.89646C176.108 2.12025 152.242 2.31795 142.959 -0.305149Z" fill="black" fill-opacity="0.75"/>
<path d="M159.318 11.327C159.318 11.327 269.533 -12.8984 338.079 33.9288C338.079 33.9288 297.588 10.72 235.648 15.4976C173.813 20.1428 159.318 11.327 159.318 11.327Z" fill="black" fill-opacity="0.75"/>
<path d="M182.368 30.1439C182.368 30.1439 273.441 14.9276 342.906 49.0619C342.906 49.0619 284.863 35.8637 237.998 37.0359C208.106 37.8553 182.368 30.1439 182.368 30.1439Z" fill="black" fill-opacity="0.75"/>
<path d="M380.182 84.6116C380.182 84.6116 301.591 35.6648 197.136 45.4365C197.136 45.4365 234.073 59.3452 283.013 61.1465C331.937 62.8297 380.182 84.6116 380.182 84.6116Z" fill="black" fill-opacity="0.75"/>
<path d="M390.534 103.752C390.534 103.752 326.063 58.8689 218.094 64.1517C218.094 64.1517 252.001 78.3024 284.077 79.3682C316.168 80.552 348.203 83.1809 390.534 103.752Z" fill="black" fill-opacity="0.75"/>
<path d="M401.011 126.831C401.011 126.831 313.201 70.8519 239.938 85.0406C239.938 85.0406 268.348 96.4921 312.536 100.416C356.723 104.341 401.011 126.831 401.011 126.831Z" fill="black" fill-opacity="0.75"/>
<path d="M414.664 146.896C414.664 146.896 335.016 103.723 259.731 104.254C259.731 104.254 282.889 117.653 326.538 124.038C370.187 130.423 400.654 140.787 414.664 146.896Z" fill="black" fill-opacity="0.75"/>
<path d="M447.685 182.738C447.685 182.738 368.694 125.71 283.264 129.863C283.264 129.863 301.634 140.361 331.502 144.322C361.506 148.388 407.256 161.588 447.685 182.738Z" fill="black" fill-opacity="0.75"/>
<path d="M480.9 219.151C480.9 219.151 386 147.742 297.282 148.943C297.282 148.943 325.591 163.517 348.418 167.004C371.245 170.492 425.967 185.125 480.9 219.151Z" fill="black" fill-opacity="0.75"/>
<path d="M482.194 256.03C482.194 256.03 420.746 181.08 311.005 165.65C311.005 165.65 313.311 172.085 360.847 188.175C408.383 204.266 436.421 216.951 482.194 256.03Z" fill="black" fill-opacity="0.75"/>
<path d="M466.15 259.039C466.15 259.039 371.964 186.834 323.174 182.642C323.174 182.642 339.914 198.606 378.168 213.777C416.407 228.83 426.827 233.808 466.15 259.039Z" fill="black" fill-opacity="0.75"/>
<path d="M499.117 308.192C499.117 308.192 393.545 212.666 338.582 201.072C338.582 201.072 376.739 228.839 410.024 245.446C443.413 261.92 499.117 308.192 499.117 308.192Z" fill="black" fill-opacity="0.75"/>
<path d="M497.814 325.254C497.814 325.254 407.434 237.487 346.181 217.781C346.181 217.781 361.243 231.31 393.962 252.06C426.68 272.811 463.464 296.668 497.814 325.254Z" fill="black" fill-opacity="0.75"/>
<path d="M492.768 353.559C492.768 353.559 447.2 289.157 360.549 240.626C360.549 240.626 380.675 260.378 405.65 280.864C430.626 301.35 460.122 313.496 492.768 353.559Z" fill="black" fill-opacity="0.75"/>
<path d="M142.581 -0.38017C142.581 -0.38017 225.783 -33.5146 306.398 -11.723C306.398 -11.723 274.321 -21.9757 212.575 -12.4514C177.011 -7.00987 161.116 -3.91246 142.581 -0.38017Z" fill="black" fill-opacity="0.75"/>
<path d="M158.82 11.2666C158.82 11.2666 269.412 -12.8841 338.079 33.9288C338.079 33.9288 297.24 9.92243 235.168 10.879C186.06 11.7224 158.82 11.2666 158.82 11.2666Z" fill="black" fill-opacity="0.75"/>
<path d="M181.991 30.0692C181.991 30.0692 273.562 14.9133 342.906 49.0619C342.906 49.0619 299.961 33.3373 237.713 32.0338C214.014 31.5126 181.991 30.0692 181.991 30.0692Z" fill="black" fill-opacity="0.75"/>
<path d="M380.182 84.6115C380.182 84.6115 301.214 35.5899 196.759 45.3617C196.759 45.3617 238.957 49.8894 279.515 54.9735C328.03 61.0208 380.182 84.6115 380.182 84.6115Z" fill="black" fill-opacity="0.75"/>
<path d="M390.534 103.752C390.534 103.752 326.063 58.8689 218.094 64.1517C218.094 64.1517 251.907 71.961 283.983 73.0269C316.059 74.0927 348.203 83.1809 390.534 103.752Z" fill="black" fill-opacity="0.75"/>
<path d="M400.634 126.756C400.634 126.756 312.825 70.7769 239.561 84.9656C239.561 84.9656 259.268 86.9147 300.928 92.1012C356.647 99.0758 400.634 126.756 400.634 126.756Z" fill="black" fill-opacity="0.75"/>
<path d="M414.167 146.836C414.167 146.836 334.519 103.663 259.234 104.193C259.234 104.193 287.853 110.705 326.656 118.391C369.996 127.09 400.278 140.713 414.167 146.836Z" fill="black" fill-opacity="0.75"/>
<path d="M447.308 182.663C447.308 182.663 368.318 125.635 282.887 129.788C282.887 129.788 302.913 135.173 332.886 139.002C374.396 144.082 406.879 161.513 447.308 182.663Z" fill="black" fill-opacity="0.75"/>
<path d="M480.402 219.09C480.402 219.09 385.502 147.682 296.784 148.882C296.784 148.882 327.091 157.223 349.918 160.711C372.865 164.184 425.47 185.065 480.402 219.09Z" fill="black" fill-opacity="0.75"/>
<path d="M482.194 256.03C482.194 256.03 420.369 181.005 310.628 165.575C310.628 165.575 315.25 167.296 362.907 183.372C410.563 199.448 445.242 219.965 482.194 256.03Z" fill="black" fill-opacity="0.75"/>
<path d="M466.15 259.039C466.15 259.039 371.964 186.834 323.174 182.642C323.174 182.642 335.811 189.631 371.072 204.323C410.337 220.691 426.827 233.808 466.15 259.039Z" fill="black" fill-opacity="0.75"/>
<path d="M500.366 309.362C500.366 309.362 394.794 213.836 339.831 202.241C339.831 202.241 366.902 216.12 404.592 238.43C436.576 257.231 500.366 309.362 500.366 309.362Z" fill="black" fill-opacity="0.75"/>
<path d="M497.814 325.254C497.814 325.254 407.434 237.487 346.181 217.781C346.181 217.781 363.199 227.597 395.902 248.23C428.605 268.862 463.464 296.668 497.814 325.254Z" fill="black" fill-opacity="0.75"/>
<path d="M492.768 353.559C492.768 353.559 447.486 289.482 360.835 240.951C360.835 240.951 385.346 256.937 410.202 277.437C435.057 297.937 460.122 313.496 492.768 353.559Z" fill="black" fill-opacity="0.75"/>
<path d="M492.681 383.104C492.681 383.104 432.031 307.687 381.422 278.48C381.422 278.48 404.211 304.419 423.135 320.651C442.059 336.883 471.125 358.211 492.681 383.104Z" fill="black" fill-opacity="0.75"/>
<path d="M492.681 383.104C492.681 383.104 432.031 307.687 381.422 278.48C381.422 278.48 406.616 297.171 426.163 316.202C443.905 333.539 471.125 358.211 492.681 383.104Z" fill="black" fill-opacity="0.75"/>
<path d="M479.308 411.512C479.308 411.512 445.232 341.522 395.023 305.905C395.023 305.905 400.207 313.895 416.443 333.103C432.68 352.311 458.197 372.286 479.308 411.512Z" fill="black" fill-opacity="0.75"/>
<path d="M479.308 411.512C479.308 411.512 445.232 341.522 395.023 305.905C395.023 305.905 406.217 314.588 422.454 333.796C438.69 353.004 458.197 372.286 479.308 411.512Z" fill="black" fill-opacity="0.75"/>
<path d="M412.941 429.693C412.941 429.693 381.194 338.813 383.192 281.116C383.192 281.116 393.104 313.97 396.797 338.347C400.491 362.725 403.342 398.36 412.941 429.693Z" fill="black" fill-opacity="0.75"/>
<path d="M412.941 429.693C412.941 429.693 381.194 338.813 383.192 281.116C383.192 281.116 385.694 312.116 391.439 338.522C396.766 362.58 403.342 398.36 412.941 429.693Z" fill="black" fill-opacity="0.75"/>
<path d="M435.357 450.253C435.357 450.253 395.464 379.103 399.981 318.561C399.981 318.561 403.536 327.601 409.336 352.201C415.135 376.801 414.606 408.898 435.357 450.253Z" fill="black" fill-opacity="0.75"/>
<path d="M435.357 450.253C435.357 450.253 395.464 379.103 399.981 318.561C399.981 318.561 399.627 332.521 405.441 357.239C411.256 381.957 414.606 408.898 435.357 450.253Z" fill="black" fill-opacity="0.75"/>
<path d="M400.372 318.241C400.372 318.241 441.936 371.869 461.856 441.617C461.856 441.617 412.247 362.595 400.372 318.241Z" fill="black" fill-opacity="0.75"/>
<path d="M400.372 318.241C400.372 318.241 441.936 371.869 461.856 441.617C461.856 441.617 427.547 364.776 400.372 318.241Z" fill="black" fill-opacity="0.75"/>
<path d="M125.817 -12.4435C125.817 -12.4435 107.2 25.7292 118.976 93.3819C118.976 93.3819 120.711 55.1347 124.966 34.453C130.143 9.81794 126.625 -9.9038 125.817 -12.4435Z" fill="black" fill-opacity="0.75"/>
<path d="M125.815 -12.4438C125.815 -12.4438 107.256 22.4821 118.794 92.9239C118.794 92.9239 116.761 52.3825 121.099 27.7312C124.053 11.7694 124.979 -5.98174 125.815 -12.4438Z" fill="black" fill-opacity="0.75"/>
<path d="M141.939 2.65571C141.939 2.65571 119.214 87.5003 150.426 163.204C150.426 163.204 135.168 121.531 141.684 78.1436C148.289 34.506 145.677 11.3139 141.939 2.65571Z" fill="black" fill-opacity="0.75"/>
<path d="M141.875 2.183C141.875 2.183 119.143 87.0245 150.336 162.732C150.336 162.732 136.48 132.882 138.323 71.5961C139.457 36.5484 140.553 20.8191 141.875 2.183Z" fill="black" fill-opacity="0.75"/>
<path d="M156.326 14.9745C156.326 14.9745 134.024 123.263 181.927 189.611C181.927 189.611 158.047 150.431 161.776 89.638C165.417 29.0957 156.326 14.9745 156.326 14.9745Z" fill="black" fill-opacity="0.75"/>
<path d="M156.282 14.6201C156.282 14.6201 134.039 123.381 181.942 189.729C181.942 189.729 157.296 150.163 157.198 89.3586C157.166 41.2614 156.282 14.6201 156.282 14.6201Z" fill="black" fill-opacity="0.75"/>
<path d="M180.693 30.6426C180.693 30.6426 162.341 119.256 193.975 188.315C193.975 188.315 182.862 131.138 185.734 85.204C187.521 56.0765 180.693 30.6426 180.693 30.6426Z" fill="black" fill-opacity="0.75"/>
<path d="M180.526 30.3033C180.526 30.3033 162.208 119.268 193.84 188.449C193.84 188.449 179.687 145.798 180.555 84.9972C180.934 61.6805 180.526 30.3033 180.526 30.3033Z" fill="black" fill-opacity="0.75"/>
<path d="M235.081 227.728C235.081 227.728 186.489 150.678 196.339 48.3412C196.339 48.3412 210.178 84.5506 211.784 132.578C213.492 180.473 235.081 227.728 235.081 227.728Z" fill="black" fill-opacity="0.75"/>
<path d="M235.081 227.728C235.081 227.728 186.311 150.22 196.279 47.8689C196.279 47.8689 200.614 89.2035 205.591 129.02C211.684 176.617 235.081 227.728 235.081 227.728Z" fill="black" fill-opacity="0.75"/>
<path d="M254.701 234.734C254.701 234.734 210.462 171.187 216.643 65.4602C216.643 65.4602 230.475 98.7911 231.276 130.243C232.195 161.681 234.541 193.063 254.701 234.734Z" fill="black" fill-opacity="0.75"/>
<path d="M254.701 234.734C254.701 234.734 210.462 171.187 216.643 65.4602C216.643 65.4602 224.117 98.612 225.051 130.168C225.837 161.501 234.541 193.063 254.701 234.734Z" fill="black" fill-opacity="0.75"/>
<path d="M270.968 248.254C270.968 248.254 220.662 158.821 239.223 88.1624C239.223 88.1624 248.844 116.612 249.997 160.137C251.15 203.662 270.968 248.254 270.968 248.254Z" fill="black" fill-opacity="0.75"/>
<path d="M270.909 247.782C270.909 247.782 220.603 158.348 239.164 87.6901C239.164 87.6901 239.85 107.04 242.598 148.09C246.175 203.074 270.909 247.782 270.909 247.782Z" fill="black" fill-opacity="0.75"/>
<path d="M277.828 265.564C277.828 265.564 248.82 181.186 262.094 108.678C262.094 108.678 271.323 133.34 270.231 176.533C269.168 219.963 274.069 251.03 277.828 265.564Z" fill="black" fill-opacity="0.75"/>
<path d="M277.719 265.212C277.719 265.212 248.748 180.826 262.049 108.325C262.049 108.325 263.547 137.167 264.608 175.777C265.78 219.051 273.967 250.677 277.719 265.212Z" fill="black" fill-opacity="0.75"/>
<path d="M293.367 299.918C293.367 299.918 257.123 210.793 281.823 130.873C281.823 130.873 287.477 150.813 284.182 180.246C280.888 209.68 282.666 256.365 293.367 299.918Z" fill="black" fill-opacity="0.75"/>
<path d="M293.413 299.432C293.413 299.432 257.18 210.305 281.883 130.387C281.883 130.387 282.326 150.725 278.662 180.083C273.59 220.89 282.598 255.893 293.413 299.432Z" fill="black" fill-opacity="0.75"/>
<path d="M316.798 338.701C316.798 338.701 272.287 230.189 296.363 146.765C296.363 146.765 303.105 177.247 300.597 199.863C297.957 222.376 298.06 277.778 316.798 338.701Z" fill="black" fill-opacity="0.75"/>
<path d="M316.72 338.229C316.72 338.229 272.221 229.714 296.304 146.292C296.304 146.292 296.625 177.079 294.115 199.695C291.473 222.207 298.003 277.423 316.72 338.229Z" fill="black" fill-opacity="0.75"/>
<path d="M342.55 354.548C342.55 354.548 291.644 273.094 312.241 166.452C312.241 166.452 317.566 170.719 317.397 220.04C317.228 269.362 320.463 299.434 342.55 354.548Z" fill="black" fill-opacity="0.75"/>
<path d="M342.55 354.548C342.55 354.548 291.704 272.606 312.302 165.965C312.302 165.965 312.448 170.866 312.278 220.187C312.108 269.509 320.446 308.672 342.55 354.548Z" fill="black" fill-opacity="0.75"/>
<path d="M348.003 345.993C348.003 345.993 312.449 234.225 325.264 188.049C325.264 188.049 334.493 208.993 335.658 249.39C336.823 289.786 337.772 301.064 348.003 345.993Z" fill="black" fill-opacity="0.75"/>
<path d="M347.975 345.995C347.975 345.995 312.44 234.223 325.264 188.049C325.264 188.049 327.527 202.166 329.269 239.612C331.179 281.236 337.752 301.065 347.975 345.995Z" fill="black" fill-opacity="0.75"/>
<path d="M376.921 387.481C376.921 387.481 327.223 255.62 336.789 201.308C336.789 201.308 348.404 246.428 351.5 282.875C354.597 319.322 376.921 387.481 376.921 387.481Z" fill="black" fill-opacity="0.75"/>
<path d="M376.921 387.481C376.921 387.481 327.223 255.62 336.789 201.308C336.789 201.308 339.763 231.172 346.396 273.784C352.082 309.913 376.921 387.481 376.921 387.481Z" fill="black" fill-opacity="0.75"/>
<path d="M403.48 425.545C403.48 425.545 358.619 309.045 364.588 246.177C364.588 246.177 371.075 265.175 377.189 302.812C383.304 340.449 390.773 383.078 403.48 425.545Z" fill="black" fill-opacity="0.75"/>
<path d="M403.48 425.545C403.48 425.545 358.619 309.045 364.588 246.177C364.588 246.177 366.91 265.325 372.922 303.095C378.934 340.864 390.773 383.078 403.48 425.545Z" fill="black" fill-opacity="0.75"/>
<path d="M386.754 388.706C386.754 388.706 351.716 317.304 349.763 219.422C349.763 219.422 357.643 247.486 363.882 278.63C370.254 309.877 366.987 341.465 386.754 388.706Z" fill="black" fill-opacity="0.75"/>
<path d="M386.754 388.706C386.754 388.706 351.716 317.304 349.763 219.422C349.763 219.422 352.439 249.802 358.693 281.064C365.066 312.311 366.987 341.465 386.754 388.706Z" fill="black" fill-opacity="0.75"/>
<path d="M89.7491 -44.5052C89.7491 -44.5052 329.718 113.565 400.642 317.491C401.594 320.134 400.684 321.564 401.516 324.221C401.516 324.221 336.002 125.397 77.5701 -38.9557L89.7491 -44.5052Z" fill="black" fill-opacity="0.75"/>
</g>
<g opacity="0.02">
<path d="M434.434 -12.975C434.434 -12.975 364.938 -57.2788 306.955 -46.0493C306.955 -46.0493 329.439 -36.9861 364.411 -33.8803C399.383 -30.7744 434.434 -12.975 434.434 -12.975Z" fill="black" fill-opacity="0.75"/>
<path d="M445.239 2.90527C445.239 2.90527 382.204 -31.2631 322.62 -30.8435C322.62 -30.8435 340.948 -20.2383 375.493 -15.1852C410.038 -10.1321 434.152 -1.92916 445.239 2.90527Z" fill="black" fill-opacity="0.75"/>
<path d="M471.373 31.2721C471.373 31.2721 408.857 -13.8618 341.244 -10.5748C341.244 -10.5748 355.783 -2.26698 379.422 0.868526C403.168 4.08598 439.376 14.5329 471.373 31.2721Z" fill="black" fill-opacity="0.75"/>
<path d="M497.661 60.0906C497.661 60.0906 422.553 3.57497 352.339 4.52539C352.339 4.52539 374.744 16.0599 392.81 18.8199C410.876 21.5799 454.185 33.1616 497.661 60.0906Z" fill="black" fill-opacity="0.75"/>
<path d="M498.686 89.2782C498.686 89.2782 450.053 29.9599 363.2 17.7476C363.2 17.7476 365.025 22.8406 402.647 35.5753C440.269 48.3101 462.459 58.3499 498.686 89.2782Z" fill="black" fill-opacity="0.75"/>
<path d="M485.988 91.6597C485.988 91.6597 411.445 34.5138 372.831 31.1962C372.831 31.1962 386.08 43.831 416.355 55.8377C446.619 67.751 454.866 71.6908 485.988 91.6597Z" fill="black" fill-opacity="0.75"/>
<path d="M512.079 130.561C512.079 130.561 428.525 54.9584 385.025 45.7821C385.025 45.7821 415.225 67.7585 441.567 80.9015C467.993 93.9396 512.079 130.561 512.079 130.561Z" fill="black" fill-opacity="0.75"/>
<path d="M511.048 144.065C511.048 144.065 439.517 74.6025 391.039 59.0062C391.039 59.0062 402.96 69.7135 428.855 86.1363C454.75 102.559 483.862 121.44 511.048 144.065Z" fill="black" fill-opacity="0.75"/>
<path d="M507.054 166.466C507.054 166.466 470.99 115.496 402.411 77.0869C402.411 77.0869 418.339 92.7195 438.106 108.933C457.873 125.146 481.217 134.758 507.054 166.466Z" fill="black" fill-opacity="0.75"/>
<path d="M434.135 -13.0343C434.135 -13.0343 364.64 -57.3381 306.656 -46.1086C306.656 -46.1086 322.253 -44.5661 355.225 -40.4613C399.323 -34.9413 434.135 -13.0343 434.135 -13.0343Z" fill="black" fill-opacity="0.75"/>
<path d="M444.846 2.85767C444.846 2.85767 381.81 -31.3108 322.226 -30.8911C322.226 -30.8911 344.877 -25.7376 375.587 -19.6549C409.888 -12.77 433.854 -1.98821 444.846 2.85767Z" fill="black" fill-opacity="0.75"/>
<path d="M471.075 31.2128C471.075 31.2128 408.559 -13.9212 340.947 -10.6342C340.947 -10.6342 356.796 -6.37297 380.517 -3.3423C413.37 0.678063 439.078 14.4735 471.075 31.2128Z" fill="black" fill-opacity="0.75"/>
<path d="M497.267 60.0427C497.267 60.0427 422.159 3.52712 351.945 4.47754C351.945 4.47754 375.931 11.0789 393.997 13.8389C412.158 16.5874 453.791 33.1137 497.267 60.0427Z" fill="black" fill-opacity="0.75"/>
<path d="M498.686 89.2781C498.686 89.2781 449.755 29.9008 362.902 17.6885C362.902 17.6885 366.56 19.0505 404.277 31.7738C441.994 44.497 469.44 60.7345 498.686 89.2781Z" fill="black" fill-opacity="0.75"/>
<path d="M485.988 91.6597C485.988 91.6597 411.445 34.5138 372.831 31.1962C372.831 31.1962 382.833 36.7273 410.739 48.3553C441.815 61.3092 454.866 71.6908 485.988 91.6597Z" fill="black" fill-opacity="0.75"/>
<path d="M513.067 131.487C513.067 131.487 429.514 55.8841 386.014 46.7077C386.014 46.7077 407.439 57.6922 437.268 75.3487C462.582 90.2287 513.067 131.487 513.067 131.487Z" fill="black" fill-opacity="0.75"/>
<path d="M511.048 144.065C511.048 144.065 439.517 74.6025 391.039 59.0062C391.039 59.0062 404.508 66.7751 430.391 83.1045C456.273 99.4339 483.862 121.44 511.048 144.065Z" fill="black" fill-opacity="0.75"/>
<path d="M507.054 166.466C507.054 166.466 471.217 115.753 402.637 77.3443C402.637 77.3443 422.036 89.9957 441.708 106.22C461.379 122.445 481.217 134.759 507.054 166.466Z" fill="black" fill-opacity="0.75"/>
<path d="M506.985 189.85C506.985 189.85 458.984 130.162 418.931 107.046C418.931 107.046 436.966 127.576 451.944 140.422C466.921 153.269 489.925 170.149 506.985 189.85Z" fill="black" fill-opacity="0.75"/>
<path d="M506.985 189.85C506.985 189.85 458.984 130.162 418.931 107.046C418.931 107.046 438.87 121.84 454.341 136.901C468.382 150.622 489.925 170.149 506.985 189.85Z" fill="black" fill-opacity="0.75"/>
<path d="M496.4 212.333C496.4 212.333 469.431 156.94 429.695 128.752C429.695 128.752 433.797 135.075 446.647 150.277C459.497 165.479 479.693 181.288 496.4 212.333Z" fill="black" fill-opacity="0.75"/>
<path d="M496.4 212.333C496.4 212.333 469.431 156.94 429.695 128.752C429.695 128.752 438.554 135.624 451.404 150.826C464.254 166.028 479.693 181.288 496.4 212.333Z" fill="black" fill-opacity="0.75"/>
<path d="M443.876 226.722C443.876 226.722 418.75 154.796 420.332 109.132C420.332 109.132 428.176 135.134 431.099 154.427C434.023 173.72 436.279 201.923 443.876 226.722Z" fill="black" fill-opacity="0.75"/>
<path d="M443.876 226.722C443.876 226.722 418.75 154.796 420.332 109.132C420.332 109.132 422.312 133.666 426.859 154.565C431.075 173.606 436.279 201.923 443.876 226.722Z" fill="black" fill-opacity="0.75"/>
<path d="M461.617 242.993C461.617 242.993 430.044 186.683 433.618 138.768C433.618 138.768 436.432 145.922 441.022 165.391C445.612 184.861 445.194 210.264 461.617 242.993Z" fill="black" fill-opacity="0.75"/>
<path d="M461.617 242.993C461.617 242.993 430.044 186.683 433.618 138.768C433.618 138.768 433.338 149.816 437.94 169.379C442.542 188.942 445.194 210.264 461.617 242.993Z" fill="black" fill-opacity="0.75"/>
<path d="M433.928 138.515C433.928 138.515 466.824 180.958 482.589 236.159C482.589 236.159 443.327 173.618 433.928 138.515Z" fill="black" fill-opacity="0.75"/>
<path d="M433.928 138.515C433.928 138.515 466.824 180.958 482.589 236.159C482.589 236.159 455.436 175.344 433.928 138.515Z" fill="black" fill-opacity="0.75"/>
<path d="M229.395 -111.252C229.395 -111.252 211.41 -44.1025 236.112 15.8119C236.112 15.8119 224.036 -17.1698 229.194 -51.5078C234.42 -86.0442 232.354 -104.399 229.395 -111.252Z" fill="black" fill-opacity="0.75"/>
<path d="M229.344 -111.626C229.344 -111.626 211.354 -44.4792 236.041 15.4387C236.041 15.4387 225.075 -8.18573 226.533 -56.6898C227.431 -84.4279 228.298 -96.8766 229.344 -111.626Z" fill="black" fill-opacity="0.75"/>
<path d="M240.781 -101.502C240.781 -101.502 223.13 -15.7984 261.043 36.7119C261.043 36.7119 242.143 5.70307 245.094 -42.4107C247.976 -90.3261 240.781 -101.502 240.781 -101.502Z" fill="black" fill-opacity="0.75"/>
<path d="M240.746 -101.783C240.746 -101.783 223.143 -15.7052 261.055 36.8053C261.055 36.8053 241.549 5.49094 241.471 -42.6318C241.446 -80.6978 240.746 -101.783 240.746 -101.783Z" fill="black" fill-opacity="0.75"/>
<path d="M260.067 -89.1014C260.067 -89.1014 245.542 -18.9697 270.578 35.6863C270.578 35.6863 261.783 -9.56567 264.056 -45.9195C265.47 -68.9721 260.067 -89.1014 260.067 -89.1014Z" fill="black" fill-opacity="0.75"/>
<path d="M259.934 -89.3703C259.934 -89.3703 245.437 -18.9606 270.472 35.7922C270.472 35.7922 259.271 2.03665 259.957 -46.0836C260.257 -64.5373 259.934 -89.3703 259.934 -89.3703Z" fill="black" fill-opacity="0.75"/>
<path d="M303.11 66.8788C303.11 66.8788 264.653 5.89898 272.449 -75.0944C272.449 -75.0944 283.402 -46.4369 284.673 -8.42604C286.025 29.4799 303.11 66.8788 303.11 66.8788Z" fill="black" fill-opacity="0.75"/>
<path d="M303.11 66.8789C303.11 66.8789 264.512 5.53663 272.401 -75.4682C272.401 -75.4682 275.832 -42.7544 279.771 -11.2423C284.593 26.4276 303.11 66.8789 303.11 66.8789Z" fill="black" fill-opacity="0.75"/>
<path d="M318.639 72.4237C318.639 72.4237 283.626 22.1302 288.518 -61.5458C288.518 -61.5458 299.466 -35.1665 300.1 -10.2742C300.827 14.6066 302.684 39.4436 318.639 72.4237Z" fill="black" fill-opacity="0.75"/>
<path d="M318.639 72.4237C318.639 72.4237 283.626 22.1302 288.518 -61.5458C288.518 -61.5458 294.433 -35.3082 295.173 -10.3339C295.795 14.4649 302.684 39.4436 318.639 72.4237Z" fill="black" fill-opacity="0.75"/>
<path d="M331.513 83.1241C331.513 83.1241 291.699 12.3433 306.389 -43.5784C306.389 -43.5784 314.004 -21.0624 314.916 13.385C315.829 47.8323 331.513 83.1241 331.513 83.1241Z" fill="black" fill-opacity="0.75"/>
<path d="M331.466 82.7502C331.466 82.7502 291.652 11.9694 306.342 -43.9523C306.342 -43.9523 306.885 -28.6381 309.06 3.85029C311.891 47.3665 331.466 82.7502 331.466 82.7502Z" fill="black" fill-opacity="0.75"/>
<path d="M336.942 96.8235C336.942 96.8235 313.985 30.0439 324.49 -27.3414C324.49 -27.3414 331.794 -7.82354 330.93 26.3613C330.089 60.7331 333.968 85.3207 336.942 96.8235Z" fill="black" fill-opacity="0.75"/>
<path d="M336.857 96.545C336.857 96.545 313.928 29.759 324.455 -27.6211C324.455 -27.6211 325.64 -4.79443 326.48 25.763C327.408 60.0116 333.887 85.0414 336.857 96.545Z" fill="black" fill-opacity="0.75"/>
<path d="M349.241 124.013C349.241 124.013 320.556 53.4761 340.104 -9.77554C340.104 -9.77554 344.579 6.00549 341.972 29.3002C339.365 52.5949 340.771 89.5435 349.241 124.013Z" fill="black" fill-opacity="0.75"/>
<path d="M349.277 123.628C349.277 123.628 320.601 53.0894 340.152 -10.1608C340.152 -10.1608 340.503 5.93565 337.603 29.1709C333.589 61.4668 340.718 89.1697 349.277 123.628Z" fill="black" fill-opacity="0.75"/>
<path d="M367.785 154.707C367.785 154.707 332.557 68.8262 351.612 2.80136C351.612 2.80136 356.948 26.9263 354.963 44.8255C352.873 62.6427 352.955 106.49 367.785 154.707Z" fill="black" fill-opacity="0.75"/>
<path d="M367.723 154.334C367.723 154.334 332.505 68.4507 351.565 2.42764C351.565 2.42764 351.819 26.7931 349.833 44.6921C347.742 62.509 352.91 106.21 367.723 154.334Z" fill="black" fill-opacity="0.75"/>
<path d="M388.166 167.249C388.166 167.249 347.877 102.783 364.178 18.3832C364.178 18.3832 368.392 21.7596 368.259 60.7945C368.125 99.8294 370.685 123.63 388.166 167.249Z" fill="black" fill-opacity="0.75"/>
<path d="M388.166 167.249C388.166 167.249 347.924 102.397 364.226 17.9978C364.226 17.9978 364.342 21.876 364.207 60.9109C364.073 99.9458 370.672 130.941 388.166 167.249Z" fill="black" fill-opacity="0.75"/>
<path d="M392.482 160.479C392.482 160.479 364.343 72.0212 374.485 35.4755C374.485 35.4755 381.789 52.0516 382.711 84.0227C383.634 115.994 384.385 124.92 392.482 160.479Z" fill="black" fill-opacity="0.75"/>
<path d="M392.459 160.48C392.459 160.48 364.336 72.0192 374.485 35.4757C374.485 35.4757 376.276 46.6481 377.654 76.2846C379.167 109.227 384.369 124.92 392.459 160.48Z" fill="black" fill-opacity="0.75"/>
<path d="M415.369 193.313C415.369 193.313 376.036 88.9537 383.606 45.9688C383.606 45.9688 392.799 81.6785 395.249 110.524C397.7 139.37 415.369 193.313 415.369 193.313Z" fill="black" fill-opacity="0.75"/>
<path d="M415.369 193.313C415.369 193.313 376.036 88.9537 383.606 45.9688C383.606 45.9688 385.96 69.6047 391.209 103.329C395.71 131.924 415.369 193.313 415.369 193.313Z" fill="black" fill-opacity="0.75"/>
<path d="M436.388 223.438C436.388 223.438 400.883 131.236 405.607 81.4802C405.607 81.4802 410.741 96.516 415.58 126.303C420.42 156.09 426.331 189.828 436.388 223.438Z" fill="black" fill-opacity="0.75"/>
<path d="M436.388 223.438C436.388 223.438 400.883 131.236 405.607 81.4802C405.607 81.4802 407.445 96.6348 412.203 126.527C416.961 156.419 426.331 189.828 436.388 223.438Z" fill="black" fill-opacity="0.75"/>
<path d="M423.15 194.283C423.15 194.283 395.42 137.773 393.875 60.3047C393.875 60.3047 400.111 82.5158 405.049 107.164C410.092 131.895 407.506 156.894 423.15 194.283Z" fill="black" fill-opacity="0.75"/>
<path d="M423.15 194.283C423.15 194.283 395.42 137.773 393.875 60.3047C393.875 60.3047 395.992 84.349 400.942 109.091C405.986 133.821 407.506 156.894 423.15 194.283Z" fill="black" fill-opacity="0.75"/>
<path d="M188.09 -148.577C188.09 -148.577 378.01 -23.4743 434.142 137.921C434.895 140.013 434.175 141.144 434.834 143.247C434.834 143.247 382.984 -14.1099 178.451 -144.184L188.09 -148.577Z" fill="black" fill-opacity="0.75"/>
</g>
<defs>
<filter id="filter0_dd" x="0.570312" y="-81.5051" width="576.795" height="648.758" filterUnits="userSpaceOnUse" color-interpolation-filters="sRGB">
<feFlood flood-opacity="0" result="BackgroundImageFix"/>
<feColorMatrix in="SourceAlpha" type="matrix" values="0 0 0 0 0 0 0 0 0 0 0 0 0 0 0 0 0 0 127 0"/>
<feOffset dy="40"/>
<feGaussianBlur stdDeviation="38.5"/>
<feColorMatrix type="matrix" values="0 0 0 0 0 0 0 0 0 0 0 0 0 0 0 0 0 0 0.19 0"/>
<feBlend mode="normal" in2="BackgroundImageFix" result="effect1_dropShadow"/>
<feColorMatrix in="SourceAlpha" type="matrix" values="0 0 0 0 0 0 0 0 0 0 0 0 0 0 0 0 0 0 127 0"/>
<feOffset dy="27"/>
<feGaussianBlur stdDeviation="12"/>
<feColorMatrix type="matrix" values="0 0 0 0 0 0 0 0 0 0 0 0 0 0 0 0 0 0 0.24 0"/>
<feBlend mode="normal" in2="effect1_dropShadow" result="effect2_dropShadow"/>
<feBlend mode="normal" in="SourceGraphic" in2="effect2_dropShadow" result="shape"/>
</filter>
</defs>
</svg>
