<svg width="1440" height="1079" fill="none" xmlns="http://www.w3.org/2000/svg">
  <g opacity=".06" fill-rule="evenodd" clip-rule="evenodd" fill="#000" fill-opacity=".75">
    <path d="M1657.67 665.493c-35.16-17.801-60.73-47.63-105.23-53.644-24.35-15.395-50.41-25.017-73.27-46.186-14.27-20.447-31.72-42.096-50.65-64.227-8.86-19.966-20.66-37.045-27.79-57.492-.74-8.179-2.46-15.155-4.18-21.65 1.48-8.42.49-17.079-5.41-26.702-1.23-14.433-2.46-28.866-14.26-33.436-5.16 8.178-6.88 18.522-7.37 30.069-9.59 6.735-10.82 18.763-8.12 33.437 1.72 8.419 5.16 15.154 9.59 20.687 25.57 56.771 51.88 102.716 86.3 145.294 12.79 16.358 26.06 31.994 40.33 45.464 1.96 9.863 4.42 19.004 8.11 27.424-3.44 4.811-5.16 8.178-6.15 10.824 16.72 3.128 34.67 4.09 54.09 3.368 15.74 5.773 36.64 8.179 62.95 7.457 32.21 0 60.48-1.443 68.35-12.027-5.16-3.849-13.28-6.976-27.29-8.66z"/>
    <path d="M1384.5 388.376c118.27-83.953 336.6-86.599 387.5-11.066-8.85-8.178-18.93-14.673-30.49-19.725 7.13 8.179 12.3 17.32 15.98 27.423-6.64-8.419-13.27-17.079-19.91-25.499 4.92 11.788 7.62 22.612 9.34 32.956-3.69-7.216-7.38-15.155-10.33-24.777 0 7.457.74 14.674 2.71 21.409-3.94-4.57-7.38-9.622-10.33-14.673.49 7.216 1.72 13.23 3.44 18.763-5.65-6.976-10.32-15.155-14.26-23.815 2.22 10.103 2.95 18.523 2.46 25.499-6.64-8.42-11.55-20.447-15.98-33.197 2.71 11.306 4.67 22.372 4.92 33.918-3.94-3.848-7.38-9.862-9.59-18.522.49 5.773.49 10.344.24 14.433-5.65-8.66-9.83-21.65-14.01-35.121 2.7 13.952 4.67 26.461 4.92 37.045-2.95-10.343-6.89-20.687-12.3-30.79 3.45 9.862 5.41 19.966 6.15 29.828-3.44-14.192-10.33-26.461-17.95-38.007 3.69 13.471 5.9 26.701 6.15 39.45-2.46-15.876-9.59-30.309-17.7-44.502 6.14 18.763 5.41 32.956 1.96 45.946.25-11.306-2.7-22.612-10.57-33.918 3.44 12.027 4.92 22.371 4.43 30.55-1.48-7.938-3.94-16.117-8.86-24.055 1.23 9.141 1.23 17.32.74 25.498-.74-11.065-7.13-30.55-10.82-41.375 2.71 13.952 3.45 28.867 2.46 44.503-2.21-16.358-7.37-31.753-15-46.427 2.46 16.598.99 32.234-3.19 47.629-.25-7.457-1.23-14.914-3.69-22.371.74 6.735.25 12.99-.25 19.004-1.47-10.104-6.63-18.042-8.85-23.334-1.96 11.306-1.72 20.688-.98 29.107-5.16-11.066-7.87-23.334-9.59-35.843-.74 8.66-.74 16.358.25 22.853-6.89-9.622-10.82-21.409-14.26-33.918 2.45 18.282 1.96 32.475 0 44.743-2.71-6.976-5.66-14.193-8.61-22.131.49 6.735.49 11.547-.25 14.674-5.65-7.698-10.08-18.042-14.01-29.107 1.23 13.711.98 27.182-2.71 40.172-2.7-5.051-5.16-11.546-7.13-19.725 0 3.127-.73 6.014-1.72 8.66-2.95-7.217-5.16-17.08-7.62-26.702.49 13.952.25 26.221-1.47 36.083-2.95-6.014-5.41-12.989-7.13-21.89.24 6.976-.5 12.749-1.73 17.32-3.44-10.825-5.65-24.055-7.62-37.526-.74 13.471-1.96 25.979-4.67 36.804-2.21-5.533-3.69-12.509-4.43-20.447 0 9.622-.98 16.839-2.45 23.334-2.95-9.863-4.18-22.853-4.43-37.767-1.47 12.028-3.2 23.815-6.64 32.475 0-6.736.49-14.915 1.72-24.296-2.46 10.344-5.16 20.206-8.11 28.866-2.95-9.863-4.43-22.371-6.64-36.083.49 11.787.98 23.334-.25 32.475-2.21-5.292-4.18-12.028-5.4-19.966 0 6.976-.74 15.636-1.73 22.612-2.45-10.825-3.44-23.334-4.18-36.324-3.19 13.231-5.4 25.98-6.14 38.008-1.23-7.217-1.72-14.674-1.48-22.853-2.46 7.698-3.93 14.433-3.93 20.207-3.44-8.42-4.67-19.966-5.41-32.234-2.21 11.306-4.18 22.13-4.18 32.474-1.48-6.495-2.46-13.471-2.21-21.65-2.46 6.255-4.18 12.269-4.18 18.042-1.97-4.089-3.2-9.382-3.45-15.636-3.19 6.495-4.42 11.787-4.91 16.839-1.23-6.255-.49-14.915.24-23.815-3.44 8.66-6.39 17.32-7.37 24.777-.74-5.533-1.23-12.99-.74-19.725-15 6.735-24.83 13.952-36.64 22.371-2.45-.481-4.91-1.203-7.37-1.684-.25-2.165 0-4.33.24-6.254zM1374.42 368.65c56.55-131.822 241.7-245.123 325.29-206.394-12.04-2.405-24.09-2.886-36.39-1.443 10.33 3.368 19.67 8.66 28.28 15.395-10.08-3.849-20.41-7.938-30.49-11.787 10.33 7.698 18.69 15.636 25.57 23.574-7.13-4.33-14.26-9.141-21.88-15.876 3.93 6.495 8.6 12.027 13.77 16.839-5.9-1.925-11.31-4.571-16.72-7.217 4.18 5.773 8.6 10.344 12.78 14.193-8.6-3.128-16.72-7.698-24.83-12.99 7.38 7.457 12.29 14.192 15.49 20.447-10.33-3.849-20.65-11.547-31.47-20.207 8.36 8.179 15.74 16.839 22.13 26.461-5.66-1.443-11.56-4.811-17.95-10.825 3.44 4.571 5.9 8.42 7.87 12.028-9.35-4.571-19.92-13.471-30.74-23.093 9.84 10.584 17.95 20.447 23.85 29.347-8.11-7.457-16.96-14.192-27.04-20.206 8.36 6.735 15.24 14.192 21.14 22.371-10.33-10.344-22.86-17.32-35.65-23.333 10.33 9.622 19.42 19.725 26.31 30.55-10.57-12.268-24.34-20.928-38.85-28.867 15 12.75 22.13 25.499 26.06 38.008-5.9-9.863-14.26-17.801-27.04-23.574 9.09 8.419 15.98 16.598 19.91 23.814-5.41-6.254-12.05-11.787-20.4-16.117 5.9 7.217 10.32 14.193 14.01 21.409-6.64-8.9-22.37-22.611-31.47-29.828 9.83 10.584 18.19 22.852 25.57 36.805-10.57-12.75-23.11-23.334-37.62-32.235 10.82 12.99 17.95 26.942 22.62 42.097a91.05 91.05 0 00-15-17.32c4.18 5.293 7.13 10.825 9.84 16.599-6.64-7.698-15.25-12.028-20.16-15.396 4.42 10.584 9.34 18.523 14.5 25.499-10.32-6.736-19.18-15.877-27.29-25.739 3.69 7.697 7.87 14.192 12.29 19.244-10.81-4.571-20.65-12.749-30.24-21.65 11.8 14.433 18.93 26.942 23.85 38.489-6.15-4.571-12.29-9.382-18.93-14.674 3.93 5.292 6.39 9.622 7.38 12.749-9.1-3.849-18.2-10.344-27.54-17.801 8.36 11.066 15.24 22.612 18.93 35.602-5.16-3.127-10.57-7.217-16.72-13.23 1.72 2.646 2.46 5.532 3.2 8.178-6.4-4.811-13.53-12.027-20.66-19.003 7.87 11.546 14.26 22.371 17.95 31.512-5.65-3.608-11.55-8.179-17.7-14.914 3.93 5.773 6.39 11.065 7.87 15.636-8.85-7.457-17.46-17.561-26.31-28.145 6.64 11.787 12.05 23.334 15.49 33.918-4.92-3.608-9.84-8.66-14.51-15.155 5.17 8.179 8.12 14.915 10.33 21.169-7.62-6.976-15.74-17.32-23.85-30.069 5.16 11.065 10.08 22.131 11.8 31.031-3.69-5.773-7.38-12.99-11.56-21.65 3.45 10.104 6.4 19.726 8.36 28.626-7.62-6.976-15.73-16.839-24.58-27.423 6.64 9.863 13.27 19.485 16.96 27.904-4.91-3.368-10.08-8.179-15.24-14.433 3.69 6.014 7.62 13.952 10.57 20.447-7.87-8.179-15.49-18.282-22.87-29.107 4.18 12.99 9.1 25.018 15 35.843-4.67-5.533-9.34-11.547-13.27-18.764 1.96 7.939 4.18 14.193 7.13 19.245-7.38-5.533-14.51-14.674-21.89-24.777 3.94 10.825 8.12 21.168 13.77 29.828-4.67-4.811-9.09-10.344-13.52-17.32 1.23 6.736 2.95 12.509 5.9 17.561-3.93-2.406-7.62-6.495-11.31-11.787.74 7.216 2.46 12.509 4.92 16.838-4.43-4.811-8.36-12.268-12.3-20.447 1.73 9.141 3.69 18.042 6.64 25.018-3.69-4.33-8.11-10.344-11.31-16.598-9.09 13.23-13.77 24.536-19.42 37.526-2.46.722-4.67 1.684-7.13 2.406.24-.963-.49-2.887-1.48-4.812zM1373.19 378.994c-100.56-79.863-278.82-94.537-316.19-31.512 6.88-6.495 14.75-11.787 23.85-15.396-5.41 6.736-9.1 14.434-11.8 23.093 4.92-6.976 9.83-13.952 14.75-20.928-3.2 10.104-4.92 19.485-5.65 28.386 2.7-6.255 5.16-12.99 7.13-20.929.24 6.495 0 12.509-1.23 18.523 2.95-3.849 5.41-7.938 7.62-12.268 0 6.254-.74 11.306-1.72 16.117 4.18-5.773 7.62-12.749 10.57-19.966-1.48 8.66-1.48 15.876-.74 22.131 4.92-6.976 8.36-17.079 11.56-27.904a143.635 143.635 0 00-2.21 29.107c2.95-3.128 5.4-8.179 6.88-15.396-.25 5.052 0 8.901.49 12.509 4.18-7.217 6.89-18.282 9.59-29.829-1.47 12.028-2.21 22.853-1.97 31.994 1.97-8.9 4.68-17.56 8.36-25.98-2.21 8.42-3.19 16.839-3.44 25.499 1.97-12.028 7.13-22.372 12.79-32.234-2.22 11.546-3.69 22.852-2.95 34.158 1.23-13.711 6.39-25.979 12.29-37.767-3.93 15.877-2.7 28.386.74 39.692-.74-9.863 1.23-19.485 6.88-28.867-2.21 10.344-2.95 19.004-1.97 26.461.74-6.976 2.46-13.711 5.91-20.447-.5 7.938 0 15.155.73 22.131 0-9.622 4.18-26.461 6.64-35.602-1.47 12.028-1.47 24.777.25 38.729 1.23-13.952 4.42-27.182 9.83-39.691-1.23 14.193.99 27.904 4.92 41.375 0-6.495.25-12.99 1.97-19.244-.25 5.773.24 11.306 1.23 16.598.73-8.66 4.67-15.395 6.14-19.966 2.22 10.103 2.46 18.042 2.22 25.499 3.68-9.382 5.16-19.726 5.9-30.55 1.23 7.457 1.47 14.192.73 19.725 5.17-7.938 7.87-18.042 10.09-28.626-.99 15.636 0 28.385 2.21 38.97 1.97-5.774 3.93-12.028 5.9-18.764-.25 5.774.25 10.104.98 12.99 4.18-6.495 7.38-15.154 9.84-24.536-.25 11.787.49 23.574 4.18 35.121 1.96-4.33 3.69-9.863 4.92-16.839.24 2.887.73 5.292 1.96 7.698 1.97-6.255 3.44-14.674 4.67-22.853.25 12.028 1.23 22.853 2.95 31.513 2.22-5.052 3.94-10.825 4.68-18.523.24 6.014.98 11.065 2.21 15.155 2.21-9.141 3.44-20.688 4.18-32.234 1.23 11.787 2.95 22.852 5.65 32.234 1.48-4.811 2.22-10.584 2.46-17.56.49 8.419 1.72 14.673 3.2 20.447 1.97-8.42 2.21-19.726 1.72-32.716 1.72 10.585 3.93 20.928 6.88 28.626-.24-5.773-1.23-12.99-2.7-21.409 2.46 9.141 5.16 17.801 8.11 25.499 1.72-8.42 2.46-19.245 3.45-31.032.24 10.103.49 20.207 1.96 28.385 1.48-4.57 2.71-10.343 3.44-17.079.25 6.014 1.48 13.712 2.46 19.966 1.48-9.382 1.72-20.206 1.48-31.512 3.44 11.787 5.9 23.093 6.88 33.677.5-6.254.74-12.509 0-19.725 2.46 6.735 3.94 12.749 4.43 17.801 2.21-7.217 2.7-17.32 2.7-27.664 2.46 9.863 4.68 19.485 5.17 28.385.73-5.532 1.23-11.546.73-18.763 2.46 5.533 3.94 10.825 4.18 15.877 1.48-3.609 1.97-7.939 1.97-13.471 2.95 5.773 4.18 10.584 4.67 14.914.74-5.533-.24-12.99-1.47-20.688 3.19 7.939 5.9 15.396 7.37 21.891.5-4.811.25-11.306-.24-17.32 12.54 6.735 20.9 13.711 30.98 21.65 1.97-.241 3.93-.481 5.9-.963.49-2.165.25-3.848-.25-5.773z"/>
    <path d="M1371.96 403.29c-124.16-111.135-324.06-114.022-303.4 51.238.98-16.358 4.42-31.272 7.62-46.186-2.46 13.711-2.21 28.625-.99 41.615 3.2-14.673 4.92-30.79 6.64-47.148 1.23 9.141 1.72 18.041 1.48 27.182 3.44-16.838 4.42-36.083 5.65-54.846 0 18.042.25 35.602 1.97 50.276.49-12.99 1.23-25.739 1.72-38.489.74 9.382 1.48 18.764 1.97 28.145.74-11.787 3.2-23.093 7.13-33.918.49 11.306 1.72 20.688 4.42 27.423-.73-9.141-.98-18.522 1.97-29.828 7.13 10.584 11.8 21.168 13.28 32.234.74-8.66.98-17.08 0-25.739 2.95 7.938 5.16 16.117 6.39 24.295.49-4.33.99-8.659 0-13.711 1.97 6.495 4.67 11.546 7.62 15.155-1.96-7.939 1.23-21.409 4.18-28.867-2.21 9.863-2.46 18.764-.98 26.702 0-12.75 7.87-32.956 17.21-41.375 1.97 11.065 1.48 20.687-.24 29.828 5.4-10.584 8.36-22.612 9.58-35.121.74 8.66 1.23 17.32.74 25.98 6.39-7.457 10.57-15.876 14.02-25.017-.74 6.254-1.48 12.268-4.18 18.522 4.18-4.811 7.13-9.862 8.85-15.395-.49 8.66.24 16.358 2.21 23.815 1.23-10.825 5.66-23.093 8.36-27.423.74 7.216 1.97 13.711 3.44 19.003.99-5.292 1.23-10.825.5-16.357 1.96 4.089 3.44 8.66 3.93 14.192 1.23-4.57 1.47-9.622.49-15.155 3.2 7.458 4.18 15.396 4.18 23.334.98-7.938 2.21-16.839 1.23-25.739 5.41 6.495 10.33 13.711 10.33 24.055 2.46-3.608 8.36-26.22 8.11-33.196.49 10.584 0 21.409-2.7 33.437 2.21-5.052 4.42-10.103 5.9-16.358.49 6.014-.25 11.787-1.72 17.32 6.14-7.698 8.85-17.32 10.32-27.664 2.95 8.66 4.18 17.561 3.2 26.702 4.18-6.255 7.62-13.231 8.85-22.372.49 6.014.25 11.787-.98 17.08 1.72-4.811 3.44-9.623 4.91-14.193.5 8.179 1.73 15.395 3.69 21.409 1.23-6.735 3.2-13.471 5.9-20.447-.98 7.698-.24 14.433 1.48 20.688 1.23-8.901 4.67-18.282 10.57-28.145 3.69 8.66 5.41 17.32 3.2 26.22 4.18-5.292 7.62-11.306 9.09-18.763 2.46 6.976 4.18 14.193 3.94 21.891 2.21-5.052 3.93-10.344 4.42-16.118.74 6.736.5 13.231-.49 19.485 4.18-6.254 6.89-13.23 8.61-20.928-.49 9.863.24 18.763 2.95 25.98.49-6.736 1.47-13.712 3.93-20.928-.49 5.051 0 9.381 1.23 13.23-.49-4.089 1.72-12.027 3.69-17.079 17.7 11.065 33.44 23.334 50.65 38.248 1.48-2.406 3.2-6.255 3.93-8.179zM1440.32 250.78c34.91 6.013 63.43 21.89 90.23 40.412-12.54-6.494-25.08-10.824-37.62-13.471 13.77 7.458 26.07 16.118 36.88 25.74-13.27-8.901-26.3-15.636-39.58-20.447 15.24 8.66 29.99 19.244 44.5 30.79-15.24-8.419-31.72-15.395-50.4-20.447 12.29 9.623 22.62 20.688 31.22 33.437-12.04-7.216-23.85-15.876-35.16-25.739 7.63 15.636 12.54 31.994 12.3 49.073-3.45-12.028-7.38-23.574-13.77-34.159 2.7 10.344 3.44 20.688 1.97 30.791-1.97-9.141-7.87-20.928-12.54-24.536 6.88 20.447 7.13 38.248 4.18 55.086-2.71-16.838-5.41-28.144-14.27-43.78-.49 7.698-.49 18.763-1.22 26.461-1.73-6.014-5.41-21.41-5.17-29.348-4.92 9.382-7.13 18.042-7.13 26.461-2.21-6.736-3.19-13.952-2.7-21.65-3.45 6.255-4.92 12.268-5.41 18.282-1.97-10.103-1.23-20.447 1.96-31.512-5.4 8.179-8.6 16.357-10.57 24.777-1.23-9.382.99-19.726 6.89-30.791-9.1 11.065-16.23 22.371-20.41 34.159 0-8.179 1.72-16.358 6.39-25.018-7.13 8.419-12.29 17.56-14.26 28.385-.74-6.014-.24-12.509 2.95-19.966-6.64 7.457-10.08 15.155-11.06 22.853-1.48-8.66 2.46-36.324 5.16-43.781-12.78 14.433-21.39 49.314-22.87 68.317-1.96.722-4.18 1.684-6.14 2.406-1.23-40.894 28.03-114.263 65.65-132.785z"/>
    <path d="M1330.41 243.563c-14.26-7.457-28.52-16.839-37.62-25.017 8.36 2.886 17.7 5.051 29.51 5.292-4.92-3.849-12.3-12.028-21.89-16.117 6.4.481 12.79 1.443 19.18 3.849-7.13-4.812-14.26-7.458-21.88-9.863 16.23-1.443 32.21.481 48.44 7.216-13.53-12.508-28.03-22.371-44.01-28.866 15.98 2.165 30.73 6.495 44.25 13.23-10.08-7.216-28.76-19.484-39.83-22.852 8.36 1.203 16.72 3.127 25.57 6.735-7.13-7.938-14.75-12.989-22.62-16.357 8.36 1.203 18.44 5.533 29.75 12.268-9.83-12.028-20.65-18.282-32.21-20.688 13.53-1.202 28.03 1.203 45.74 12.99-12.79-13.23-26.07-25.017-41.56-31.993 12.79 3.127 25.82 8.9 38.6 16.598-10.32-12.268-21.39-23.574-34.91-30.791 9.84 3.368 19.42 7.938 28.77 14.193-9.1-8.901-18.69-16.117-28.77-22.131 10.57 2.646 22.87 7.698 36.39 14.193-12.79-8.179-25.33-16.117-32.7-25.018 4.18.722 8.85 1.684 14.26 3.608-8.11-4.81-13.52-10.103-16.72-15.876 11.31 2.886 22.37 7.938 32.95 13.711-12.05-8.419-23.12-17.079-30.49-27.182 7.13.962 15.49 3.608 25.08 8.66-7.87-6.976-15.25-14.433-21.15-22.853 5.17 3.127 11.07 6.255 18.2 8.42a94.747 94.747 0 01-13.03-15.877c6.63 3.849 13.52 6.495 21.14 8.179-9.1-5.773-16.47-11.787-23.11-18.282 10.08 4.33 20.65 10.103 31.72 18.763-7.38-10.103-14.76-19.966-22.13-30.07 9.59 6.977 17.7 15.396 24.59 25.98-2.96-15.154-7.63-28.866-14.27-41.615 8.61 10.103 15.25 23.093 20.41 38.729 5.17-15.395 11.8-28.626 20.41-38.729-6.64 12.75-11.31 26.701-14.26 41.616a104.554 104.554 0 0124.59-25.98c-7.38 10.103-14.51 19.966-22.13 30.07 11.06-8.66 21.63-14.434 31.72-18.764-6.64 6.254-14.02 12.509-23.12 18.282 7.38-1.684 14.51-4.57 21.15-8.179a95.237 95.237 0 01-13.03 15.877c7.13-2.165 13.03-5.292 18.19-8.42-5.9 8.42-13.52 15.877-21.14 22.853 9.83-5.052 17.95-7.698 25.08-8.66-7.13 10.103-18.44 18.763-30.49 27.182 10.82-5.773 21.63-10.584 32.94-13.711-3.19 5.773-8.6 11.065-16.71 15.876 5.65-1.924 10.08-3.127 14.26-3.608-7.63 8.901-20.17 17.079-32.71 25.018 13.53-6.495 25.82-11.547 36.39-14.193-10.08 6.014-19.42 13.23-28.76 22.131 9.34-6.495 18.93-11.066 28.76-14.193-13.52 7.217-24.58 18.523-34.91 30.791 12.79-7.457 25.82-13.471 38.6-16.598-15.49 6.735-28.77 18.763-41.55 31.993 17.46-11.787 32.21-13.952 45.73-12.99-11.31 2.165-22.13 8.66-32.21 20.688 11.56-6.735 21.39-11.065 29.75-12.268-7.86 3.368-15.49 8.419-22.62 16.357 8.85-3.608 17.21-5.532 25.57-6.735-10.81 3.368-29.5 15.636-39.83 22.852 13.53-6.494 28.28-10.824 44.26-13.23-15.98 6.495-30.73 16.358-44.01 28.866 15.98-6.735 32.21-8.419 48.44-7.216-7.38 2.165-14.76 5.051-21.89 9.863 6.4-2.406 12.79-3.368 19.18-3.849-9.83 4.089-16.96 12.268-21.88 16.117 11.8-.241 21.14-2.406 29.5-5.292-9.83 8.419-22.86 17.56-37.86 24.777 7.62-.963 15.49-1.444 23.11-1.444-9.34 4.09-16.47 6.255-21.64 6.976 10.82.962 20.9 2.887 29.51 6.255-17.21 1.443-34.92 2.646-51.14 2.405 10.08 3.608 20.9 6.736 33.44 7.938-11.32 1.925-24.35 1.444-39.1-1.683 12.54 8.659 26.06 14.673 39.83 18.763-13.52-.481-27.04-3.368-41.06-11.066 5.66 6.736 12.3 12.028 20.41 15.396-9.84-.963-19.18-4.571-27.29-12.509l-2.46 37.767-2.21-38.97c-8.61 8.901-18.2 12.749-28.28 13.712 8.11-3.368 14.75-8.66 20.41-15.396-14.02 7.698-27.54 10.585-41.06 11.066 13.77-4.09 27.29-10.104 39.83-18.763-14.51 3.127-27.54 3.608-39.1 1.683 12.54-1.202 23.36-4.089 33.44-7.938-16.22.241-33.93-.722-51.14-2.405 8.61-3.609 18.69-5.293 29.51-6.255-5.17-.721-12.05-2.886-21.64-6.976 8.85 0 17.21.481 25.57 1.684z"/>
    <path d="M1374.67 409.304c17.7-141.926-86.06-329.798-178.26-336.774 11.56 3.608 22.37 9.14 32.46 16.598-10.58-2.165-21.4-2.165-32.46-.481 10.82 1.443 21.64 3.127 32.46 4.57-13.04 1.684-24.1 4.571-34.18 8.179 8.36-.24 17.21-1.202 27.05-3.368-6.64 3.609-13.53 6.255-20.41 8.179 6.14 1.203 12.29 1.684 18.19 1.684-6.64 2.887-12.54 4.811-18.44 6.255 9.1 1.443 18.44 1.443 28.28.721-10.33 2.887-17.95 6.495-23.85 10.344 10.82 1.684 23.85 0 37.37-2.406-11.31 3.128-22.13 6.976-32.46 12.269 5.41 1.684 12.3 1.443 21.15-.722-5.41 2.165-9.34 4.571-13.03 6.735 10.33.722 24.09-1.924 38.11-5.051-13.77 4.33-25.82 8.9-35.65 13.952 10.82-2.406 21.88-4.089 33.44-4.33-10.58 1.924-20.17 5.052-29.51 9.141 14.26-3.849 28.52-3.849 43.03-3.127-13.77 3.368-26.8 7.697-38.36 13.952 15.49-5.533 31.72-6.495 48.44-6.495-19.67 3.849-31.96 11.546-41.8 20.447 10.08-5.533 21.39-8.419 35.41-7.217-12.3 2.887-22.38 6.495-29.51 10.825 7.87-2.646 16.23-4.33 25.82-4.089-8.85 3.368-16.23 7.457-23.11 11.787 10.08-4.811 30.98-8.901 42.29-10.825-13.77 4.571-27.29 11.065-40.82 19.725 15.74-6.013 31.97-9.141 48.93-9.862-15.73 6.014-29.26 14.914-41.06 25.739 6.88-3.368 14.02-6.254 21.88-7.698-6.39 2.406-11.8 5.773-16.96 9.622 9.83-3.608 19.42-3.127 25.32-3.849-9.09 7.217-17.45 11.547-25.57 15.155 12.54-.962 24.59-4.57 36.64-9.141-7.13 4.811-14.02 8.42-20.41 10.585 11.8 1.443 24.34-1.203 37.13-4.09-17.46 6.736-30 14.193-40.08 21.891 7.62-.963 15.49-2.165 23.85-3.368-6.15 2.886-10.57 5.292-13.03 7.457 9.83 1.203 20.9 0 32.7-2.165-12.79 5.533-24.83 12.268-34.42 21.89 5.9-.24 12.78-1.202 21.14-3.367-2.95 1.443-4.92 3.608-6.88 5.532 8.11-.962 17.7-3.849 27.53-6.495-12.53 6.255-23.6 12.509-31.47 18.763 6.64-.24 14.02-1.443 22.87-4.57-6.39 3.368-11.06 6.495-14.75 9.863 11.31-2.165 24.09-6.736 37.12-11.788-11.8 7.217-22.37 14.434-30.73 21.891 6.15-.722 12.79-2.887 20.41-6.014-8.85 4.57-14.51 9.141-19.67 13.471 10.08-2.165 22.37-7.457 35.89-14.674-10.08 7.217-19.67 14.193-25.81 21.409 6.14-3.367 13.03-7.697 20.9-13.471-8.12 7.217-15.49 14.193-21.64 20.929 10.08-2.406 22.13-6.976 35.41-12.028-10.82 5.292-21.39 10.584-29.02 16.117 5.9-.722 12.79-2.406 20.66-5.052-6.4 3.368-13.77 8.42-19.43 12.509 10.82-3.127 22.62-8.419 34.67-14.193-10.33 9.141-20.65 17.32-30.98 23.815 6.89-2.405 14.02-5.532 20.9-9.862-5.66 6.013-10.82 10.343-15.98 13.23 9.34-1.203 20.16-5.773 31.47-10.825-8.85 7.457-17.7 14.433-27.05 19.244 6.4-1.924 13.28-4.57 20.66-8.419-4.18 5.052-8.85 9.622-14.02 12.268 4.67-.24 9.84-1.924 15.74-4.811-4.18 5.773-8.36 9.622-12.54 12.268 6.15-1.924 13.52-6.735 21.14-11.787-6.14 7.217-12.29 13.712-18.44 18.523 5.41-1.925 12.3-5.052 18.2-8.901 1.23 15.877-.49 28.145-2.21 42.097 1.72 1.924 3.44 3.608 4.91 5.533 1.23-1.444 2.95-2.646 4.43-3.849z"/>
    <path d="M1369.01 379.475c-21.88-146.256-159.57-259.316-240.95-132.785 10.08-10.825 21.14-19.244 32.21-27.904-9.84 8.179-18.2 18.523-24.84 28.385 10.58-8.419 21.39-18.763 31.97-29.107-4.43 6.976-9.35 13.471-14.76 19.726 12.3-9.863 24.1-22.612 35.9-35.121-10.32 12.509-20.41 25.017-27.78 36.083 7.87-8.66 15.73-17.32 23.6-25.739-4.92 6.976-10.08 13.711-15 20.687 7.38-7.697 15.49-14.192 24.59-19.484-6.39 8.178-10.82 15.395-12.78 21.649 4.67-6.735 9.83-13.471 18.68-19.725-1.23 11.306-3.93 21.409-9.34 29.828 5.65-5.532 10.57-11.546 15-18.041-2.46 7.217-5.66 13.952-9.59 20.688 2.7-2.887 5.65-5.533 7.87-9.623-2.46 5.774-3.45 10.585-3.45 14.674 3.45-6.735 13.04-14.192 19.43-17.801-7.13 5.533-12.54 11.547-16.23 18.042 7.38-8.901 24.83-18.523 36.14-19.245-5.16 8.901-11.06 15.155-17.45 20.447 9.83-4.57 18.93-11.065 27.04-19.003-4.18 6.495-9.09 12.749-14.5 18.522 8.6-1.684 16.72-5.051 24.34-9.622-3.94 3.849-8.12 7.698-13.53 10.585 5.66-.963 10.82-2.887 15.25-5.774-5.41 5.774-9.34 11.547-12.05 17.801 7.13-6.976 17.21-12.99 21.88-14.192-3.68 5.292-6.63 10.343-8.6 15.154 3.69-3.127 7.13-6.735 9.83-11.065-.98 3.849-2.7 7.938-5.41 12.028 3.45-2.646 6.64-6.014 9.35-10.344-2.22 7.216-5.9 13.23-10.58 18.522 5.17-4.811 11.31-10.584 15.99-17.079 0 7.457-.74 15.155-6.89 22.372 3.94-1.203 21.15-13.471 24.83-18.523-5.65 7.457-12.29 14.914-21.39 21.65 4.43-2.165 8.86-4.571 13.53-8.179-3.2 4.33-6.89 8.179-11.31 11.306 8.6-1.924 16.22-6.976 23.35-13.712-3.19 7.458-7.13 14.674-13.52 20.447 6.64-1.924 13.03-4.811 19.18-10.584-3.2 4.33-6.64 8.179-10.57 11.306 3.93-2.405 7.87-4.811 11.8-6.976-4.43 6.014-7.62 11.547-9.84 16.839 4.92-4.09 10.09-7.698 15.99-10.825-5.17 4.811-8.61 9.863-10.82 15.155 5.9-5.533 13.77-10.103 23.85-13.712-2.46 8.179-6.4 14.914-13.03 19.966 5.9-1.203 11.8-3.368 17.21-7.938-2.22 6.254-5.17 12.268-10.08 17.56 4.67-2.165 8.85-5.051 12.29-8.9-3.44 5.051-7.13 9.622-11.8 13.23 6.64-2.165 12.54-5.533 18.19-9.862-5.9 6.494-10.57 13.23-13.03 19.725 4.18-4.571 8.85-8.66 15-12.509-3.2 3.368-5.41 6.495-6.88 9.863 1.96-3.127 8.11-7.457 12.53-9.863 5.66 17.56 9.84 34.88 13.04 54.846.98-1.443 4.42-2.887 6.14-3.849zM1373.44 401.847c49.42-139.761 206.04-225.879 262.1-86.599-7.87-12.268-17.21-22.612-26.31-33.196 8.12 9.862 14.26 21.649 18.93 32.474-8.85-10.103-17.45-22.131-25.81-34.399 2.95 7.698 6.64 14.914 10.82 21.891-10.08-11.788-19.18-26.702-28.53-40.894 7.63 14.192 15.25 28.385 20.41 40.412-5.9-9.862-12.05-19.725-18.19-29.588 3.44 7.698 7.13 15.396 10.57 23.093-5.65-8.9-12.54-16.838-20.41-23.814 4.67 9.141 7.62 17.079 8.61 23.574-3.44-7.457-7.13-15.155-14.75-22.612-.99 11.306 0 21.89 3.44 31.031-4.43-6.495-8.36-13.23-11.31-20.206 1.23 7.457 2.95 14.914 5.65 21.89-2.21-3.127-4.42-6.495-5.9-10.825 1.23 6.014 1.48 11.066.49 15.155-1.96-6.976-10.08-16.358-15.73-20.928 5.9 6.976 10.08 13.711 12.54 20.688-5.41-10.104-20.66-22.853-31.72-25.499 3.44 9.622 8.11 16.839 13.28 23.334-8.85-6.255-16.23-14.434-22.87-23.815 2.95 6.976 6.64 13.952 10.82 20.928-8.36-3.368-15.49-8.179-22.13-13.952 3.2 4.57 6.39 8.9 11.31 12.99-5.41-2.165-10.08-4.811-13.77-8.42 4.18 6.495 6.89 13.231 8.61 19.726-5.66-8.179-14.51-15.877-18.69-18.042 2.71 5.774 4.67 11.547 5.66 16.358-3.2-3.849-5.66-7.938-7.63-12.509.25 4.089 1.23 8.179 3.2 12.749-2.95-3.127-5.41-6.976-7.13-11.787.74 7.457 3.2 13.952 6.88 20.207-4.18-5.774-9.09-12.509-12.29-19.726-1.47 7.458-1.97 14.915 2.46 23.334-3.69-1.684-18.2-17.079-20.9-22.612 4.18 8.419 9.34 17.079 16.97 25.258-3.94-2.887-7.87-6.014-11.81-10.584a47.249 47.249 0 008.86 12.99c-8.12-3.609-14.51-9.863-20.17-17.561 1.48 8.179 4.18 15.636 9.1 22.372-5.9-3.127-11.8-7.217-16.72-13.952 2.21 4.811 4.92 9.141 8.36 12.989-3.44-3.127-6.88-6.013-10.33-9.141 3.2 6.736 5.41 12.99 6.64 18.282-3.93-4.811-8.36-9.381-13.52-13.47 3.93 5.532 6.64 11.306 7.87 16.838-4.92-6.735-11.8-12.509-20.66-17.801.74 8.42 3.45 15.877 9.1 21.891-5.65-2.165-11.06-5.533-15.24-10.825.98 6.495 2.95 12.99 6.64 19.003-4.18-3.127-7.63-6.495-10.58-10.824 2.22 5.532 5.41 10.584 8.86 15.154-5.91-3.367-11.32-7.457-15.99-12.989 4.67 7.457 8.12 14.914 9.1 21.89-3.2-5.052-7.13-10.103-12.29-14.914 2.46 3.848 3.93 7.457 4.91 11.065-1.47-3.608-6.63-8.9-10.32-12.028-9.1 16.117-16.23 32.234-23.11 51.238-2.95-1.924-6.15-4.089-7.38-5.292z"/>
    <path d="M1373.44 387.654c-35.16-152.992 73.02-348.08 216.12-279.522-15.73-3.849-31.72-4.811-47.7-6.014 14.26 1.443 28.03 6.014 39.34 11.306-15.49-1.203-31.47-4.09-47.7-7.457 7.63 3.848 15.99 6.976 24.59 9.381-17.7-1.443-36.14-6.254-54.58-10.344 16.72 5.293 32.94 10.825 45.73 16.599-12.29-3.128-24.59-6.495-36.88-9.623l25.08 10.104c-11.56-2.646-23.11-3.609-35.65-2.887 10.32 3.608 18.44 7.698 23.11 12.268-8.12-3.368-16.72-6.495-29.02-6.735 5.91 10.103 13.28 17.801 22.63 22.371-8.61-1.684-16.72-4.089-24.1-7.457 5.65 5.292 12.29 9.622 19.18 13.471-4.18-.722-8.61-1.684-12.79-4.089 5.17 3.848 8.12 7.938 10.08 11.787-6.64-4.09-20.65-5.292-29.26-4.571 10.33.722 18.94 3.127 25.58 6.736-11.81-3.849-35.41-1.925-48.44 4.811 9.34 5.051 18.68 7.457 27.78 8.419-12.78 1.924-25.57 1.443-38.11-.962 7.38 3.368 15.49 6.254 24.1 8.419-10.58 3.849-20.9 5.533-31.23 6.255 6.15.962 12.29 2.165 19.42 1.443-6.88 2.646-13.27 4.089-19.17 4.089 8.36 1.925 15.24 5.052 20.9 9.141-10.82-1.924-24.59-1.202-30.25.241 6.4 2.886 11.81 5.773 15.74 8.9-5.41-.721-10.82-1.924-15.49-4.089 2.7 3.127 6.15 5.773 11.06 7.938-4.91-.24-9.83-1.443-14.5-3.849 5.16 5.292 12.05 8.66 19.42 10.825-7.87-1.203-16.96-2.886-24.83-6.254 3.19 7.216 7.13 13.711 16.96 17.079-4.67 1.443-29.26.481-35.65-1.684 9.59 3.609 20.16 6.495 32.7 7.217-5.9.721-11.8 1.443-18.44.721 5.41 2.165 11.07 3.368 17.21 3.368-10.57 3.608-21.14 3.608-31.71 1.684 6.63 5.292 14.01 9.382 23.35 10.825-8.11 2.165-16.47 3.608-25.81 2.165 5.41 2.165 10.82 3.608 16.47 3.849-5.41.24-10.57.481-15.98.721 7.38 2.887 13.52 6.255 17.95 9.622-7.13-.721-14.51-.721-22.38 0 7.63 1.444 13.53 3.849 18.44 7.458-8.85-1.684-19.67-.722-32.21 1.924 5.91 6.254 13.28 10.103 22.62 10.584-7.13 2.647-14.5 4.09-22.37 3.368 4.92 4.571 10.82 8.179 18.44 10.344-6.15.722-12.05.722-17.46-.481 5.9 2.886 12.05 4.57 18.44 5.292-8.11 2.165-16.22 2.887-24.34 2.165 9.35 2.405 17.21 5.773 22.62 10.584-6.64-1.684-13.52-2.646-21.88-2.405 4.92.962 8.61 2.886 11.8 5.051-3.69-1.684-12.29-1.924-17.95-1.683.74 20.446 3.2 39.45 7.63 60.378-1.97.241-6.4 1.203-8.61 1.203z"/>
    <path d="M1370.73 358.066c-27.53-91.651 41.8-189.796 140.89-133.266-10.82-4.09-21.64-6.495-32.7-9.141 9.83 2.646 19.18 6.976 27.05 11.306-10.58-2.406-21.64-6.255-32.71-10.103 5.41 3.127 11.07 5.773 16.97 8.419-12.05-3.127-24.83-7.938-37.37-12.509 11.55 5.052 22.86 10.103 31.47 15.155-8.36-3.368-16.97-6.736-25.33-10.103 5.66 2.886 11.56 5.773 17.46 8.9-7.87-2.886-15.98-5.051-24.34-6.014 7.13 3.368 12.78 6.736 15.98 9.863-5.65-2.887-11.56-5.773-19.92-7.457 4.18 6.495 9.35 11.787 15.99 15.636-5.9-1.925-11.56-4.33-16.72-7.217 3.93 3.609 8.6 6.976 13.52 10.103-2.95-.962-5.9-1.924-8.85-3.848 3.44 2.886 5.65 5.532 7.13 7.938-4.43-3.127-14.02-5.533-19.92-6.254 7.13 1.683 12.79 4.089 17.46 6.976-8.11-3.609-24.1-5.293-32.95-3.128 6.4 4.09 12.79 6.495 19.18 8.179-8.85-.481-17.46-2.405-26.06-5.292 5.16 2.887 10.57 5.292 16.72 7.698-7.13.962-14.02.721-21.15-.241 4.18 1.443 8.36 2.646 13.28 3.127-4.67.722-9.1.722-13.03 0 5.65 2.165 10.33 4.811 14.51 7.939-7.38-2.406-16.97-3.609-20.66-3.609 4.43 2.406 8.12 4.571 10.82 6.976-3.69-.962-7.38-2.405-10.57-4.33 1.97 2.165 4.42 4.09 7.62 5.774-3.44-.722-6.64-1.925-10.08-3.849 3.69 3.608 8.36 6.495 13.52 8.66-5.41-1.684-11.55-3.609-16.96-6.495 2.21 4.57 5.16 8.66 11.8 11.787-3.2.24-19.92-3.368-24.34-5.292 6.64 3.367 13.77 6.254 22.62 8.178-3.94-.24-8.12-.481-12.54-1.683 3.69 1.924 7.62 3.127 11.8 4.089-7.13.722-14.26-.481-21.39-2.887 4.67 3.849 9.83 6.976 15.98 8.901-5.41.24-11.06 0-17.46-1.925 3.69 1.925 7.38 3.368 11.31 4.33-3.68-.481-7.37-1.202-10.81-1.684 5.16 2.647 9.34 5.052 12.54 7.698a142.248 142.248 0 00-15.25-2.886c5.16 1.683 9.34 3.848 12.79 6.494-6.15-1.924-13.53-2.886-21.89-2.646 4.18 4.09 9.1 7.458 15.74 8.901-4.92.481-9.84.481-15.24-.722 3.44 3.127 7.62 6.014 12.78 8.179-4.18-.241-8.11-.962-12.05-2.406 3.94 2.165 8.36 4.09 12.79 5.293-5.41.24-11.07-.241-16.72-1.684 6.39 2.405 11.8 5.292 15.74 8.66-4.43-1.684-9.1-3.128-15-3.849 3.44 1.203 5.9 2.646 8.11 4.33-2.46-1.444-8.36-2.406-12.29-3.127.73 11.787 2.95 22.852 6.64 35.361-1.23-.722-4.18-.962-5.91-1.203z"/>
  </g>
  <g style="mix-blend-mode:color-burn" opacity=".05" fill="#000" fill-opacity=".75">
    <path d="M1252.73 84.622s-15.18-1.706-25.42-1.385c-10.25.32-20.42-50.504-20.42-50.504l6.97-14.138 38.87 66.027z"/>
    <path d="M1217.73 37.579s-6.22 2.496-.86 17.668a994.54 994.54 0 0010.46 28.227s-16.64 4.597-20.69-9.042c-4.05-13.638-6.41-34.49-14.3-33.78-7.75.752-13.9 10.516-3.82 26.031 10.08 15.515 9.99 18.372 9.99 18.372l-9.24-1.47s-26.11-7.21-28.05-36.722c-1.94-29.513 11.68-67.193 11.68-67.193l19.94 8.667 24.89 49.242z"/>
    <path d="M1180.96-13.9s-8.78 17.388-10.6 45.594c-1.83 28.206 7.18 45.995 18.82 52.007 0 0-36.15.293-41.33-29.036-5.13-29.244 12.51-52.252 12.24-62.114-.26-9.861-6.11-25.892-15.41-17.105-9.25 8.872-15.84 22.931-11.85 55.83 3.99 32.9 9.21 36.004 1.49 31.563-7.72-4.441-20.42-12.121-24.22-16.68-3.8-4.559-9.36-23.667 2.22-48.206s24.97-54.002 24.42-71.69c-.55-17.69 22.9 2.337 22.9 2.337l21.32 57.5z"/>
    <path d="M1148.9-72.455l-19.62-34.186-35.39 32.369-26.02 29.507-1.34 55.976s14.46 22.938 19.17 11.026c4.76-11.825 6.13-29.563 6-45.584-.2-15.976 29.77-44.042 32.11-22.477s-7.26 28.72-15 44.196c-7.61 15.517-12.68 33.585 1.63 48.168 0 0-6.45-18.76.12-33.824 6.58-15.065 39.19-62.235 38.34-85.17z"/>
    <path d="M1131.6-106.274s-8.38-22.881-9.72-29.352c-1.34-6.471-52.2-5.378-66.55 5.721-14.36 11.098-25.63 24.564-24.99 41.659.63 17.095 16.04 65.395 16.66 57.631.54-7.719 8.82-37.672 20.43-57.51 11.61-19.839 43.58-26.377 38.16-11.94-5.42 14.438-18.05 20.09-31.85 32.911-13.8 12.82-26.87 47.412-7.15 78.394 0 0 .01-41.75 11.61-59.336 11.52-17.541 48.56-33.703 53.4-58.178zM1252.92 84.568s-46.02-53.428-50.66-64.156c-4.64-10.728 30.87 1.236 31.34 1.314.48.077 30.04 20.46 30.46 21.014.43.555 12.86 18.49 5.24 26.81 0 0-.3 3.987-4.43-5.67-4.13-9.656-25.19-25.916-22.13-15.677 3.07 10.239 5.27 6.001 11.51 14.06 6.23 8.06 3.69 24.288-1.33 22.305z"/>
    <path d="M1202.33 20.388s-28.46-41.776-34.49-55.68c-6.03-13.904 24.47 12.821 32.28 11.593 7.8-1.229 59.15 13.553 59.15 13.553s22.88 24.143 23.18 24.657c.24.428 3.01 10.716 1.17 15.769-1.84 5.053-2.42 8.742-3.95 9.463-1.61.765-6.62-24.71-25.82-25.69-19.14-.893.64 13.703 10.27 19.233 9.64 5.53 13.38 20.904 11.15 26.398-2.24 5.493-5.8 9.8-5.8 9.8s6.09-17.377-11.61-27.946c-17.72-10.44-38.83-26.223-55.53-21.15z"/>
    <path d="M1145.57-80.255s18.57 38.212 24.67 49.047c6.11 10.835 28.69 9.975 51.35 14.914 22.67 4.939 46.85 11.19 53.87 25.687 7.02 14.496 8.39 20.833 8.39 20.833s9.13-20.168-5.36-39.804c-14.5-19.635-37.79-26.596-57.6-22.976-19.81 3.62-35.96-10.27-27.02-21.563 8.94-11.291 42.17-6.163 66.44 19.044 24.21 25.122 28.78 34.774 28.78 34.774l-.01-15.624-7.5-35.825s-54.01-30.444-58.59-29.406c-4.61 1.17-77.42.9-77.42.9z"/>
    <path d="M1147.44-76.155s-19.92-27.585-22.32-46.628c-2.4-19.043 83.54-6.253 83.54-6.253s38.08-8.425 57.9 18.99c19.82 27.414 17.76 38.663 17.76 38.663s-6.17-13.388-32.86-26.259c-26.68-12.87-99.35-5.914-77.99 6.711 21.37 12.625 47.32-.98 63.59 2.954 16.32 4.02 42.14 16.691 48.29 29.3 6.1 12.524 3.93 42.95 3.93 42.95s-7.26-32.585-32-46.964c-24.75-14.38-62.24-7.178-85.81-5.78-23.56 1.397-24.03-7.684-24.03-7.684z"/>
    <path d="M1253.22 84.597c-3.15-2.88-6.1-5.98-9.06-9.079l-2.21-2.379-2.14-2.423c-1.44-1.572-2.87-3.144-4.28-4.847-2.79-3.189-5.46-6.553-8.22-9.872-1.35-1.617-2.67-3.364-3.95-5.026-1.27-1.661-2.67-3.364-3.86-5.07-10.29-13.68-19.82-27.892-28.73-42.548-2.19-3.632-4.42-7.35-6.52-11.027l-6.27-11.161c-1.08-1.881-2.03-3.722-3.02-5.648l-2.93-5.692c-1.94-3.767-3.93-7.619-5.87-11.385-7.77-15.282-15.95-30.34-24.16-45.267-4.17-7.484-8.26-15.013-11.84-22.595-3.63-7.667-6.6-15.476-8.35-23.61l-.56-3.057c-.16-1.034-.41-2.023-.57-3.057l-.84-6.163c-.35-4.185-.87-8.28-1-12.468-.12-2.072-.23-4.144-.25-6.261l-.12-6.219-.21-12.569c-.39-16.844-1.42-33.675-2.96-50.454-1.59-16.865-3.64-33.591-6.5-50.432l-5.56.794c3.09 16.491 5.35 33.213 7.14 49.858 1.78 16.645 3.06 33.342 3.61 50.096l.42 12.565.17 6.306c.03 2.116.27 4.229.38 6.301.19 4.274.75 8.454 1.15 12.724l.94 6.334c.16 1.034.45 2.109.62 3.143l.69 3.098c1.9 8.39 5.19 16.582 9.03 24.245 3.81 7.794 8.07 15.233 12.32 22.673 8.51 14.879 16.8 29.762 24.82 44.91 1.94 3.766 4.01 7.573 6.03 11.295l2.76 5.782c1 1.926 2.02 3.721 3.1 5.603l6.41 11.202c2.18 3.632 4.49 7.305 6.68 10.937 9.08 14.567 18.85 28.645 29.38 42.19 1.32 1.747 2.68 3.364 3.95 5.026 1.35 1.617 2.67 3.364 4.03 4.98 2.76 3.32 5.46 6.554 8.38 9.784a88.707 88.707 0 004.36 4.802l2.22 2.378 2.17 2.294c2.95 3.1 5.99 6.154 9.22 8.99z"/>
  </g>
  <path fill-rule="evenodd" clip-rule="evenodd" d="M-230.098 934.541l27.413-13.41 7.66-23.665-1.613-43.386 2.822-37.074-4.434-44.569 4.434-29.581-6.047-54.823 9.272-31.159-10.481-44.568 14.916-34.314-13.707-54.824 10.885-26.819-12.094-29.581 22.575-41.414-8.869-22.481 5.644-6.705-1.209-.395c-13.707 2.761-31.848 8.283-54.02 22.876 9.272 37.075 14.916 69.022 15.722 91.504-2.822-3.155-5.241-14.593-8.063-24.454 4.435 26.82 4.032 52.457 3.225 69.417-6.047-13.41-10.884-35.892-15.319-63.895 1.613 33.525 1.209 61.923-4.031 77.305-4.435-16.96-3.628-43.385-2.016-72.572-3.225 37.864-6.853 71.389-14.11 85.193-2.419-16.565 0-39.047 2.419-61.528-3.225 22.481-7.659 42.202-13.303 57.19-.404-18.538 2.418-38.653 6.45-58.373-8.869 22.087-17.738 43.779-27.817 54.428 2.016-18.537 9.676-38.258 16.529-57.978-6.853 17.354-13.304 36.286-23.382 46.146 2.016-22.876 9.675-42.596 16.529-62.317-6.047 11.043-12.094 22.087-20.56 27.214 4.031-14.593 11.288-24.848 18.141-35.102-11.691 12.621-23.785 24.453-38.701 27.214 8.466-16.96 19.753-28.792 31.444-39.835-8.869 7.888-17.738 15.776-28.219 17.354 6.45-14.988 16.125-23.271 25.801-31.948-10.079 3.155-20.157 3.55-30.236-.394 9.676-7.1 19.351-9.072 29.429-10.255-7.659 0-15.319-.789-23.785-3.155-2.419 6.31-4.837 11.832-7.659 16.96-1.613-3.945-1.21-11.438-.403-19.327-.807-.394-1.21-.394-2.016-.788-9.272 25.636-22.979 46.146-33.46 60.345-2.419-19.327 2.822-46.936 12.9-79.277-17.738 35.102-35.879 63.106-54.827 72.966 2.822-21.298 19.754-47.33 40.717-74.544-28.623 34.314-56.036 64.289-76.596 70.6 5.644-19.326 24.188-39.047 42.33-59.162-19.754 18.932-39.105 34.314-58.052 43.385 10.482-19.326 27.816-35.891 47.167-52.062-28.623 13.016-57.245 25.637-81.03 26.426 14.916-16.171 40.313-28.398 63.695-41.019-22.576 10.254-45.151 22.876-68.533 22.087 17.335-21.299 42.732-32.736 66.921-45.358-17.335 5.128-34.267 10.255-52.408 5.917 16.125-10.65 34.67-13.805 53.214-16.566-28.22.789-56.439 0-83.449-11.832 24.994-8.283 51.601-9.072 78.611-8.283-20.157-1.183-40.313-2.366-58.858-11.043 20.56-8.283 42.33-6.705 64.099-5.522-18.947-7.1-36.685-16.96-52.005-31.159 17.738 2.367 33.864 8.283 48.78 15.777 0-.395.403-.395.403-.789-8.466-5.127-16.932-11.044-24.994-17.749-4.838 1.184-9.273 1.972-13.304 2.367 1.613-2.761 4.031-5.128 6.45-7.888-4.837-3.945-9.675-8.283-14.513-12.622-8.465 1.578-16.125 2.367-22.172 1.184 3.628-3.55 7.659-7.1 12.497-10.255-.403-.394-1.209-.789-1.612-1.578.806.395 1.612.395 2.418.789 14.11-9.071 32.654-16.565 51.199-23.665-26.204 8.677-50.796 13.805-71.759 13.805 18.142-12.621 41.12-20.115 65.712-26.031-31.445-.789-62.89-1.973-84.659-11.438 20.56-8.283 48.779-7.889 75.79-9.072-24.995-.789-50.796.789-71.759-9.86 24.995-11.438 53.214-10.649 80.628-11.438-17.738-3.155-35.073-5.916-49.586-17.354 18.947-2.367 37.088 2.761 54.826 7.888-25.8-11.438-50.795-24.454-69.339-46.935 26.204 3.55 50.392 14.199 73.774 26.82-17.738-9.86-35.073-19.721-47.973-35.497 22.172 1.183 40.716 11.832 59.664 22.481-13.707-14.593-24.995-31.158-32.654-50.484 17.738 11.437 30.638 26.425 41.926 42.202-14.11-21.299-25.801-46.147-35.476-74.15 17.335 17.749 33.46 36.286 47.973 57.19-8.466-14.988-16.528-31.553-22.979-50.88 16.932 16.172 30.639 33.526 41.927 52.852-6.451-16.565-11.288-33.919-13.304-52.851 13.304 17.748 22.576 36.68 30.235 56.006-5.241-20.115-8.466-40.624-8.062-61.923 10.884 20.51 18.141 42.203 22.575 64.684-2.419-16.96-4.837-33.919-2.419-51.668 8.063 12.227 11.691 25.243 14.513 38.258-1.612-22.087.403-44.569 4.032-67.05 12.094 37.469 17.334 75.333 18.141 113.591 1.612-14.593 6.047-27.609 12.9-39.441 1.21 12.226.806 24.453-.403 36.286 19.754 5.916 36.685 18.931 53.617 30.764-10.481-11.044-20.963-21.693-24.994-37.075 14.513 7.888 23.785 20.509 33.46 33.131-11.288-20.904-21.769-42.203-22.576-67.051 16.126 15.777 27.01 35.103 36.686 55.613-6.854-15.777-13.707-31.159-14.11-48.513 14.513 12.227 21.769 28.792 29.026 45.752-1.613-16.96-.807-33.92 4.031-50.879 6.047 16.959 6.853 33.525 6.45 50.09 1.21-22.087 6.45-44.963 14.513-69.022 2.419 20.904 3.628 41.807 2.822 63.5a267.75 267.75 0 0110.482-45.357c-7.257-29.187-16.932-53.64-30.236-69.417-25.8 26.82-48.376 46.146-65.308 53.246 1.613-6.311 9.676-13.805 16.529-21.299-19.351 14.988-38.701 20.51-52.005 22.876 8.466-14.987 24.189-29.975 44.345-45.357-24.994 11.438-47.167 17.749-60.47 11.043 11.691-12.226 31.848-18.142 54.827-22.087-29.429 3.156-56.44 4.339-68.937-5.916 12.094-9.071 30.235-9.466 47.973-10.649-18.141-.789-34.266-4.338-47.167-11.438 14.11-5.522 30.236-4.733 46.361-1.972-19.35-11.438-38.298-22.876-49.182-39.441 14.512-.789 31.847 9.071 48.779 16.96C-301.05 2.544-317.579-4.95-328.06-21.91c18.141-2.366 35.073 7.889 52.004 16.566-10.078-8.677-20.156-17.354-26.607-33.13 12.094 4.338 22.173 14.987 31.848 26.425-12.9-19.72-25.397-39.836-31.444-67.445 15.319 12.227 27.816 30.37 39.507 50.09-8.466-14.987-16.932-30.37-21.366-49.3 13.303 8.676 22.575 25.241 31.444 41.412-5.241-18.537-8.062-37.863-8.466-58.373 8.063 16.96 12.498 35.498 16.126 54.035-3.628-24.848-5.241-52.062-4.435-81.643 6.451 22.481 12.094 45.751 16.126 70.205-2.016-16.96-2.822-35.497-2.419-55.612 6.45 20.51 11.288 41.808 13.707 63.5 0-17.748.806-35.497 4.434-53.64 4.032 21.298 5.241 42.202 5.241 63.106 1.209-20.51 4.434-41.019 9.272-60.74 2.016 22.876 1.209 45.752-1.209 68.628 2.418-16.565 4.837-33.525 10.481-49.301 2.016 14.593 1.21 27.609 0 41.019 4.032-21.299 10.885-41.414 18.141-61.529-1.209 39.047-6.853 76.516-15.319 112.408 4.435-13.016 10.079-24.06 17.335-32.342-5.241 28.003-14.916 52.851-24.994 77.7 19.35 28.397 31.847 63.5 40.313 101.363 2.016-3.944 2.822-7.888 5.241-11.832 0 10.255 3.628 20.115-4.435 29.975v.395c8.063 1.183 3.629 2.761 4.838 3.944 1.209-2.367 3.225-4.733 4.838-7.1v-3.155c.403.394 1.209.789 1.612 1.183 1.613-2.761 3.628-5.521 5.241-7.888-.403-2.761-1.209-5.127-1.613-7.494l3.629 4.733c1.612-2.366 3.628-5.127 5.24-7.494a61.698 61.698 0 01-2.418 11.833c2.418 3.549 4.434 6.705 6.45 10.649l2.822-2.761c-1.21-7.099-2.419-14.593-2.419-22.087 6.047 9.466 10.078 19.326 13.303 29.186l.404-.394c-1.21-13.016-1.21-26.031.806-39.441 3.628 10.649 6.047 20.904 7.659 30.764l.404-.394c-.404-14.594.403-28.793 2.015-42.597 6.047 17.749 9.675 34.708 10.885 50.485-.403-12.227.403-24.454 4.837-37.075 3.629 12.621 4.435 25.242 3.226 37.469 5.24-11.438 10.078-22.876 19.35-31.553 6.45-12.621 13.304-23.665 19.754-32.736-14.916-24.848-30.235-49.696-37.895-77.7 10.885 8.678 19.754 19.327 26.204 32.343C-70.86 36.463-79.325-.612-81.341-39.659-70.053-19.543-59.975.966-53.525 21.87c-2.015-13.015-2.821-26.425 0-41.019 8.87 15.777 12.498 32.342 16.126 49.302-4.031-22.482-4.838-45.357-2.016-68.628 7.66 19.72 12.094 40.23 14.513 60.74.403-20.904 2.419-41.808 8.466-63.106 5.24 18.143 6.45 36.286 6.45 53.64 3.628-21.693 10.482-42.991 20.56-63.5.806 20.114-.806 38.652-3.628 55.612 6.047-24.454 14.916-47.724 24.591-70.206.806 29.581-1.21 56.796-6.853 81.644 5.24-18.538 11.69-37.075 24.591-54.035 0 20.51-4.837 39.836-12.497 58.373 14.11-16.17 27.816-32.736 47.973-41.413-6.45 18.932-19.35 34.314-32.25 49.301 17.737-19.72 36.685-37.863 60.067-50.09-9.273 27.609-28.22 47.724-48.377 67.445 14.916-11.044 29.832-22.088 48.78-26.426-9.272 15.776-24.995 24.453-40.314 33.13 25.8-8.677 52.005-18.931 79.418-16.565-15.722 16.96-40.717 24.454-63.696 33.525 25.398-7.888 52.005-17.748 74.177-16.96C146.028 69.2 116.599 80.639 87.17 92.077c24.994-2.761 49.183-3.55 70.952 1.972-19.754 7.099-44.345 10.255-72.161 11.438 11.69.394 23.381.789 34.266 1.577l.403-.394v.789c14.513 1.183 28.22 3.55 38.701 8.677-8.869 5.127-22.978 7.494-40.313 7.888-.403 3.55-.807 6.705-1.21 10.255 4.838 1.577 9.272 3.55 13.304 5.522l1.209-1.184c0 .789 0 1.184-.403 1.972 2.016 1.184 4.032 2.367 5.644 3.55-2.016.789-4.031 1.183-6.047 1.578-2.419 14.987-8.063 28.792-13.707 42.596 9.272-20.903 21.77-40.624 37.089-57.978-4.838 20.509-12.901 39.835-22.576 58.373 12.094-16.96 25.398-33.525 42.733-47.724-6.047 17.748-14.916 33.525-24.995 48.118 15.319-16.171 33.057-29.975 53.214-41.808-10.884 17.355-22.575 31.553-34.67 44.569 18.948-16.96 39.508-31.553 60.068-44.963-15.723 24.848-33.057 46.541-52.005 63.895 14.916-12.621 30.639-24.454 50.795-31.553-11.691 16.96-26.607 30.37-43.538 41.808 20.963-5.917 41.926-11.833 63.695-8.283-16.125 12.227-35.476 17.749-54.826 23.27 25.8-6.705 52.004-11.438 78.208-9.071-23.382 17.748-50.795 24.453-78.612 29.975 18.948-1.183 37.492-1.972 55.633 4.733-16.931 7.888-34.669 6.705-52.407 5.522 26.607 6.705 53.617 12.621 75.386 29.581-22.576 5.522-47.57-1.972-71.758-6.705 25.801 7.494 53.214 13.41 71.355 26.031-23.382 4.733-54.02-1.578-85.062-7.888 22.173 11.438 43.136 24.059 57.649 40.23-20.157-4.733-42.733-15.382-66.518-29.581 22.173 15.382 44.748 30.764 54.424 48.513-21.77-1.972-54.827-24.848-90.706-52.063 26.607 22.087 49.183 43.78 56.842 63.895-20.963-5.522-44.748-28.792-70.146-59.162 16.932 29.187 28.623 54.823 30.639 74.544-12.094-10.255-27.817-24.848-41.926-44.569-1.21 0-2.822.395-4.435.395 1.613 5.127 2.822 9.86 2.016 13.015-3.225-3.944-6.853-8.282-10.079-13.015-18.947-1.578-45.554-11.044-74.177-22.087 20.56 9.071 39.105 18.537 52.005 28.792 2.016-.789 4.031-1.183 6.45-1.972-1.21 1.183-2.822 2.366-4.031 3.549 3.225 2.761 6.047 5.917 8.466 8.678-4.838 0-10.482-.789-16.126-2.367-6.047 4.733-12.094 9.466-18.544 13.805.806 1.577 2.016 3.155 2.822 4.733 4.838-.789 9.675-1.578 14.916-1.578-11.691 10.255-25.398 16.171-39.104 22.481 18.544-7.494 37.895-12.226 58.454-14.199-15.722 10.255-32.25 17.355-49.585 22.876 17.738-3.549 36.282-5.916 55.632-4.733-14.915 7.494-29.832 11.833-45.15 14.988 19.35-.789 38.7.789 58.454 5.128-17.335 4.338-33.46 6.31-48.376 7.493 22.172.395 43.538 3.156 64.501 7.494-24.994 6.311-48.779 9.466-71.355 9.072 16.932.789 33.864 2.761 50.796 10.254-17.739 3.55-35.073 3.156-52.408.395 16.528 8.677 33.057 16.96 44.345 31.947-17.335-1.972-33.057-9.466-48.377-17.354 20.157 11.044 39.508 23.27 54.021 39.836-25.398-2.761-46.361-14.593-66.92-27.215 12.093 10.255 24.59 20.51 31.444 35.103-15.32-4.733-25.398-16.171-35.88-27.214 12.095 19.72 25.398 39.046 28.623 62.317-17.335-9.861-28.22-28.792-40.313-46.147 11.287 19.721 24.994 39.442 28.22 57.979-17.336-10.649-32.252-32.342-47.57-54.429 6.853 20.115 12.093 39.836 11.287 58.373C6.14 561.427-1.117 542.1-7.164 519.224c4.032 22.482 8.466 44.963 4.031 61.529-12.497-13.41-18.947-47.33-24.59-85.193 2.821 29.186 3.627 55.612-3.629 72.571-9.675-15.382-10.078-44.174-7.66-77.304-7.256 28.003-15.722 50.484-26.203 63.894-2.016-16.959-2.42-42.596 5.24-69.416-4.031 9.86-8.465 21.298-13.706 24.454 1.21-22.482 11.69-54.429 27.413-91.504-26.204-10.255-49.183-15.777-68.533-19.326l10.885 20.115-7.66 41.413 12.094 47.329-13.707 56.796 6.047 43.385-13.706 39.836 6.047 41.808-13.707 48.907 7.66 32.736-12.094 57.979 7.659 31.158-4.434 50.485 19.753 19.72 18.142 9.072h-36.686l7.66 16.171 25.8 26.031-47.166-18.932-14.916-14.593-5.241 25.243-18.948 31.162v-34.318l-5.24-22.087-20.963 20.51 6.45-11.833-24.188 19.326 10.884-29.581-15.722-12.226zm91.915-757.272c-.403 1.972-.806 3.55-1.613 5.522 1.21 1.577 2.419 3.155 3.225 4.733.404-.395.807-1.184 1.21-1.578-.806-2.761-2.016-5.916-2.822-8.677zm-4.838 14.593c-.403.394-.403 1.183-.806 1.578.403.789 1.209 1.183 1.613 1.972l.403-.395c-.403-1.183-.807-2.366-1.21-3.155zm-6.047 14.593c-.403.395-.403 1.184-.806 1.578v.394c.403-.394.806-1.183.806-1.577v-.395zm22.576-29.581c-.403 1.972-.403 3.945-.806 5.917 1.209 2.76 2.822 5.916 4.031 8.677h.403c-1.612-4.339-2.822-9.466-3.628-14.594zm-4.435 18.932v.395c.404 1.183 1.21 1.972 1.613 3.155-.806-1.183-1.209-2.367-1.613-3.55zm-5.24 42.991c-2.822 4.339-5.241 8.677-9.273 13.016v.394c4.032-3.55 8.063-7.099 12.095-10.255-1.21-1.183-2.016-1.972-2.822-3.155zm9.272 8.677c-5.241 6.311-10.885 12.227-16.529 18.143.806 12.227 2.016 24.454 2.419 36.286 4.031-4.733 8.466-9.466 13.303-14.199 2.419-9.466 5.644-20.115 9.676-32.342-2.822-2.366-6.047-5.127-8.869-7.888zm-4.838 56.007c-2.419 5.522-5.241 11.043-8.466 16.171.403 4.733.403 9.466.807 14.199.806-.395 2.015-.789 2.821-1.184.404-1.577.807-3.155 1.613-5.127.403-7.494 1.209-15.382 3.225-24.059zm12.901-27.609c2.015-5.916 4.031-11.438 6.047-17.354l-1.21-.395a543.287 543.287 0 01-4.837 17.749zm17.737-13.805c16.529 5.128 31.042 8.283 43.54 9.861a360.155 360.155 0 006.046 26.82c-21.77 16.171-37.895 29.975-51.198 42.202a762.89 762.89 0 00-26.607 20.115c6.853-28.792 16.529-63.5 28.219-98.998zm42.33 3.55l-3.628-1.183c1.209.394 2.418.394 3.628.789v.394zm9.272-14.593c-.403 0-.806-.395-1.613-.395 0-.394-.403-1.183-.403-1.577h2.016v1.972zm.403-11.438c-1.612 0-3.225.394-5.24.789 1.612-.395 3.224-.789 5.24-1.183v.394zm43.136-21.298h-1.21c.403-2.761.806-5.522 1.21-7.889 1.209-.788 2.822-1.972 4.03-2.76-1.208 3.549-2.418 7.099-4.03 10.649zm-13.304 1.972h-.806c0-.789 0-1.972.403-2.761.403 0 .806-.395.806-.395 0 .789 0 1.973-.403 3.156zm18.544-14.594c-1.612 0-2.822.001-4.434.395.806-8.677 1.612-17.354 1.21-26.031 0 0 0-.395.402-.395h-.403c0-2.366 0-4.733-.403-6.705-1.21 2.761-2.419 5.128-3.628 7.889-4.032 1.577-8.466 3.549-12.9 6.31 0-.789-.404-1.183-.404-1.972-.403.789-1.209 1.972-1.612 3.155-3.628 1.972-6.853 4.339-10.482 6.311v-1.183c8.063-6.311 15.723-13.41 19.754-22.087-7.66 1.577-14.916 4.733-21.77 8.677-.806-6.311-2.418-12.622-3.628-18.932-.806 2.366-1.209 5.127-2.015 7.494-10.482 5.916-17.335 14.987-24.591 24.453 8.465-15.382 16.125-31.158 16.931-49.301-5.24 5.127-9.675 10.649-13.706 16.96 6.853-13.805 13.706-26.032 20.156-35.892 37.492 25.637 70.55 44.569 95.947 52.062-11.691 13.805-22.98 28.398-32.654 44.175 6.853-13.016 12.497-28.004 17.738-44.569A202.622 202.622 0 004.93 223.415c4.838-14.199 8.466-29.581 8.87-45.752-5.242 8.677-10.08 18.143-14.514 28.003zm-16.125 2.367c-.806.394-1.613.394-2.419.789v-10.649l8.063-7.889c-2.016 5.917-4.032 11.833-5.644 17.749zm-14.11 4.338c-.403 0-.806.395-1.21.395v-3.944c.807-.395 1.613-1.183 2.42-1.972-.404 1.972-.807 3.944-1.21 5.521zm-12.9-26.82c-4.838 3.156-9.675 6.705-14.513 9.861 6.853-7.1 14.11-14.199 17.335-23.665-1.21 4.733-2.016 9.071-2.822 13.804zm-120.941-16.17c-1.209-1.184-2.419-1.973-3.225-3.156l3.628 9.466c-2.419 5.522-4.031 11.044-5.644 16.96 2.016-16.565 2.016-33.131 0-50.09 1.613 8.282 3.225 17.354 5.241 26.82zm25.398 167.23l.403 3.945c.806-2.367 1.209-5.128 2.015-7.494-.806 1.577-1.612 2.366-2.418 3.549zm-36.686 44.569l-1.209-4.733-.403-.789c-2.822.789-5.241 1.578-8.063 2.367 2.822 1.183 5.644 2.366 8.063 3.549.403 0 .806 0 1.612-.394zm-32.251 3.155c-15.319 3.944-29.026 5.917-39.507 5.522 2.822-3.155 11.691-5.916 18.947-8.283-10.884 2.367-21.366 2.761-30.638 2.367 6.853 9.071 13.303 18.932 19.351 28.792 16.528-11.832 29.428-19.326 40.716-24.454-2.822-1.183-5.644-2.76-8.869-3.944zm-60.067-.788c-2.016 0-3.628-.395-5.644-.395 4.435 3.55 8.466 7.888 12.9 12.227-2.822-3.944-5.24-7.888-7.256-11.832zm-9.272-3.945c2.016-.788 4.031-1.972 6.45-2.761-1.209-2.76-2.419-5.916-3.225-9.071 2.419 2.367 5.241 4.733 7.66 7.494 4.837-1.972 10.481-3.55 16.528-4.733-14.513-4.339-31.041-7.888-49.586-11.044-.403 1.184-.403 2.367-.403 3.55 7.257 4.339 14.916 10.255 22.576 16.565zm-.806-25.242c12.094-1.183 27.413.789 43.538 3.55-27.816-5.916-52.811-12.622-62.486-22.087 12.901-2.367 29.429 2.366 45.958 6.31-16.529-5.522-31.042-11.832-41.523-19.72 14.109.394 28.622 5.127 43.135 11.438-13.303-10.255-26.204-20.51-34.266-31.553-10.885-.395-20.963-1.972-29.026-3.156 12.9-8.282 33.057-14.199 58.051-19.326a2373.64 2373.64 0 01-1.612-1.578c-29.429-.394-54.423-3.549-67.727-13.015 13.304-4.733 31.848-3.944 52.811-1.578-.806-.789-1.613-1.183-2.419-2.366-19.35-4.733-35.879-9.861-47.973-15.777-8.466 11.438-16.932 22.087-24.995 31.553 7.257 11.044 14.11 22.482 20.157 33.92-5.241-13.805-7.256-27.215-6.047-41.019 15.319 24.848 23.785 52.457 31.848 80.065 7.66 1.973 15.319 3.156 22.576 4.339zm5.24-51.668c2.822 1.578 6.047 3.55 8.869 5.522.403-.395.807-.395 1.613-.789-1.613-1.578-3.628-3.155-5.241-4.733h-5.241zm13.304 7.888c4.434 3.156 9.272 6.311 13.706 9.466l-12.094-9.466h-1.612zm9.675-9.86c.403.394.806.789 1.21.789 1.612-.395 3.225-.789 4.837-1.578l-.403-.394c-2.016.788-3.628 1.183-5.644 1.183zm10.885 7.888c2.015 1.183 3.628 2.761 5.644 3.944-1.21-1.577-2.822-2.761-4.032-4.338-.403 0-1.209 0-1.612.394zm64.098-16.565c0 3.55-.403 7.494-.806 11.043 1.21-3.549 2.419-7.494 3.628-11.438v-.394c-1.209.394-2.015.394-2.822.789zm12.095-7.888c-.404 3.155-.807 5.916-1.21 9.071.403 1.578 1.209 3.55 1.613 5.127 3.225-5.916 6.853-11.832 10.884-17.354-.403-2.366-.403-4.338-.403-6.31-4.031 3.155-7.256 6.31-10.884 9.466zm-4.838 23.27l-1.21 3.55c.404-.789.807-1.972 1.21-2.761.403-.395 0-.789 0-.789zm16.125-18.537c-2.015 7.493-4.434 14.593-7.659 21.298l.403.789c2.419-3.944 4.838-8.283 8.063-11.833 0-3.549-.404-7.099-.807-10.254zm1.613 24.059c-.403.789-.806 1.972-1.21 2.761.404-.395.807-1.184 1.21-1.973v-.788zm1.209 21.298c-.806 1.183-1.612 2.761-2.419 3.944.404.789.404 1.972.807 2.761.806-.395 1.209-1.183 2.015-1.578l-.403-5.127zm.807 13.804l-.807.789 1.21 5.916c0-2.366 0-4.338-.403-6.705zm-10.079 10.649c-2.822 2.761-5.644 5.522-8.869 8.283 2.822 3.55 5.241 7.494 7.66 11.438l2.822-.394c0-6.311-.807-12.622-1.613-19.327zm-1.612-156.976c0 .395-.404 1.184-.404 1.972 0-.394.404-.788.404-1.577v-.395zm-142.711 170.781c-.403 3.155-1.209 6.705-1.612 9.86 6.047.789 11.691 3.55 16.932 7.1-5.241-5.128-10.482-10.649-15.32-16.96zm-2.015 13.016c-.403 2.76-.807 5.127-1.613 7.493 7.66 2.761 14.513 6.311 21.77 11.044-7.257-5.127-14.11-10.649-20.157-18.537zm-3.225 14.987c-.404 2.761-1.21 5.128-1.613 7.888 6.45.789 13.304 2.367 19.754 4.733-6.047-3.549-12.094-7.493-18.141-12.621zm-3.629 15.777c-.403 2.761-1.209 5.521-2.015 7.888 5.644-.789 11.691-1.183 17.335-.789-4.838-1.972-10.079-3.944-15.32-7.099zm-4.434 17.354c-.403 1.577-.806 3.155-1.21 4.338 5.241-.788 10.482-1.577 15.723-1.972a92.698 92.698 0 01-14.513-2.366zm-12.9 6.705c.403-1.972.403-3.944.806-6.311-.806 2.367-1.21 4.339-2.016 6.311h1.21zm394.67-78.488c-14.11-5.522-29.832-14.988-46.36-26.426 12.093 11.438 22.172 22.482 30.234 32.736 4.838-2.366 10.482-4.338 16.126-6.31zm-12.9 23.27c-1.21-.394-2.016-.789-3.226-1.577-3.225 1.972-6.853 3.944-10.078 5.916 4.434-1.578 8.466-3.156 13.303-4.339zm-18.948-10.649c-10.078-6.311-20.56-14.199-30.235-24.059 4.434 5.916 9.675 12.227 12.497 17.748.403-.394 1.21-.394 1.613-.788-.404.788-.807 1.183-1.21 1.972.806 1.972 1.21 3.155 1.613 4.733-.807-.789-2.016-1.184-3.225-1.972-5.241 8.677-12.094 16.17-20.56 22.875 12.9-7.493 26.204-14.198 39.507-20.509zm-21.366-4.338c-16.126-11.438-33.864-30.37-53.214-54.035-22.979 13.804-45.554 28.792-65.711 44.174-7.66 9.466-14.11 17.749-19.351 24.848 22.576 4.733 48.377 13.016 83.45 27.609 17.737-15.382 34.67-31.159 54.826-42.596zm101.59-22.088c-3.225-4.733-6.45-10.254-9.675-15.382 1.209 3.944 2.822 7.889 4.434 11.438 1.613 1.184 3.225 2.367 5.241 3.944zm-20.56-12.226c-1.21-1.972-2.419-3.945-3.225-5.917-9.675-1.577-19.754-3.944-30.638-6.705 11.69 3.944 23.382 7.889 33.863 12.622zM83.14 316.496c-.807-1.972-2.016-3.549-2.822-5.521-5.241.394-10.885.788-16.126 1.183 6.45 1.183 12.9 2.761 18.948 4.338zm-10.482-22.481h-1.612 1.612zm-8.063-18.143v-.394l-2.418.394c1.209.394 2.015 0 2.418 0zm-3.628-8.677v-.395c-1.21.395-2.419 1.184-3.628 1.972 1.21-.788 2.822-1.183 3.628-1.577zm-119.731 45.752c3.225-2.761 6.45-5.128 9.675-7.889.403.395.806 1.184 1.21 1.578-3.629 2.367-7.257 4.339-10.885 6.311zM60.16 247.08a75.384 75.384 0 00-7.66 4.338c2.42-1.577 5.241-3.155 7.66-4.733v.395zm1.21-17.749c-6.45 3.55-13.304 7.494-19.754 11.438 9.272-10.649 16.931-22.087 22.575-35.103-1.21 7.494-2.016 15.383-2.822 23.665zm4.03-31.553c-13.706 10.255-23.381 23.665-31.847 36.681 10.078-16.96 18.141-32.737 24.994-56.401v-.395c.807-2.366 1.613-5.127 2.42-7.888-1.21 1.578-2.823 3.155-4.032 4.733-4.838-5.522-14.513-12.227-22.979-18.143 18.947 9.466 37.895 15.382 54.423 18.932-4.837 12.621-8.466 25.242-12.094 38.258 2.016-14.199.807-28.004-3.225-41.414-3.628 8.678-6.047 16.96-7.66 25.637zm44.749-72.572c-16.932.395-36.282-.788-56.44-2.366 19.351 1.972 37.492 4.733 52.812 9.071 1.209-2.366 2.418-4.733 3.628-6.705zm14.109 22.087c-2.821.395-6.046.395-9.272.395-1.612 8.677-3.628 17.354-6.45 25.637 4.435-8.677 9.272-17.749 15.722-26.032zm-24.59-.788c-16.126-1.972-34.267-6.705-54.424-12.622 18.947 9.072 35.073 18.538 47.973 27.609 2.016-5.127 4.031-10.254 6.45-14.987zm-402.331 37.074c-.403 2.761-.403 5.128-.806 7.889 12.497 6.705 25.398 15.776 38.298 24.453-13.303-10.254-27.816-20.115-37.492-32.342zm-3.225 21.299c-.806 5.521-2.015 11.438-3.225 16.959 12.497 2.761 25.398 7.494 38.701 12.622-12.497-9.861-24.994-19.721-35.476-29.581zm21.367 36.68c.806.394 1.209 1.183 2.015 1.972l9.675 2.367c-4.031-1.184-8.062-2.761-11.69-4.339zm29.428 24.454l.404.394c1.612 0 3.225.394 4.434.789-1.612 0-3.225-.395-4.838-1.183zm-60.47-29.187c4.435.394 8.869 1.183 13.304 1.972l-9.676-7.099c-1.209 1.577-2.419 3.549-3.628 5.127zm-60.067 57.584l-.807-1.183v.394c.404 0 .807.395.807.789zm-52.005 36.681c.806.394 1.21.788 2.016 1.183-.806-.395-1.613-.789-2.016-1.183zm4.435-20.115c-4.435-3.156-8.869-6.311-13.707-9.861-.806.395-2.016.789-2.822 1.184 5.644 3.155 10.885 5.521 16.529 8.677zm8.869-12.227c.403-.395 1.209-1.183 1.612-1.972l-6.047-5.916c-1.612.788-3.225 1.972-4.837 2.76 3.225 1.578 6.047 3.55 9.272 5.128zm10.078-12.227c.806-.789 2.016-1.972 2.822-3.155-.806-.789-1.209-1.972-2.016-2.761-1.209.789-2.822 1.972-4.434 3.155 1.209.789 2.419 1.578 3.628 2.761zm10.885-12.227c.806-1.183 2.015-1.972 2.822-3.155-1.21.789-2.419 1.972-3.628 2.761.403 0 .806 0 .806.394zm-62.083 20.904c2.016-1.577 3.628-2.761 5.644-4.338-2.016-1.972-4.435-3.55-6.45-5.522-4.838 1.578-9.273 2.761-13.707 3.944l14.513 5.916zm13.706-10.255c3.629-2.366 7.66-4.733 11.691-7.099-.403-.789-1.209-1.578-1.612-2.366-5.644 2.366-11.288 4.732-16.932 6.31 2.419 1.578 4.838 2.367 6.853 3.155zm19.351-11.438c3.225-1.972 6.853-3.549 10.482-5.521l-.404-.395c-4.031 1.972-8.062 3.55-11.691 5.128.807.394 1.21.788 1.613.788zm18.544-9.466l2.419-1.183-2.419 1.183z" fill="#000" fill-opacity=".75" opacity=".05"/>
  <g opacity=".02" filter="url(#filter0_dd)" fill="#000" fill-opacity=".75">
    <path d="M260.959-.305s83.202-33.135 163.817-11.343c0 0-44.07-10.147-87.377 1.752-43.291 12.016-67.157 12.214-76.44 9.59zM277.318 11.327s110.215-24.225 178.761 22.602c0 0-40.491-23.209-102.431-18.431-61.835 4.645-76.33-4.171-76.33-4.171zM300.368 30.144s91.073-15.216 160.538 18.918c0 0-58.043-13.198-104.908-12.026-29.892.82-55.63-6.892-55.63-6.892zM498.182 84.612s-78.591-48.947-183.046-39.175c0 0 36.937 13.908 85.877 15.71 48.924 1.683 97.169 23.465 97.169 23.465z"/>
    <path d="M508.534 103.752s-64.471-44.883-172.44-39.6c0 0 33.907 14.15 65.983 15.216 32.091 1.184 64.126 3.813 106.457 24.384z"/>
    <path d="M519.011 126.831s-87.81-55.98-161.073-41.79c0 0 28.41 11.451 72.598 15.375 44.187 3.925 88.475 26.415 88.475 26.415zM532.664 146.896s-79.648-43.173-154.933-42.642c0 0 23.158 13.399 66.807 19.784s74.116 16.749 88.126 22.858zM565.685 182.738s-78.991-57.028-164.421-52.875c0 0 18.37 10.498 48.238 14.459 30.004 4.066 75.754 17.266 116.183 38.416z"/>
    <path d="M598.9 219.151s-94.9-71.409-183.618-70.208c0 0 28.309 14.574 51.136 18.061 22.827 3.488 77.549 18.121 132.482 52.147z"/>
    <path d="M600.194 256.03s-61.448-74.95-171.189-90.38c0 0 2.306 6.435 49.842 22.525 47.536 16.091 75.574 28.776 121.347 67.855z"/>
    <path d="M584.15 259.039s-94.186-72.205-142.976-76.397c0 0 16.74 15.964 54.994 31.135 38.239 15.053 48.659 20.031 87.982 45.262z"/>
    <path d="M617.117 308.192s-105.572-95.526-160.535-107.12c0 0 38.157 27.767 71.442 44.374 33.389 16.474 89.093 62.746 89.093 62.746zM615.814 325.254s-90.38-87.767-151.633-107.473c0 0 15.062 13.529 47.781 34.279 32.718 20.751 69.502 44.608 103.852 73.194zM610.768 353.559S565.2 289.157 478.549 240.626c0 0 20.126 19.752 45.101 40.238 24.976 20.486 54.472 32.632 87.118 72.695zM260.581-.38s83.202-33.135 163.817-11.343c0 0-32.077-10.253-93.823-.728-35.564 5.441-51.459 8.539-69.994 12.07zM276.82 11.267s110.592-24.151 179.259 22.662c0 0-40.839-24.007-102.911-23.05-49.108.843-76.348.388-76.348.388zM299.991 30.07s91.571-15.157 160.915 18.992c0 0-42.945-15.725-105.193-17.028-23.699-.521-55.722-1.965-55.722-1.965zM498.182 84.612s-78.968-49.022-183.423-39.25c0 0 42.198 4.527 82.756 9.611 48.515 6.048 100.667 29.639 100.667 29.639zM508.534 103.752s-64.471-44.883-172.44-39.6c0 0 33.813 7.809 65.889 8.875 32.076 1.066 64.22 10.154 106.551 30.725zM518.634 126.756s-87.809-55.98-161.073-41.79c0 0 19.707 1.949 61.367 7.135 55.719 6.975 99.706 34.655 99.706 34.655zM532.167 146.836s-79.648-43.173-154.933-42.643c0 0 28.619 6.512 67.422 14.198 43.34 8.699 73.622 22.322 87.511 28.445zM565.308 182.663s-78.99-57.028-164.421-52.875c0 0 20.026 5.385 49.999 9.214 41.51 5.08 73.993 22.511 114.422 43.661z"/>
    <path d="M598.402 219.09s-94.9-71.408-183.618-70.208c0 0 30.307 8.341 53.134 11.829 22.947 3.473 75.552 24.354 130.484 58.379z"/>
    <path d="M600.194 256.03s-61.825-75.025-171.566-90.455c0 0 4.622 1.721 52.279 17.797 47.656 16.076 82.335 36.593 119.287 72.658z"/>
    <path d="M584.15 259.039s-94.186-72.205-142.976-76.397c0 0 12.637 6.989 47.898 21.681 39.265 16.368 55.755 29.485 95.078 54.716zM618.366 309.362s-105.572-95.526-160.535-107.121c0 0 27.071 13.879 64.761 36.189 31.984 18.801 95.774 70.932 95.774 70.932zM615.814 325.254s-90.38-87.767-151.633-107.473c0 0 17.018 9.816 49.721 30.449 32.703 20.632 67.562 48.438 101.912 77.024zM610.768 353.559s-45.282-64.077-131.933-112.608c0 0 24.511 15.986 49.367 36.486 24.855 20.5 49.92 36.059 82.566 76.122zM610.681 383.104s-60.65-75.417-111.259-104.624c0 0 22.789 25.939 41.713 42.171s47.99 37.56 69.546 62.453z"/>
    <path d="M610.681 383.104s-60.65-75.417-111.259-104.624c0 0 25.194 18.691 44.741 37.722 17.742 17.337 44.962 42.009 66.518 66.902zM597.308 411.512s-34.076-69.99-84.285-105.607c0 0 5.184 7.99 21.42 27.198 16.237 19.208 41.754 39.183 62.865 78.409z"/>
    <path d="M597.308 411.512s-34.076-69.99-84.285-105.607c0 0 11.194 8.683 27.431 27.891 16.236 19.208 35.743 38.49 56.854 77.716zM530.941 429.693s-31.747-90.88-29.749-148.577c0 0 9.912 32.854 13.605 57.231 3.694 24.378 6.545 60.013 16.144 91.346z"/>
    <path d="M530.941 429.693s-31.747-90.88-29.749-148.577c0 0 2.502 31 8.247 57.406 5.327 24.058 11.903 59.838 21.502 91.171zM553.357 450.253s-39.893-71.15-35.376-131.692c0 0 3.555 9.04 9.355 33.64 5.799 24.6 5.27 56.697 26.021 98.052z"/>
    <path d="M553.357 450.253s-39.893-71.15-35.376-131.692c0 0-.354 13.96 5.46 38.678 5.815 24.718 9.165 51.659 29.916 93.014zM518.372 318.241s41.564 53.628 61.484 123.376c0 0-49.609-79.022-61.484-123.376z"/>
    <path d="M518.372 318.241s41.564 53.628 61.484 123.376c0 0-34.309-76.841-61.484-123.376zM243.817-12.444S225.2 25.73 236.976 93.382c0 0 1.735-38.247 5.99-58.929 5.177-24.635 1.659-44.357.851-46.897z"/>
    <path d="M243.815-12.444s-18.559 34.926-7.021 105.368c0 0-2.033-40.542 2.305-65.193 2.954-15.962 3.88-33.713 4.716-40.175zM259.939 2.656s-22.725 84.844 8.487 160.548c0 0-15.258-41.673-8.742-85.06 6.605-43.638 3.993-66.83.255-75.488z"/>
    <path d="M259.875 2.183s-22.732 84.841 8.461 160.549c0 0-13.856-29.85-12.013-91.136 1.134-35.048 2.23-50.777 3.552-69.413z"/>
    <path d="M274.326 14.975s-22.302 108.288 25.601 174.636c0 0-23.88-39.18-20.151-99.973 3.641-60.542-5.45-74.663-5.45-74.663z"/>
    <path d="M274.282 14.62s-22.243 108.761 25.66 175.109c0 0-24.646-39.566-24.744-100.37-.032-48.098-.916-74.739-.916-74.739zM298.693 30.643s-18.352 88.613 13.282 157.672c0 0-11.113-57.177-8.241-103.111 1.787-29.127-5.041-54.561-5.041-54.561z"/>
    <path d="M298.526 30.303s-18.318 88.965 13.314 158.146c0 0-14.153-42.651-13.285-103.452.379-23.316-.029-54.694-.029-54.694zM353.081 227.728s-48.592-77.05-38.742-179.387c0 0 13.839 36.21 15.445 84.237 1.708 47.895 23.297 95.15 23.297 95.15z"/>
    <path d="M353.081 227.728s-48.77-77.508-38.802-179.86c0 0 4.335 41.336 9.312 81.152 6.093 47.597 29.49 98.708 29.49 98.708zM372.701 234.734s-44.239-63.547-38.058-169.274c0 0 13.832 33.331 14.633 64.783.919 31.438 3.265 62.82 23.425 104.491z"/>
    <path d="M372.701 234.734s-44.239-63.547-38.058-169.274c0 0 7.474 33.152 8.408 64.708.786 31.333 9.49 62.895 29.65 104.566z"/>
    <path d="M388.968 248.254s-50.306-89.433-31.745-160.092c0 0 9.621 28.45 10.774 71.975 1.153 43.525 20.971 88.117 20.971 88.117z"/>
    <path d="M388.909 247.782s-50.306-89.434-31.745-160.092c0 0 .686 19.35 3.434 60.4 3.577 54.984 28.311 99.692 28.311 99.692z"/>
    <path d="M395.828 265.564s-29.008-84.378-15.734-156.886c0 0 9.229 24.662 8.137 67.855-1.063 43.43 3.838 74.497 7.597 89.031z"/>
    <path d="M395.719 265.212s-28.971-84.386-15.67-156.887c0 0 1.498 28.842 2.559 67.452 1.172 43.274 9.359 74.9 13.111 89.435z"/>
    <path d="M411.367 299.918s-36.244-89.125-11.544-169.045c0 0 5.654 19.94 2.359 49.373-3.294 29.434-1.516 76.119 9.185 119.672z"/>
    <path d="M411.413 299.432s-36.233-89.127-11.53-169.045c0 0 .443 20.338-3.221 49.696-5.072 40.807 3.936 75.81 14.751 119.349z"/>
    <path d="M434.798 338.701s-44.511-108.512-20.435-191.936c0 0 6.742 30.482 4.234 53.098-2.64 22.513-2.537 77.915 16.201 138.838z"/>
    <path d="M434.72 338.229s-44.499-108.515-20.416-191.937c0 0 .321 30.787-2.189 53.403-2.642 22.512 3.888 77.728 22.605 138.534z"/>
    <path d="M460.55 354.548s-50.906-81.454-30.309-188.096c0 0 5.325 4.267 5.156 53.588-.169 49.322 3.066 79.394 25.153 134.508z"/>
    <path d="M460.55 354.548s-50.846-81.942-30.248-188.583c0 0 .146 4.901-.024 54.222-.17 49.322 8.168 88.485 30.272 134.361zM466.003 345.993s-35.554-111.768-22.739-157.944c0 0 9.229 20.944 10.394 61.341 1.165 40.396 2.114 51.674 12.345 96.603z"/>
    <path d="M465.975 345.995s-35.535-111.772-22.711-157.946c0 0 2.263 14.117 4.005 51.563 1.91 41.624 8.483 61.453 18.706 106.383zM494.921 387.481s-49.698-131.861-40.132-186.173c0 0 11.615 45.12 14.711 81.567 3.097 36.447 25.421 104.606 25.421 104.606z"/>
    <path d="M494.921 387.481s-49.698-131.861-40.132-186.173c0 0 2.974 29.864 9.607 72.476 5.686 36.129 30.525 113.697 30.525 113.697zM521.48 425.545s-44.861-116.5-38.892-179.368c0 0 6.487 18.998 12.601 56.635 6.115 37.637 13.584 80.266 26.291 122.733z"/>
    <path d="M521.48 425.545s-44.861-116.5-38.892-179.368c0 0 2.322 19.148 8.334 56.918 6.012 37.769 17.851 79.983 30.558 122.45z"/>
    <path d="M504.754 388.706s-35.038-71.402-36.991-169.284c0 0 7.88 28.064 14.119 59.208 6.372 31.247 3.105 62.835 22.872 110.076z"/>
    <path d="M504.754 388.706s-35.038-71.402-36.991-169.284c0 0 2.676 30.38 8.93 61.642 6.373 31.247 8.294 60.401 28.061 107.642z"/>
    <path d="M207.749-44.505s239.969 158.07 310.893 361.996c.952 2.643.042 4.073.874 6.73 0 0-65.514-198.824-323.946-363.177l12.179-5.55z"/>
  </g>
  <g opacity=".02" fill="#000" fill-opacity=".75">
    <path d="M552.434-12.975s-69.496-44.304-127.479-33.074c0 0 22.484 9.063 57.456 12.169s70.023 20.905 70.023 20.905zM563.239 2.905S500.204-31.263 440.62-30.843c0 0 18.328 10.605 52.873 15.658 34.545 5.053 58.659 13.256 69.746 18.09zM589.373 31.272s-62.516-45.134-130.129-41.847c0 0 14.539 8.308 38.178 11.444 23.746 3.217 59.954 13.664 91.951 30.403z"/>
    <path d="M615.661 60.09S540.553 3.576 470.339 4.526c0 0 22.405 11.535 40.471 14.295 18.066 2.76 61.375 14.342 104.851 41.27z"/>
    <path d="M616.686 89.278S568.053 29.96 481.2 17.748c0 0 1.825 5.093 39.447 17.827 37.622 12.735 59.812 22.775 96.039 53.703z"/>
    <path d="M603.988 91.66s-74.543-57.146-113.157-60.464c0 0 13.249 12.635 43.524 24.642 30.264 11.913 38.511 15.853 69.633 35.822z"/>
    <path d="M630.079 130.561s-83.554-75.603-127.054-84.779c0 0 30.2 21.977 56.542 35.12 26.426 13.038 70.512 49.659 70.512 49.659zM629.048 144.065s-71.531-69.462-120.009-85.059c0 0 11.921 10.707 37.816 27.13 25.895 16.423 55.007 35.304 82.193 57.929zM625.054 166.466s-36.064-50.97-104.643-89.38c0 0 15.928 15.633 35.695 31.847 19.767 16.213 43.111 25.825 68.948 57.533zM552.135-13.034S482.64-57.338 424.656-46.11c0 0 15.597 1.543 48.569 5.648 44.098 5.52 78.91 27.427 78.91 27.427zM562.846 2.858s-63.036-34.169-122.62-33.75c0 0 22.651 5.154 53.361 11.237 34.301 6.885 58.267 17.667 69.259 22.513zM589.075 31.213s-62.516-45.134-130.128-41.847c0 0 15.849 4.261 39.57 7.292 32.853 4.02 58.561 17.816 90.558 34.555z"/>
    <path d="M615.267 60.043S540.159 3.527 469.945 4.478c0 0 23.986 6.6 42.052 9.36 18.161 2.75 59.794 19.276 103.27 46.205z"/>
    <path d="M616.686 89.278s-48.931-59.377-135.784-71.59c0 0 3.658 1.363 41.375 14.086s65.163 28.96 94.409 57.504z"/>
    <path d="M603.988 91.66s-74.543-57.146-113.157-60.464c0 0 10.002 5.531 37.908 17.16 31.076 12.953 44.127 23.335 75.249 43.304zM631.067 131.487s-83.553-75.603-127.053-84.78c0 0 21.425 10.985 51.254 28.642 25.314 14.88 75.799 56.138 75.799 56.138zM629.048 144.065s-71.531-69.462-120.009-85.059c0 0 13.469 7.77 39.352 24.099 25.882 16.329 53.471 38.335 80.657 60.96zM625.054 166.466s-35.837-50.713-104.417-89.122c0 0 19.399 12.652 39.071 28.876 19.671 16.225 39.509 28.539 65.346 60.246zM624.985 189.85s-48.001-59.688-88.054-82.804c0 0 18.035 20.53 33.013 33.376 14.977 12.847 37.981 29.727 55.041 49.428z"/>
    <path d="M624.985 189.85s-48.001-59.688-88.054-82.804c0 0 19.939 14.794 35.41 29.855 14.041 13.721 35.584 33.248 52.644 52.949zM614.4 212.333s-26.969-55.393-66.705-83.581c0 0 4.102 6.323 16.952 21.525 12.85 15.202 33.046 31.011 49.753 62.056z"/>
    <path d="M614.4 212.333s-26.969-55.393-66.705-83.581c0 0 8.859 6.872 21.709 22.074 12.85 15.202 28.289 30.462 44.996 61.507zM561.876 226.722s-25.126-71.926-23.544-117.59c0 0 7.844 26.002 10.767 45.295 2.924 19.293 5.18 47.496 12.777 72.295z"/>
    <path d="M561.876 226.722s-25.126-71.926-23.544-117.59c0 0 1.98 24.534 6.527 45.433 4.216 19.041 9.42 47.358 17.017 72.157zM579.617 242.993s-31.573-56.31-27.999-104.225c0 0 2.814 7.154 7.404 26.623 4.59 19.47 4.172 44.873 20.595 77.602z"/>
    <path d="M579.617 242.993s-31.573-56.31-27.999-104.225c0 0-.28 11.048 4.322 30.611 4.602 19.563 7.254 40.885 23.677 73.614zM551.928 138.515s32.896 42.443 48.661 97.644c0 0-39.262-62.541-48.661-97.644z"/>
    <path d="M551.928 138.515s32.896 42.443 48.661 97.644c0 0-27.153-60.815-48.661-97.644zM347.395-111.252s-17.985 67.15 6.717 127.064c0 0-12.076-32.982-6.918-67.32 5.226-34.536 3.16-52.891.201-59.744z"/>
    <path d="M347.344-111.626s-17.99 67.147 6.697 127.065c0 0-10.966-23.625-9.508-72.129.898-27.738 1.765-40.187 2.811-54.936z"/>
    <path d="M358.781-101.502S341.13-15.798 379.043 36.712c0 0-18.9-31.009-15.949-79.123 2.882-47.915-4.313-59.091-4.313-59.091z"/>
    <path d="M358.746-101.783s-17.603 86.078 20.309 138.588c0 0-19.506-31.314-19.584-79.437-.025-38.066-.725-59.151-.725-59.151zM378.067-89.101S363.542-18.97 388.578 35.686c0 0-8.795-45.252-6.522-81.606 1.414-23.052-3.989-43.181-3.989-43.181z"/>
    <path d="M377.934-89.37s-14.497 70.41 10.538 125.162c0 0-11.201-33.755-10.515-81.876.3-18.453-.023-43.286-.023-43.286zM421.11 66.879s-38.457-60.98-30.661-141.973c0 0 10.953 28.657 12.224 66.668 1.352 37.906 18.437 75.305 18.437 75.305z"/>
    <path d="M421.11 66.879S382.512 5.537 390.401-75.468c0 0 3.431 32.714 7.37 64.226 4.822 37.67 23.339 78.12 23.339 78.12zM436.639 72.424s-35.013-50.294-30.121-133.97c0 0 10.948 26.38 11.582 51.272.727 24.88 2.584 49.718 18.539 82.698z"/>
    <path d="M436.639 72.424s-35.013-50.294-30.121-133.97c0 0 5.915 26.238 6.655 51.212.622 24.799 7.511 49.778 23.466 82.758z"/>
    <path d="M449.513 83.124s-39.814-70.78-25.124-126.702c0 0 7.615 22.516 8.527 56.963.913 34.447 16.597 69.74 16.597 69.74z"/>
    <path d="M449.466 82.75s-39.814-70.78-25.124-126.702c0 0 .543 15.314 2.718 47.802 2.831 43.517 22.406 78.9 22.406 78.9z"/>
    <path d="M454.942 96.823S431.985 30.043 442.49-27.34c0 0 7.304 19.517 6.44 53.702-.841 34.372 3.038 58.96 6.012 70.462z"/>
    <path d="M454.857 96.545s-22.929-66.786-12.402-124.166c0 0 1.185 22.827 2.025 53.384.928 34.249 7.407 59.278 10.377 70.782z"/>
    <path d="M467.241 124.013s-28.685-70.537-9.137-133.789c0 0 4.475 15.781 1.868 39.076-2.607 23.295-1.201 60.243 7.269 94.713z"/>
    <path d="M467.277 123.628s-28.676-70.539-9.125-133.789c0 0 .351 16.097-2.549 39.332-4.014 32.296 3.115 59.999 11.674 94.457z"/>
    <path d="M485.785 154.707s-35.228-85.88-16.173-151.906c0 0 5.336 24.125 3.351 42.024-2.09 17.818-2.008 61.665 12.822 109.882z"/>
    <path d="M485.723 154.334S450.505 68.451 469.565 2.428c0 0 .254 24.365-1.732 42.264-2.091 17.817 3.077 61.518 17.89 109.642z"/>
    <path d="M506.166 167.249s-40.289-64.466-23.988-148.866c0 0 4.214 3.377 4.081 42.412-.134 39.034 2.426 62.835 19.907 106.454z"/>
    <path d="M506.166 167.249s-40.242-64.852-23.94-149.251c0 0 .116 3.878-.019 42.913-.134 39.035 6.465 70.03 23.959 106.338z"/>
    <path d="M510.482 160.479s-28.139-88.458-17.997-125.004c0 0 7.304 16.577 8.226 48.548.923 31.971 1.674 40.897 9.771 76.456z"/>
    <path d="M510.459 160.48s-28.123-88.46-17.974-125.004c0 0 1.791 11.172 3.169 40.809 1.513 32.942 6.715 48.635 14.805 84.195zM533.369 193.313s-39.333-104.36-31.763-147.344c0 0 9.193 35.71 11.643 64.555 2.451 28.846 20.12 82.789 20.12 82.789z"/>
    <path d="M533.369 193.313s-39.333-104.36-31.763-147.344c0 0 2.354 23.636 7.603 57.36 4.501 28.595 24.16 89.984 24.16 89.984zM554.388 223.438s-35.505-92.202-30.781-141.958c0 0 5.134 15.036 9.973 44.823 4.84 29.787 10.751 63.525 20.808 97.135z"/>
    <path d="M554.388 223.438s-35.505-92.202-30.781-141.958c0 0 1.838 15.155 6.596 45.047 4.758 29.892 14.128 63.301 24.185 96.911z"/>
    <path d="M541.15 194.283s-27.73-56.51-29.275-133.978c0 0 6.236 22.21 11.174 46.859 5.043 24.731 2.457 49.73 18.101 87.119z"/>
    <path d="M541.15 194.283s-27.73-56.51-29.275-133.978c0 0 2.117 24.044 7.067 48.786 5.044 24.73 6.564 47.803 22.208 85.192z"/>
    <path d="M306.09-148.577S496.01-23.474 552.142 137.921c.753 2.092.033 3.223.692 5.326 0 0-51.85-157.357-256.383-287.431l9.639-4.393z"/>
  </g>
  <g style="mix-blend-mode:luminosity" opacity=".05" filter="url(#filter1_dd)" fill="#000" fill-opacity=".75">
    <path d="M1006.26-80.129s13.97 24.709 17.62 44.832c3.66 20.124.45 16.226-6.55 25.506-7 9.281-3.59 2.979-7.71-4.132s-1.19 2.335-.45 11.058c.75 8.723 6.38 17.293.05 25.837-6.44 8.582-18.239 20.713-18.239 20.713l-13.339-70.123 2.619-31.248 25.999-22.443z"/>
    <path d="M984.854-59.952s4.451 36.235 8.555 58.551c4.104 22.316 6.951 32.309 3.621 37.283-3.327 4.974-12.098 15.607-10.901 8.464 1.196-7.142-3.088-31.219-5.333-24.906-2.126 6.274-.483 14.966-2.038 31.838-1.555 16.873.092 16.34-7.33 24.718-7.384 8.496-4.919-5.164-4.159-11.645.723-6.6-1.951-4.825-5.173 10.508-3.223 15.333 1.505 11.075-9.116 23.216 0 0-2.929-35.947-4.111-70.511-1.145-34.447 9.983-64.29 9.983-64.29l26.002-23.226z"/>
    <path d="M960.713-34.99s-10.356 31.023-6.535 67.72c3.86 36.816 3.656 42.209 2.433 52.478-1.106 10.231-1.106 10.231-5.762 15.116-4.537 4.846-2.829-2.722-1.042-10.446 1.788-7.724-.002-35.335-5.714-43.75-5.673-8.298-4.673-1.996-5.648 6.634-1.012 8.513 5.513 31.084-4.363 56.366-9.877 25.281-28.799 34.653-28.799 34.653s16.945-37.962 6.005-78.592c-10.941-40.63 17.537-69.853 17.537-69.853l31.888-30.327z"/>
    <path d="M924.533 3.35s-8.622 11.495-5.316 44.592 6.252 67.091.681 78.377c-5.454 11.249-15.224 19.997-16.414 17.524-1.19-2.473 7.405-42.15 3.728-50.703-3.678-8.554-5.019-7.08-6.648 4.75-1.745 11.867 1.857 37.853-4.077 50.426-5.934 12.574-20.084 21.44-20.084 21.44l3.714-53.557-17.264-54.953s11.399-11.744 20.647-23.31c9.248-11.568 41.033-34.586 41.033-34.586z"/>
    <path d="M881.198 42.058s-6.439 16.634 1.457 52.274c7.778 35.677 10.581 54.777 2.153 66.468-8.39 11.809-11.437 11.626-9.238 1.561 2.199-10.066-7.232-75.738-13.52-71.884-6.406 3.891 1.053 18.107 4.002 47.292 2.95 29.186 6.222 39.299-13.166 57.266 0 0-20.767-43.296-23.689-71.192-2.842-28.05-10.624-23.194 1.207-39.624 11.87-16.313 50.794-42.16 50.794-42.16z"/>
    <path d="M836.761 81.382s-4.308 9.969 6.68 53.961c11.027 44.11 17.998 51.598 6.84 62.484-11.195 10.768-15.186 15.697-13.347 2.111 1.956-13.625-5.988-52.626-9.547-47.967-3.441 4.621 10.618 41.644-1.289 57.839-11.908 16.195-28.167 24.965-28.167 24.965s10.17-27.585-2.838-68.585l-5.977-36.131s2.556-10.57 25.119-29.565l22.526-19.112z"/>
    <path d="M793.619 120.287s-.781 13.244 8.498 47.137c9.28 33.892 12.619 49.83 3.225 60.145-9.393 10.315-16.217 12.914-13.741 6.916 2.476-5.998-5.396-44.373-8.183-34.118-2.904 10.294 4.087 28.688-2.446 38.207-6.533 9.519-19.838 15.774-19.838 15.774s-16.4-64.326-4.348-88.103c12.169-23.816 36.833-45.958 36.833-45.958z"/>
    <path d="M759.031 164.349s-9.037 54.37 8.433 85.872c0 0-11.144 9.322-12.767 2.702-1.622-6.62-7.391-35.283-9.752-24.515-2.362 10.767 1.963 30.154-4.466 36.782-6.429 6.627-16.318 15.414-19.5 8.389-3.183-7.025-8.233-6.17-11.995 3.882-3.763 10.051-8.878 9.498-25.553 16.584 0 0 17.219-73.648 75.6-129.696z"/>
    <path d="M678.924 201.835c5.423-3.314 30.983-16.263 20.559-4.315-10.503 12.103-17.044 9.153-17.945 36.077-.9 26.924-3.328 27.45-.17 28.376 3.158.927 12.046-9.744 6.866 1.546-5.181 11.29-5.771 25.122-4.723 30.369 0 0 12.95-41.476 32.795-71.283 19.726-29.768 47.495-62.789 55.259-74.525 7.647-11.699-69.706 5.799-77.709 13.586-8.003 7.786-20.867 43.908-14.932 40.169z"/>
    <path d="M713.401 116.887s-9.818 18.637-12.948 23.418c-3.247 4.818 9.391-1.091 21.608-3.485 12.216-2.395 32.44-4.133 9.325 6.335-23.115 10.469-34.013 9.709-40.512 19.737-6.46 10.145-5.004 9.024-5.948 14.136-.982 4.995 24.454-7.134 47.271-10.491 22.818-3.357 23.455-.185 31.136-6.958 7.682-6.773 40.766-48.659 50.865-59.202 10.137-10.426-100.797 16.51-100.797 16.51z"/>
    <path d="M808.903 106.897c2.756-2.321 53.321-45.187 60.549-53.763 7.228-8.575-72.797 15.115-94.871 13.944-21.957-1.209-19.481-7.207-24.814-.804-7.664 9.236-21.322 28.855-17.403 27.717 3.919-1.138 78.584-10.88 61.879-4.695-16.706 6.186-63.87 13.394-71.293 17.355-7.422 3.961-10.227 11.754-12.609 16.033 0 0 27.861.987 53.514-4.847 25.654-5.833 36.975-4.171 45.048-10.94z"/>
    <path d="M892.428 31.798s-28.682 34.615-47.816 36.91c-19.134 2.295-101.285 5.366-102.039 6.65-1.981 3.11 6.644-13.193 16.522-16.39 9.878-3.197 39.894-7.194 35.646-8.678-4.248-1.483-32.651 5.89-29.168.995 3.365-4.856 3.489-10.093 8.459-15.209s118.845-10.919 118.396-4.278z"/>
    <path d="M896.36 29.097s33.625-27.77 42.188-37.038c8.563-9.267-97.495-3.395-97.495-3.395s-15.007 4.207-18.822 6.87c-3.815 2.664-18.393 11.41-6.18 9.406 3.953-.63 27.48-4.606 41.409-1.709 13.929 2.898 16.748 2.375-31.229 8.678-48.095 6.34-54.925 27.388-54.925 27.388s67.8-6.872 85.413-5.036c17.612 1.835 29.639 3.27 39.641-5.164z"/>
    <path d="M970.232-41.708s-52.775 5.127-70.344-15.04c0 0-7.104 3.338-1.528 9.328 5.576 5.99-15.464-1.621-20.808 1.537-5.344 3.159-20.365 13.346-16.12 15.22 4.244 1.875 54.957.014 55.663 4.202.706 4.189-41.976-.446-63.528 1.202S826.648-8.883 822.231-4.465c0 0 55.131-1.862 83.739-1.377 28.608.485 32.54-2.216 32.54-2.216l31.722-33.65z"/>
    <path d="M683.431 294.045c7.663-26.904 16.851-45.078 28.748-64.517 11.859-19.558 25.741-38.081 40.36-55.933 14.619-17.852 28.436-37.783 44.259-54.726 15.823-16.943 33.071-31.489 49.475-47.84l13.077-11.377c4.139-4.068 8.279-8.136 12.457-12.087l12.496-11.968 12.496-11.969L921.946-.229c8.318-8.019 16.674-15.92 24.992-23.938 16.636-16.036 33.116-32.152 49.284-48.428 4.018-4.03 8.128-8.215 12.148-12.245 3.98-4.147 7.97-8.295 11.95-12.442 3.99-4.148 7.93-8.413 11.8-12.522 1.93-2.055 3.83-4.227 5.72-6.4l2.73-3.22c.83-1.048 1.89-2.172 2.53-3.027l.08-.155c1.85-2.29 4.83-3.124 6.7-1.779 1.86 1.345 1.87 4.199.05 6.606l-.11.038c-1.11 1.398-2.1 2.366-3 3.57l-2.97 3.297c-2.01 2.21-3.94 4.265-5.95 6.475-3.95 4.265-8.05 8.45-12.15 12.636-4.11 4.186-8.13 8.216-12.23 12.401l-12.42 12.204a3643.099 3643.099 0 01-50.219 47.95 3542.028 3542.028 0 01-25.379 23.544L900.085 27.76l-12.727 11.654-12.69 11.772-12.534 11.85-13.153 11.143c-16.636 16.036-33.96 30.347-50.052 46.857-16.055 16.628-29.986 36.207-44.798 53.862-14.851 17.537-29.083 35.784-41.135 55.144-11.973 19.205-20.221 37.074-29.565 64.002z"/>
  </g>
  <g style="mix-blend-mode:luminosity" opacity=".05" fill="#000" fill-opacity=".75">
    <path d="M1548.88 912.377s-69.8 5.336-131.46 26.3c0 0 96.02-.773 131.46-26.3z"/>
    <path d="M1548.88 912.377s-33.22-18.711-131.46 26.3c0 0 92.5-19.056 131.46-26.3zM1515.58 898.106s-76.21 3.031-143.18 21.75c0 0 105.15 2.216 143.18-21.75z"/>
    <path d="M1515.58 898.106s-36.95-19.253-143.18 21.75c0 0 100.81-15.808 143.18-21.75z"/>
    <path d="M1488.28 888.481s-75.67-9.329-144.79-1.731c0 0 103.42 19.174 144.79 1.731z"/>
    <path d="M1488.28 888.481s-33.33-25.05-144.79-1.731c0 0 102.02.732 144.79 1.731z"/>
    <path d="M1436.43 863.774s-79.86-5.593-153.87 8.84c-.08-.06 108.53 15.379 153.87-8.84z"/>
    <path d="M1436.43 863.774s-33.58-27.73-153.87 8.84c-.08-.06 108.37-6.881 153.87-8.84z"/>
    <path d="M1415.14 852.155s-74.26-30.028-149.07-39.336c0 0 98.5 48.37 149.07 39.336z"/>
    <path d="M1415.14 852.155s-23.37-36.821-149.07-39.336c0 0 105.2 27.136 149.07 39.336z"/>
    <path d="M1373.75 821.177s-67.21-34.241-132.2-51.8c-.14.02 90.21 52.402 132.2 51.8z"/>
    <path d="M1373.75 821.177s-24.77-33.122-132.2-51.8c-.14.02 93.11 36.065 132.2 51.8zM1335.59 791.382s-53.23-53.508-109.53-90.439c-.06.08 69.48 77.983 109.53 90.439z"/>
    <path d="M1335.59 791.382s-13.2-39.192-109.53-90.439c-.06.08 77.34 63.37 109.53 90.439zM1529.23 901.239s-40.93-49.898-66.78-102.721c0 0 60.48 65.335 66.78 102.721z"/>
    <path d="M1529.23 901.239s-32.93-12.61-66.78-102.721c0 0 46.65 72.582 66.78 102.721z"/>
    <path d="M1494.15 885.507s-38.23-58.495-60.32-117.495c-.08-.06 57.31 77.712 60.32 117.495z"/>
    <path d="M1494.15 885.507s-33.43-18.611-60.32-117.495c-.08-.06 42.05 82.878 60.32 117.495zM1466.08 874.421s-38.23-58.495-60.32-117.495c-.08-.06 57.31 77.712 60.32 117.495z"/>
    <path d="M1466.08 874.421s-33.43-18.61-60.32-117.495c-.08-.06 42.05 82.879 60.32 117.495zM1427.14 853.666s-38.23-58.495-60.32-117.495c0 0 57.31 77.712 60.32 117.495z"/>
    <path d="M1427.14 853.666s-33.43-18.611-60.32-117.495c0 0 42.05 82.878 60.32 117.495zM1379.34 823.882s-33.69-55.211-51.71-111.787c0 0 51.13 72.947 51.71 111.787z"/>
    <path d="M1379.34 823.882s-31.3-16.268-51.71-111.787c0 0 36.04 78.873 51.71 111.787zM1341.25 795.508s-30.52-49.948-46.85-101.123c0 0 46.36 65.982 46.85 101.123z"/>
    <path d="M1341.25 795.508s-28.31-14.766-46.85-101.123c0 0 32.7 71.35 46.85 101.123z"/>
    <path d="M1330.08 784.737s43.28 47.28 111.26 81.982c67.99 34.702 181.71 78.125 225.82 65.865 0 0 2.57-8.577-6.37-7.166-9.08 1.432-48.64.476-90.49-13.582-41.92-14.118-84.81-25.957-131.37-53.559-46.55-27.603-108.85-73.54-108.85-73.54z"/>
  </g>
  <g style="mix-blend-mode:luminosity" opacity=".05" fill="#000" fill-opacity=".75">
    <path d="M1530.87 726.922s-66.29 9.48-125.67 36.406c-.08-.06 90.84-5.538 125.67-36.406z"/>
    <path d="M1530.87 726.922s-30.5-19.668-125.67 36.406c-.08-.06 88.4-26.26 125.67-36.406zM1480.88 712.377s-69.8 5.336-131.46 26.3c0 0 96.02-.773 131.46-26.3z"/>
    <path d="M1480.88 712.377s-33.22-18.711-131.46 26.3c0 0 92.5-19.056 131.46-26.3zM1447.58 698.106s-76.21 3.031-143.18 21.75c0 0 105.15 2.216 143.18-21.75z"/>
    <path d="M1447.58 698.106s-36.95-19.253-143.18 21.75c0 0 100.81-15.808 143.18-21.75z"/>
    <path d="M1420.28 688.481s-75.67-9.329-144.79-1.731c0 0 103.42 19.174 144.79 1.731z"/>
    <path d="M1420.28 688.481s-33.33-25.05-144.79-1.731c0 0 102.02.732 144.79 1.731z"/>
    <path d="M1368.43 663.774s-79.86-5.593-153.87 8.84c-.08-.06 108.53 15.379 153.87-8.84z"/>
    <path d="M1368.43 663.774s-33.58-27.73-153.87 8.84c-.08-.06 108.37-6.881 153.87-8.84z"/>
    <path d="M1347.14 652.155s-74.26-30.028-149.07-39.336c0 0 98.5 48.37 149.07 39.336z"/>
    <path d="M1347.14 652.155s-23.37-36.821-149.07-39.336c0 0 105.2 27.136 149.07 39.336z"/>
    <path d="M1305.75 621.177s-67.21-34.241-132.2-51.8c-.14.02 90.21 52.402 132.2 51.8z"/>
    <path d="M1305.75 621.177s-24.77-33.122-132.2-51.8c-.14.02 93.11 36.065 132.2 51.8zM1267.59 591.382s-53.23-53.508-109.53-90.439c-.06.08 69.48 77.983 109.53 90.439z"/>
    <path d="M1267.59 591.382s-13.2-39.192-109.53-90.439c-.06.08 77.34 63.37 109.53 90.439zM1521.44 719.334s-46.04-49.602-76.05-105.05c0 0 67.76 63.802 76.05 105.05z"/>
    <path d="M1521.44 719.333s-35.88-8.692-76.05-105.049c0 0 53.25 74.289 76.05 105.049z"/>
    <path d="M1487.59 707.783s-40.99-53.818-65.52-111.9c0 0 61.28 69.936 65.52 111.9z"/>
    <path d="M1487.59 707.783s-34.93-12.112-65.52-111.9c0 0 45.79 79.062 65.52 111.9zM1461.23 701.239s-40.93-49.898-66.78-102.721c0 0 60.48 65.335 66.78 102.721z"/>
    <path d="M1461.23 701.239s-32.93-12.61-66.78-102.721c0 0 46.65 72.582 66.78 102.721z"/>
    <path d="M1426.15 685.507s-38.23-58.495-60.32-117.495c-.08-.06 57.31 77.712 60.32 117.495z"/>
    <path d="M1426.15 685.507s-33.43-18.611-60.32-117.495c-.08-.06 42.05 82.878 60.32 117.495zM1398.08 674.421s-38.23-58.495-60.32-117.495c-.08-.06 57.31 77.712 60.32 117.495z"/>
    <path d="M1398.08 674.421s-33.43-18.61-60.32-117.495c-.08-.06 42.05 82.879 60.32 117.495zM1359.14 653.666s-38.23-58.495-60.32-117.495c0 0 57.31 77.712 60.32 117.495z"/>
    <path d="M1359.14 653.666s-33.43-18.611-60.32-117.495c0 0 42.05 82.878 60.32 117.495zM1311.34 623.882s-33.69-55.211-51.71-111.787c0 0 51.13 72.947 51.71 111.787z"/>
    <path d="M1311.34 623.882s-31.3-16.268-51.71-111.787c0 0 36.04 78.873 51.71 111.787zM1273.25 595.508s-30.52-49.948-46.85-101.123c0 0 46.36 65.982 46.85 101.123z"/>
    <path d="M1273.25 595.508s-28.31-14.766-46.85-101.123c0 0 32.7 71.35 46.85 101.123z"/>
    <path d="M1262.08 584.737s43.28 47.28 111.26 81.982c67.99 34.702 181.71 78.125 225.82 65.865 0 0 2.57-8.577-6.37-7.166-9.08 1.432-48.64.476-90.49-13.582-41.92-14.118-84.81-25.957-131.37-53.559-46.55-27.603-108.85-73.54-108.85-73.54z"/>
  </g>
  <g style="mix-blend-mode:luminosity" opacity=".05" fill="#000" fill-opacity=".75">
    <path d="M-51.69 764.666s8.1-25.19 4.68-54.844c-3.45-29.75-3.334-34.114-2.436-42.433.803-8.287.803-8.287 4.526-12.28 3.627-3.961 2.313 2.177.936 8.442-1.377 6.264.318 28.586 5.014 35.342 4.663 6.662 3.798 1.573 4.51-5.417.743-6.896-4.738-25.098 3.026-45.639 7.764-20.541 22.989-28.292 22.989-28.292s-13.37 30.863-4.156 63.635c9.214 32.772-13.563 56.668-13.563 56.668l-25.527 24.818z"/>
    <path d="M-22.764 733.326s6.873-9.376 3.902-36.123c-2.97-26.746-5.657-54.22-1.251-63.401 4.311-9.148 12.138-16.313 13.122-14.323.985 1.99-5.614 34.165-2.562 41.052 3.051 6.887 4.124 5.683 5.335-3.902 1.306-9.616-1.84-30.606 2.848-40.831 4.688-10.225 16.056-17.524 16.056-17.524l-2.526 43.36 14.458 44.303s-9.117 9.602-16.495 19.043c-7.379 9.44-32.887 28.346-32.887 28.346z"/>
    <path d="M11.949 701.624s5.06-13.515-1.646-42.277c-6.612-28.793-9.05-44.219-2.336-53.753 6.682-9.629 9.149-9.508 7.46-1.345-1.69 8.162 6.527 61.207 11.58 58.033 5.147-3.206-1.014-14.639-3.661-38.224-2.647-23.584-5.385-31.737 10.14-46.445 0 0 17.187 34.841 19.8 57.382 2.55 22.668 8.802 18.669-.623 32.067-9.456 13.303-40.714 34.562-40.714 34.562z"/>
    <path d="M47.546 669.414s3.397-8.104-5.886-43.595c-9.315-35.586-15.021-41.581-6.092-50.488 8.96-8.811 12.146-12.835 10.78-1.827-1.462 11.04 5.314 42.521 8.151 38.72 2.743-3.77-8.962-33.595.526-46.803 9.488-13.209 22.564-20.449 22.564-20.449s-7.981 22.408 2.909 55.46l5.158 29.176s-1.973 8.575-20.057 24.143l-18.053 15.663z"/>
    <path d="M82.1 637.554s.514-10.722-7.296-38.058c-7.81-27.336-10.654-40.2-3.147-48.628 7.507-8.429 13.005-10.592 11.055-5.718-1.95 4.875 4.762 35.85 6.925 27.528 2.258-8.353-3.563-23.171 1.637-30.931 5.2-7.759 15.909-12.938 15.909-12.938s13.842 51.893 4.305 71.236c-9.633 19.375-29.387 37.509-29.387 37.509z"/>
    <path d="M109.689 601.599s6.825-44.066-7.59-69.395c0 0 8.932-7.641 10.304-2.3 1.372 5.341 6.294 28.478 8.109 19.746 1.814-8.732-1.858-24.377 3.284-29.797 5.142-5.419 13.063-12.615 15.701-6.961 2.637 5.655 6.715 4.918 9.669-3.247 2.954-8.166 7.097-7.764 20.523-13.645 0 0-13.271 59.734-60 105.599z"/>
    <path d="M174.16 570.557c-4.358 2.729-24.92 13.433-16.594 3.674 8.39-9.885 13.708-7.557 14.195-29.347.488-21.789 2.448-22.236-.115-22.958-2.563-.721-9.659 7.991-5.568-1.189 4.09-9.18 4.444-20.375 3.548-24.61 0 0-10.105 33.669-25.893 57.96-15.693 24.259-37.862 51.221-44.039 60.785-6.081 9.532 56.34-5.315 62.745-11.686 6.405-6.37 16.489-35.708 11.721-32.629z"/>
    <path d="M147.027 639.588s7.776-15.165 10.266-19.061c2.584-3.927-7.588.966-17.449 3.013-9.862 2.046-26.207 3.633-7.601-5.042 18.606-8.676 27.43-8.159 32.597-16.329 5.136-8.265 3.968-7.345 4.686-11.49.75-4.049-19.719 5.99-38.149 8.91-18.429 2.92-18.973.359-25.126 5.907-6.154 5.548-32.545 39.73-40.62 48.349-8.108 8.526 81.396-14.257 81.396-14.257z"/>
    <path d="M69.856 648.523c-2.21 1.903-42.733 37.033-48.504 44.035-5.771 7.002 58.757-12.878 76.626-12.128 17.774.782 15.824 5.656 20.082.428 6.117-7.54 16.991-23.534 13.83-22.578-3.16.956-63.477 9.505-50.017 4.351 13.46-5.153 51.551-11.407 57.52-14.677 5.969-3.271 8.169-9.601 10.058-13.083 0 0-22.548-.55-43.25 4.399-20.702 4.948-29.875 3.705-36.345 9.253z"/>
    <path d="M2.956 710.024s22.893-28.26 38.352-30.287c15.46-2.028 81.892-5.246 82.49-6.291 1.575-2.534-5.256 10.732-13.219 13.406-7.963 2.675-32.21 6.177-28.76 7.339 3.45 1.162 26.362-5.056 23.588-1.066-2.679 3.959-2.733 8.197-6.708 12.38-3.975 4.183-96.047 9.896-95.743 4.519zM-86.522 799.784l27.16-29.693S-16.78 764.65-2.32 781.63c0 0-5.495 3.428-12.042 2.779-6.548-.649-32.8-2.803-43.917 3.357-11.085 6.255 22.365 3.143 17.132 10.491-5.2 7.444-49.539 6.09-45.375 1.527z"/>
    <path d="M-.202 712.245S-27.156 735.012-34 742.585c-6.845 7.574 78.904 1.876 78.904 1.876s12.103-3.538 15.166-5.727c3.062-2.189 14.778-9.394 4.915-7.664-3.192.545-22.19 3.972-33.484 1.752-11.295-2.219-13.57-1.771 25.186-7.299 38.852-5.559 44.189-22.647 44.189-22.647s-54.788 6.164-69.053 4.837-24.007-2.38-32.024 4.532z"/>
    <path d="M-59.33 770.186s42.648-4.619 57.042 11.539c0 0 5.717-2.764 1.152-7.561-4.564-4.796 12.526 1.174 16.82-1.429 4.295-2.603 16.356-10.979 12.906-12.458-3.45-1.478-44.46.481-45.07-2.901-.608-3.382 33.964-.014 51.384-1.54 17.421-1.526 21.631-13.489 25.165-17.102 0 0-44.584 1.999-67.732 1.862-23.148-.137-26.306 2.084-26.306 2.084l-25.362 27.506z"/>
    <path d="M169.689 496c-5.958 21.833-13.229 36.618-22.68 52.451-9.419 15.928-20.484 31.037-32.151 45.61-11.668 14.573-22.667 30.821-35.316 44.669-12.65 13.848-26.473 25.769-39.598 39.144l-10.477 9.321c-3.313 3.328-6.626 6.656-9.97 9.889l-10.003 9.794-10.002 9.795-20.13 19.525c-6.658 6.561-13.347 13.028-20.005 19.589-13.315 13.122-26.503 26.307-39.438 39.618-3.218 3.296-6.5 6.719-9.717 10.015l-9.559 10.173c-3.186 3.391-6.34 6.877-9.432 10.236-1.545 1.679-3.059 3.453-4.573 5.228l-2.176 2.63c-.662.855-1.514 1.774-2.018 2.471l-.063.126c-1.482 1.869-3.884 2.571-5.404 1.499-1.521-1.072-1.558-3.38-.107-5.344l.094-.032c.883-1.14 1.672-1.933 2.397-2.915l2.366-2.693c1.608-1.806 3.154-3.486 4.763-5.292 3.154-3.486 6.435-6.908 9.716-10.331 3.281-3.423 6.499-6.719 9.78-10.142l9.938-9.984a2944.106 2944.106 0 0140.198-39.24 2877.028 2877.028 0 0120.322-19.273l20.353-19.179 10.192-9.541 10.16-9.637 10.035-9.699 10.54-9.132c13.316-13.122 27.203-24.854 40.075-38.355 12.84-13.595 23.934-29.558 35.76-43.974 11.857-14.32 23.207-29.209 32.785-44.979 9.514-15.643 16.027-30.173 23.345-52.041z"/>
  </g>
  <g style="mix-blend-mode:luminosity" opacity=".05" fill="#000" fill-opacity=".75">
    <path d="M-50.051 926.624s5.06-13.515-1.646-42.277c-6.612-28.793-9.05-44.219-2.336-53.753 6.682-9.629 9.149-9.508 7.46-1.345-1.69 8.162 6.527 61.207 11.58 58.033 5.147-3.206-1.014-14.639-3.661-38.224-2.647-23.584-5.385-31.737 10.14-46.445 0 0 17.187 34.841 19.8 57.382 2.55 22.668 8.802 18.669-.623 32.067-9.456 13.303-40.714 34.562-40.714 34.562z"/>
    <path d="M-14.454 894.414s3.397-8.104-5.886-43.595c-9.315-35.586-15.021-41.581-6.092-50.488 8.96-8.811 12.146-12.835 10.78-1.827-1.462 11.04 5.314 42.521 8.151 38.72 2.743-3.77-8.962-33.595.526-46.803 9.488-13.209 22.564-20.449 22.564-20.449s-7.981 22.408 2.909 55.46l5.158 29.176s-1.973 8.575-20.057 24.143l-18.053 15.663z"/>
    <path d="M20.1 862.554s.514-10.722-7.296-38.058c-7.81-27.336-10.654-40.2-3.147-48.628 7.507-8.429 13.005-10.592 11.055-5.718-1.95 4.875 4.762 35.85 6.925 27.528 2.258-8.353-3.563-23.171 1.637-30.931 5.2-7.759 15.909-12.938 15.909-12.938s13.842 51.893 4.305 71.236C39.855 844.42 20.1 862.554 20.1 862.554z"/>
    <path d="M47.689 826.599s6.825-44.066-7.59-69.395c0 0 8.932-7.641 10.304-2.3 1.372 5.341 6.294 28.478 8.109 19.746 1.814-8.732-1.858-24.377 3.284-29.797 5.142-5.419 13.063-12.615 15.7-6.961 2.638 5.655 6.716 4.918 9.67-3.247 2.954-8.166 7.097-7.764 20.523-13.645 0 0-13.271 59.734-60 105.599z"/>
    <path d="M112.16 795.557c-4.358 2.729-24.92 13.433-16.594 3.674 8.39-9.885 13.708-7.557 14.195-29.347.488-21.789 2.448-22.236-.115-22.958-2.563-.721-9.659 7.991-5.568-1.189 4.09-9.18 4.444-20.375 3.548-24.61 0 0-10.105 33.669-25.893 57.96-15.693 24.259-37.862 51.221-44.039 60.785-6.081 9.532 56.34-5.315 62.745-11.686 6.405-6.37 16.489-35.708 11.721-32.629z"/>
    <path d="M85.027 864.588s7.776-15.165 10.266-19.061c2.584-3.927-7.588.966-17.45 3.013-9.861 2.046-26.207 3.633-7.6-5.042 18.606-8.676 27.43-8.159 32.597-16.329 5.136-8.265 3.968-7.345 4.686-11.49.75-4.049-19.72 5.99-38.149 8.91-18.43 2.92-18.973.359-25.126 5.907-6.154 5.548-32.545 39.73-40.62 48.349-8.108 8.526 81.396-14.257 81.396-14.257z"/>
    <path d="M7.856 873.523c-2.21 1.903-42.733 37.033-48.504 44.035-5.771 7.002 58.757-12.878 76.626-12.128 17.774.781 15.824 5.656 20.081.428 6.118-7.54 16.992-23.534 13.832-22.578-3.16.956-63.478 9.505-50.018 4.351 13.46-5.153 51.55-11.407 57.52-14.677 5.97-3.271 8.169-9.601 10.058-13.084 0 0-22.548-.549-43.25 4.4-20.702 4.948-29.875 3.704-36.345 9.253z"/>
    <path d="M-59.044 935.024s22.893-28.26 38.352-30.287c15.46-2.028 81.892-5.247 82.49-6.291 1.575-2.534-5.256 10.732-13.22 13.406-7.962 2.675-32.209 6.177-28.76 7.339 3.45 1.162 26.363-5.057 23.589-1.066-2.68 3.959-2.733 8.197-6.708 12.38-3.975 4.183-96.047 9.896-95.743 4.519z"/>
    <path d="M-62.202 937.245S-89.156 960.012-96 967.585c-6.845 7.574 78.904 1.876 78.904 1.876s12.103-3.538 15.166-5.727c3.062-2.189 14.778-9.394 4.915-7.664-3.192.545-22.19 3.972-33.484 1.752-11.295-2.219-13.57-1.771 25.186-7.299 38.852-5.559 44.19-22.647 44.19-22.647s-54.79 6.164-69.054 4.837c-14.265-1.327-24.007-2.38-32.024 4.532z"/>
    <path d="M-121.331 995.186s42.649-4.619 57.043 11.544c0 0 5.717-2.77 1.152-7.565-4.564-4.797 12.526 1.175 16.82-1.43 4.295-2.603 16.356-10.979 12.906-12.457-3.45-1.479-44.46.48-45.07-2.902-.608-3.382 33.964-.014 51.384-1.54 17.421-1.526 21.631-13.489 25.165-17.102 0 0-44.584 1.999-67.732 1.862-23.148-.137-26.306 2.084-26.306 2.084l-25.362 27.506z"/>
    <path d="M107.689 721c-5.958 21.833-13.23 36.618-22.68 52.451-9.419 15.928-20.484 31.037-32.151 45.61-11.668 14.573-22.667 30.821-35.316 44.669-12.65 13.848-26.473 25.769-39.598 39.144l-10.477 9.321c-3.313 3.328-6.626 6.656-9.97 9.889l-10.003 9.794-10.002 9.795-20.13 19.525c-6.658 6.561-13.347 13.028-20.005 19.589-13.315 13.122-26.503 26.303-39.438 39.623-3.218 3.29-6.499 6.71-9.717 10.01l-9.559 10.17c-3.186 3.39-6.34 6.88-9.432 10.24-1.545 1.68-3.059 3.45-4.573 5.23l-2.176 2.63c-.662.85-1.514 1.77-2.018 2.47l-.063.12c-1.482 1.87-3.884 2.57-5.404 1.5-1.521-1.07-1.558-3.38-.107-5.34l.094-.03c.883-1.14 1.672-1.94 2.397-2.92l2.366-2.69c1.608-1.81 3.154-3.49 4.763-5.29 3.154-3.49 6.435-6.91 9.716-10.33 3.281-3.43 6.499-6.72 9.78-10.15 3.313-3.32 6.626-6.65 9.938-9.98a2927.084 2927.084 0 0160.52-58.513l20.353-19.179 10.192-9.541 10.16-9.637 10.035-9.699 10.54-9.132c13.316-13.122 27.203-24.854 40.075-38.355 12.84-13.595 23.934-29.558 35.76-43.974 11.857-14.32 23.207-29.209 32.785-44.979 9.514-15.643 16.027-30.173 23.345-52.041z"/>
  </g>
  <defs>
    <filter id="filter0_dd" x="118.57" y="-81.505" width="576.795" height="648.758" filterUnits="userSpaceOnUse" color-interpolation-filters="sRGB">
      <feFlood flood-opacity="0" result="BackgroundImageFix"/>
      <feColorMatrix in="SourceAlpha" values="0 0 0 0 0 0 0 0 0 0 0 0 0 0 0 0 0 0 127 0"/>
      <feOffset dy="40"/>
      <feGaussianBlur stdDeviation="38.5"/>
      <feColorMatrix values="0 0 0 0 0 0 0 0 0 0 0 0 0 0 0 0 0 0 0.19 0"/>
      <feBlend in2="BackgroundImageFix" result="effect1_dropShadow"/>
      <feColorMatrix in="SourceAlpha" values="0 0 0 0 0 0 0 0 0 0 0 0 0 0 0 0 0 0 127 0"/>
      <feOffset dy="27"/>
      <feGaussianBlur stdDeviation="12"/>
      <feColorMatrix values="0 0 0 0 0 0 0 0 0 0 0 0 0 0 0 0 0 0 0.24 0"/>
      <feBlend in2="effect1_dropShadow" result="effect2_dropShadow"/>
      <feBlend in="SourceGraphic" in2="effect2_dropShadow" result="shape"/>
    </filter>
    <filter id="filter1_dd" x="545.137" y="-159" width="643.185" height="520.045" filterUnits="userSpaceOnUse" color-interpolation-filters="sRGB">
      <feFlood flood-opacity="0" result="BackgroundImageFix"/>
      <feColorMatrix in="SourceAlpha" values="0 0 0 0 0 0 0 0 0 0 0 0 0 0 0 0 0 0 127 0"/>
      <feOffset dy="17"/>
      <feGaussianBlur stdDeviation="25"/>
      <feColorMatrix values="0 0 0 0 0 0 0 0 0 0 0 0 0 0 0 0 0 0 0.19 0"/>
      <feBlend in2="BackgroundImageFix" result="effect1_dropShadow"/>
      <feColorMatrix in="SourceAlpha" values="0 0 0 0 0 0 0 0 0 0 0 0 0 0 0 0 0 0 127 0"/>
      <feOffset dy="12"/>
      <feGaussianBlur stdDeviation="7.5"/>
      <feColorMatrix values="0 0 0 0 0 0 0 0 0 0 0 0 0 0 0 0 0 0 0.24 0"/>
      <feBlend in2="effect1_dropShadow" result="effect2_dropShadow"/>
      <feBlend in="SourceGraphic" in2="effect2_dropShadow" result="shape"/>
    </filter>
  </defs>
</svg>
