<svg xmlns="http://www.w3.org/2000/svg" width="436" height="273" viewBox="0 0 436 273">
  <g fill="none" fill-rule="evenodd" transform="translate(2 2)">
    <path stroke="#E0E2E4" stroke-dasharray="3 10" stroke-linecap="round" stroke-linejoin="round" stroke-width="4" d="M0.5,101.440844 C213.166667,179.293896 319.5,190.887089 319.5,136.220422 C319.5,54.2204222 242,-66 220,46.9408445 C198,159.881689 432,15.9408445 432,88.9408445 C432,137.607511 394.5,195.440844 319.5,262.440844" transform="matrix(-1 0 0 1 432.5 0)"/>
    <path fill="#E0E2E4" d="M118.288854,262.577709 L122.552786,271.105573 C123.046765,272.09353 122.646316,273.294876 121.658359,273.788854 C121.380648,273.92771 121.074422,274 120.763932,274 L112.236068,274 C111.131498,274 110.236068,273.104569 110.236068,272 C110.236068,271.68951 110.308358,271.383284 110.447214,271.105573 L114.711146,262.577709 C115.205124,261.589752 116.40647,261.189303 117.394427,261.683282 C117.781482,261.876809 118.095327,262.190654 118.288854,262.577709 Z" transform="rotate(137 116.5 266.5)"/>
  </g>
</svg>
