<svg xmlns="http://www.w3.org/2000/svg" width="431" height="264" viewBox="0 0 431 264">
  <g fill="none" fill-rule="evenodd" transform="translate(2 2)">
    <path fill="#E0E2E4" d="M317.388995,253.677849 L321.652927,262.205713 C322.146905,263.19367 321.746457,264.395016 320.7585,264.888995 C320.480789,265.02785 320.174563,265.10014 319.864072,265.10014 L311.336208,265.10014 C310.231639,265.10014 309.336208,264.20471 309.336208,263.10014 C309.336208,262.78965 309.408499,262.483424 309.547354,262.205713 L313.811286,253.677849 C314.305265,252.689892 315.506611,252.289444 316.494568,252.783422 C316.881622,252.976949 317.195467,253.290794 317.388995,253.677849 Z" transform="scale(1 -1) rotate(-43 -338.356 0)"/>
    <path stroke="#E0E2E4" stroke-dasharray="3 10" stroke-linecap="round" stroke-linejoin="round" stroke-width="4" d="M0,92.552043 C126,135.184014 189,129.166667 189,74.5 C189,-7.5 341,-38.4408445 319,74.5 C297,187.440844 427,19.552043 427,92.552043 C427,141.21871 391,194.885376 319,253.552043"/>
  </g>
</svg>
