<svg xmlns="http://www.w3.org/2000/svg" width="436" height="251" viewBox="0 0 436 251">
  <g fill="none" fill-rule="evenodd" transform="translate(2 2)">
    <path fill="#E0E2E4" d="M85.3889948,240.677849 L89.6529269,249.205713 C90.1469054,250.19367 89.7464567,251.395016 88.7584997,251.888995 C88.4807888,252.02785 88.1745627,252.10014 87.8640725,252.10014 L79.3362084,252.10014 C78.2316389,252.10014 77.3362084,251.20471 77.3362084,250.10014 C77.3362084,249.78965 77.4084986,249.483424 77.5473541,249.205713 L81.8112861,240.677849 C82.3052646,239.689892 83.5066107,239.289444 84.4945677,239.783422 C84.8816225,239.976949 85.1954674,240.290794 85.3889948,240.677849 Z" transform="rotate(121 83.6 244.6)"/>
    <path stroke="#E0E2E4" stroke-dasharray="3 10" stroke-linecap="round" stroke-linejoin="round" stroke-width="4" d="M0,133.166454 C72.9485118,177.552222 152.448512,186.996737 238.5,161.5 C292.5,145.5 375.913826,93.0959656 411.5,61.5 C448.045433,29.0523348 330.146286,-34.1069969 319,23.1144109 C297,136.055255 431.5,47.6664539 431.5,120.666454 C431.5,169.333121 404.333333,209.944303 350,242.5" transform="matrix(-1 0 0 1 431.5 0)"/>
  </g>
</svg>
