<svg xmlns="http://www.w3.org/2000/svg" width="403" height="261" viewBox="0 0 403 261">
  <g fill="none" fill-rule="evenodd" transform="translate(2 2)">
    <path stroke="#E0E2E4" stroke-dasharray="3 10" stroke-linecap="round" stroke-linejoin="round" stroke-width="4" d="M0.5,92 C213.166667,138.333333 319.5,134.166667 319.5,79.5 C319.5,-2.5 220,-27.5 220,37.5 C220,102.5 398.5,79.5 398.5,152.5 C398.5,201.166667 372.166667,234.666667 319.5,253"/>
    <path fill="#E0E2E4" d="M316.388995,251.677849 L320.652927,260.205713 C321.146905,261.19367 320.746457,262.395016 319.7585,262.888995 C319.480789,263.02785 319.174563,263.10014 318.864072,263.10014 L310.336208,263.10014 C309.231639,263.10014 308.336208,262.20471 308.336208,261.10014 C308.336208,260.78965 308.408499,260.483424 308.547354,260.205713 L312.811286,251.677849 C313.305265,250.689892 314.506611,250.289444 315.494568,250.783422 C315.881622,250.976949 316.195467,251.290794 316.388995,251.677849 Z" transform="rotate(-117 314.6 255.6)"/>
  </g>
</svg>
