<svg width="62" height="66" fill="none" xmlns="http://www.w3.org/2000/svg">
  <path fill-rule="evenodd" clip-rule="evenodd" d="M42.3502 64.6845c-1.6296-1.7663-.4968-6.7919-3.7793-6.6581-.7276.5306-.4213 2.0849-.8073 2.9413-2.1893.3977-2.6473-1.2392-4.0506-1.7942-1.6126.5286-1.4785 2.8522-3.9168 2.5447-.1008-1.3693.1474-3.1434-.57-3.835-2.2815-.1482-2.6357 1.6928-4.3788 2.0914-.4629-1.1288-1.687-1.3881-1.445-3.335-1.0001-.344-1.7827-.9536-3.1485-.8675-1.254-6.1669-9.7936-7.1482-7.5965-14.2538-.2355-2.1252-3.5949-2.6037-1.981-5.2602-2.5134.9362.9633-3.3833-1.0404-4.8152-.4913-1.147-1.948 1.0262-1.8433-1.3881 2.1773.3413 2.4861-1.2098 3.0283-2.5055.2718-1.6706-1.8252-.5787-1.4041-2.3809.8034-.7419 2.2789-.7934 2.5986-2.0319.3172-1.3839-.6835-1.2364-.542-2.3835l.6705-.2898-.2465-.7052.423-.0148c1.4155-.6123 1.4701-2.8739.7408-4.4135 1.8136.0328 4.9981-.5973 4.285-4.4877 2.2773 1.76 2.8545-2.2853 4.8781-.6426 1.2182-.7757 1.8141-2.1913 3.4654-2.5482-.1041.7724.4424.8302.4936 1.4297 1.3485-1.5929 5.609-.2123 6.6046-2.1663l.4265.2322.4642.2254c.4431-.0155.3709.5883.4765.9416 1.0201 1.9962 5.3854.0975 6.303 2.1906.384.0964.4145-.1847.4444-.485l.6607.224.1965-.7262c.6261 1.2548 2.9884.5408 4.0562 1.3053.3684 1.4533-1.1838.9666-.8072 2.4389l1.3219-.0462-.1758.8875.6752.564c.2344 3.0313 5.7018 1.8684 7.1491.7223-.4193.8438.8554 4.7888-2.0778 4.8912.7082 4.9038 5.9662 7.1281 5.3095 11.9285-.2781 1.4924 1.2564.8951.9784 2.3902.2031 2.0632-2.0315 1.669-2.1001 3.4588 1.0975.2445 3.0509.2367 4.0711 1.8018l-.6545.2452.2394.7193c-1.4516.7316-2.9287 1.3845-4.3653 2.1155-.2356 2.1334 1.3561 2.0916 1.4612 3.8012-1.8416.5366-2.4305 1.2875-1.6468 3.4457-.6375.9448-2.923.1762-3.5267 1.0813l.0178.5101-.645.5854.2429.8921c-1.8021.008-1.8392 1.8352-1.6304 3.9146-2.9896-1.5128-5.0871.2875-6.5925 2.6574-.071 1.9382.8969 2.6567.6242 4.8106l-.6781-.218-.6563.2646zm-29.1207-3.7006c-1.2309.0068-1.2014-2.667.3411-2.2767.1644 1.0531-.0104 1.7306-.3411 2.2767m48.5454-7.5922c-.4001-.4818-1.5315-.0885-1.2928-1.3157.9043-.122 1.3315.3228 1.2928 1.3157" fill="#FF0078"/>
  <path fill-rule="evenodd" clip-rule="evenodd" d="M35.3502 58.6845c-1.6296-1.7663-.4968-6.7919-3.7793-6.6581-.7276.5306-.4213 2.0849-.8073 2.9413-2.1893.3977-2.6473-1.2392-4.0506-1.7942-1.6126.5286-1.4785 2.8522-3.9168 2.5447-.1008-1.3693.1474-3.1434-.57-3.835-2.2815-.1482-2.6357 1.6928-4.3788 2.0914-.4629-1.1288-1.687-1.3881-1.445-3.335-1.0001-.344-1.7827-.9536-3.1485-.8675-1.254-6.1669-9.7936-7.1482-7.5965-14.2538-.2355-2.1252-3.5949-2.6037-1.981-5.2602-2.5134.9362.9633-3.3833-1.0404-4.8152-.4913-1.147-1.948 1.0262-1.8433-1.3881 2.1773.3413 2.4861-1.2098 3.0283-2.5055.2719-1.6706-1.8252-.5787-1.4041-2.3809.8034-.7419 2.2789-.7934 2.5986-2.0319.3172-1.3839-.6835-1.2364-.542-2.3835l.6705-.2898-.2465-.7052.423-.0148c1.4155-.6123 1.4701-2.8739.7408-4.4134 1.8136.0327 4.9981-.5974 4.285-4.4878 2.2773 1.76 2.8545-2.2853 4.8781-.6426 1.2182-.7757 1.8141-2.1913 3.4654-2.5482-.1041.7724.4424.8302.4936 1.4297 1.3485-1.5929 5.609-.2123 6.6046-2.1663l.4265.2322.4642.2254c.4431-.0155.3709.5883.4765.9416 1.0201 1.9962 5.3854.0975 6.303 2.1906.384.0964.4145-.1847.4444-.485l.6607.224.1965-.7262c.6261 1.2548 2.9884.5408 4.0562 1.3053.3684 1.4533-1.1838.9666-.8072 2.4389l1.3219-.0462-.1758.8875.6752.564c.2344 3.0313 5.7018 1.8684 7.1491.7223-.4193.8438.8554 4.7888-2.0778 4.8912.7082 4.9038 5.9662 7.1281 5.3095 11.9285-.2781 1.4924 1.2564.8951.9784 2.3902.2031 2.0632-2.0315 1.669-2.1001 3.4588 1.0975.2445 3.0509.2367 4.0711 1.8018l-.6545.2452.2394.7193c-1.4516.7316-2.9287 1.3845-4.3653 2.1155-.2356 2.1334 1.3561 2.0916 1.4612 3.8012-1.8416.5366-2.4305 1.2875-1.6468 3.4457-.6375.9448-2.923.1762-3.5267 1.0813l.0178.5101-.645.5854.2429.8921c-1.8021.008-1.8392 1.8352-1.6304 3.9146-2.9896-1.5128-5.0871.2875-6.5925 2.6574-.071 1.9382.8969 2.6567.6242 4.8106l-.6781-.218-.6563.2646zM6.2295 54.9839c-1.2309.0068-1.2014-2.667.3411-2.2767.1644 1.0531-.0104 1.7306-.341 2.2767m48.5453-7.5922c-.4001-.4818-1.5315-.0885-1.2928-1.3157.9043-.122 1.3315.3228 1.2928 1.3157" fill="#00FFF0"/>
  <path fill-rule="evenodd" clip-rule="evenodd" d="M38.329 62.3677c-1.6296-1.7662-.4968-6.7919-3.7793-6.6581-.7277.5306-.4213 2.085-.8073 2.9414-2.1894.3977-2.6473-1.2392-4.0507-1.7943-1.6125.5286-1.4784 2.8522-3.9167 2.5448-.1008-1.3694.1473-3.1435-.57-3.8351-2.2815-.1482-2.6357 1.6928-4.3788 2.0914-.4629-1.1288-1.687-1.3881-1.445-3.335-1.0001-.3439-1.7827-.9536-3.1485-.8675-1.254-6.1669-9.7936-7.1481-7.5965-14.2538-.2355-2.1251-3.5949-2.6036-1.981-5.2601-2.5134.9361.9633-3.3834-1.0404-4.8153-.4913-1.147-1.948 1.0263-1.8433-1.3881 2.1773.3413 2.4861-1.2098 3.0283-2.5054.2718-1.6707-1.8252-.5788-1.4041-2.3809.8034-.742 2.2789-.7935 2.5986-2.032.3172-1.3839-.6835-1.2364-.542-2.3835l.6705-.2897-.2465-.7053.423-.0148c1.4155-.6123 1.4701-2.8739.7408-4.4134 1.8136.0327 4.9981-.5974 4.285-4.4878 2.2773 1.7601 2.8545-2.2852 4.8781-.6426 1.2182-.7756 1.8141-2.1913 3.4654-2.5482-.1041.7724.4424.8302.4936 1.4297 1.3485-1.5929 5.609-.2123 6.6046-2.1663l.4265.2322.4642.2254c.4431-.0154.3709.5884.4765.9416 1.0201 1.9962 5.3854.0975 6.303 2.1906.384.0964.4145-.1847.4444-.485l.6607.224.1965-.7262c.6261 1.2549 2.9884.5409 4.0562 1.3053.3684 1.4533-1.1838.9666-.8072 2.4389l1.3218-.0462-.1757.8875.6751.564c.2345 3.0313 5.7019 1.8684 7.1492.7223-.4193.8439.8554 4.7888-2.0778 4.8912.7082 4.9038 5.9662 7.1281 5.3095 11.9285-.2781 1.4924 1.2564.8952.9784 2.3903.2031 2.0631-2.0315 1.6689-2.1001 3.4587 1.0975.2445 3.0509.2367 4.071 1.8018l-.6544.2452.2394.7193c-1.4517.7316-2.9288 1.3845-4.3653 2.1156-.2356 2.1333 1.3561 2.0915 1.4612 3.8011-1.8416.5366-2.4305 1.2875-1.6468 3.4457-.6375.9448-2.923.1762-3.5267 1.0814l.0178.51-.645.5854.2429.8921c-1.8022.008-1.8392 1.8352-1.6304 3.9146-2.9897-1.5128-5.0872.2875-6.5925 2.6574-.071 1.9382.8969 2.6567.6242 4.8106l-.6781-.218-.6563.2646zM9.2083 58.6671c-1.2309.0068-1.2014-2.667.3411-2.2767.1644 1.0531-.0104 1.7306-.341 2.2767m48.5453-7.5921c-.4001-.4819-1.5315-.0886-1.2928-1.3158.9043-.122 1.3315.3228 1.2928 1.3158" fill="#5900FF"/>
  <path d="M22 26.968c0 .48.0907.9227.272 1.328.1813.4053.4267.7573.736 1.056.3093.2987.6667.5333 1.072.704.416.16.8533.24 1.312.24.4587 0 .8907-.08 1.296-.24.416-.1707.7787-.4053 1.088-.704.32-.2987.5707-.6507.752-1.056.1813-.4053.272-.848.272-1.328 0-.48-.0907-.9227-.272-1.328-.1813-.4053-.432-.7573-.752-1.056-.3093-.2987-.672-.528-1.088-.688-.4053-.1707-.8373-.256-1.296-.256s-.896.0853-1.312.256c-.4053.16-.7627.3893-1.072.688-.3093.2987-.5547.6507-.736 1.056-.1813.4053-.272.848-.272 1.328zm-3.28 0c0-.896.1653-1.728.496-2.496.3307-.7787.7893-1.456 1.376-2.032.5867-.576 1.2853-1.024 2.096-1.344.8213-.3307 1.7227-.496 2.704-.496.9707 0 1.8667.1653 2.688.496.8213.32 1.5253.768 2.112 1.344.5973.576 1.0613 1.2533 1.392 2.032.3307.768.496 1.6.496 2.496 0 .896-.1653 1.7333-.496 2.512-.3307.768-.7947 1.44-1.392 2.016-.5867.576-1.2907 1.0293-2.112 1.36-.8213.32-1.7173.48-2.688.48-.9813 0-1.8827-.16-2.704-.48-.8107-.3307-1.5093-.784-2.096-1.36-.5867-.576-1.0453-1.248-1.376-2.016-.3307-.7787-.496-1.616-.496-2.512zm16.416 9.28h6.224c0 .64-.0267 1.2213-.08 1.744-.0533.5227-.16 1.008-.32 1.456-.224.6293-.528 1.1893-.912 1.68-.384.48-.8373.8853-1.36 1.216-.512.32-1.0773.5653-1.696.736-.6187.1707-1.2693.256-1.952.256-.9387 0-1.7973-.1547-2.576-.464-.768-.3093-1.4293-.7413-1.984-1.296-.5547-.5653-.9867-1.2373-1.296-2.016-.3093-.7893-.464-1.6587-.464-2.608 0-.9387.1493-1.7973.448-2.576.3093-.7893.7413-1.4613 1.296-2.016.5653-.5547 1.2427-.9867 2.032-1.296.7893-.3093 1.6693-.464 2.64-.464 1.2587 0 2.3627.272 3.312.816.9493.544 1.7013 1.3867 2.256 2.528l-2.976 1.232c-.2773-.6613-.64-1.136-1.088-1.424-.4373-.288-.9387-.432-1.504-.432-.4693 0-.896.0907-1.28.272-.384.1707-.7147.4213-.992.752-.2667.32-.48.7093-.64 1.168-.1493.4587-.224.9707-.224 1.536 0 .512.064.9867.192 1.424.1387.4373.3413.816.608 1.136.2667.32.5973.5707.992.752.3947.1707.8533.256 1.376.256.3093 0 .608-.032.896-.096.288-.0747.544-.1867.768-.336.2347-.16.4267-.3627.576-.608.1493-.2453.2507-.544.304-.896h-2.576v-2.432z" fill="#EAEBF4"/>
</svg>
