<svg xmlns="http://www.w3.org/2000/svg" width="69" height="58" viewBox="0 0 69 58">
  <g fill="none" fill-rule="evenodd">
    <path fill="#5252ED" d="M7.54205292,38.0395251 C9.23641073,36.3492127 13.8703773,37.759618 13.8525151,34.2159406 C13.3829942,33.4115476 11.9285003,33.683302 11.145115,33.2349072 C10.846561,30.8597738 12.3827107,30.4276843 12.9440943,28.9357526 C12.5051944,27.1775016 10.3413158,27.23457 10.7062151,24.6175752 C11.9820869,24.5605067 13.6228581,24.8947646 14.2888632,24.14744 C14.500658,21.6934978 12.8011967,21.2423855 12.4873322,19.3482573 C13.5514093,18.8917099 13.8321011,17.5818537 15.6336322,17.9161116 C15.9857728,16.8508343 16.5777773,16.030136 16.5420529,14.5545096 C22.3140972,13.4348815 23.5032097,4.26588798 30.0356736,6.90190568 C32.0183784,6.72798286 32.5721068,3.12451949 34.9886081,4.96429679 C34.2001193,2.21957733 38.1017354,6.13012318 39.4975392,4.02402656 C40.5794785,3.53758618 38.6069806,1.88531942 40.8474116,2.08913522 C40.4595465,4.42350553 41.8910748,4.81483187 43.0776356,5.44801963 C44.6214405,5.8040179 43.6747436,3.50225811 45.3359287,4.02402656 C45.9993821,4.91809855 45.9993821,6.51057934 47.1400115,6.90190568 C48.4158834,7.29594956 48.3112619,6.2116495 49.3727873,6.40731267 L49.6203064,7.14104955 L50.2837598,6.90190568 L50.2837598,7.35845308 C50.8068672,8.90745317 52.9069523,9.051483 54.3614462,8.3231812 C54.2695834,10.2770954 54.7544147,13.7338113 58.3932012,13.1114938 C56.6835329,15.500215 60.4243892,16.274715 58.8321011,18.3943993 C59.5134167,19.7368661 60.8097025,20.4325574 61.0878425,22.2261364 C60.3733543,22.0848241 60.3019055,22.6718136 59.7430736,22.7044242 C61.1797053,24.2180962 59.7583841,28.7591122 61.5420529,29.9059158 L61.312396,30.3570281 L61.0878425,30.8489036 C61.0878425,31.3271913 60.5290107,31.2266422 60.197284,31.3271913 C58.3089937,32.3517054 59.9319027,37.1291478 57.956853,38.0395251 C57.8547833,38.4498742 58.1150611,38.4933549 58.3932012,38.5368356 L58.1635443,39.2406795 L58.8321011,39.4798234 C57.6455403,40.1075761 58.2324414,42.6810903 57.4873322,43.8034359 C56.1247011,44.1458465 56.6273946,42.4908622 55.2469012,42.8414254 L55.2469012,44.268136 L54.4277915,44.0452974 L53.8817184,44.7518588 C51.0569381,44.8904535 51.9602554,50.8282872 52.9784011,52.4316382 C52.2077745,51.9479154 48.5000909,53.1735277 48.5000909,50.0075889 C43.919711,50.5864258 41.6818318,56.1709788 37.2417977,55.2823419 C35.8638562,54.9263436 36.3691014,56.6030683 34.9886081,56.24707 C33.0645933,56.3883823 33.5034932,53.994226 31.8423081,53.8529137 C31.5794785,55.0268927 31.5233401,57.1329894 30.0356736,58.1738087 L29.8289823,57.4590946 L29.1527702,57.6900859 C28.5199378,56.0976051 27.9611059,54.4806664 27.3282735,52.9044909 C25.3532239,52.5702329 25.3404652,54.2877208 23.7481771,54.3366366 C23.3092772,52.3310891 22.6305134,51.6680083 20.5993254,52.4316382 C19.7419395,51.7087715 20.5304283,49.2738521 19.7087668,48.589031 L19.2341425,48.589031 L18.7110351,47.8715993 L17.8740631,48.099873 C17.925098,46.1568291 16.2281884,46.0481273 14.2888632,46.1948747 C15.7918403,43.0289359 14.1867935,40.7000007 12.0331218,38.9879479 C10.2341425,38.838483 9.53496475,39.8548445 7.54205292,39.4798234 L7.76660637,38.7569567 L7.54205292,38.0395251 Z" transform="rotate(-22 34.542 30.123)"/>
    <path fill="#5252ED" d="M14.5420529,37.0395251 C16.2364107,35.3492127 20.8703773,36.759618 20.8525151,33.2159406 C20.3829942,32.4115476 18.9285003,32.683302 18.145115,32.2349072 C17.846561,29.8597738 19.3827107,29.4276843 19.9440943,27.9357526 C19.5051944,26.1775016 17.3413158,26.23457 17.7062151,23.6175752 C18.9820869,23.5605067 20.6228581,23.8947646 21.2888632,23.14744 C21.500658,20.6934978 19.8011967,20.2423855 19.4873322,18.3482573 C20.5514093,17.8917099 20.8321011,16.5818537 22.6336322,16.9161116 C22.9857728,15.8508343 23.5777773,15.030136 23.5420529,13.5545096 C29.3140972,12.4348815 30.5032097,3.26588798 37.0356736,5.90190568 C39.0183784,5.72798286 39.5721068,2.12451949 41.9886081,3.96429679 C41.2001193,1.21957733 45.1017354,5.13012318 46.4975392,3.02402656 C47.5794785,2.53758618 45.6069806,0.885319418 47.8474116,1.08913522 C47.4595465,3.42350553 48.8910748,3.81483187 50.0776356,4.44801963 C51.6214405,4.8040179 50.6747436,2.50225811 52.3359287,3.02402656 C52.9993821,3.91809855 52.9993821,5.51057934 54.1400115,5.90190568 C55.4158834,6.29594956 55.3112619,5.2116495 56.3727873,5.40731267 L56.6203064,6.14104955 L57.2837598,5.90190568 L57.2837598,6.35845308 C57.8068672,7.90745317 59.9069523,8.051483 61.3614462,7.3231812 C61.2695834,9.27709535 61.7544147,12.7338113 65.3932012,12.1114938 C63.6835329,14.500215 67.4243892,15.274715 65.8321011,17.3943993 C66.5134167,18.7368661 67.8097025,19.4325574 68.0878425,21.2261364 C67.3733543,21.0848241 67.3019055,21.6718136 66.7430736,21.7044242 C68.1797053,23.2180962 66.7583841,27.7591122 68.5420529,28.9059158 L68.312396,29.3570281 L68.0878425,29.8489036 C68.0878425,30.3271913 67.5290107,30.2266422 67.197284,30.3271913 C65.3089937,31.3517054 66.9319027,36.1291478 64.956853,37.0395251 C64.8547833,37.4498742 65.1150611,37.4933549 65.3932012,37.5368356 L65.1635443,38.2406795 L65.8321011,38.4798234 C64.6455403,39.1075761 65.2324414,41.6810903 64.4873322,42.8034359 C63.1247011,43.1458465 63.6273946,41.4908622 62.2469012,41.8414254 L62.2469012,43.268136 L61.4277915,43.0452974 L60.8817184,43.7518588 C58.0569381,43.8904535 58.9602554,49.8282872 59.9784011,51.4316382 C59.2077745,50.9479154 55.5000909,52.1735277 55.5000909,49.0075889 C50.919711,49.5864258 48.6818318,55.1709788 44.2417977,54.2823419 C42.8638562,53.9263436 43.3691014,55.6030683 41.9886081,55.24707 C40.0645933,55.3883823 40.5034932,52.994226 38.8423081,52.8529137 C38.5794785,54.0268927 38.5233401,56.1329894 37.0356736,57.1738087 L36.8289823,56.4590946 L36.1527702,56.6900859 C35.5199378,55.0976051 34.9611059,53.4806664 34.3282735,51.9044909 C32.3532239,51.5702329 32.3404652,53.2877208 30.7481771,53.3366366 C30.3092772,51.3310891 29.6305134,50.6680083 27.5993254,51.4316382 C26.7419395,50.7087715 27.5304283,48.2738521 26.7087668,47.589031 L26.2341425,47.589031 L25.7110351,46.8715993 L24.8740631,47.099873 C24.925098,45.1568291 23.2281884,45.0481273 21.2888632,45.1948747 C22.7918403,42.0289359 21.1867935,39.7000007 19.0331218,37.9879479 C17.2341425,37.838483 16.5349647,38.8548445 14.5420529,38.4798234 L14.7666064,37.7569567 L14.5420529,37.0395251 Z" style="mix-blend-mode:multiply" transform="rotate(-69 41.542 29.123)"/>
    <path fill="#FF0078" fill-opacity=".257" d="M1.54205292,35.0395251 C3.23641073,33.3492127 7.87037728,34.759618 7.85251507,31.2159406 C7.38299423,30.4115476 5.92850033,30.683302 5.14511502,30.2349072 C4.846561,27.8597738 6.38271071,27.4276843 6.94409432,25.9357526 C6.5051944,24.1775016 4.34131575,24.23457 4.7062151,21.6175752 C5.98208695,21.5605067 7.62285814,21.8947646 8.28886324,21.14744 C8.50065797,18.6934978 6.80119667,18.2423855 6.4873322,16.3482573 C7.55140932,15.8917099 7.83210112,14.5818537 9.63363217,14.9161116 C9.9857728,13.8508343 10.5777773,13.030136 10.5420529,11.5545096 C16.3140972,10.4348815 17.5032097,1.26588798 24.0356736,3.90190568 C26.0183784,3.72798286 26.5721068,0.124519492 28.9886081,1.96429679 C28.2001193,-0.780422667 32.1017354,3.13012318 33.4975392,1.02402656 C34.5794785,0.537586183 32.6069806,-1.11468058 34.8474116,-0.91086478 C34.4595465,1.42350553 35.8910748,1.81483187 37.0776356,2.44801963 C38.6214405,2.8040179 37.6747436,0.502258111 39.3359287,1.02402656 C39.9993821,1.91809855 39.9993821,3.51057934 41.1400115,3.90190568 C42.4158834,4.29594956 42.3112619,3.2116495 43.3727873,3.40731267 L43.6203064,4.14104955 L44.2837598,3.90190568 L44.2837598,4.35845308 C44.8068672,5.90745317 46.9069523,6.051483 48.3614462,5.3231812 C48.2695834,7.27709535 48.7544147,10.7338113 52.3932012,10.1114938 C50.6835329,12.500215 54.4243892,13.274715 52.8321011,15.3943993 C53.5134167,16.7368661 54.8097025,17.4325574 55.0878425,19.2261364 C54.3733543,19.0848241 54.3019055,19.6718136 53.7430736,19.7044242 C55.1797053,21.2180962 53.7583841,25.7591122 55.5420529,26.9059158 L55.312396,27.3570281 L55.0878425,27.8489036 C55.0878425,28.3271913 54.5290107,28.2266422 54.197284,28.3271913 C52.3089937,29.3517054 53.9319027,34.1291478 51.956853,35.0395251 C51.8547833,35.4498742 52.1150611,35.4933549 52.3932012,35.5368356 L52.1635443,36.2406795 L52.8321011,36.4798234 C51.6455403,37.1075761 52.2324414,39.6810903 51.4873322,40.8034359 C50.1247011,41.1458465 50.6273946,39.4908622 49.2469012,39.8414254 L49.2469012,41.268136 L48.4277915,41.0452974 L47.8817184,41.7518588 C45.0569381,41.8904535 45.9602554,47.8282872 46.9784011,49.4316382 C46.2077745,48.9479154 42.5000909,50.1735277 42.5000909,47.0075889 C37.919711,47.5864258 35.6818318,53.1709788 31.2417977,52.2823419 C29.8638562,51.9263436 30.3691014,53.6030683 28.9886081,53.24707 C27.0645933,53.3883823 27.5034932,50.994226 25.8423081,50.8529137 C25.5794785,52.0268927 25.5233401,54.1329894 24.0356736,55.1738087 L23.8289823,54.4590946 L23.1527702,54.6900859 C22.5199378,53.0976051 21.9611059,51.4806664 21.3282735,49.9044909 C19.3532239,49.5702329 19.3404652,51.2877208 17.7481771,51.3366366 C17.3092772,49.3310891 16.6305134,48.6680083 14.5993254,49.4316382 C13.7419395,48.7087715 14.5304283,46.2738521 13.7087668,45.589031 L13.2341425,45.589031 L12.7110351,44.8715993 L11.8740631,45.099873 C11.925098,43.1568291 10.2281884,43.0481273 8.28886324,43.1948747 C9.79184028,40.0289359 8.1867935,37.7000007 6.03312182,35.9879479 C4.23414252,35.838483 3.53496475,36.8548445 1.54205292,36.4798234 L1.76660637,35.7569567 L1.54205292,35.0395251 Z" style="mix-blend-mode:multiply" transform="rotate(15 28.542 27.123)"/>
    <g fill="#FFF" transform="translate(25 17)">
      <path d="M21.121519,15.0954774 L29,15.0954774 C29,15.8995015 28.9662451,16.6298125 28.8987342,17.2864322 C28.8312233,17.9430519 28.6962035,18.552761 28.4936709,19.1155779 C28.2101252,19.9062016 27.8253189,20.6063621 27.3392405,21.2160804 C26.8531621,21.8257987 26.2827037,22.3350063 25.6278481,22.7437186 C24.9729925,23.1524309 24.2540124,23.4639855 23.4708861,23.678392 C22.6877598,23.8927984 21.8641393,24 21,24 C19.8118084,24 18.7282749,23.8056971 17.7493671,23.4170854 C16.7704592,23.0284738 15.9299613,22.4824156 15.2278481,21.7788945 C14.5257349,21.0753734 13.9789049,20.2311607 13.5873418,19.2462312 C13.1957786,18.2613016 13,17.1725353 13,15.9798995 C13,14.8006641 13.1924031,13.7185979 13.5772152,12.7336683 C13.9620272,11.7487388 14.5088572,10.9078762 15.2177215,10.2110553 C15.9265858,9.51423437 16.7805857,8.97152623 17.7797468,8.58291457 C18.7789079,8.19430291 19.8928209,8 21.121519,8 C22.7147759,8 24.1122303,8.34170513 25.3139241,9.02512563 C26.5156178,9.70854613 27.467507,10.767162 28.1696203,12.201005 L24.4025316,13.7487437 C24.051475,12.9179188 23.5957834,12.3216098 23.035443,11.959799 C22.4751027,11.5979881 21.8371344,11.4170854 21.121519,11.4170854 C20.5274232,11.4170854 19.9873442,11.5276371 19.5012658,11.7487437 C19.0151874,11.9698504 18.6000017,12.2847551 18.2556962,12.6934673 C17.9113907,13.1021796 17.6413512,13.594637 17.4455696,14.1708543 C17.2497881,14.7470716 17.1518987,15.3902812 17.1518987,16.1005025 C17.1518987,16.7437218 17.2362861,17.3400308 17.4050633,17.8894472 C17.5738405,18.4388637 17.8270025,18.9145709 18.164557,19.3165829 C18.5021114,19.718595 18.9206726,20.0301496 19.4202532,20.2512563 C19.9198337,20.4723629 20.5004186,20.5829146 21.1620253,20.5829146 C21.5535885,20.5829146 21.9316437,20.5393639 22.2962025,20.4522613 C22.6607613,20.3651587 22.9881842,20.2244566 23.278481,20.0301508 C23.5687778,19.8358449 23.8084379,19.5845912 23.9974684,19.2763819 C24.1864988,18.9681727 24.3147676,18.592967 24.3822785,18.1507538 L21.121519,18.1507538 L21.121519,15.0954774 Z"/>
      <path d="M0,8 C0,6.87436623 0.210377138,5.8258005 0.631137725,4.85427136 C1.05189831,3.88274221 1.63552521,3.0351795 2.38203593,2.31155779 C3.12854665,1.58793608 4.02095289,1.02177759 5.05928144,0.613065327 C6.09760998,0.204353065 7.24111152,0 8.48982036,0 C9.72495628,0 10.8650646,0.204353065 11.9101796,0.613065327 C12.9552946,1.02177759 13.8544873,1.58793608 14.6077844,2.31155779 C15.3610816,3.0351795 15.9481017,3.88274221 16.3688623,4.85427136 C16.7896229,5.8258005 17,6.87436623 17,8 C17,9.12563377 16.7896229,10.1741995 16.3688623,11.1457286 C15.9481017,12.1172578 15.3610816,12.9648205 14.6077844,13.6884422 C13.8544873,14.4120639 12.9552946,14.9782224 11.9101796,15.3869347 C10.8650646,15.7956469 9.72495628,16 8.48982036,16 C7.24111152,16 6.09760998,15.7956469 5.05928144,15.3869347 C4.02095289,14.9782224 3.12854665,14.4120639 2.38203593,13.6884422 C1.63552521,12.9648205 1.05189831,12.1172578 0.631137725,11.1457286 C0.210377138,10.1741995 0,9.12563377 0,8 Z M4.17365269,8 C4.17365269,8.60301809 4.2890208,9.15912643 4.51976048,9.66834171 C4.75050016,10.177557 5.06267268,10.6197636 5.45628743,10.9949749 C5.84990217,11.3701861 6.30798142,11.6616405 6.83053892,11.8693467 C7.35309643,12.077053 7.90618471,12.1809045 8.48982036,12.1809045 C9.07345601,12.1809045 9.62654429,12.077053 10.1491018,11.8693467 C10.6716593,11.6616405 11.1331317,11.3701861 11.5335329,10.9949749 C11.9339341,10.6197636 12.2494998,10.177557 12.4802395,9.66834171 C12.7109792,9.15912643 12.8263473,8.60301809 12.8263473,8 C12.8263473,7.39698191 12.7109792,6.84087357 12.4802395,6.33165829 C12.2494998,5.82244302 11.9339341,5.38023638 11.5335329,5.00502513 C11.1331317,4.62981387 10.6716593,4.3383595 10.1491018,4.13065327 C9.62654429,3.92294704 9.07345601,3.81909548 8.48982036,3.81909548 C7.90618471,3.81909548 7.35309643,3.92294704 6.83053892,4.13065327 C6.30798142,4.3383595 5.84990217,4.62981387 5.45628743,5.00502513 C5.06267268,5.38023638 4.75050016,5.82244302 4.51976048,6.33165829 C4.2890208,6.84087357 4.17365269,7.39698191 4.17365269,8 Z"/>
    </g>
  </g>
</svg>
