<svg width="40" height="40" viewBox="0 0 40 40" fill="none" xmlns="http://www.w3.org/2000/svg">
<path fill-rule="evenodd" clip-rule="evenodd" d="M20 40C31.0457 40 40 31.0457 40 20C40 8.95431 31.0457 0 20 0C8.95431 0 0 8.95431 0 20C0 31.0457 8.95431 40 20 40Z" fill="#FF00FF"/>
<path fill-rule="evenodd" clip-rule="evenodd" d="M33.3233 15.7884C33.3208 15.7709 33.3167 15.7551 33.3142 15.7384C33.3083 15.7059 33.3025 15.6734 33.2942 15.6426C33.2892 15.6234 33.2817 15.6051 33.2758 15.5867C33.2667 15.5584 33.2575 15.5309 33.2467 15.5034C33.2392 15.4842 33.23 15.4651 33.2208 15.4476C33.2092 15.4209 33.1967 15.3959 33.1817 15.3717C33.1717 15.3534 33.16 15.3359 33.1492 15.3184C33.1342 15.2942 33.1183 15.2709 33.1008 15.2484C33.0883 15.2317 33.075 15.2151 33.0617 15.1992C33.0433 15.1776 33.0242 15.1567 33.0042 15.1367C32.9892 15.1217 32.975 15.1059 32.9592 15.0926C32.9375 15.0734 32.9158 15.0551 32.8942 15.0376C32.8767 15.0242 32.86 15.0109 32.8425 14.9984C32.8358 14.9942 32.83 14.9884 32.8233 14.9842L20.6358 6.85925C20.2508 6.60258 19.75 6.60258 19.3642 6.85925L7.17751 14.9842C7.17084 14.9884 7.16501 14.9942 7.15834 14.9984C7.14001 15.0109 7.12334 15.0242 7.10667 15.0376C7.08417 15.0551 7.06251 15.0734 7.04167 15.0926C7.02584 15.1059 7.01084 15.1217 6.99584 15.1367C6.97584 15.1567 6.95667 15.1776 6.93917 15.1992C6.92501 15.2151 6.91167 15.2317 6.89917 15.2484C6.88251 15.2709 6.86667 15.2942 6.85167 15.3184C6.84001 15.3359 6.82917 15.3534 6.81834 15.3717C6.80417 15.3959 6.79167 15.4209 6.77917 15.4476C6.77084 15.4651 6.76167 15.4842 6.75417 15.5034C6.74251 15.5309 6.73334 15.5584 6.72417 15.5867C6.71834 15.6051 6.71167 15.6234 6.70667 15.6426C6.69834 15.6734 6.69251 15.7059 6.68667 15.7384C6.68334 15.7551 6.67917 15.7709 6.6775 15.7884C6.67084 15.8367 6.66667 15.8867 6.66667 15.9376V24.0626C6.66667 24.1126 6.67084 24.1626 6.6775 24.2126C6.67917 24.2284 6.68334 24.2451 6.68667 24.2617C6.69251 24.2942 6.69834 24.3259 6.70667 24.3576C6.71167 24.3767 6.71834 24.3951 6.72417 24.4134C6.73334 24.4409 6.74251 24.4692 6.75417 24.4976C6.76167 24.5159 6.77084 24.5342 6.77917 24.5526C6.79167 24.5784 6.80417 24.6034 6.81834 24.6292C6.82917 24.6467 6.84001 24.6642 6.85167 24.6817C6.86667 24.7059 6.88251 24.7284 6.89917 24.7509C6.91167 24.7684 6.92501 24.7851 6.93917 24.8009C6.95667 24.8217 6.97584 24.8434 6.99584 24.8626C7.01084 24.8784 7.02584 24.8934 7.04167 24.9076C7.06251 24.9267 7.08417 24.9451 7.10667 24.9626C7.12334 24.9759 7.14001 24.9892 7.15834 25.0017C7.16501 25.0059 7.17084 25.0117 7.17751 25.0159L19.3642 33.1409C19.5567 33.2692 19.7783 33.3334 20 33.3334C20.2217 33.3334 20.4433 33.2692 20.6358 33.1409L32.8233 25.0159C32.83 25.0117 32.8358 25.0059 32.8425 25.0017C32.86 24.9892 32.8767 24.9759 32.8942 24.9626C32.9158 24.9451 32.9375 24.9267 32.9592 24.9076C32.975 24.8934 32.9892 24.8784 33.0042 24.8626C33.0242 24.8434 33.0433 24.8217 33.0617 24.8009C33.075 24.7851 33.0883 24.7684 33.1008 24.7509C33.1183 24.7284 33.1342 24.7059 33.1492 24.6817C33.16 24.6642 33.1717 24.6467 33.1817 24.6292C33.1967 24.6034 33.2092 24.5784 33.2208 24.5526C33.23 24.5342 33.2392 24.5159 33.2467 24.4976C33.2575 24.4692 33.2667 24.4409 33.2758 24.4134C33.2817 24.3951 33.2892 24.3767 33.2942 24.3576C33.3025 24.3259 33.3083 24.2942 33.3142 24.2617C33.3167 24.2451 33.3208 24.2284 33.3233 24.2126C33.33 24.1626 33.3333 24.1126 33.3333 24.0626V15.9376C33.3333 15.8867 33.33 15.8367 33.3233 15.7884V15.7884ZM21.1458 9.95425L30.1242 15.9392L26.1142 18.6217L21.1458 15.2984V9.95425V9.95425ZM18.8542 9.95425V15.2984L13.8867 18.6217L9.87584 15.9392L18.8542 9.95425ZM8.95834 18.0826L11.8258 20.0001L8.95834 21.9176V18.0826V18.0826ZM18.8542 30.0459L9.87584 24.0609L13.8867 21.3792L18.8542 24.7017V30.0459V30.0459ZM20 22.7109L15.9475 20.0001L20 17.2892L24.0533 20.0001L20 22.7109ZM21.1458 30.0459V24.7017L26.1142 21.3792L30.1242 24.0609L21.1458 30.0459ZM31.0417 21.9176L28.175 20.0001L31.0417 18.0826V21.9176Z" fill="white"/>
</svg>
