<svg width="40" height="40" viewBox="0 0 40 40" fill="none" xmlns="http://www.w3.org/2000/svg">
<path d="M20.7454 21.0954C20.8858 21.0488 21.0276 21.0072 21.1702 20.9655C20.8999 20.3538 20.605 19.7407 20.2967 19.1353C14.7517 20.7962 9.43115 20.6763 9.24065 20.6692C9.23712 20.7849 9.23148 20.8964 9.23148 21.0121C9.23148 23.7793 10.275 26.3009 11.9909 28.208C11.9895 28.2052 11.9867 28.2024 11.9867 28.2024C11.9867 28.2024 14.9345 22.9749 20.7454 21.0954V21.0954ZM19.4035 17.478C17.5401 14.1661 15.549 11.4638 15.4058 11.2726C12.4022 12.6908 10.1607 15.458 9.46219 18.7931C9.74583 18.7959 14.2332 18.8524 19.4035 17.478ZM27.1123 12.9307C25.2158 11.2592 22.7259 10.2446 20.0004 10.2446C19.1255 10.2446 18.2767 10.3505 17.4618 10.5466C17.624 10.7632 19.6476 13.4471 21.4884 16.8296C25.5524 15.3049 27.0862 12.9702 27.1123 12.9307V12.9307ZM17.4216 10.5572C17.4089 10.5586 17.3983 10.56 17.3856 10.5657C17.406 10.56 17.4187 10.5572 17.4187 10.5572H17.4216V10.5572ZM13.3808 29.5013L13.383 29.4971C13.3032 29.435 13.2186 29.3786 13.1402 29.3122C13.2835 29.4287 13.3808 29.5013 13.3808 29.5013ZM22.3167 18.4333C22.5672 18.9476 22.8085 19.4698 23.0335 19.9947C23.1118 20.1838 23.1895 20.3679 23.265 20.5528C26.9649 20.0871 30.6098 20.871 30.7657 20.9027C30.741 18.3493 29.8273 16.0069 28.3167 14.1717C28.2956 14.2007 26.5691 16.6969 22.3167 18.4333V18.4333Z" fill="#FF00FF"/>
<path d="M21.8327 22.774C15.4771 24.9901 13.4027 29.4549 13.383 29.4972C15.2096 30.9231 17.5027 31.7804 19.9997 31.7804C21.4905 31.7804 22.9115 31.477 24.2041 30.9274C24.0439 29.9862 23.4188 26.6884 21.9025 22.75C21.88 22.7592 21.8567 22.7662 21.8327 22.774V22.774Z" fill="#FF00FF"/>
<path d="M20.0003 3.63843C10.4048 3.63843 2.62607 11.4186 2.62607 21.0127C2.62607 30.6082 10.4041 38.3856 20.0003 38.3856C29.5959 38.3856 37.3746 30.6082 37.3746 21.0127C37.3746 11.4186 29.5952 3.63843 20.0003 3.63843ZM31.618 25.9212C31.3026 26.6698 30.911 27.3902 30.4553 28.0626C30.0044 28.7308 29.4865 29.358 28.9157 29.9288C28.3449 30.4982 27.7184 31.0161 27.051 31.4683C26.3771 31.9234 25.6547 32.3143 24.9082 32.6311C24.1462 32.9521 23.3496 33.199 22.5396 33.3656C21.7085 33.5363 20.8541 33.6231 19.9996 33.6231C19.1452 33.6231 18.2908 33.5363 17.4596 33.3656C16.6497 33.199 15.8517 32.9521 15.0911 32.6311C14.3432 32.3143 13.6214 31.9227 12.9476 31.4683C12.2809 31.0161 11.6529 30.4982 11.0828 29.9288C10.5121 29.358 9.99417 28.7315 9.54332 28.0626C9.08824 27.3902 8.69736 26.6691 8.38057 25.9212C8.05884 25.1592 7.81119 24.3627 7.64468 23.5513C7.47605 22.7201 7.38997 21.8671 7.38997 21.0127C7.38997 20.1583 7.47605 19.3039 7.64468 18.4741C7.81119 17.6627 8.05884 16.8648 8.38057 16.1042C8.69736 15.3556 9.08895 14.6338 9.54332 13.9607C9.99417 13.2925 10.5121 12.6667 11.0828 12.0945C11.6529 11.5251 12.2802 11.0086 12.9476 10.5564C13.6214 10.1006 14.3432 9.70902 15.0911 9.39222C15.8517 9.06979 16.6497 8.82284 17.4596 8.65774C18.2908 8.48841 19.1452 8.40163 19.9996 8.40163C20.8541 8.40163 21.7085 8.48841 22.5396 8.65774C23.3496 8.82284 24.1462 9.06979 24.9082 9.39222C25.6554 9.70902 26.3771 10.1006 27.051 10.5564C27.7177 11.0086 28.3449 11.5251 28.9157 12.0945C29.4865 12.6667 30.0044 13.2918 30.4553 13.9607C30.911 14.6331 31.3026 15.3556 31.618 16.1042C31.9404 16.8648 32.1874 17.6627 32.3525 18.4741C32.5232 19.3039 32.61 20.1583 32.61 21.0127C32.61 21.8671 32.5232 22.7201 32.3525 23.5513C32.1874 24.3627 31.9412 25.1592 31.618 25.9212Z" fill="#FF00FF"/>
<path d="M23.9218 22.2517C25.3343 26.1337 25.9073 29.2946 26.018 29.9437C28.4353 28.3124 30.1533 25.7216 30.6317 22.7202C30.4101 22.649 27.3974 21.695 23.9218 22.2517V22.2517Z" fill="#FF00FF"/>
</svg>
