<svg width="36" height="35" viewBox="0 0 36 35" fill="none" xmlns="http://www.w3.org/2000/svg">
<path fill-rule="evenodd" clip-rule="evenodd" d="M17.9956 0.682373C8.39932 0.682373 0.617752 8.4623 0.617752 18.0601C0.617752 25.738 5.59707 32.2519 12.5018 34.5498C13.3702 34.7106 13.6891 34.1727 13.6891 33.7138C13.6891 33.2997 13.6732 31.9305 13.6656 30.4784C8.83107 31.5297 7.81093 28.428 7.81093 28.428C7.02035 26.4195 5.88151 25.8853 5.88151 25.8853C4.30466 24.8067 6.00036 24.8289 6.00036 24.8289C7.7452 24.9515 8.66419 26.62 8.66419 26.62C10.2141 29.2765 12.7294 28.5084 13.7212 28.0644C13.8772 26.9414 14.3274 26.1745 14.8245 25.7406C10.9647 25.3013 6.90694 23.8111 6.90694 17.1524C6.90694 15.2553 7.58587 13.705 8.69761 12.488C8.5172 12.0501 7.92231 10.2828 8.86599 7.88899C8.86599 7.88899 10.3253 7.42221 13.6459 9.67053C15.0322 9.28544 16.5189 9.09234 17.9956 9.08564C19.4724 9.09234 20.9601 9.28544 22.3489 9.67053C25.6658 7.42221 27.1231 7.88899 27.1231 7.88899C28.0689 10.2828 27.474 12.0501 27.2936 12.488C28.4079 13.705 29.082 15.2552 29.082 17.1524C29.082 23.8271 25.0167 25.2965 21.147 25.7268C21.7702 26.2661 22.3255 27.3236 22.3255 28.9449C22.3255 31.27 22.3056 33.1414 22.3056 33.7138C22.3056 34.1764 22.6184 34.7183 23.4991 34.5477C30.4003 32.2472 35.3733 25.7355 35.3733 18.0601C35.3733 8.4623 27.5928 0.682373 17.9956 0.682373V0.682373Z" fill="#FF00FF"/>
</svg>
