<svg width="40" height="41" viewBox="0 0 40 41" fill="none" xmlns="http://www.w3.org/2000/svg">
<path d="M20.1447 24.046C22.0902 24.046 23.6673 22.4688 23.6673 20.5233C23.6673 18.5779 22.0902 17.0007 20.1447 17.0007C18.1992 17.0007 16.6221 18.5779 16.6221 20.5233C16.6221 22.4688 18.1992 24.046 20.1447 24.046Z" fill="#FF00FF"/>
<path d="M24.548 11.8767H15.7415C14.4605 11.8767 13.3397 12.277 12.6192 12.9975C11.8986 13.7181 11.4983 14.8389 11.4983 16.1199V24.9264C11.4983 26.2073 11.8986 27.3282 12.6992 28.1288C13.4998 28.8493 14.5406 29.2496 15.8215 29.2496H24.548C25.829 29.2496 26.9498 28.8493 27.6703 28.1288C28.4709 27.4082 28.8712 26.2874 28.8712 25.0065V16.1999C28.8712 14.919 28.4709 13.8782 27.7504 13.0776C26.9498 12.277 25.909 11.8767 24.548 11.8767V11.8767ZM20.1447 25.9672C17.1025 25.9672 14.7007 23.4853 14.7007 20.5231C14.7007 17.4809 17.1825 15.0791 20.1447 15.0791C23.1069 15.0791 25.6688 17.4809 25.6688 20.5231C25.6688 23.5654 23.187 25.9672 20.1447 25.9672ZM25.829 16.1199C25.1084 16.1199 24.548 15.5594 24.548 14.8389C24.548 14.1184 25.1084 13.558 25.829 13.558C26.5495 13.558 27.1099 14.1184 27.1099 14.8389C27.1099 15.5594 26.5495 16.1199 25.829 16.1199Z" fill="#FF00FF"/>
<path d="M20.3048 0.668457C9.41676 0.668457 0.610229 9.47499 0.610229 20.3631C0.610229 31.2512 9.41676 40.0577 20.3048 40.0577C31.1929 40.0577 39.9995 31.2512 39.9995 20.3631C40.0795 9.47499 31.1929 0.668457 20.3048 0.668457V0.668457ZM30.7926 25.0065C30.7926 26.8479 30.1522 28.4491 29.0313 29.5699C27.9105 30.6907 26.3093 31.2512 24.548 31.2512H15.8215C14.0602 31.2512 12.459 30.6907 11.3382 29.5699C10.1373 28.4491 9.57688 26.8479 9.57688 25.0065V16.2C9.57688 12.5173 12.0587 9.95535 15.8215 9.95535H24.6281C26.4694 9.95535 27.9905 10.5958 29.1114 11.7167C30.2322 12.8375 30.7926 14.3586 30.7926 16.2V25.0065V25.0065Z" fill="#FF00FF"/>
</svg>
