<svg width="40" height="40" viewBox="0 0 40 40" fill="none" xmlns="http://www.w3.org/2000/svg">
<path fill-rule="evenodd" clip-rule="evenodd" d="M20 40C31.0457 40 40 31.0457 40 20C40 8.95431 31.0457 0 20 0C8.95431 0 0 8.95431 0 20C0 31.0457 8.95431 40 20 40Z" fill="#FF00FF"/>
<path fill-rule="evenodd" clip-rule="evenodd" d="M10 14.5345V25.8597C10 26.4758 10.451 26.9752 11.0723 26.9752H28.7471C29.3677 26.9752 29.8194 26.47 29.8194 25.8597V14.5345C29.8194 13.8584 29.4155 13.3333 28.7471 13.3333H11.0723C10.3781 13.3333 10 13.8713 10 14.5345ZM11.6297 15.521C11.6297 15.2481 11.7948 15.092 12.0587 15.092C12.2219 15.092 18.6445 19.1616 19.0335 19.4003L20.0387 20.0255C20.3574 19.812 20.6774 19.6294 21.0077 19.4081C21.6819 18.9771 27.6806 15.092 27.8458 15.092C28.1103 15.092 28.2748 15.2481 28.2748 15.521C28.2748 15.81 27.7181 16.0971 27.3555 16.3184C25.0774 17.7068 22.8 19.2203 20.5445 20.6603C20.4129 20.7494 20.1581 20.9397 19.9671 20.9107C19.7542 20.8778 13.2187 16.6791 12.0297 15.9797C11.851 15.8745 11.6297 15.7784 11.6297 15.521" fill="white"/>
</svg>
