<svg width="35" height="35" viewBox="0 0 35 35" fill="none" xmlns="http://www.w3.org/2000/svg">
<path fill-rule="evenodd" clip-rule="evenodd" d="M35 4.28935C35 1.92199 33.078 0 30.7107 0H4.28935C1.92199 0 0 1.92199 0 4.28935V30.7107C0 33.078 1.92199 35 4.28935 35H30.7107C33.078 35 35 33.078 35 30.7107V4.28935ZM19.383 17.5001C19.383 22.11 15.6713 25.847 11.093 25.847C6.51472 25.847 2.80273 22.11 2.80273 17.5001C2.80273 12.8903 6.51437 9.15298 11.093 9.15298C15.6716 9.15298 19.383 12.8903 19.383 17.5001ZM28.4774 17.5001C28.4774 21.8393 26.6216 25.3584 24.3323 25.3584C22.043 25.3584 20.1871 21.8393 20.1871 17.5001C20.1871 13.161 22.0427 9.64195 24.332 9.64195C26.6213 9.64195 28.4771 13.1598 28.4771 17.5001H28.4774ZM32.1973 17.5001C32.1973 21.387 31.5446 24.5399 30.7394 24.5399C29.9342 24.5399 29.2818 21.3879 29.2818 17.5001C29.2818 13.6124 29.9344 10.4604 30.7394 10.4604C31.5444 10.4604 32.1973 13.6121 32.1973 17.5001Z" fill="#FF00FF"/>
</svg>
