<svg width="176" height="232" fill="none" xmlns="http://www.w3.org/2000/svg">
  <path d="M27.031 32.863l-8.895 8.895 8.895 8.895v-17.79zM80.107 232.06v-84.397h2.738v84.397" fill="#023755"/>
  <path d="M63.425 185.13l1.36-2.74 43.479-.246-16.838-34.503 2.46-1.202 18.751 38.415-49.212.276z" fill="#023755"/>
  <path d="M67.534 182.272v15.627l-15.653-15.627h15.653z" fill="#FF636F"/>
  <path d="M60.418 25.842H50.83v9.588l9.587-9.588z" fill="#DE5661"/>
  <path d="M150.258 171.195l-21.094-21.094h21.094v21.094z" fill="#023755"/>
  <path d="M88.69 59.329l-46.853 46.85L21.108 85.45l49.09-49.758v-9.658H59.703L0 85.494l31.376 31.148 33.261 33.459h110.836L88.689 59.329z" fill="#FF636F"/>
  <path d="M70.199 26.034H18.13L44.165 0l26.034 26.034z" fill="#FF7D87"/>
  <path d="M18.136 41.759V26.034h15.725L18.136 41.76z" fill="#FFF3E6"/>
  <path d="M164.16 165.25L41.71 106.178l102.891-34.506 19.559 93.578z" fill="#FF7D87"/>
  <path d="M152.963 143.387l-109.245-39.38 82.738-37.359 26.507 76.739z" fill="#FF8B94"/>
  <path d="M141.768 121.524l-96.044-19.691 62.588-40.21 33.456 59.901z" fill="#FF98A0"/>
  <path d="M130.571 99.66h-82.84l42.437-43.062L130.57 99.66z" fill="#FFA6AD"/>
  <path d="M111.849 100.078l-66.07 1.745 33.177-35.787 32.893 34.042z" fill="#FFBDBD"/>
  <path d="M93.128 100.496l-49.3 3.489 23.914-28.51 25.386 25.021z" fill="#FFD4CE"/>
  <path d="M74.405 100.912l-32.53 5.235 14.653-21.234 17.877 15.999z" fill="#FFEBDE"/>
  <path d="M34.915 23.949a4.41 4.41 0 100-8.822 4.41 4.41 0 000 8.822z" fill="#FFD9DA"/>
  <path d="M34.915 23.18a3.643 3.643 0 100-7.285 3.643 3.643 0 000 7.286z" fill="#fff"/>
  <path d="M34.916 21.263a1.725 1.725 0 100-3.45 1.725 1.725 0 000 3.45z" fill="#023755"/>
</svg>
