<svg width="214" height="284" fill="none" xmlns="http://www.w3.org/2000/svg">
  <path d="M95.308 283.97V178.619h-3.342V283.97M116.305 283.969V180.088h-3.339v103.881" fill="#023755"/>
  <path d="M106.285 232.904l8.352 8.352 8.351-8.352-8.351-8.351-8.352 8.351zM85.285 232.904l8.351 8.352 8.352-8.352-8.352-8.351-8.351 8.351z" fill="#FF636F"/>
  <path d="M140.316 32.474h11.692v11.693l-11.692-11.693z" fill="#DE5661"/>
  <path d="M30.753 209.74l25.724-25.725H30.753v25.725z" fill="#023755"/>
  <path d="M105.84 73.313l57.135 57.137 25.283-25.281-59.869-60.682V32.708h12.8L214 105.223l-38.264 37.987-40.565 40.805H0L105.84 73.313z" fill="#FF636F"/>
  <path d="M128.389 32.708h63.5L160.139.958l-31.75 31.75z" fill="#FF7D87"/>
  <path d="M191.883 51.885V32.708h-19.177l19.177 19.177z" fill="#FFF3E6"/>
  <path d="M181.034 41.037l10.848 10.848-10.848 10.848V41.037z" fill="#023755"/>
  <path d="M13.798 202.492l149.335-72.042L37.651 88.367 13.798 202.492z" fill="#FF7D87"/>
  <path d="M27.453 175.827l133.231-48.026L59.78 82.241l-32.327 93.586z" fill="#FF8B94"/>
  <path d="M41.105 149.165l117.131-24.016-76.33-49.038-40.801 73.054z" fill="#FF98A0"/>
  <path d="M54.76 122.5h101.028l-51.753-52.518L54.76 122.5z" fill="#FFA6AD"/>
  <path d="M77.594 123.008l80.575 2.128-40.458-43.644-40.117 41.516z" fill="#FFBDBD"/>
  <path d="M100.425 123.518l60.125 4.255-29.165-34.77-30.96 30.515z" fill="#FFD4CE"/>
  <path d="M123.258 124.025l39.672 6.384-17.869-25.895-21.803 19.511z" fill="#FFEBDE"/>
  <path d="M171.419 30.165a5.379 5.379 0 100-10.758 5.379 5.379 0 000 10.758z" fill="#FFD9DA"/>
  <path d="M171.419 29.228a4.442 4.442 0 100-8.884 4.442 4.442 0 000 8.884z" fill="#fff"/>
  <path d="M171.419 26.89a2.104 2.104 0 100-4.208 2.104 2.104 0 000 4.208z" fill="#023755"/>
</svg>
