<svg width="210" height="240" fill="none" xmlns="http://www.w3.org/2000/svg">
  <path d="M135.29 270.58c74.719 0 135.29-60.571 135.29-135.29S210.009 0 135.29 0 0 60.571 0 135.29s60.571 135.29 135.29 135.29z" fill="#FFFCE6" fill-opacity=".5"/>
  <path d="M135.29 243.379c59.696 0 108.089-48.393 108.089-108.089S194.986 27.201 135.29 27.201 27.2 75.594 27.2 135.29s48.394 108.089 108.09 108.089z" fill="#FFFCE6"/>
  <path d="M135.29 218.972c46.216 0 83.682-37.465 83.682-83.682 0-46.216-37.466-83.682-83.682-83.682S51.608 89.074 51.608 135.29c0 46.217 37.466 83.682 83.682 83.682z" fill="#FFC9AB"/>
</svg>
